/* XPM */
static xpm_row_t const GAMETYPE_[] = {
/* columns rows colors chars-per-pixel */
"229 41 2 1 ",
"  c #FFFFFF",
". c None",
/* pixels */
".....................................................................................................................................................................................................................................",
".....................................................................................................................................................................................................................................",
".....................................................................................................................................................................................................................................",
".....................................................................................................................................................................................................................................",
".....................................................................................................................................................................................................................................",
".....................................................................................................................................................................................................................................",
".....................................................................................................................................................................................................................................",
".....................................................................................................................................................................................................................................",
"............        ...............  .............     ......     .......               ...............................               .......  ...........  ........             ..........               ...........................",
"...........         ..............   .............     .....      .......                ..............................               .......   .........    .......              .........                ..........................",
"..........          ..............   .............      ....      .......               ...............................               .......   .........    .......               ........               ...........................",
".........    .....................    ............      ...       .......   ...........................................   ...   ...   .......   .........    .......   .........   ........   .......................................",
"........    .....................     ............       .        .......   ...........................................   ...   ...   .......    ........    .......   .........    .......   .......................................",
"........    .....................     ............   .       .    .......   ...........................................  ....   ....  .......    .......    ........   .........    .......   .......................................",
".......    ......................      ...........   .       .    .......   .................................................   ..............    .....    .........   .........    .......   .........................     .........",
"......    .......................      ...........   ..     ..    .......   .................................................   ...............    ....    .........   .........    .......   .........................      ........",
".....    .......................       ...........   ...    ..    .......   .................................................   ................    ..    ..........   .........    .......   .........................      ........",
".....    .......................   .   ...........   ...   ...    .......   .................................................   ................    .    ...........   .........    .......   .........................      ........",
".....   ........................   .    ..........   ...   ...    .......   .................................................   .................       ............   .........    .......   .........................     .........",
".....   .......................    ..   ..........   ....  ...    .......         ...........................................   ..................      ............   .........    .......         .................................",
".....   .......................   ...   ..........   .........    .......         ...........................................   ...................    .............   .........   ........         .................................",
".....   .......................   ...    .........   .........    .......         ...........................................   ...................   ..............               ........         .................................",
".....   .....       ...........   ....   .........   .........    .......   .................................................   ...................   ..............              .........   .......................................",
".....   .....       ..........    ....   .........   .........    .......   .................................................   ...................   ..............             ..........   .......................................",
".....   .....       ..........   .....   .........   .........    .......   .................................................   ...................   ..............   ....................   .........................     .........",
".....   .........   ..........            ........   .........    .......   .................................................   ...................   ..............   ....................   .........................      ........",
".....   .........   .........             ........   .........    .......   .................................................   ...................   ..............   ....................   .........................      ........",
".....   .........   .........             ........   .........    .......   .................................................   ...................   ..............   ....................   .........................      ........",
".....   .........   .........   .......    .......   .........    .......   .................................................   ...................   ..............   ....................   .........................     .........",
".....   .........   .........   ........   .......   .........    .......   .................................................   ...................   ..............   ....................   .......................................",
".....   .........   ........   .........   .......   .........    .......   .................................................   ...................   ..............   ....................   .......................................",
".....               ........   .........   .......   .........    .......               .....................................   ...................   ..............   ....................               ...........................",
"......             .........   .........   .......   .........    .......                ....................................   ...................   ..............   ....................                ..........................",
"........          ..........  ...........  .......  ...........  ........               ......................................  ....................  ..............  .....................               ...........................",
".....................................................................................................................................................................................................................................",
".....................................................................................................................................................................................................................................",
".....................................................................................................................................................................................................................................",
".....................................................................................................................................................................................................................................",
".....................................................................................................................................................................................................................................",
".....................................................................................................................................................................................................................................",
"....................................................................................................................................................................................................................................."
};
