/* XPM */
static xpm_row_t const OPTIONS_[] = {
/* columns rows colors chars-per-pixel */
"191 38 18 1 ",
"  c #008D36",
". c #0E9341",
"X c #1E9A4D",
"o c #2DA059",
"O c #3DA765",
"+ c #4CAD71",
"@ c #5BB47D",
"# c #6BBA89",
"$ c #7AC195",
"% c #89C7A1",
"& c #99CEAD",
"* c #A8D4B9",
"= c #B8DBC5",
"- c #C7E1D1",
"; c #D6E8DD",
": c #E6EEE9",
"> c #FFFFFF",
", c None",
/* pixels */
",,,,,,,,,,,,,,,,,,,,,,,,,,,,,,,,,,,,,,,,,,,,,,,,,,,,,,,,,,,,,,,,,,,,,,,,,,,,,,,,,,,,,,,,,,,,,,,,,,,,,,,,,,,,,,,,,,,,,,,,,,,,,,,,,,,,,,,,,,,,,,,,,,,,,,,,,,,,,,,,,,,,,,,,,,,,,,,,,,,,,,,,,,,,,,,",
",,,,,,,,,,>>>>>>>>>>>>>>>>>>>>>>>>>>>>>>>>>>>>>>>>>>>>>>>>>>>>>>>>>>>>>>>>>>>>>>>>>>>>>>>>>>>>>>>>>>>>>>>>>>>>>>>>>>>>>>>>>>>>>>>>>>>>>>>>>>>>>>>>>>>>>>>>>>>>>>>>>>>>>>>>>>>>>>>>>>>,,,,,,,,,,",
",,,,,,,>>>>>>>>>>>>>>>>>>>>>>>>>>>>>>>>>>>>>>>>>>>>>>>>>>>>>>>>>>>>>>>>>>>>>>>>>>>>>>>>>>>>>>>>>>>>>>>>>>>>>>>>>>>>>>>>>>>>>>>>>>>>>>>>>>>>>>>>>>>>>>>>>>>>>>>>>>>>>>>>>>>>>>>>>>>>>>>>,,,,,,,,",
",,,,,,>>>>>>>>>>>>>>>>>>>>>>>>>>>>>>>>>>>>>>>>>>>>>>>>>>>>>>>>>>>>>>>>>>>>>>>>>>>>>>>>>>>>>>>>>>>>>>>>>>>>>>>>>>>>>>>>>>>>>>>>>>>>>>>>>>>>>>>>>>>>>>>>>>>>>>>>>>>>>>>>>>>>>>>>>>>>>>>>>>,,,,,,,",
",,,,,>>>>>>>>>>>>>>>>>>>>>>>>>>>>>>>>>>>>>>>>>>>>>>>>>>>>>>>>>>>>>>>>>>>>>>>>>>>>>>>>>>>>>>>>>>>>>>>>>>>>>>>>>>>>>>>>>>>>>>>>>>>>>>>>>>>>>>>>>>>>>>>>>>>>>>>>>>>>>>>>>>>>>>>>>>>>>>>>>>>>>,,,,,",
",,,,>>>>>>>>>>>>>>>>>>>>>>>>>>>>>>>>>>>>>>>>>>>>>>>>>>>>>>>>>>>>>>>>>>>>>>>>>>>>>>>>>>>>>>>>>>>>>>>>>>>>>>>>>>>>>>>>>>>>>>>>>>>>>>>>>>>>>>>>>>>>>>>>>>>>>>>>>>>>>>>>>>>>>>>>>>>>>>>>>>>>>>>,,,,",
",,,>>>>>>>>>>>>>>>>>>>;O   +:>>>>>>>>>>>=            X*>>>>>>>>=                >>>>>>>%              +>>>>>>>>>>>>-O   @:>>>>>>>>>>>$    =>>>>>>>=..=>>>>>>>>=O          @:>>>>>>>>>>>>>>>,,,,",
",,>>>>>>>>>>>>>>>>>>>:X     o>>>>>>>>>>>=              $>>>>>>>=                >>>>>>>X               ->>>>>>>>>>:.     O>>>>>>>>>>>$    @>>>>>>>+  @>>>>>>>#             o:>>>>>>>>>>>>>>>,,,",
",,>>>>>>>>>>>>>>>>>>>$       &>>>>>>>>>>=               =>>>>>>=                >>>>>>>+              .>>>>>>>>>>>@       &>>>>>>>>>>$     :>>>>>>O  O>>>>>>:               $>>>>>>>>>>>>>>>>,,",
",>>>>>>>>>>>>>>>>>>>:.   o   X>>>>>>>>>>=   $$$$$$$$X   @>>>>>>=   @$$X  O$$O   >>>>>>>:%$$$$O   $$$$$;>>>>>>>>>>;    O   O>>>>>>>>>>$     $>>>>>>O  O>>>>>>=   O$$$$$$$+   X>>>>>>>>>>>>>>>>,,",
",>>>>>>>>>>>>>>>>>>>$   %>@   &>>>>>>>>>=   >>>>>>>>>X  O>>>>>>-   =>>O  $>>$   >>>>>>>>>>>>>$   >>>>>>>>>>>>>>>>$   %>+   =>>>>>>>>>$     X>>>>>>O  O>>>>>>;   #>>>>>>>>+   >>>>>>>>>>>>>>>>>,",
",>>>>>>>>>>>>>>>>>>>X  .:>;   O>>>>>>>>>=   >>>>>>>>>#  O>>>>>>>X X>>>O  $>>;  +>>>>>>>>>>>>>$   >>>>>>>>>>>>>>>:.  X>>;   O>>>>>>>>>$      *>>>>>O  O>>>>>>>+   *>>>>>>>;  +>>>>>>>>>>>>>>>>>,",
">>>>>>>>>>>>>>>>>>>&   $>>>@   =>>>>>>>>=   >>>>>>>>>$  O>>>>>>>:*:>>>O  $>>>;&>>>>>>>>>>>>>>$   >>>>>>>>>>>>>>>$   &>>>O   ;>>>>>>>>$      +>>>>>O  O>>>>>>>*   .;>>>>>>>-%:>>>>>>>>>>>>>>>>>,",
">>>>>>>>>>>>>>>>>>>X  .:>>>;   O>>>>>>>>=   >>>>>>>>>$  O>>>>>>>>>>>>>O  $>>>>>>>>>>>>>>>>>>>$   >>>>>>>>>>>>>>>X  .>>>>=   @>>>>>>>>$   +   ;>>>>O  O>>>>>>>>+   o>>>>>>>>>>>>>>>>>>>>>>>>>>>,",
">>>>>>>>>>>>>>>>>>*   @>>>>>+   ;>>>>>>>=   >>>>>>>>>$  O>>>>>>>>>>>>>O  $>>>>>>>>>>>>>>>>>>>$   >>>>>>>>>>>>>>&   $>>>>>O   ;>>>>>>>$   *   #>>>>O  O>>>>>>>>:X   #>>>>>>>>>>>>>>>>>>>>>>>>>>,",
">>>>>>>>>>>>>>>>>>O   ;>>>>>=   @>>>>>>>=   >>>>>>>>>$  O>>>>>>>>>>>>>O  $>>>>>>>>>>>>>>>>>>>$   >>>>>>>>>>>>>>X  .:>>>>>*   #>>>>>>>$   >X  .>>>>O  O>>>>>>>>>-    =>>>>>>>>>>>>>>>>>>>>>>>>>,",
">>>>>>>>>>>>>>>>>-   @>>>>>>>O   :>>>>>>=   >>>>>>>>>$  O>>>>>>>>>>>>>O  $>>>>>>>>>>>>>>>>>>>$   >>>>>>>>>>>>>*   #>>>>>>>X  .>>>>>>>$   >%   &>>>O  O>>>>>>>>>>%   .:>>>>>>>>>>>>>>>>>>>>>>>>,",
">>>>>>>>>>>>>>>>>$   =>>>>>>>*   &>>>>>>=   >>>>>>>>>+  O>>>>>>>>>>>>>O  $>>>>>>>>>>>>>>>>>>>$   >>>>>>>>>>>>>$   ;>>>>>>>%   =>>>>>>$   >:   o>>>O  O>>>>>>>>>>>O   O>>>>>>>>>>>>>>>>>>>>>>>>,",
">>>>>>>>>>>>>>>>>#   >>>>>>>>;   $>>>>>>=   >>>>>>>>&   O>>>>>>>>>>>>>O  $>>>>>>>>>>>>>>>>>>>$   >>>>>>>>>>>>>O  .>>>>>>>>-   $>>>>>>$   >>@   ->>O  O>>>>>>>>>>>:.   $>>>>>>>>>>>>>>>>>>>>>>>,",
">>>>>>>>>>>>>>>>>O  X>>>>>>>>>   $>>>>>>=               &>>>>>>>>>>>>>O  $>>>>>>>>>>>>>>>>>>>$   >>>>>>>>>>>>>O  o>>>>>>>>:   $>>>>>>$   >>=   @>>O  O>>>>>>>>>>>>=    =>>>>>>>>>>>>>>>>>>>>>>,",
">>>>>>>>>>>>>>>>>$   :>>>>>>>-   $>>>>>>=              o>>>>>>>>>>>>>>O  $>>>>>>>>>>>>>>>>>>>$   >>>>>>>>>>>>>+   >>>>>>>>=   &>>>>>>$   >>>o  .:>O  O>>>>>>>>>>>>>$   X:>>>>>>>>>>>>>>>>>>>>>,",
">>>>>>>>>>>>>>>>>&   &>>>>>>>$   =>>>>>>=             o:>>>>>>>>>>>>>>O  $>>>>>>>>>>>>>>>>>>>$   >>>>>>>>>>>>>%   *>>>>>>>@   ->>>>>>$   >>>&   %>O  O>>>>>>>>>>>>>>O   +>>>>>>>>>>>>>>>>>>>>>,",
">>>>>>>>>>>>>>>>>:   X>>>>>>:.  X>>>>>>>=   $$$$$$$$$*>>>>>>>>>>>>>>>>O  $>>>>>>>>>>>>>>>>>>>$   >>>>>>>>>>>>>;   O>>>>>>:.  X>>>>>>>$   >>>:.  X>O  O>>>>>>>>>>>>>>;.   %>>>>>>>>>>>>>>>>>>>>,",
">>>>>>>>>>>>>>>>>>@   *>>>>>&   $>>>>>>>=   >>>>>>>>>>>>>>>>>>>>>>>>>>O  $>>>>>>>>>>>>>>>>>>>$   >>>>>>>>>>>>>>@   =>>>>>$   &>>>>>>>$   >>>>@   =O  O>>>>>>>>>>>>>>>*    ->>>>>>>>>>>>>>>>>>>,",
">>>>>>>>>>>>>>>>>>;   O>>>>>X  .:>>>>>>>=   >>>>>>>>>>>>>>>>>>>>>>>>>>O  $>>>>>>>>>>>>>>>>>>>$   >>>>>>>>>>>>>>=   O>>>>:.  X>>>>>>>>$   >>>>;   +O  O>>>>>>>>>>>>>>>>#   X:>>>>>>>>>>>>>>>>>>,",
">>>>>>>>>>>>>>>>>>>@   =>>>&   $>>>>>>>>=   >>>>>>>>>>>>>>>>>>>>>>>>>>O  $>>>>>>>>>>>>>>>>>>>$   >>>>>>>>>>>>>>>O   ;>>>$   $>>>>>>>>$   >>>>>O   X  O>>>>>>>>>>>>>>>>>o   @>>>>>>>>>>>>>>>>>>,",
">>>>>>>>>>>>>>>>>>>-   O>>>X   :>>>>>>>>=   >>>>>>>>>>>>>>>>>>>>>>>>>>O  $>>>>>>>>>>>>>>>>>>>$   >>>>>>>>>>>>>>>=   @>>>X  .:>>>>>>>>$   >>>>>&      O>>>>>>>#O&>>>>>>>;.   =>>>>>>>>>>>>>>>>>,",
",>>>>>>>>>>>>>>>>>>>O   ->&   @>>>>>>>>>=   >>>>>>>>>>>>>>>>>>>>>>>>>>O  $>>>>>>>>>>>>>>>>>>>$   >>>>>>>>>>>>>>>>o   ;>&   $>>>>>>>>>$   >>>>>>.     O>>>>>>-   :>>>>>>>&   @>>>>>>>>>>>>>>>>>,",
",>>>>>>>>>>>>>>>>>>>=   O-o   ;>>>>>>>>>=   >>>>>>>>>>>>>>>>>>>>>>>>>>O  $>>>>>>>>>>>>>>>>>>>$   >>>>>>>>>>>>>>>>&   +=X   :>>>>>>>>>$   >>>>>>$     O>>>>>>=   #>>>>>>>>O  .>>>>>>>>>>>>>>>>,,",
",>>>>>>>>>>>>>>>>>>>>O       @>>>>>>>>>>=   >>>>>>>>>>>>>>>>>>>>>>>>>>O  $>>>>>>>>>>>>>=X            .$>>>>>>>>>>>X       @>>>>>>>>>>$   >>>>>>;     O>>>>>>:               O>>>>>>>>>>>>>>>>,,",
",,>>>>>>>>>>>>>>>>>>>-       =>>>>>>>>>>=   >>>>>>>>>>>>>>>>>>>>>>>>>>O  $>>>>>>>>>>>>>X               ;>>>>>>>>>>*       ;>>>>>>>>>>$   >>>>>>>+    O>>>>>>>#              &>>>>>>>>>>>>>>>,,,",
",,,>>>>>>>>>>>>>>>>>>>&     %>>>>>>>>>>>;  X>>>>>>>>>>>>>>>>>>>>>>>>>>@  &>>>>>>>>>>>>>O               :>>>>>>>>>>>&     &>>>>>>>>>>>=  O>>>>>>>=    O>>>>>>>:o            O:>>>>>>>>>>>>>>>,,,",
",,,>>>>>>>>>>>>>>>>>>>>;%+#=>>>>>>>>>>>>>&#=>>>>>>>>>>>>>>>>>>>>>>>>>>;#$:>>>>>>>>>>>>>;@OOOOOOOOOOOO+=>>>>>>>>>>>>>;%O#=>>>>>>>>>>>>>&@;>>>>>>>>+OOO#>>>>>>>>>&+OOOOOOOO+=>>>>>>>>>>>>>>>>,,,,",
",,,,>>>>>>>>>>>>>>>>>>>>>>>>>>>>>>>>>>>>>>>>>>>>>>>>>>>>>>>>>>>>>>>>>>>>>>>>>>>>>>>>>>>>>>>>>>>>>>>>>>>>>>>>>>>>>>>>>>>>>>>>>>>>>>>>>>>>>>>>>>>>>>>>>>>>>>>>>>>>>>>>>>>>>>>>>>>>>>>>>>>>>>,,,,,",
",,,,,>>>>>>>>>>>>>>>>>>>>>>>>>>>>>>>>>>>>>>>>>>>>>>>>>>>>>>>>>>>>>>>>>>>>>>>>>>>>>>>>>>>>>>>>>>>>>>>>>>>>>>>>>>>>>>>>>>>>>>>>>>>>>>>>>>>>>>>>>>>>>>>>>>>>>>>>>>>>>>>>>>>>>>>>>>>>>>>>>>>>,,,,,,",
",,,,,,,>>>>>>>>>>>>>>>>>>>>>>>>>>>>>>>>>>>>>>>>>>>>>>>>>>>>>>>>>>>>>>>>>>>>>>>>>>>>>>>>>>>>>>>>>>>>>>>>>>>>>>>>>>>>>>>>>>>>>>>>>>>>>>>>>>>>>>>>>>>>>>>>>>>>>>>>>>>>>>>>>>>>>>>>>>>>>>>>>,,,,,,,",
",,,,,,,,>>>>>>>>>>>>>>>>>>>>>>>>>>>>>>>>>>>>>>>>>>>>>>>>>>>>>>>>>>>>>>>>>>>>>>>>>>>>>>>>>>>>>>>>>>>>>>>>>>>>>>>>>>>>>>>>>>>>>>>>>>>>>>>>>>>>>>>>>>>>>>>>>>>>>>>>>>>>>>>>>>>>>>>>>>>>>>,,,,,,,,,",
",,,,,,,,,,,>>>>>>>>>>>>>>>>>>>>>>>>>>>>>>>>>>>>>>>>>>>>>>>>>>>>>>>>>>>>>>>>>>>>>>>>>>>>>>>>>>>>>>>>>>>>>>>>>>>>>>>>>>>>>>>>>>>>>>>>>>>>>>>>>>>>>>>>>>>>>>>>>>>>>>>>>>>>>>>>>>>>>>>>,,,,,,,,,,,,"
};
