/* XPM */
static xpm_row_t const PAUSE_[] = {
/* columns rows colors chars-per-pixel */
"166 34 2 1 ",
"  c #93C01F",
". c None",
/* pixels */
"......................................................................................................................................................................",
"                 .....................   ..................   .............   ...........                ...........                    ..........            ........",
"                   ..................     ................    ............    ..........                  ..........                    .........              .......",
"                   ..................     ................     ...........    ..........                   .........                    .........               ......",
"                    .................     ................     ...........    .........                    .........                    ..........               .....",
"     ..........     ................      ................     ...........    .........     ..........     .........     ............................     .      .....",
"     ...........    ................       ...............     ...........    .........     ...........     ........     ............................     ...     ....",
"     ...........    ................       ...............     ...........    ..........     ...........   .........     ............................     ...     ....",
"     ...........    ...............        ...............     ...........    ..........      ..........  ..........     ............................     ....    ....",
"     ...........    ...............        ...............     ...........    ...........     ......................     ............................     ....     ...",
"     ...........    ...............         ..............     ...........    ...........      .....................     ............................     ....     ...",
"     ...........    ...............         ..............     ...........    ............      ....................     ............................     .....     ..",
"     ...........    ..............     .    ..............     ...........    .............      ...................     ............................     .....     ..",
"     ...........    ..............     .    ..............     ...........    ..............     ...................     ............................     ......     .",
"     ...........    ..............    ..     .............     ...........    ..............      ..................     ............................     ......     .",
"     ...........    ..............    ...    .............     ...........    ...............      .................            .....................     .......    .",
"     ..........     .............     ...    .............     ...........    ................     .................            .....................     .......    .",
"                    .............     ...     ............     ...........    .................     ................            .....................     .......     ",
"                   ..............    ....     ............     ...........    .................      ...............            .....................     .......    .",
"                   .............     .....    ............     ...........    ..................      ..............           ......................     .......    .",
"                 ...............     .....    ............     ...........    ...................     ..............     ............................     ......     .",
"              ..................    ......     ...........     ...........    ....................     .............     ............................     ......     .",
"     ...........................               ...........     ...........    ....................      ............     ............................     .....     ..",
"     ..........................                ...........     ...........    .....................      ...........     ............................     .....     ..",
"     ..........................                ...........     ...........    ......................     ...........     ............................     ....     ...",
"     ..........................                 ..........     ...........    .......................     ..........     ............................     ....     ...",
"     ..........................                 ..........     ...........    ..........   ..........      .........     ............................     ...     ....",
"     .........................     .........    ..........     ...........    .........    ...........     .........     ............................     ...     ....",
"     .........................    ..........     .........     ...........    .........     ...........     ........     ............................     ..     .....",
"     .........................    ..........     .........                    .........                     ........                  .............              .....",
"     ........................     ...........    ..........                   ..........                   .........                    ..........              ......",
"     ........................     ...........    ..........                  ...........                   .........                    .........               ......",
"    .........................    ............    ...........                .............                 ..........                    .........              .......",
".   ..........................   .............   .............             ...............               ...........                    ..........            ........"
};
