/* XPM */
static xpm_row_t const PLAYER2WON[] = {
/* columns rows colors chars-per-pixel */
"355 53 2 1 ",
"  c #93C01F",
". c None",
/* pixels */
"...................................................................................................................................................................................................................................................................................................................................................................",
"...................................................................................................................................................................................................................................................................................................................................................................",
"...................................................................................................................................................................................................................................................................................................................................................................",
"...................................................................................................................................................................................................................................................................................................................................................................",
"...................................................................................................................................................................................................................................................................................................................................................................",
"...................................................................................................................................................................................................................................................................................................................................................................",
"...................................................................................................................................................................................................................................................................................................................................................................",
"...................................................................................................................................................................................................................................................................................................................................................................",
"...................................................................................................................................................................................................................................................................................................................................................................",
"...................................................................................................................................................................................................................................................................................................................................................................",
".....                ..............  ...................................  ...................  ..............  ..........                   ...........                ..........................................                  .........................................  ..............  ..................    .................     ............  ...........",
".....                  ...........    .................................    .................    ............    .........                    ..........                  ........................................                   .......................................    ............    ...............       ................      ..........    ..........",
".....                   ..........    .................................    .................    ............    .........                    ..........                   .......................................                   .......................................    ............    ..............         ...............      ..........    ..........",
".....                   ..........    .................................    .................    ............    .........                   ...........                   .......................................                    ......................................    ............    ..............          ..............       .........    ..........",
".....    ...........     .........    ................................     .................    ............    .........    ..........................    ...........    .......................................................    ......................................    ............    .............     ..    ..............       .........    ..........",
".....    ............    .........    ................................      ................    ...........     .........    ..........................    ............    ......................................................    ......................................    ............    .............    ...     .............       .........    ..........",
".....    ............    .........    ................................      ................     ..........     .........    ..........................    ............    ......................................................    ......................................    ............    ............     ....    .............        ........    ..........",
".....    ............    .........    ...............................       .................     ........     ..........    ..........................    ............    ......................................................    ......................................    ............    ............    .....    .............        ........    ..........",
".....    ............    .........    ...............................        ................     .......     ...........    ..........................    ............    ......................................................    ......................................    ............    ............    ......    ............         .......    ..........",
".....    ............    .........    ...............................        .................     .....     ............    ..........................    ............    ......................................................    ......................................    ............    ...........    .......    ............    .    .......    ..........",
".....    ............    .........    ...............................        ..................     ....     ............    ..........................    ...........    .......................................................    ......................................    ............    ...........    ........    ...........    .    .......    ..........",
".....    ............    .........    ..............................    .    ...................     ..     .............    ..........................                   .......................................................    ......................................    .....  .....    ..........    .........    ...........    ..    ......    ..........",
".....    ............    .........    ..............................    ..    ..................     .     ..............    ..........................                   .......................................................    ......................................    ....    ....    ..........    ..........    ..........    ..    ......    ..........",
".....    ............    .........    ..............................    ..    ...................         ...............    ..........................                  ........................................................    ......................................    ....    ....    .........    ...........    ..........    ..     .....    ..........",
".....    ............    .........    .............................     ..    ....................        ...............           ...................                ............................................                  ......................................    ....    ....    .........    ...........    ..........    ...    .....    ..........",
".....    ...........     .........    .............................    ...    .....................      ................            ..................    ...     ...............................................                  .......................................    ....    ....    .........    ............    .........    ...    .....    ..........",
".....                   ..........    .............................    ....    ....................     .................            ..................    ....    ..............................................                   .......................................    ....    ....    .........    ............    .........    ....    ....    ..........",
".....                   ..........    .............................    ....    .....................    .................           ...................    ....     .............................................                  ........................................    ....    ....    .........    ............    .........    ....    ....    ..........",
".....                  ...........    ............................    .....    .....................    .................    ..........................    .....    .............................................    ......................................................    ....    ....    .........    ...........    ..........    ....     ...    ..........",
".....                .............    ............................    ......    ....................    .................    ..........................    .....     ............................................    ......................................................    ....    ....    .........    ...........    ..........    .....    ...    ..........",
".....    .........................    ............................    ......    ....................    .................    ..........................    ......    ............................................    ......................................................    ....    ....    ..........    ..........    ..........    .....    ...    ..........",
".....    .........................    ...........................     ......    ....................    .................    ..........................    ......     ...........................................    ......................................................    ....    ....    ..........    .........    ...........    ......    ..    ..........",
".....    .........................    ...........................               ....................    .................    ..........................    .......    ...........................................    ......................................................    ....    ....    ...........    ........    ...........    ......    ..    ..........",
".....    .........................    ...........................                ...................    .................    ..........................    .......     ..........................................    ......................................................    ....    ....    ...........    .......    ............    ......     .    ..........",
".....    .........................    ...........................                ...................    .................    ..........................    ........    ..........................................    ......................................................    ....    ....    ............    ......    ............    .......    .    ..........",
".....    .........................    ..........................                 ...................    .................    ..........................    .........    .........................................    ......................................................    ....    ....    ............    .....    .............    .......         ..........",
".....    .........................    ..........................    .........     ..................    .................    ..........................    .........     ........................................    ......................................................    ....    ....    ............     ....    .............    ........        ..........",
".....    .........................    ..........................    ..........    ..................    .................    ..........................    ..........    ........................................    ......................................................    ...     ...     .............    ...     .............    ........        ..........",
".....    .........................    .........................     ..........    ..................    .................    ..........................    ..........     .......................................    ......................................................     ..      ..    ..............     ..    ..............    ........        ..........",
".....    .........................                   ..........    ...........    ..................    .................                   ...........    ...........    .......................................                   ........................................                  ...............          ..............    .........       ..........",
".....    .........................                    .........    ............    .................    .................                    ..........    ...........     ......................................                    .......................................                 ................         ...............    .........       ..........",
".....    .........................                    .........    ............    .................    .................                    ..........    ............    ......................................                    ........................................                .................       ................    ..........      ..........",
"......  ..........................                   ...........  ..............  ...................  ..................                   ............  ..............  .......................................                   ..........................................      .       ....................    ..................  ...........      ..........",
"...................................................................................................................................................................................................................................................................................................................................................................",
"...................................................................................................................................................................................................................................................................................................................................................................",
"...................................................................................................................................................................................................................................................................................................................................................................",
"...................................................................................................................................................................................................................................................................................................................................................................",
"...................................................................................................................................................................................................................................................................................................................................................................",
"...................................................................................................................................................................................................................................................................................................................................................................",
"...................................................................................................................................................................................................................................................................................................................................................................",
"...................................................................................................................................................................................................................................................................................................................................................................",
"...................................................................................................................................................................................................................................................................................................................................................................",
"..................................................................................................................................................................................................................................................................................................................................................................."
};
