/* XPM */
static xpm_row_t const POINTS_[] = {
/* columns rows colors chars-per-pixel */
"193 50 17 1 ",
"  c #F8B133",
". c #F8B640",
"X c #F8BA4D",
"o c #F7BF5A",
"O c #F7C367",
"+ c #F7C874",
"@ c #F7CC81",
"# c #F7D18E",
"$ c #F6D59A",
"% c #F6DAA7",
"& c #F6DEB4",
"* c #F6E3C1",
"= c #F6E7CE",
"- c #F5ECDB",
"; c #F5F0E8",
": c #FFFFFF",
"> c None",
/* pixels */
">>>>>>>>>>>>>>>>::::::::::::::::::::::::::::::::::::::::::::::::::::::::::::::::::::::::::::::::::::::::::::::::::::::::::::::::::::::::::::::::::::::::::::::::::::::::::::::::>>>>>>>>>>>>>>>>>",
">>>>>>>>>>>>>:::::::::::::::::::::::::::::::::::::::::::::::::::::::::::::::::::::::::::::::::::::::::::::::::::::::::::::::::::::::::::::::::::::::::::::::::::::::::::::::::::::::>>>>>>>>>>>>>",
">>>>>>>>>>::::::::::::::::::::::::::::::::::::::::::::::::::::::::::::::::::::::::::::::::::::::::::::::::::::::::::::::::::::::::::::::::::::::::::::::::::::::::::::::::::::::::::::>>>>>>>>>>>",
">>>>>>>>>:::::::::::::::::::::::::::::::::::::::::::::::::::::::::::::::::::::::::::::::::::::::::::::::::::::::::::::::::::::::::::::::::::::::::::::::::::::::::::::::::::::::::::::::>>>>>>>>>",
">>>>>>>>:::::::::::::::::::::::::::::::::::::::::::::::::::::::::::::::::::::::::::::::::::::::::::::::::::::::::::::::::::::::::::::::::::::::::::::::::::::::::::::::::::::::::::::::::>>>>>>>>",
">>>>>>::::::::::::::::::::::::::::::::::::::::::::::::::::::::::::::::::::::::::::::::::::::::::::::::::::::::::::::::::::::::::::::::::::::::::::::::::::::::::::::::::::::::::::::::::::>>>>>>>",
">>>>>::::::::::::::::::::::::::::::::::::::::::::::::::::::::::::::::::::::::::::::::::::::::::::::::::::::::::::::::::::::::::::::::::::::::::::::::::::::::::::::::::::::::::::::::::::::>>>>>>",
">>>>>:::::::::::::::::::::::::::::::::::::::::::::::::::::::::::::::::::::::::::::::::::::::::::::::::::::::::::::::::::::::::::::::::::::::::::::::::::::::::::::::::::::::::::::::::::::::>>>>>",
">>>>:::::::::::::::::::::::::::::::::::::::::::::::::::::::::::::::::::::::::::::::::::::::::::::::::::::::::::::::::::::::::::::::::::::::::::::::::::::::::::::::::::::::::::::::::::::::::>>>>",
">>>:::::::::::::::::::::::::::::::::::::::::::::::::::::::::::::::::::::::::::::::::::::::::::::::::::::::::::::::::::::::::::::::::::::::::::::::::::::::::::::::::::::::::::::::::::::::::::>>>",
">>>:::::::::::::::::::::::::::::::::::::::::::::::::::::::::::::::::::::::::::::::::::::::::::::::::::::::::::::::::::::::::::::::::::::::::::::::::::::::::::::::::::::::::::::::::::::::::::>>>",
">>:::::::::::::::::::::::::::::::::::::::::::::::::::::::::::::::::::::::::::::::::::::::::::::::::::::::::::::::::::::::::::::::::::::::::::::::::::::::::::::::::::::::::::::::::::::::::::::>>",
">>:::::::::::::::::::::::::::::-            +=::::::::::::::%.  #;::::::::::::O             .=:::::*    =:::::::=.X-::::::*               $::::::::$          X&:::::::::::::::::::::::::::::::>>",
">::::::::::::::::::::::::::::::-              *::::::::::::#     o:::::::::::=               $:::::*    @:::::::@  $::::::*               $:::::::#             $::::::::::::::::::::::::::::::>>",
">::::::::::::::::::::::::::::::-              .;::::::::::-       %:::::::::::O             X-:::::*    .;::::::@  $::::::*               $::::::;               -::::::::::::::::::::::::::::::>",
">::::::::::::::::::::::::::::::-   ::::::::=.  $::::::::::@  o:#  X:::::::::::::::::X  *:::::::::::*     $::::::@  $::::::*   :::   *::@  $::::::*   :::::::::o  $::::::::::::::::::::::::::::::>",
":::::::::::::::::::::::::::::::-   :::::::::@  #:::::::::;   &:;.  %::::::::::::::::X  *:::::::::::*     X::::::@  $::::::*  X:::   *::@  $::::::;   #::::::::$  #::::::::::::::::::::::::::::::>",
":::::::::::::::::::::::::::::::-   :::::::::@  @:::::::::$  X:::@  X::::::::::::::::X  *:::::::::::*      *:::::@  $:::::::O $:::   *::=.X-:::::::@   &:::::::;..=::::::::::::::::::::::::::::::>",
":::::::::::::::::::::::::::::::-   :::::::::@  @::::::::;.  %:::-   *:::::::::::::::X  *:::::::::::*   o  +:::::@  $:::::::::::::   *:::::::::::::;X  .;::::::::::::::::::::::::::::::::::::::::>",
":::::::::::::::::::::::::::::::-   :::::::::@  @::::::::$  .:::::@  O:::::::::::::::X  *:::::::::::*   %   -::::@  $:::::::::::::   *::::::::::::::*   +::::::::::::::::::::::::::::::::::::::::>",
":::::::::::::::::::::::::::::::-   :::::::::@  @::::::::.  $:::::*   *::::::::::::::X  *:::::::::::*   ;.  $::::@  $:::::::::::::   *:::::::::::::::#   $:::::::::::::::::::::::::::::::::::::::>",
":::::::::::::::::::::::::::::::-   :::::::::@  @:::::::%  .;::::::O  O::::::::::::::X  *:::::::::::*   :#  .::::@  $:::::::::::::   *::::::::::::::::o   =::::::::::::::::::::::::::::::::::::::>",
":::::::::::::::::::::::::::::::-   :::::::::@  @:::::::o  @:::::::&   -:::::::::::::X  *:::::::::::*   :-   %:::@  $:::::::::::::   *::::::::::::::::-.  X::::::::::::::::::::::::::::::::::::::>",
":::::::::::::::::::::::::::::::-   :::::::::@  #::::::;   =::::::::.  $:::::::::::::X  *:::::::::::*   ::O  o:::@  $:::::::::::::   *:::::::::::::::::%   #:::::::::::::::::::::::::::::::::::::>",
":::::::::::::::::::::::::::::::-   ::::::::=.  $::::::=   :::::::::+  $:::::::::::::X  *:::::::::::*   ::*   *::@  $:::::::::::::   *::::::::::::::::::+   &::::::::::::::::::::::::::::::::::::>",
":::::::::::::::::::::::::::::::-              .;::::::*   :::::::::+  $:::::::::::::X  *:::::::::::*   :::X  @::@  $:::::::::::::   *::::::::::::::::::;X  .-:::::::::::::::::::::::::::::::::::>",
":::::::::::::::::::::::::::::::-              *:::::::;   =::::::::.  $:::::::::::::X  *:::::::::::*   :::$   ;:@  $:::::::::::::   *:::::::::::::::::::=   O:::::::::::::::::::::::::::::::::::>",
":::::::::::::::::::::::::::::::-            +=:::::::::o  @:::::::*   -:::::::::::::X  *:::::::::::*   :::;.  $:@  $:::::::::::::   *::::::::::::::::::::$   $::::::::::::::::::::::::::::::::::>",
":::::::::::::::::::::::::::::::-   ::::::::::::::::::::$  .;::::::O  O::::::::::::::X  *:::::::::::*   ::::@  X:@  $:::::::::::::   *:::::::::::::::::::::o   =:::::::::::::::::::::::::::::::::>",
":::::::::::::::::::::::::::::::-   ::::::::::::::::::::;.  $:::::*   *::::::::::::::X  *:::::::::::*   ::::=   &@  $:::::::::::::   *:::::::::::::::::::::-.  X;::::::::::::::::::::::::::::::::>",
":::::::::::::::::::::::::::::::-   :::::::::::::::::::::$  .;::::@  O:::::::::::::::X  *:::::::::::*   :::::O  O@  $:::::::::::::   *::::::::::::::::::::::&   @::::::::::::::::::::::::::::::::>",
":::::::::::::::::::::::::::::::-   :::::::::::::::::::::;.  %:::-   &:::::::::::::::X  *:::::::::::*   :::::%   O  $:::::::::::::   *:::::::::::::::::::::::@   &:::::::::::::::::::::::::::::::>",
":::::::::::::::::::::::::::::::-   ::::::::::::::::::::::$  X:::@  X::::::::::::::::X  *:::::::::::*   ::::::.     $:::::::::::::   *:::::::::::::O $:::::::;X  .;::::::::::::::::::::::::::::::>",
":::::::::::::::::::::::::::::::-   ::::::::::::::::::::::;   %:;   %::::::::::::::::X  *:::::::::::*   ::::::$     $:::::::::::::   *::::::::::::=  .::::::::=   $::::::::::::::::::::::::::::::>",
">::::::::::::::::::::::::::::::-   :::::::::::::::::::::::@  o:#  X:::::::::::::::::X  *:::::::::::*   ::::::-     $:::::::::::::   *::::::::::::-   &::::::::@  @::::::::::::::::::::::::::::::>",
">::::::::::::::::::::::::::::::-   :::::::::::::::::::::::-       %:::::::::::O             .=:::::*   :::::::+    $:::::::::::::   *:::::::::::::O              $::::::::::::::::::::::::::::::>",
">::::::::::::::::::::::::::::::-   ::::::::::::::::::::::::$     o:::::::::::=               $:::::=   :::::::*    $:::::::::::::.  *:::::::::::::=.            X;:::::::::::::::::::::::::::::>>",
">>::::::::::::::::::::::::::::::@ $:::::::::::::::::::::::::&X  @;::::::::::::O             .=::::::O $::::::::X   $:::::::::::::$ O:::::::::::::::=O          O-::::::::::::::::::::::::::::::>>",
">>:::::::::::::::::::::::::::::::::::::::::::::::::::::::::::::::::::::::::::::::::::::::::::::::::::::::::::::::::::::::::::::::::::::::::::::::::::::::::::::::::::::::::::::::::::::::::::::>>",
">>::::::::::::::::::::::::::::::::::::::::::::::::::::::::::::::::::::::::::::::::::::::::::::::::::::::::::::::::::::::::::::::::::::::::::::::::::::::::::::::::::::::::::::::::::::::::::::>>>",
">>>:::::::::::::::::::::::::::::::::::::::::::::::::::::::::::::::::::::::::::::::::::::::::::::::::::::::::::::::::::::::::::::::::::::::::::::::::::::::::::::::::::::::::::::::::::::::::::>>>",
">>>>:::::::::::::::::::::::::::::::::::::::::::::::::::::::::::::::::::::::::::::::::::::::::::::::::::::::::::::::::::::::::::::::::::::::::::::::::::::::::::::::::::::::::::::::::::::::::>>>>",
">>>>::::::::::::::::::::::::::::::::::::::::::::::::::::::::::::::::::::::::::::::::::::::::::::::::::::::::::::::::::::::::::::::::::::::::::::::::::::::::::::::::::::::::::::::::::::::::>>>>>",
">>>>>::::::::::::::::::::::::::::::::::::::::::::::::::::::::::::::::::::::::::::::::::::::::::::::::::::::::::::::::::::::::::::::::::::::::::::::::::::::::::::::::::::::::::::::::::::::>>>>>>",
">>>>>>::::::::::::::::::::::::::::::::::::::::::::::::::::::::::::::::::::::::::::::::::::::::::::::::::::::::::::::::::::::::::::::::::::::::::::::::::::::::::::::::::::::::::::::::::::>>>>>>>",
">>>>>>>::::::::::::::::::::::::::::::::::::::::::::::::::::::::::::::::::::::::::::::::::::::::::::::::::::::::::::::::::::::::::::::::::::::::::::::::::::::::::::::::::::::::::::::::::>>>>>>>>",
">>>>>>>>>:::::::::::::::::::::::::::::::::::::::::::::::::::::::::::::::::::::::::::::::::::::::::::::::::::::::::::::::::::::::::::::::::::::::::::::::::::::::::::::::::::::::::::::::>>>>>>>>>",
">>>>>>>>>>::::::::::::::::::::::::::::::::::::::::::::::::::::::::::::::::::::::::::::::::::::::::::::::::::::::::::::::::::::::::::::::::::::::::::::::::::::::::::::::::::::::::::::>>>>>>>>>>>",
">>>>>>>>>>>>::::::::::::::::::::::::::::::::::::::::::::::::::::::::::::::::::::::::::::::::::::::::::::::::::::::::::::::::::::::::::::::::::::::::::::::::::::::::::::::::::::::::>>>>>>>>>>>>>",
">>>>>>>>>>>>>>>>:::::::::::::::::::::::::::::::::::::::::::::::::::::::::::::::::::::::::::::::::::::::::::::::::::::::::::::::::::::::::::::::::::::::::::::::::::::::::::::::::>>>>>>>>>>>>>>>>"
};
