/* XPM */
static xpm_row_t const QUIT_[] = {
/* columns rows colors chars-per-pixel */
"197 59 17 1 ",
"  c #00A099",
". c #10A69F",
"X c #21ABA5",
"o c #31B1AB",
"O c #41B7B2",
"+ c #52BCB8",
"@ c #62C2BE",
"# c #72C8C4",
"$ c #83CDCA",
"% c #93D3D0",
"& c #A3D9D6",
"* c #B4DEDC",
"= c #C4E4E3",
"- c #D4EAE9",
"; c #E5EFEF",
": c #FFFFFF",
"> c None",
/* pixels */
">>>>>>>>>>>>>>>>>>>>>>>>>>>>>>>>>>>>>>>>>>>>>>>>>>>>>>>>>>>>>>>>>>>>>>>>>>>>>>>>>>>>>>>>>>>>>>>>>>>>>>>>>>>>>>>>>>>>>>>>>>>>>>>>>>>>>>>>>>>>>>>>>>>>>>>>>>>>>>>>>>>>>>>>>>>>>>>>>>>>>>>>>>>>>>>>>>>>>",
">>>>>>>>>>>>>>>>>:::::::::::::::::::::::::::::::::::::::::::::::::::::::::::::::::::::::::::::::::::::::::::::::::::::::::::::::::::::::::::::::::::::::::::::::::::::::::::::::::::>>>>>>>>>>>>>>>>>",
">>>>>>>>>>>>>>:::::::::::::::::::::::::::::::::::::::::::::::::::::::::::::::::::::::::::::::::::::::::::::::::::::::::::::::::::::::::::::::::::::::::::::::::::::::::::::::::::::::::>>>>>>>>>>>>>>",
">>>>>>>>>>>>:::::::::::::::::::::::::::::::::::::::::::::::::::::::::::::::::::::::::::::::::::::::::::::::::::::::::::::::::::::::::::::::::::::::::::::::::::::::::::::::::::::::::::::>>>>>>>>>>>>",
">>>>>>>>>>::::::::::::::::::::::::::::::::::::::::::::::::::::::::::::::::::::::::::::::::::::::::::::::::::::::::::::::::::::::::::::::::::::::::::::::::::::::::::::::::::::::::::::::::>>>>>>>>>>>",
">>>>>>>>>:::::::::::::::::::::::::::::::::::::::::::::::::::::::::::::::::::::::::::::::::::::::::::::::::::::::::::::::::::::::::::::::::::::::::::::::::::::::::::::::::::::::::::::::::::>>>>>>>>>",
">>>>>>>>:::::::::::::::::::::::::::::::::::::::::::::::::::::::::::::::::::::::::::::::::::::::::::::::::::::::::::::::::::::::::::::::::::::::::::::::::::::::::::::::::::::::::::::::::::::>>>>>>>>",
">>>>>>>:::::::::::::::::::::::::::::::::::::::::::::::::::::::::::::::::::::::::::::::::::::::::::::::::::::::::::::::::::::::::::::::::::::::::::::::::::::::::::::::::::::::::::::::::::::::>>>>>>>",
">>>>>>:::::::::::::::::::::::::::::::::::::::::::::::::::::::::::::::::::::::::::::::::::::::::::::::::::::::::::::::::::::::::::::::::::::::::::::::::::::::::::::::::::::::::::::::::::::::::>>>>>>",
">>>>>:::::::::::::::::::::::::::::::::::::::::::::::::::::::::::::::::::::::::::::::::::::::::::::::::::::::::::::::::::::::::::::::::::::::::::::::::::::::::::::::::::::::::::::::::::::::::::>>>>>",
">>>>::::::::::::::::::::::::::::::::::::::::::::::::::::::::::::::::::::::::::::::::::::::::::::::::::::::::::::::::::::::::::::::::::::::::::::::::::::::::::::::::::::::::::::::::::::::::::::>>>>>",
">>>>:::::::::::::::::::::::::::::::::::::::::::::::::::::::::::::::::::::::::::::::::::::::::::::::::::::::::::::::::::::::::::::::::::::::::::::::::::::::::::::::::::::::::::::::::::::::::::::>>>>",
">>>::::::::::::::::::::::::::::::::::::::::::::::::::%o  +=:::::::::::$ X-::::::::::::# o-:::::::::$                 o-::::::::*                   @::::::::::::::::::::::::::::::::::::::::::::::>>>",
">>::::::::::::::::::::::::::::::::::::::::::::::::::+      *:::::::::;   +:::::::::::=   #::::::::;                   @::::::::*                   @::::::::::::::::::::::::::::::::::::::::::::::>>>",
">>::::::::::::::::::::::::::::::::::::::::::::::::;O       .;::::::::*   O:::::::::::*   O::::::::-                   #::::::::*                   @::::::::::::::::::::::::::::::::::::::::::::::>>>",
">>:::::::::::::::::::::::::::::::::::::::::::::::-o         $::::::::*   O:::::::::::*   O:::::::::$                 o-::::::::*                   @:::::::::::::::::::::::::::::::::::::::::::::::>>",
">:::::::::::::::::::::::::::::::::::::::::::::::-X    .*$   @::::::::*   O:::::::::::*   O::::::::::::::::*   O::::::::::::::::*   O:::*   O:::%   @:::::::::::::::::::::::::::::::::::::::::::::::>>",
">::::::::::::::::::::::::::::::::::::::::::::::=.    X-:%   @::::::::*   O:::::::::::*   O::::::::::::::::*   O::::::::::::::::*   O:::*   O:::&   @::::::::::::::::::::::::::::::::::::::::::::::::>",
">:::::::::::::::::::::::::::::::::::::::::::::*     o-::%   @::::::::*   O:::::::::::*   O::::::::::::::::*   O::::::::::::::::;   @:::*   O:::=   #::::::::::::::::::::::::::::::::::::::::::::::::>",
">::::::::::::::::::::::::::::::::::::::::::::%     O;:::%   @::::::::*   O:::::::::::*   O::::::::::::::::*   O:::::::::::::::::$ o-:::*   O::::$ o-::::::::::::::::::::::::::::::::::::::::::::::::>",
"::::::::::::::::::::::::::::::::::::::::::::$     O:::::%   @::::::::*   O:::::::::::*   O::::::::::::::::*   O::::::::::::::::::::::::*   O::::::::::::::::::::::::::::::::::::::::::::::::::::::::>",
":::::::::::::::::::::::::::::::::::::::::::$     @::::::%   @::::::::*   O:::::::::::*   O::::::::::::::::*   O::::::::::::::::::::::::*   O::::::::::::::::::::::::::::::::::::::::::::::::::::::::>",
"::::::::::::::::::::::::::::::::::::::::::$     $:::::::%   @::::::::*   O:::::::::::*   O::::::::::::::::*   O::::::::::::::::::::::::*   O::::::::::::::::::::::::::::::::::::::::::::::::::::::::>",
":::::::::::::::::::::::::::::::::::::::::-     $::::::::%   @::::::::*   O:::::::::::*   O::::::::::::::::*   O::::::::::::::::::::::::*   O::::::::::::::::::::::::::::::::::::::::::::::::::::::::>",
":::::::::::::::::::::::::::::::::::::::::@    %:::::::::%   @::::::::*   O:::::::::::*   O::::::::::::::::*   O::::::::::::::::::::::::*   O::::::::::::::::::::::::::::::::::::::::::::::::::::::::>",
":::::::::::::::::::::::::::::::::::::::::.   $::::::::::%   @::::::::*   O:::::::::::*   O::::::::::::::::*   O::::::::::::::::::::::::*   O::::::::::::::::::::::::::::::::::::::::::::::::::::::::>",
"::::::::::::::::::::::::::::::::::::::::-    ;::::::::::%   @::::::::*   O:::::::::::*   O::::::::::::::::*   O::::::::::::::::::::::::*   O::::::::::::::::::::::::::::::::::::::::::::::::::::::::>",
"::::::::::::::::::::::::::::::::::::::::*   o:::::::::::%   @::::::::*   O:::::::::::*   O::::::::::::::::*   O::::::::::::::::::::::::*   O::::::::::::::::::::::::::::::::::::::::::::::::::::::::>",
"::::::::::::::::::::::::::::::::::::::::*   O:::::::::::%   @::::::::*   O:::::::::::*   O::::::::::::::::*   O::::::::::::::::::::::::*   O::::::::::::::::::::::::::::::::::::::::::::::::::::::::>",
"::::::::::::::::::::::::::::::::::::::::*   O:::::::::::%   @::::::::*   O:::::::::::*   O::::::::::::::::*   O::::::::::::::::::::::::*   O::::::::::::::::::::::::::::::::::::::::::::::::::::::::>",
"::::::::::::::::::::::::::::::::::::::::*   O::::$  =:::$   @::::::::*   O:::::::::::*   O::::::::::::::::*   O::::::::::::::::::::::::*   O::::::::::::::::::::::::::::::::::::::::::::::::::::::::>",
"::::::::::::::::::::::::::::::::::::::::*   O:::;   O::-.   $::::::::*   O:::::::::::*   O::::::::::::::::*   O::::::::::::::::::::::::*   O::::::::::::::::::::::::::::::::::::::::::::::::::::::::>",
"::::::::::::::::::::::::::::::::::::::::*   O:::;    -;o    -::::::::*   O:::::::::::*   O::::::::::::::::*   O::::::::::::::::::::::::*   O::::::::::::::::::::::::::::::::::::::::::::::::::::::::>",
"::::::::::::::::::::::::::::::::::::::::*   O::::o   $o    @:::::::::*   O:::::::::::*   O::::::::::::::::*   O::::::::::::::::::::::::*   O::::::::::::::::::::::::::::::::::::::::::::::::::::::::>",
"::::::::::::::::::::::::::::::::::::::::*   O::::$        X;:::::::::*   O:::::::::::*   O::::::::::::::::*   O::::::::::::::::::::::::*   O::::::::::::::::::::::::::::::::::::::::::::::::::::::::>",
"::::::::::::::::::::::::::::::::::::::::*   O::::;       X=::::::::::*   O:::::::::::*   O::::::::::::::::*   O::::::::::::::::::::::::*   O::::::::::::::::::::::::::::::::::::::::::::::::::::::::>",
"::::::::::::::::::::::::::::::::::::::::*   O:::::+     o-:::::::::::*   O:::::::::::*   O::::::::::::::::*   O::::::::::::::::::::::::*   O::::::::::::::::::::::::::::::::::::::::::::::::::::::::>",
"::::::::::::::::::::::::::::::::::::::::*   O::::%     O;::::::::::::*   O:::::::::::*   O::::::::::::::::*   O::::::::::::::::::::::::*   O::::::::::::::::::::::::::::::::::::::::::::::::::::::::>",
"::::::::::::::::::::::::::::::::::::::::*   O:::$      &:::::::::::::*   O:::::::::::*   O::::::::::::::::*   O::::::::::::::::::::::::*   O::::::::::::::::::::::::::::::::::::::::::::::::::::::::>",
">:::::::::::::::::::::::::::::::::::::::*   O::@       @:::::::::::::=   o:::::::::::$   @::::::::::::::::*   O::::::::::::::::::::::::*   O::::::::::::::::::::::::::::::::::::::::::::::::::::::::>",
">:::::::::::::::::::::::::::::::::::::::=   .:O        .;:::::::::::::.   #:::::::::-X   $::::::::::::::::*   O::::::::::::::::::::::::*   O::::::::::::::::::::::::::::::::::::::::::::::::::::::::>",
">:::::::::::::::::::::::::::::::::::::::;.         $X      X-:::::::::@                  -:::::::::$                 o-::::::::::::::::*   O::::::::::::::::::::::::::::::::::::::::::::::::::::::::>",
">::::::::::::::::::::::::::::::::::::::::#        &:#       #:::::::::-.                $:::::::::;                   #::::::::::::::::*   O:::::::::::::::::::::::::::::::::::::::::::::::::::::::>>",
">>::::::::::::::::::::::::::::::::::::::::o     .*::=       #::::::::::=.              #::::::::::-                   @::::::::::::::::=   @:::::::::::::::::::::::::::::::::::::::::::::::::::::::>>",
">>:::::::::::::::::::::::::::::::::::::::::$.  #;::::o     o-:::::::::::;$           O&::::::::::::$                 o-:::::::::::::::::$ o-:::::::::::::::::::::::::::::::::::::::::::::::::::::::>>",
">>::::::::::::::::::::::::::::::::::::::::::::::::::::::::::::::::::::::::::::::::::::::::::::::::::::::::::::::::::::::::::::::::::::::::::::::::::::::::::::::::::::::::::::::::::::::::::::::::>>>",
">>>:::::::::::::::::::::::::::::::::::::::::::::::::::::::::::::::::::::::::::::::::::::::::::::::::::::::::::::::::::::::::::::::::::::::::::::::::::::::::::::::::::::::::::::::::::::::::::::::>>>",
">>>::::::::::::::::::::::::::::::::::::::::::::::::::::::::::::::::::::::::::::::::::::::::::::::::::::::::::::::::::::::::::::::::::::::::::::::::::::::::::::::::::::::::::::::::::::::::::::::>>>>",
">>>>::::::::::::::::::::::::::::::::::::::::::::::::::::::::::::::::::::::::::::::::::::::::::::::::::::::::::::::::::::::::::::::::::::::::::::::::::::::::::::::::::::::::::::::::::::::::::::>>>>>",
">>>>>:::::::::::::::::::::::::::::::::::::::::::::::::::::::::::::::::::::::::::::::::::::::::::::::::::::::::::::::::::::::::::::::::::::::::::::::::::::::::::::::::::::::::::::::::::::::::::>>>>>",
">>>>>>:::::::::::::::::::::::::::::::::::::::::::::::::::::::::::::::::::::::::::::::::::::::::::::::::::::::::::::::::::::::::::::::::::::::::::::::::::::::::::::::::::::::::::::::::::::::::>>>>>>",
">>>>>>>:::::::::::::::::::::::::::::::::::::::::::::::::::::::::::::::::::::::::::::::::::::::::::::::::::::::::::::::::::::::::::::::::::::::::::::::::::::::::::::::::::::::::::::::::::::::>>>>>>>",
">>>>>>>>:::::::::::::::::::::::::::::::::::::::::::::::::::::::::::::::::::::::::::::::::::::::::::::::::::::::::::::::::::::::::::::::::::::::::::::::::::::::::::::::::::::::::::::::::::::>>>>>>>>",
">>>>>>>>>:::::::::::::::::::::::::::::::::::::::::::::::::::::::::::::::::::::::::::::::::::::::::::::::::::::::::::::::::::::::::::::::::::::::::::::::::::::::::::::::::::::::::::::::::::>>>>>>>>>",
">>>>>>>>>>::::::::::::::::::::::::::::::::::::::::::::::::::::::::::::::::::::::::::::::::::::::::::::::::::::::::::::::::::::::::::::::::::::::::::::::::::::::::::::::::::::::::::::::::>>>>>>>>>>>",
">>>>>>>>>>>>:::::::::::::::::::::::::::::::::::::::::::::::::::::::::::::::::::::::::::::::::::::::::::::::::::::::::::::::::::::::::::::::::::::::::::::::::::::::::::::::::::::::::::::>>>>>>>>>>>>",
">>>>>>>>>>>>>>:::::::::::::::::::::::::::::::::::::::::::::::::::::::::::::::::::::::::::::::::::::::::::::::::::::::::::::::::::::::::::::::::::::::::::::::::::::::::::::::::::::::::>>>>>>>>>>>>>>",
">>>>>>>>>>>>>>>>::::::::::::::::::::::::::::::::::::::::::::::::::::::::::::::::::::::::::::::::::::::::::::::::::::::::::::::::::::::::::::::::::::::::::::::::::::::::::::::::::::>>>>>>>>>>>>>>>>>",
">>>>>>>>>>>>>>>>>>>>>>::::::::::::::::::::::::::::::::::::::::::::::::::::::::::::::::::::::::::::::::::::::::::::::::::::::::::::::::::::::::::::::::::::::::::::::::::::::::>>>>>>>>>>>>>>>>>>>>>>>"
};
