/* XPM */
static xpm_row_t const REMOTE_[] = {
/* columns rows colors chars-per-pixel */
"217 76 17 1 ",
"  c #CABA9F",
". c #CDBEA5",
"X c #D0C2AA",
"o c #D3C6B0",
"O c #D5CAB6",
"+ c #D8CEBC",
"@ c #DBD2C1",
"# c #DED6C7",
"$ c #E1D9CD",
"% c #E4DDD3",
"& c #E7E1D8",
"* c #EAE5DE",
"= c #ECE9E4",
"- c #EFEDEA",
"; c #F2F1EF",
": c #FFFFFF",
"> c None",
/* pixels */
">>>>>>>>>>>>>>>>>>>>>>>>>>>>:::::::::::::::::::::::::::::::::::::::::::::::::::::::::::::::::::::::::::::::::::::::::::::::::::::::::::::::::::::::::::::::::::::::::::::::::::::::::::::::::>>>>>>>>>>>>>>>>>>>>>>>>>>>>",
">>>>>>>>>>>>>>>>>>>>>>:::::::::::::::::::::::::::::::::::::::::::::::::::::::::::::::::::::::::::::::::::::::::::::::::::::::::::::::::::::::::::::::::::::::::::::::::::::::::::::::::::::::::::::>>>>>>>>>>>>>>>>>>>>>>",
">>>>>>>>>>>>>>>>>>>:::::::::::::::::::::::::::::::::::::::::::::::::::::::::::::::::::::::::::::::::::::::::::::::::::::::::::::::::::::::::::::::::::::::::::::::::::::::::::::::::::::::::::::::::::>>>>>>>>>>>>>>>>>>>",
">>>>>>>>>>>>>>>>>:::::::::::::::::::::::::::::::::::::::::::::::::::::::::::::::::::::::::::::::::::::::::::::::::::::::::::::::::::::::::::::::::::::::::::::::::::::::::::::::::::::::::::::::::::::::>>>>>>>>>>>>>>>>>",
">>>>>>>>>>>>>>>:::::::::::::::::::::::::::::::::::::::::::::::::::::::::::::::::::::::::::::::::::::::::::::::::::::::::::::::::::::::::::::::::::::::::::::::::::::::::::::::::::::::::::::::::::::::::::>>>>>>>>>>>>>>>",
">>>>>>>>>>>>>::::::::::::::::::::::::::::::::::::::::::::::::::::::::::::::::::::::::::::::::::::::::::::::::::::::::::::::::::::::::::::::::::::::::::::::::::::::::::::::::::::::::::::::::::::::::::::::>>>>>>>>>>>>>>",
">>>>>>>>>>>>:::::::::::::::::::::::::::::::::::::::::::::::::::::::::::::::::::::::::::::::::::::::::::::::::::::::::::::::::::::::::::::::::::::::::::::::::::::::::::::::::::::::::::::::::::::::::::::::::>>>>>>>>>>>>",
">>>>>>>>>>>:::::::::::::::::::::::::::::::::::::::::::::::::::::::::::::::::::::::::::::::::::::::::::::::::::::::::::::::::::::::::::::::::::::::::::::::::::::::::::::::::::::::::::::::::::::::::::::::::::>>>>>>>>>>>",
">>>>>>>>>::::::::::::::::::::::::::::::::::::::::::::::::::::::::::::::::::::::::::::::::::::::::::::::::::::::::::::::::::::::::::::::::::::::::::::::::::::::::::::::::::::::::::::::::::::::::::::::::::::::>>>>>>>>>>",
">>>>>>>>::::::::::::::::::::::::::::::::::::::::::::::::::::::::::::::::::::::::::::::::::::::::::::::::::::::::::::::::::::::::::::::::::::::::::::::::::::::::::::::::::::::::::::::::::::::::::::::::::::::::>>>>>>>>>",
">>>>>>>>:::::::::::::::::::::::::::::::::::::::::::::::::::::::::::::::::::::::::::::::::::::::::::::::::::::::::::::::::::::::::::::::::::::::::::::::::::::::::::::::::::::::::::::::::::::::::::::::::::::::::>>>>>>>>",
">>>>>>>:::::::::::::::::::::::::::::::::::::::::::::::::::::::::::::::::::::::::::::::::::::::::::::::::::::::::::::::::::::::::::::::::::::::::::::::::::::::::::::::::::::::::::::::::::::::::::::::::::::::::::>>>>>>>",
">>>>>>:::::::::::::::::::::::::::::::::::::::::::::::::::::::::::::::::::::::::::::::::::::::::::::::::::::::::::::::::::::::::::::::::::::::::::::::::::::::::::::::::::::::::::::::::::::::::::::::::::::::::::::>>>>>>",
">>>>>::::::::::::::::::::::::::::::::::::::::::::::::::::::::::::::::::::::::::::::::::::::::::::::::::::::::::::::::::::::::::::::::::::::::::::::::::::::::::::::::::::::::::::::::::::::::::::::::::::::::::::::>>>>>>",
">>>>::::::::::::::::::::::::::::::::::::::::::::::::::::::::::::::::::::::::::::::::::::::::::::::::::::::::::::::::::::::::::::::::::::::::::::::::::::::::::::::::::::::::::::::::::::::::::::::::::::::::::::::::>>>>>",
">>>>:::::::::::::::::::::::::::::::::::::::::::::::::::::::::::::::::::::::::::::::::::::::::::::::::::::::::::::::::::::::::::::::::::::::::::::::::::::::::::::::::::::::::::::::::::::::::::::::::::::::::::::::::>>>>",
">>>::::::::::::::::::::::::::::::::::::::::::::::::::::::::::::::::::::::::::::::::::::::::::::::::::::::::::::::::::::::::::::::::::::::::::::::::::::::::::::::::::::::::::::::::::::::::::::::::::::::::::::::::::>>>>",
">>>:::::::::::::::::::::::::::::::::::::::::::::::::::::::::::::::::::::::::::::::::::::::::::::::::::::::::::::::::::::::::::::::::::::::::::::::::::::::::::::::::::::::::::::::::::::::::::::::::::::::::::::::::::>>>",
">>::::::::::::::::::::::::::::::::::::::::::::::::::::::::::::::::::::::::::::::::::::::::::::::::::::::::::::::::::::::::::::::::::::::::::::::::::::::::::::::::::::::::::::::::::::::::::::::::::::::::::::::::::::>>>",
">>:::::::::::::::::::::::::::::::::::::::::::::::::::::::::::::::::::::::::::::::::::::::::::::::::::::::::::::::::::::::::::::::::::::::::::::::::::::::::::::::::::::::::::::::::::::::::::::::::::::::::::::::::::::>>",
">>:::::::::::::::::::::::::::::::::::::::::::::::::::::::::::::::::::::::::::::::::::::::::::::::::::::::::::::::::::::::::::::::::::::::::::::::::::::::::::::::::::::::::::::::::::::::::::::::::::::::::::::::::::::>>",
">::::::::::::::::::::::::               .$;::::::::::-                   $:::::::::-     =::::::::;X    -:::::::::::::::%o  X$::::::::::::::::-                    -:::::::-                   $:::::::::::::::::::::::>>",
">::::::::::::::::::::::::                 X=:::::::::-                    =::::::::-     X;:::::::+     -::::::::::::::@      O:::::::::::::::-                    -:::::::-                    =:::::::::::::::::::::::>",
">::::::::::::::::::::::::                  X;::::::::-                    =::::::::-      #::::::$      -:::::::::::::%        $::::::::::::::-                    -:::::::-                    =:::::::::::::::::::::::>",
">::::::::::::::::::::::::                   @::::::::-                   $:::::::::-       &::::=       -:::::::::::::.        .;:::::::::::::-                    -:::::::-                   $::::::::::::::::::::::::>",
":::::::::::::::::::::::::    :::::::::::#   .;:::::::-    :::::::::::::::::::::::::-       .;::;X       -::::::::::::%   .--X   $:::::::::::::-    ::::    ::::X   -:::::::-    ::::::::::::::::::::::::::::::::::::::::>",
":::::::::::::::::::::::::    ::::::::::::.   =:::::::-    :::::::::::::::::::::::::-        +::+        -::::::::::::X   $::$   X:::::::::::::-   .::::    ::::X   -:::::::-    ::::::::::::::::::::::::::::::::::::::::>",
":::::::::::::::::::::::::    ::::::::::::X   *:::::::-    :::::::::::::::::::::::::-   X+    $$    +X   -:::::::::::&   .;::;.   %::::::::::::;   o::::    ::::O   ;:::::::-    ::::::::::::::::::::::::::::::::::::::::>",
":::::::::::::::::::::::::    ::::::::::::X   *:::::::-    :::::::::::::::::::::::::-   X;.        .-X   -:::::::::::O   @::::#   X:::::::::::::& .=::::    ::::=X $::::::::-    :::::::::::::::::::::::::::::::::::::::::",
":::::::::::::::::::::::::    ::::::::::::X   *:::::::-    :::::::::::::::::::::::::-   X:&        &:X   -::::::::::*    -::::-    *::::::::::::::::::::    ::::::::::::::::-    :::::::::::::::::::::::::::::::::::::::::",
":::::::::::::::::::::::::    ::::::::::::.   =:::::::-    :::::::::::::::::::::::::-   X::#      #::X   -::::::::::O   +::::::@   O::::::::::::::::::::    ::::::::::::::::-    :::::::::::::::::::::::::::::::::::::::::",
":::::::::::::::::::::::::    :::::::::::#   .;:::::::-    :::::::::::::::::::::::::-   X:::o    o:::X   -:::::::::-    *::::::*    *:::::::::::::::::::    ::::::::::::::::-    :::::::::::::::::::::::::::::::::::::::::",
":::::::::::::::::::::::::                   @::::::::-    :::::::::::::::::::::::::-   X:::=    -:::X   -:::::::::@   O::::::::O   @:::::::::::::::::::    ::::::::::::::::-    :::::::::::::::::::::::::::::::::::::::::",
":::::::::::::::::::::::::                  .-::::::::-    :::::::::::::::::::::::::-   X::::    ::::X   -::::::::-    %::::::::*    -::::::::::::::::::    ::::::::::::::::-    :::::::::::::::::::::::::::::::::::::::::",
":::::::::::::::::::::::::                 X=:::::::::-    :::::::::::::::::::::::::-   X::::.  .::::X   -::::::::$   X::::::::::X   #::::::::::::::::::    ::::::::::::::::-    :::::::::::::::::::::::::::::::::::::::::",
":::::::::::::::::::::::::               .$;::::::::::-    :::::::::::::::::::::::::-   X::::*. *::::X   -::::::::o   $::::::::::%   o::::::::::::::::::    ::::::::::::::::-    :::::::::::::::::::::::::::::::::::::::::",
":::::::::::::::::::::::::    :::O   X::::::::::::::::-           &:::::::::::::::::-   X::::::::::::X   -::::::::    =::::::::::;    ;:::::::::::::::::    ::::::::::::::::-           &:::::::::::::::::::::::::::::::::",
":::::::::::::::::::::::::    :::*    %:::::::::::::::-            ;::::::::::::::::-   X::::::::::::X   -:::::::-    ::::::::::::X   -:::::::::::::::::    ::::::::::::::::-            ;::::::::::::::::::::::::::::::::",
":::::::::::::::::::::::::    ::::O   .;::::::::::::::-            ;::::::::::::::::-   X::::::::::::X   -:::::::-    ::::::::::::X   =:::::::::::::::::    ::::::::::::::::-            ;::::::::::::::::::::::::::::::::",
":::::::::::::::::::::::::    ::::-    $::::::::::::::-           %:::::::::::::::::-   X::::::::::::X   -::::::::    =::::::::::;    ;:::::::::::::::::    ::::::::::::::::-           %:::::::::::::::::::::::::::::::::",
":::::::::::::::::::::::::    :::::@   .;:::::::::::::-    :::::::::::::::::::::::::-   X::::::::::::X   -::::::::o   $::::::::::%   .::::::::::::::::::    ::::::::::::::::-    :::::::::::::::::::::::::::::::::::::::::",
":::::::::::::::::::::::::    :::::-    $:::::::::::::-    :::::::::::::::::::::::::-   X::::::::::::X   -::::::::#   X::::::::::o   #::::::::::::::::::    ::::::::::::::::-    :::::::::::::::::::::::::::::::::::::::::",
":::::::::::::::::::::::::    ::::::@   .-::::::::::::-    :::::::::::::::::::::::::-   X::::::::::::X   -::::::::-    %::::::::*    -::::::::::::::::::    ::::::::::::::::-    :::::::::::::::::::::::::::::::::::::::::",
":::::::::::::::::::::::::    ::::::;.   @::::::::::::-    :::::::::::::::::::::::::-   X::::::::::::X   -:::::::::@   O::::::::O   O:::::::::::::::::::    ::::::::::::::::-    :::::::::::::::::::::::::::::::::::::::::",
":::::::::::::::::::::::::    :::::::$    -:::::::::::-    :::::::::::::::::::::::::-   X::::::::::::X   -:::::::::*    *::::::=    *:::::::::::::::::::    ::::::::::::::::-    :::::::::::::::::::::::::::::::::::::::::",
":::::::::::::::::::::::::    :::::::;.   @:::::::::::-    :::::::::::::::::::::::::-   X::::::::::::X   -::::::::::O   O::::::@   O::::::::::::::::::::    ::::::::::::::::-    :::::::::::::::::::::::::::::::::::::::::",
":::::::::::::::::::::::::    ::::::::$    =::::::::::-    :::::::::::::::::::::::::-   X::::::::::::X   -::::::::::*    -::::-    &::::::::::::::::::::    ::::::::::::::::-    :::::::::::::::::::::::::::::::::::::::::",
":::::::::::::::::::::::::    :::::::::X   O::::::::::-    :::::::::::::::::::::::::-   X::::::::::::X   -:::::::::::O   @::::#   X:::::::::::::::::::::    ::::::::::::::::-    :::::::::::::::::::::::::::::::::::::::::",
":::::::::::::::::::::::::    :::::::::%    *:::::::::-    :::::::::::::::::::::::::-   X::::::::::::X   -:::::::::::%    ;::;.   %:::::::::::::::::::::    ::::::::::::::::-    ::::::::::::::::::::::::::::::::::::::::>",
":::::::::::::::::::::::::    ::::::::::X   O:::::::::-    :::::::::::::::::::::::::-   X::::::::::::X   -::::::::::::X   $::$   X::::::::::::::::::::::    ::::::::::::::::-    ::::::::::::::::::::::::::::::::::::::::>",
":::::::::::::::::::::::::    ::::::::::%    *::::::::-    :::::::::::::::::::::::::-   X::::::::::::X   -::::::::::::%   .--.   $::::::::::::::::::::::    ::::::::::::::::-    ::::::::::::::::::::::::::::::::::::::::>",
">::::::::::::::::::::::::    :::::::::::o   X::::::::-                   $:::::::::-   X::::::::::::X   -:::::::::::::.        .;::::::::::::::::::::::    ::::::::::::::::-                   $::::::::::::::::::::::::>",
">::::::::::::::::::::::::    :::::::::::*    =:::::::-                    =::::::::-   X::::::::::::X   -:::::::::::::%        $:::::::::::::::::::::::    ::::::::::::::::-                    =:::::::::::::::::::::::>",
">::::::::::::::::::::::::.  .::::::::::::O   =:::::::-                    =::::::::;   o::::::::::::o   ;::::::::::::::#      O::::::::::::::::::::::::.  .::::::::::::::::-                    =:::::::::::::::::::::::>",
">::::::::::::::::::::::::*  *::::::::::::-X $::::::::-                   $::::::::::% .*::::::::::::=. %::::::::::::::::&O  X$:::::::::::::::::::::::::*. *::::::::::::::::-                   $:::::::::::::::::::::::>>",
">>:::::::::::::::::::::::::::::::::::::::::::::::::::::::::::::::::::::::::::::::::::::::::::::::::::::::::::::::::::::::::::::::::::::::::::::::::::::::::::::::::::::::::::::::::::::::::::::::::::::::::::::::::::::>>",
">>:::::::::::::::::::::::::::::::::::::::::::::::::::::::::::::::::::::::::::::::::::::::::::::::::::::::::::::::::::::::::::::::::::::::::::::::::::::::::::::::::::::::::::::::::::::::::::::::::::::::::::::::::::::>>",
">>::::::::::::::::::::::::::::::::::::::::::::::::::::::::::::::::::::::::::::::::::::::::::::::::::::::::::::::::::::::::::::::::::::::::::::::::::::::::::::::::::::::::::::::::::::::::::::::::::::::::::::::::::::>>>",
">>>:::::::::::::::::::::::::::::::::::::::::::::::::::::::::::::::::::::::::::::::::::::::::::::::::::::::::::::::::::::::::::::::::::::::::::::::::::::::::::::::::::::::::::::::::::::::::::::::::::::::::::::::::::>>>",
">>>::::::::::::::::::::::::::::::::::::::::::::::::::::::::::::::::::::::::::::::::::::::::::::::::::::::::::::::::::::::::::::::::::::::::::::::::::::::::::::::::::::::::::::::::::::::::::::::::::::::::::::::::::>>>>",
">>>>:::::::::::::::::::::::::::::::::::::::::::::::::::::::::::::::::::::::::::::::::::::::::::::::::::::::::::::::::::::::::::::::::::::::::::::::::::::::::::::::::::::::::::::::::::::::::::::::::::::::::::::::::>>>>",
">>>>::::::::::::::::::::::::::::::::::::::::::::::::::::::::::::::::::::::::::::::::::::::::::::::::::::::::::::::::::::::::::::::::::::::::::::::::::::::::::::::::::::::::::::::::::::::::::::::::::::::::::::::::>>>>>",
">>>>>:::::::::::::::::::::::::::::::::::::::::::::::::::::::::::::::::::::::::::::::::::::::::::::::::::::::::::::::::::::::::::::::::::::::::::::::::::::::::::::::::::::::::::::::::::::::::::::::::::::::::::::::>>>>>",
">>>>>>:::::::::::::::::::::::::::::::::::::::::::::::::::::::::::::::::::::::::::::::::::::::::::::::::::::::::::::::::::::::::::::::::::::::::::::::::::::::::::::::::::::::::::::::::::::::::::::::::::::::::::::>>>>>>",
">>>>>>::::::::::::::::::::::::::::::::::::::::::::::::::::::::::::::::::::::::::::::::::::::::::::::::::::::::::::::::::::::::::::::::::::::::::::::::::::::::::::::::::::::::::::::::::::::::::::::::::::::::::::>>>>>>>",
">>>>>>>::::::::::::::::::::::::::::::::::::::::::::::::::::::::::::::::::::::::::::::::::::::::::::::::::::::::::::::::::::::::::::::::::::::::::::::::::::::::::::::::::::::::::::::::::::::::::::::::::::::::::>>>>>>>>",
">>>>>>>>::::::::::::::::::::::::::::::::::::::::::::::::::::::::::::::::::::::::::::::::::::::::::::::::::::::::::::::::::::::::::::::::::::::::::::::::::::::::::::::::::::::::::::::::::::::::::::::::::::::::>>>>>>>>>",
">>>>>>>>>::::::::::::::::::::::::::::::::::::::::::::::::::::::::::::::::::::::::::::::::::::::::::::::::::::::::::::::::::::::::::::::::::::::::::::::::::::::::::::::::::::::::::::::::::::::::::::::::::::::>>>>>>>>>>",
">>>>>>>>>>::::::::::::::::::::::::::::::::::::::::::::::::::::::::::::::::::::::::::::::::::::::::::::::::::::::::::::::::::::::::::::::::::::::::::::::::::::::::::::::::::::::::::::::::::::::::::::::::::::>>>>>>>>>>>",
">>>>>>>>>>>>:::::::::::::::::::::::::::::::::::::::::::::::::::::::::::::::::::::::::::::::::::::::::::::::::::::::::::::::::::::::::::::::::::::::::::::::::::::::::::::::::::::::::::::::::::::::::::::::::>>>>>>>>>>>>",
">>>>>>>>>>>>>:::::::::::::::::::::::::::::::::::::::::::::::::::::::::::::::::::::::::::::::::::::::::::::::::::::::::::::::::::::::::::::::::::::::::::::::::::::::::::::::::::::::::::::::::::::::::::::::>>>>>>>>>>>>>",
">>>>>>>>>>>>>>::::::::::::::::::::::::::::::::::::::::::::::::::::::::::::::::::::::::::::::::::::::::::::::::::::::::::::::::::::::::::::::::::::::::::::::::::::::::::::::::::::::::::::::::::::::::::::>>>>>>>>>>>>>>>",
">>>>>>>>>>>>>>>>::::::::::::::::::::::::::::::::::::::::::::::::::::::::::::::::::::::::::::::::::::::::::::::::::::::::::::::::::::::::::::::::::::::::::::::::::::::::::::::::::::::::::::::::::::::::>>>>>>>>>>>>>>>>>",
">>>>>>>>>>>>>>>>>>::::::::::::::::::::::::::::::::::::::::::::::::::::::::::::::::::::::::::::::::::::::::::::::::::::::::::::::::::::::::::::::::::::::::::::::::::::::::::::::::::::::::::::::::::::>>>>>>>>>>>>>>>>>>>",
">>>>>>>>>>>>>>>>>>>>>::::::::::::::::::::::::::::::::::::::::::::::::::::::::::::::::::::::::::::::::::::::::::::::::::::::::::::::::::::::::::::::::::::::::::::::::::::::::::::::::::::::::::::::>>>>>>>>>>>>>>>>>>>>>>",
">>>>>>>>>>>>>>>>>>>>>>>>>>:::::::::::::::::::::::::::::::::::::::::::::::::::::::::::::::::::::::::::::::::::::::::::::::::::::::::::::::::::::::::::::::::::::::::::::::::::::::::::::::::::::>>>>>>>>>>>>>>>>>>>>>>>>>>"
};
