/* XPM */
static xpm_row_t const RESOLUTION_[] = {
/* columns rows colors chars-per-pixel */
"244 27 2 1 ",
"  c #FFFFFF",
". c None",
/* pixels */
"              .........                ..........           ................    ..............  .....................  ...........  ........                ........              ..............    .............     .........  ...................",
"               ........                 ........              .............      ............    ....................   .........   ........                .......                ............      ............     ........   ...................",
"                .......                 .......                ...........        ...........    ...................    .........    .......                .......                ...........        ...........      .......    ..................",
"                .......                ........                ...........        ...........    ...................    .........    .......                ........              ............         ..........      .......    ..................",
"    .........    ......    ....................   .........    ..........    ..    ..........    ...................    .........    .......   ...    ..    .............    ................    ..    ..........       ......    .............   ..",
"    .........    ......    ....................    .........   ..........    ..    ..........    ...................    .........    .......   ...    ...   .............    ................    ...   ..........       ......    ............      ",
"    .........    ......    .....................    ......... ..........    ....    .........    ...................    .........    ........ ....    .... ..............    ...............    ....    .........       ......    ...........       ",
"    .........    ......    .....................     ...................    ....    .........    ...................    .........    .............    ...................    ...............    ....    .........        .....    ...........       ",
"    ........    .......    ......................    ..................    ......    ........    ...................    .........    .............    ...................    ...............   ......    ........        .....    ...........       ",
"                .......    .......................    .................    ......    ........    ...................    .........    .............    ...................    ..............    ......    ........    .    ....    ...........       ",
"                .......    .......................     ...............    ........    .......    ...................    .........    .............    ...................    ..............    .......    .......    .    ....    ............     .",
"               ........    ........................     ..............    ........    .......    ...................    .........    .............    ...................    .............    ........    .......    ..    ...    ..................",
"            ...........          ...................    ..............    ........    .......    ...................    .........    .............    ...................    .............    .........   .......    ..    ...    ..................",
"    ..     ............          ....................    .............    .........   .......    ...................    .........    .............    ...................    .............    .........   .......    ..    ...    ..................",
"    ...    ............          ....................     ............    ........    .......    ...................    .........    .............    ...................    .............    .........   .......    ...    ..    ..................",
"    ...     ...........    ...........................     ...........    ........    .......    ...................    .........    .............    ...................    .............    ........    .......    ...    ..    ..................",
"    ....    ...........    ............................    ...........    ........    .......    ...................    .........    .............    ...................    ..............    .......    .......    ....    .    ............     .",
"    .....    ..........    .............................    ...........    ......    ........    ...................    .........    .............    ...................    ..............    ......    ........    ....    .    ............      ",
"    .....    ..........    .............................     ..........    ......    ........    ...................    .........    .............    ...................    ..............    ......    ........    .....   .    ...........       ",
"    ......    .........    ..............................     ..........    ....    .........    ...................    .........    .............    ...................    ...............    ....    .........    .....        ...........       ",
"    ......    .........    ..................... .........    ..........    ....    .........    ...................    .........    .............    ...................    ...............    ....    .........    .....        ...........       ",
"    .......    ........    ....................   ........     ..........    ..    ..........    ...................    .........    .............    ...................    ................    ..     .........    ......       ............      ",
"    .......    ........    ....................   .........    ..........    ..    ..........    ...................    .........    .............    ...................    ................    ..    ..........    ......       .............   ..",
"    ........    .......                ........                ...........        ...........               .........               ..............    ..............              ............         ..........    .......      ..................",
"    ........    .......                 .......               ............        ...........                ........               ..............    .............                ...........        ...........    .......      ..................",
"    .........   .......                 ........              .............      ............                .........             ...............   ..............                ............      .............   .......      ..................",
".  ...........  .......                ..........            ................   .............                ..........           .................  ...............              ...............   ..............  .........     .................."
};
