/* XPM */
static xpm_row_t const RESUME_[] = {
/* columns rows colors chars-per-pixel */
"196 59 17 1 ",
"  c #00A099",
". c #10A69F",
"X c #21ABA5",
"o c #31B1AB",
"O c #41B7B2",
"+ c #52BCB8",
"@ c #62C2BE",
"# c #72C8C4",
"$ c #83CDCA",
"% c #93D3D0",
"& c #A3D9D6",
"* c #B4DEDC",
"= c #C4E4E3",
"- c #D4EAE9",
"; c #E5EFEF",
": c #FFFFFF",
"> c None",
/* pixels */
">>>>>>>>>>>>>>>>>>>>>>>>>>>>>>>>>>>>>>>>>>>>>>>>>>>>>>>>>>>>>>>>>>>>>>>>>>>>>>>>>>>>>>>>>>>>>>>>>>>>>>>>>>>>>>>>>>>>>>>>>>>>>>>>>>>>>>>>>>>>>>>>>>>>>>>>>>>>>>>>>>>>>>>>>>>>>>>>>>>>>>>>>>>>>>>>>>>>",
">>>>>>>>>>>>>>>>>:::::::::::::::::::::::::::::::::::::::::::::::::::::::::::::::::::::::::::::::::::::::::::::::::::::::::::::::::::::::::::::::::::::::::::::::::::::::::::::::::::>>>>>>>>>>>>>>>>",
">>>>>>>>>>>>>>::::::::::::::::::::::::::::::::::::::::::::::::::::::::::::::::::::::::::::::::::::::::::::::::::::::::::::::::::::::::::::::::::::::::::::::::::::::::::::::::::::::::>>>>>>>>>>>>>>",
">>>>>>>>>>>>:::::::::::::::::::::::::::::::::::::::::::::::::::::::::::::::::::::::::::::::::::::::::::::::::::::::::::::::::::::::::::::::::::::::::::::::::::::::::::::::::::::::::::::>>>>>>>>>>>",
">>>>>>>>>>::::::::::::::::::::::::::::::::::::::::::::::::::::::::::::::::::::::::::::::::::::::::::::::::::::::::::::::::::::::::::::::::::::::::::::::::::::::::::::::::::::::::::::::::>>>>>>>>>>",
">>>>>>>>>::::::::::::::::::::::::::::::::::::::::::::::::::::::::::::::::::::::::::::::::::::::::::::::::::::::::::::::::::::::::::::::::::::::::::::::::::::::::::::::::::::::::::::::::::>>>>>>>>>",
">>>>>>>>:::::::::::::::::::::::::::::::::::::::::::::::::::::::::::::::::::::::::::::::::::::::::::::::::::::::::::::::::::::::::::::::::::::::::::::::::::::::::::::::::::::::::::::::::::::>>>>>>>",
">>>>>>>:::::::::::::::::::::::::::::::::::::::::::::::::::::::::::::::::::::::::::::::::::::::::::::::::::::::::::::::::::::::::::::::::::::::::::::::::::::::::::::::::::::::::::::::::::::::>>>>>>",
">>>>>>:::::::::::::::::::::::::::::::::::::::::::::::::::::::::::::::::::::::::::::::::::::::::::::::::::::::::::::::::::::::::::::::::::::::::::::::::::::::::::::::::::::::::::::::::::::::::>>>>>",
">>>>>::::::::::::::::::::::::::::::::::::::::::::::::::::::::::::::::::::::::::::::::::::::::::::::::::::::::::::::::::::::::::::::::::::::::::::::::::::::::::::::::::::::::::::::::::::::::::>>>>>",
">>>>::::::::::::::::::::::::::::::::::::::::::::::::::::::::::::::::::::::::::::::::::::::::::::::::::::::::::::::::::::::::::::::::::::::::::::::::::::::::::::::::::::::::::::::::::::::::::::>>>>",
">>>::::::::::-               O&:::::::::::*                  o-::::::::::;@             $::::::::::::$ X-::::::::::::# o-::::::::*    X;::::::::$    @::::::::*                  o-::::::::::::::>>>",
">>>::::::::::-                 @::::::::::*                   +:::::::::-X               o;:::::::::;   +:::::::::::=   #::::::::*     @:::::::=     @::::::::*                   +::::::::::::::>>>",
">>:::::::::::-                  #:::::::::*                   +:::::::::@                 +:::::::::*   O:::::::::::*   O::::::::*      &::::::X     @::::::::*                   +:::::::::::::::>>",
">>:::::::::::-                   -::::::::*                  o-::::::::;                   *::::::::*   O:::::::::::*   O::::::::*      .-::::#      @::::::::*                  o-:::::::::::::::>>",
">::::::::::::-   X::::::::::-X   $::::::::*   X::::::::::::::::::::::::=   X:::::::::::+   #::::::::*   O:::::::::::*   O::::::::*       +:::&       @::::::::*   X::::::::::::::::::::::::::::::::>",
">::::::::::::-   X:::::::::::&   +::::::::*   X::::::::::::::::::::::::;    %::::::::::=   O::::::::*   O:::::::::::*   O::::::::*        $:;.       @::::::::*   X::::::::::::::::::::::::::::::::>",
">::::::::::::-   X:::::::::::*   O::::::::*   X:::::::::::::::::::::::::o   .-::::::::::.  +::::::::*   O:::::::::::*   O::::::::*   oX   .-+    +   @::::::::*   X::::::::::::::::::::::::::::::::>",
">::::::::::::-   X:::::::::::*   O::::::::*   X:::::::::::::::::::::::::*    o::::::::::$ X-::::::::*   O:::::::::::*   O::::::::*   O=    .    #%   @::::::::*   X:::::::::::::::::::::::::::::::::",
":::::::::::::-   X:::::::::::*   O::::::::*   X::::::::::::::::::::::::::#    #:::::::::::::::::::::*   O:::::::::::*   O::::::::*   O:$       X;%   @::::::::*   X:::::::::::::::::::::::::::::::::",
":::::::::::::-   X:::::::::::&   +::::::::*   X:::::::::::::::::::::::::::o    &::::::::::::::::::::*   O:::::::::::*   O::::::::*   O::o      =:%   @::::::::*   X:::::::::::::::::::::::::::::::::",
":::::::::::::-   X::::::::::-X   $::::::::*   X:::::::::::::::::::::::::::-.   X;:::::::::::::::::::*   O:::::::::::*   O::::::::*   O::-.    $::%   @::::::::*   X:::::::::::::::::::::::::::::::::",
":::::::::::::-                   -::::::::*   X::::::::::::::::::::::::::::$    +:::::::::::::::::::*   O:::::::::::*   O::::::::*   O:::%   X:::%   @::::::::*   X:::::::::::::::::::::::::::::::::",
":::::::::::::-                  #:::::::::*   X:::::::::::::::::::::::::::::+    $::::::::::::::::::*   O:::::::::::*   O::::::::*   O:::*   O:::%   @::::::::*   X:::::::::::::::::::::::::::::::::",
":::::::::::::-                 @::::::::::*   X:::::::::::::::::::::::::::::;X    =:::::::::::::::::*   O:::::::::::*   O::::::::*   O:::=   @:::%   @::::::::*   X:::::::::::::::::::::::::::::::::",
":::::::::::::-               O&:::::::::::*          X=::::::::::::::::::::::=    X:::::::::::::::::*   O:::::::::::*   O::::::::*   O::::$ o-:::%   @::::::::*          X=:::::::::::::::::::::::::",
":::::::::::::-   X::;.   #::::::::::::::::*           +:::::::::::::::::::::::$    #::::::::::::::::*   O:::::::::::*   O::::::::*   O:::::::::::%   @::::::::*           +:::::::::::::::::::::::::",
":::::::::::::-   X:::$    -:::::::::::::::*           +::::::::::::::::::::::::o    &:::::::::::::::*   O:::::::::::*   O::::::::*   O:::::::::::%   @::::::::*           +:::::::::::::::::::::::::",
":::::::::::::-   X::::X   @:::::::::::::::*          X=::::::::::::::::::::::::-.   .-::::::::::::::*   O:::::::::::*   O::::::::*   O:::::::::::%   @::::::::*          X=:::::::::::::::::::::::::",
":::::::::::::-   X::::%    *::::::::::::::*   X:::::::::::::::::::::::::::::::::&    o::::::::::::::*   O:::::::::::*   O::::::::*   O:::::::::::%   @::::::::*   X:::::::::::::::::::::::::::::::::",
":::::::::::::-   X:::::O   O::::::::::::::*   X::::::::::::::::::::::::::::::::::#    $:::::::::::::*   O:::::::::::*   O::::::::*   O:::::::::::%   @::::::::*   X:::::::::::::::::::::::::::::::::",
":::::::::::::-   X:::::*    %:::::::::::::*   X:::::::::::::::::::::::::::::::::::X    =::::::::::::*   O:::::::::::*   O::::::::*   O:::::::::::%   @::::::::*   X:::::::::::::::::::::::::::::::::",
":::::::::::::-   X::::::+   X:::::::::::::*   X:::::::::::::::::::::::::::::::::::=    X;:::::::::::*   O:::::::::::*   O::::::::*   O:::::::::::%   @::::::::*   X:::::::::::::::::::::::::::::::::",
":::::::::::::-   X::::::-    $::::::::::::*   X::::::::::::::::::::::::::::::::::::$    +:::::::::::*   O:::::::::::*   O::::::::*   O:::::::::::%   @::::::::*   X:::::::::::::::::::::::::::::::::",
":::::::::::::-   X:::::::@   .;:::::::::::*   X:::::::::::::::::::::::::::::::::::::+    %::::::::::*   O:::::::::::*   O::::::::*   O:::::::::::%   @::::::::*   X:::::::::::::::::::::::::::::::::",
":::::::::::::-   X:::::::;.   $:::::::::::*   X:::::::::::::::::::::::::::::::::::::;X   .-:::::::::*   O:::::::::::*   O::::::::*   O:::::::::::%   @::::::::*   X:::::::::::::::::::::::::::::::::",
":::::::::::::-   X::::::::$    -::::::::::*   X:::::::::::::::::::::::::$ X-:::::::::&    o:::::::::*   O:::::::::::*   O::::::::*   O:::::::::::%   @::::::::*   X:::::::::::::::::::::::::::::::::",
":::::::::::::-   X::::::::;.   @::::::::::*   X::::::::::::::::::::::::;   +::::::::::#    %::::::::*   O:::::::::::*   O::::::::*   O:::::::::::%   @::::::::*   X:::::::::::::::::::::::::::::::::",
":::::::::::::-   X:::::::::%    =:::::::::*   X::::::::::::::::::::::::=   o:::::::::::o   +::::::::=   o:::::::::::$   @::::::::*   O:::::::::::%   @::::::::*   X:::::::::::::::::::::::::::::::::",
":::::::::::::-   X::::::::::X   O:::::::::*   X::::::::::::::::::::::::;    *::::::::::*   O:::::::::.   #:::::::::-X   $::::::::*   O:::::::::::%   @::::::::*   X:::::::::::::::::::::::::::::::::",
">::::::::::::-   X::::::::::&    *::::::::*                  X-:::::::::O                  #:::::::::@                  -::::::::*   O:::::::::::%   @::::::::*                  X-:::::::::::::::::",
">::::::::::::-   X:::::::::::O   +::::::::*                   +:::::::::=                  *:::::::::-.                $:::::::::*   O:::::::::::%   @::::::::*                   +::::::::::::::::>",
">::::::::::::;   o:::::::::::*   +::::::::*                   +::::::::::%                #:::::::::::=.              #::::::::::=   +:::::::::::=   #::::::::*                   +::::::::::::::::>",
">:::::::::::::% .=::::::::::::$ X-::::::::*                  o-:::::::::::*O            .%:::::::::::::;$           O&::::::::::::$ X-::::::::::::# o-::::::::*                  o-::::::::::::::::>",
">>::::::::::::::::::::::::::::::::::::::::::::::::::::::::::::::::::::::::::::::::::::::::::::::::::::::::::::::::::::::::::::::::::::::::::::::::::::::::::::::::::::::::::::::::::::::::::::::::>>",
">>::::::::::::::::::::::::::::::::::::::::::::::::::::::::::::::::::::::::::::::::::::::::::::::::::::::::::::::::::::::::::::::::::::::::::::::::::::::::::::::::::::::::::::::::::::::::::::::::>>",
">>>::::::::::::::::::::::::::::::::::::::::::::::::::::::::::::::::::::::::::::::::::::::::::::::::::::::::::::::::::::::::::::::::::::::::::::::::::::::::::::::::::::::::::::::::::::::::::::::>>>",
">>>::::::::::::::::::::::::::::::::::::::::::::::::::::::::::::::::::::::::::::::::::::::::::::::::::::::::::::::::::::::::::::::::::::::::::::::::::::::::::::::::::::::::::::::::::::::::::::::>>>",
">>>>::::::::::::::::::::::::::::::::::::::::::::::::::::::::::::::::::::::::::::::::::::::::::::::::::::::::::::::::::::::::::::::::::::::::::::::::::::::::::::::::::::::::::::::::::::::::::::>>>>",
">>>>>:::::::::::::::::::::::::::::::::::::::::::::::::::::::::::::::::::::::::::::::::::::::::::::::::::::::::::::::::::::::::::::::::::::::::::::::::::::::::::::::::::::::::::::::::::::::::::>>>>",
">>>>>>:::::::::::::::::::::::::::::::::::::::::::::::::::::::::::::::::::::::::::::::::::::::::::::::::::::::::::::::::::::::::::::::::::::::::::::::::::::::::::::::::::::::::::::::::::::::::>>>>>",
">>>>>>::::::::::::::::::::::::::::::::::::::::::::::::::::::::::::::::::::::::::::::::::::::::::::::::::::::::::::::::::::::::::::::::::::::::::::::::::::::::::::::::::::::::::::::::::::::::>>>>>>",
">>>>>>>::::::::::::::::::::::::::::::::::::::::::::::::::::::::::::::::::::::::::::::::::::::::::::::::::::::::::::::::::::::::::::::::::::::::::::::::::::::::::::::::::::::::::::::::::::::>>>>>>>",
">>>>>>>>>:::::::::::::::::::::::::::::::::::::::::::::::::::::::::::::::::::::::::::::::::::::::::::::::::::::::::::::::::::::::::::::::::::::::::::::::::::::::::::::::::::::::::::::::::::>>>>>>>>",
">>>>>>>>>>::::::::::::::::::::::::::::::::::::::::::::::::::::::::::::::::::::::::::::::::::::::::::::::::::::::::::::::::::::::::::::::::::::::::::::::::::::::::::::::::::::::::::::::::>>>>>>>>>>",
">>>>>>>>>>>>:::::::::::::::::::::::::::::::::::::::::::::::::::::::::::::::::::::::::::::::::::::::::::::::::::::::::::::::::::::::::::::::::::::::::::::::::::::::::::::::::::::::::::::>>>>>>>>>>>",
">>>>>>>>>>>>>>:::::::::::::::::::::::::::::::::::::::::::::::::::::::::::::::::::::::::::::::::::::::::::::::::::::::::::::::::::::::::::::::::::::::::::::::::::::::::::::::::::::::::>>>>>>>>>>>>>",
">>>>>>>>>>>>>>>>::::::::::::::::::::::::::::::::::::::::::::::::::::::::::::::::::::::::::::::::::::::::::::::::::::::::::::::::::::::::::::::::::::::::::::::::::::::::::::::::::::>>>>>>>>>>>>>>>>",
">>>>>>>>>>>>>>>>>>>>>>::::::::::::::::::::::::::::::::::::::::::::::::::::::::::::::::::::::::::::::::::::::::::::::::::::::::::::::::::::::::::::::::::::::::::::::::::::::::>>>>>>>>>>>>>>>>>>>>>>"
};
