/* XPM */
static xpm_row_t const SCORE_[] = {
/* columns rows colors chars-per-pixel */
"51 19 2 1 ",
"  c #FFFFFF",
". c None",
/* pixels */
"...................................................",
"...................................................",
"...................................................",
"..      ......     .....   .....       ...       ..",
"..  ...  ..... ......... .  ....  .... ...  .......",
"..  .........  ........  .. ....  ....  ..  .......",
"...  ........ ......... ...  ...  .... ...  .......",
".... .......  ........  ...  ...       ...  .......",
"....  ......  ........  .... ...  .  .....     ....",
".....  ..... .........  .... ...  .. .....  .......",
"...... .....  ........  ...  ...  ..  ....  .......",
"......  ..... ......... ...  ...  ... ....  .......",
".......  ....  ........  .. ....  ...  ...  .......",
".. ....  ..... ......... .  ....  .... ...  .......",
"..       .....     .....   ...... .... ...       ..",
"...................................................",
"...................................................",
"...................................................",
"..................................................."
};
