/* XPM */
static xpm_row_t const TIMELIMITEINSECONDS[] = {
/* columns rows colors chars-per-pixel */
"311 18 2 1 ",
"  c #FFFFFF",
". c None",
/* pixels */
".......................................................................................................................................................................................................................................................................................................................",
".......................................................................................................................................................................................................................................................................................................................",
".......................................................................................................................................................................................................................................................................................................................",
".......................................................................................................................................................................................................................................................................................................................",
"..       ... .... ...      ....      .............       ... ....  ...      .............       ...      ...   .   ...       ............  ........       ...  ..   ..       ...       ................. ....       ...  ... ..............     ....      ......    .....   .....  ... ....    ......     .....  ......",
".. .  . .... .... ...  .... ... ..................  . .. ...  ...  ... .................. .. .  .....  .....       ... ..................  ........... ......       ..... ...... .. .  ................ ........ ......   ..  ............  ...  ... ..........  ........ . .....   ..  .... .  ....  .... ..... ......",
"....  ......  ..  ...  .... ... ..................... ......  ...  ... ..................... ........  .....     . ... ..................  ........... ...... .     ..... ......... ..................  ........ ......   ..  ............. ........ .......... ........  .. ....   ..  .... .. ..... ..........  .....",
"....  .......    ....  .... ... ..................... ......  ...  ... ..................... ........  .....  .  . ... ..................  ........... ...... .  .  ..... ......... .................. ......... ...... . ..  .............  ....... .........  ........ ... .... . ..  .... ..  ....  ..........  ....",
"....  ........  .....  .... ... ..................... ......  ...  ... ..................... ........  .....  . .. ... ..................  ........... ...... .. .  ..... ......... .................. ......... ...... .  .  ..............  ...... ......... ......... ...  ... .  .  .... ... .....  .........  ....",
"....  ........  .....  .... ...    .................. ......       ...    .................. ........  .....  .... ...    ...............  ........... ...... ....  ..... ......... .................. ......... ...... .  .  ............... ......    ...... ........  .... ... .  .  .... ... ......  ........  ....",
"....  ........  .....      .... ..................... ......  ...  ... ..................... ........  .....  .... ... ..................  ........... ...... ....  ..... ......... .................. ......... ...... .. .  ...............  ..... ......... ........  ...  ... .. .  .... ... ....... ........  ....",
"....  ........  .....  ........ ..................... ......  ...  ... ..................... ........  .....  .... ... ..................  ........... ...... ....  ..... ......... .................. ......... ...... .. .  ................  .... .........  ........ ... .... .. .  .... ..  .......  .......  ....",
"....  ........  .....  ........ ..................... ......  ...  ... ..................... ........  .....  .... ... ..................  ........... ...... ....  ..... ......... ..................  ........ ...... ..    ................. .... .......... ........  .. .... ..    .... .. .........  .....  .....",
"....  ........  .....  ........ ..................... ......  ...  ... ..................... ........  .....  .... ... ..................  ........... ...... ....  ..... ......... ...................  ....... ...... ...   ............ ....  ... ..........  ........ .  .... ...   .... .  ....  .... ..... ......",
"..... ........  .....  ........      ................ ...... ....  ...      ................ ......      ...  .... ...       ............       ...       ... .... ...       ...... .................... ....       ... ...   .............     ....      ......    .....   ..... ...   ...    ......     .....  ......",
".......................................................................................................................................................................................................................................................................................................................",
".......................................................................................................................................................................................................................................................................................................................",
"......................................................................................................................................................................................................................................................................................................................."
};
