/* XPM */
static xpm_row_t const j_[] = {
/* columns rows colors chars-per-pixel */
"11 20 2 1 ",
"  c #000000",
". c None",
/* pixels */
"...........",
"........  .",
"........  .",
"........  .",
"........  .",
"........  .",
"........  .",
"........  .",
"........  .",
"........  .",
"........  .",
".  .....  .",
"   .....  .",
"   .....  .",
"   .....  .",
"   .....  .",
".  ....   .",
".         .",
".         .",
"...     ..."
};
