/* XPM */
static xpm_row_t const NAME___[] = {
/* columns rows colors chars-per-pixel */
"90 40 2 1 ",
"  c #FFFFFF",
". c None",
/* pixels */
"..........................................................................................",
"..........................................................................................",
"..........................................................................................",
"..........................................................................................",
"..........................................................................................",
"..........................................................................................",
"..........................................................................................",
"....    ........  ..............   ..............    .......    .......               ....",
"....    ........   .............   ..............     .....     .......               ....",
"....     .......   ............     .............     ....      .......               ....",
"....     .......   ............     .............      ...      .......   ................",
"....      ......   ............     .............       .       .......   ................",
"....      ......   ............     .............   .       .   .......   ................",
"....       .....   ...........       ............   .      ..   .......   ................",
"....   .   .....   ...........       ............   ..     ..   .......   ................",
"....   .   .....   ...........   .   ............   ...   ...   .......   ................",
"....   ..   ....   ..........    .   ............   ...   ...   .......   ................",
"....   ..   ....   ..........   ..    ...........   ...  ....   .......   ................",
"....   ...   ...   ..........   ...   ...........   .........   .......        ...........",
"....   ...   ...   ..........   ...   ...........   .........   .......         ..........",
"....   ...    ..   .........    ...   ...........   .........   .......        ...........",
"....   ....   ..   .........   ....    ..........   .........   .......   ................",
"....   ....   ..   .........   .....   ..........   .........   .......   ................",
"....   .....   .   .........           ..........   .........   .......   ................",
"....   .....   .   ........             .........   .........   .......   ................",
"....   .....       ........             .........   .........   .......   ................",
"....   ......      ........   .......   .........   .........   .......   ................",
"....   ......      .......    .......   .........   .........   .......   ................",
"....   .......     .......   ........    ........   .........   .......   ................",
"....   .......     .......   .........   ........   .........   .......               ....",
"....   ........    .......   .........   ........   .........   .......               ....",
"....  .........    .......  ..........   ........  ..........  ........               ....",
"..........................................................................................",
"..........................................................................................",
"..........................................................................................",
"..........................................................................................",
"..........................................................................................",
"..........................................................................................",
"..........................................................................................",
".........................................................................................."
};
