/* XPM */
static xpm_row_t const _SCORE_[] = {
/* columns rows colors chars-per-pixel */
"105 26 2 1 ",
"  c #FFFFFF",
". c None",
/* pixels */
"....       ...................      ................ ..............           ...........              ..",
".             ..............          ............     ............              ........               .",
".              ............           ...........       ...........              ........                ",
"               ...........           ...........        ...........               .......               .",
"    ........    ..........    ..................    .    ..........   ........    .......    ............",
"    ........   ..........    ..................    ..    ..........   .........   .......    ............",
".    ........  ..........    ..................    ...    .........   .........   .......    ............",
".     ..................    ..................    ....    .........   .........   .......    ............",
"..    ..................    ..................    .....    ........   ........    .......    ............",
"...    ................    ..................    ......    ........               .......    ............",
"....    ...............    ..................    .......    .......              ........    ............",
"....     .............    ...................   ........    .......             .........        ........",
".....    .............    ..................    .........   .......   ..    .............         .......",
"......    ............    ..................    .........   .......   ...    ............         .......",
".......    ...........    ...................   ........    .......   ...    ............         .......",
".......     ...........    ..................    .......    .......   ....    ...........    ............",
"........    ...........    ..................    ......    ........   .....    ..........    ............",
".........    ...........    ..................    .....    ........   .....    ..........    ............",
"..........    ..........    ..................    ....    .........   ......    .........    ............",
". ........     ..........    ..................    ...    .........   ......    .........    ............",
"   ........    ..........    ..................    ...   ..........   .......    ........    ............",
"    ........   ...........    ..................    .    ..........   .......    ........    ............",
"               ...........           ...........        ...........   ........    .......               .",
"               ............           ...........       ...........   ........    .......                ",
".             ..............          ............     ............   .........   .......               .",
"...         ..................      ................ ............... ....................              .."
};
