/* XPM */
static xpm_row_t const TYPETHEPOINTLIMIT_[] = {
/* columns rows colors chars-per-pixel */
"426 38 2 1 ",
"  c #FFFFFF",
". c None",
/* pixels */
"..........................................................................................................................................................................................................................................................................................................................................................................................................................................",
"..........................................................................................................................................................................................................................................................................................................................................................................................................................................",
"..........................................................................................................................................................................................................................................................................................................................................................................................................................................",
"..........................................................................................................................................................................................................................................................................................................................................................................................................................................",
"..........................................................................................................................................................................................................................................................................................................................................................................................................................................",
"..........................................................................................................................................................................................................................................................................................................................................................................................................................................",
"..........................................................................................................................................................................................................................................................................................................................................................................................................................................",
"..........................................................................................................................................................................................................................................................................................................................................................................................................................................",
".....              .......  ..........  .......            ..........              ............................              ....... ........... ........              .............................            ..............    ............              ........    ........  .......              ............................  ...................              .......     ......    .......              .......              ....",
".....              .......  .........   .......             .........              ............................              ......   .........   .......              .............................             ............      ...........              ........    .......   .......              ............................  ...................              .......     .....     .......              .......              ....",
".....              .......  .........   .......              ........              ............................              ......   .........   .......              .............................              ..........       ...........              ........     ......   .......              ............................  ...................              .......      ...      .......              .......              ....",
".....  ...   ...   .......   ........   .......  .........   ........  ........................................  ...   ...   ......   .........   .......  .........................................  .........   ..........   ..   ...............   ..............     ......   .......  ...   ...   ............................  ........................   .............       ..      ............   .............  ...   ...   ....",
".....  ...   ...   .......   .......    .......  .........   ........  ........................................  ...   ...   ......   .........   .......  .........................................  .........   .........   ...   ...............   ..............     ......   .......  ...   ...   ............................  ........................   .............               ............   .............  ...   ...   ....",
".....  ...   ....  .......    ......   ........  .........   ........  ........................................  ...   ....  ......   .........   .......  .........................................  .........   .........   ....   ..............   ..............      .....   .......  ...   ....  ............................  ........................   .............   .       .   ............   .............  ...   ....  ....",
"..........   ..............    ....   .........  .........   ........  .............................................   ............   .........   .......  .........................................  .........   ........   .....   ..............   ..............  .   .....   ............   ..................................  ........................   .............   ..     ..   ............   ..................   ..........",
"..........   ...............    ..    .........  .........   ........  .............................................   ............   .........   .......  .........................................  .........   ........   ......   .............   ..............  ..   ....   ............   ..................................  ........................   .............   ...   ...   ............   ..................   ..........",
"..........   ................   .    ..........  .........   ........  .............................................   ............   .........   .......  .........................................  .........   .......   .......   .............   ..............  ..   ....   ............   ..................................  ........................   .............   ...   ...   ............   ..................   ..........",
"..........   ................       ...........  .........   ........  .............................................   ............   .........   .......  .........................................  .........   .......   ........   ............   ..............  ..   ....   ............   ..................................  ........................   .............   ....  ...   ............   ..................   ..........",
"..........   .................     ............  .........   ........        .......................................   ............               .......        ...................................  .........   .......   ........   ............   ..............  ...   ...   ............   ..................................  ........................   .............   .........   ............   ..................   ..........",
"..........   ..................    ............              ........        .......................................   ............               .......        ...................................              .......  .........   ............   ..............  ...   ...   ............   ..................................  ........................   .............   .........   ............   ..................   ..........",
"..........   ..................   .............             .........        .......................................   ............               .......        ...................................             ........   ........   ............   ..............  ....   ..   ............   ..................................  ........................   .............   .........   ............   ..................   ..........",
"..........   ..................   .............            ..........  .............................................   ............   .........   .......  .........................................            .........   ........   ............   ..............  ....   ..   ............   ..................................  ........................   .............   .........   ............   ..................   ..........",
"..........   ..................   .............  ....................  .............................................   ............   .........   .......  .........................................  ...................   .......   .............   ..............  ....    .   ............   ..................................  ........................   .............   .........   ............   ..................   ..........",
"..........   ..................   .............  ....................  .............................................   ............   .........   .......  .........................................  ....................   ......   .............   ..............  .....   .   ............   ..................................  ........................   .............   .........   ............   ..................   ..........",
"..........   ..................   .............  ....................  .............................................   ............   .........   .......  .........................................  ....................   .....   ..............   ..............  .....   .   ............   ..................................  ........................   .............   .........   ............   ..................   ..........",
"..........   ..................   .............  ....................  .............................................   ............   .........   .......  .........................................  .....................   ....   ..............   ..............  ......      ............   ..................................  ........................   .............   .........   ............   ..................   ..........",
"..........   ..................   .............  ....................  .............................................   ............   .........   .......  .........................................  .....................   ...   ...............   ..............  ......      ............   ..................................  ........................   .............   .........   ............   ..................   ..........",
"..........   ..................   .............  ....................  .............................................   ............   .........   .......  .........................................  ......................   ..   ...............   ..............  .......     ............   ..................................  ........................   .............   .........   ............   ..................   ..........",
"..........   ..................   .............  ....................              .................................   ............   .........   .......              .............................  ......................       ...........              ........  .......     ............   ..................................              .......              .......   .........   .......              ............   ..........",
"..........   ..................   .............  ....................              .................................   ............   .........   .......              .............................  .......................      ...........              ........  .......     ............   ..................................              .......              .......   .........   .......              ............   ..........",
"...........  ...................  .............  ....................              ..................................  ............. ........... ........              .............................  ........................    ............              ........  ........    .............  ..................................              .......              ........  ..........  .......              .............  ..........",
"..........................................................................................................................................................................................................................................................................................................................................................................................................................................",
"..........................................................................................................................................................................................................................................................................................................................................................................................................................................",
"..........................................................................................................................................................................................................................................................................................................................................................................................................................................",
"..........................................................................................................................................................................................................................................................................................................................................................................................................................................",
"..........................................................................................................................................................................................................................................................................................................................................................................................................................................",
"..........................................................................................................................................................................................................................................................................................................................................................................................................................................",
".........................................................................................................................................................................................................................................................................................................................................................................................................................................."
};
