/* XPM */
static xpm_row_t const _big4[] = {
/* columns rows colors chars-per-pixel */
"18 30 2 1 ",
"  c #FFFFFF",
". c None",
/* pixels */
".  ...............",
".   ..............",
"    ..............",
"    ......... ....",
"    ........   ...",
"    ........    ..",
"    .......     ..",
"    .......     ..",
"    .......     ..",
"    .......     ..",
"    .......     ..",
"    .......     ..",
"    .......     ..",
"    .......     ..",
"    .......     ..",
"    .......     ..",
"                 .",
"                 .",
"                 .",
"                 .",
"...........     ..",
"...........     ..",
"...........     ..",
"...........     ..",
"...........     ..",
"...........     ..",
"...........     ..",
"............    ..",
"............   ...",
".................."
};
