/* XPM */
static xpm_row_t const _big2[] = {
/* columns rows colors chars-per-pixel */
"21 30 2 1 ",
"  c #FFFFFF",
". c None",
/* pixels */
"..                ...",
".                  ..",
".                   .",
".                   .",
"................    .",
"................    .",
"................    .",
"................    .",
"................    .",
"................    .",
"................    .",
"................    .",
"................    .",
"..                  .",
".                   .",
".                  ..",
".                 ...",
".    ................",
".    ................",
".    ................",
".    ................",
".    ................",
".    ................",
".    ................",
".    ................",
".                 ...",
".                   .",
".                   .",
".                   .",
"....................."
};
