/* XPM */
static xpm_row_t const _big9[] = {
/* columns rows colors chars-per-pixel */
"20 30 2 1 ",
"  c #FFFFFF",
". c None",
/* pixels */
"..                 .",
".                   ",
".                   ",
".                   ",
".    ...........    ",
".    ...........    ",
".    ...........    ",
".    ...........    ",
".    ...........    ",
".    ...........    ",
".                   ",
".                   ",
".                   ",
"...                 ",
"................    ",
"................    ",
"................    ",
"................    ",
"................    ",
"................    ",
"................    ",
"................    ",
"................    ",
"................    ",
"................    ",
"................    ",
"..............      ",
"..............      ",
"...............    .",
"...................."
};
