/* XPM */
static xpm_row_t const small3_[] = {
/* columns rows colors chars-per-pixel */
"14 20 2 1 ",
"  c #000000",
". c None",
/* pixels */
".           ..",
".            .",
".            .",
"..........   .",
"..........   .",
"..........   .",
"..........   .",
"..........   .",
"....         .",
"...          .",
"....         .",
"..........   .",
"..........   .",
"..........   .",
"..........   .",
"..........   .",
"..           .",
".            .",
".           ..",
".............."
};
