/* XPM */
static xpm_row_t const small9_[] = {
/* columns rows colors chars-per-pixel */
"13 19 2 1 ",
"  c #000000",
". c None",
/* pixels */
".            ",
"             ",
"             ",
"   .......   ",
"   .......   ",
"   .......   ",
"             ",
"             ",
".            ",
"..........   ",
"..........   ",
"..........   ",
"..........   ",
"..........   ",
"..........   ",
"..........   ",
"..........   ",
".........    ",
".........    "
};
