/* XPM */
static xpm_row_t const travessao_[] = {
/* columns rows colors chars-per-pixel */
"14 4 2 1 ",
"  c #000000",
". c None",
/* pixels */
".            .",
".            .",
".            .",
".            ."
};
