/* XPM */
static xpm_row_t const name__[]={
"81 33 16 1",
". c None",
"c c #f5f5f5",
"f c #f5f5f5",
"j c #f5f5f5",
"n c #f5f5f5",
"i c #f5f5f5",
"k c #f5f5f5",
"d c #f5f5f5",
"h c #f5f5f5",
"e c #f5f5f5",
"m c #f5f5f5",
"# c #f5f5f5",
"l c #f5f5f5",
"g c #f5f5f5",
"b c #f5f5f5",
"a c #f5f5f5",
".................................................................................",
".................................................................................",
".................................................................................",
".................................................................................",
".................................................................................",
".................................................................................",
"...#aabc......dae...........fgad...........#aag......eaaa......#aaaaaaaaaaaah....",
"...#aaad......#aa...........daab...........#aaah....iaaaa......#aaaaaaaaaaaaa....",
"...#aaab......#aa...........#aaaj..........#aaaai..fbaaaa......#aaaaaaaaaaaah....",
"...#aaaak.....#aa..........caaaad..........#aaaagc.laaaaa......#aa...............",
"...#aaaag.....#aa..........iaaaal..........#aaeaamdaal#aa......#aa...............",
"...#aagaak....#aa..........eaaaaac.........#aacgaaaaaj#aa......#aa...............",
"...#aakaa#....#aa..........baa#aai.........#aa.naaaad.#aa......#aa...............",
"...#aaf#aan...#aa.........jaa#kaah.........#aa..haam..#aa......#aa...............",
"...#aafiaa#...#aa.........daadcaab.........#aa..naad..#aa......#aa...............",
"...#aaf.gaaj..#aa.........laaj.laaj........#aa..clbj..#aa......#aaaaaabj.........",
"...#aaf.kaae..#aa........caag..haad........#aa........#aa......#aaaaaaad.........",
"...#aaf..gaaf.#aa........kaah..jaam........#aa........#aa......#aaaaaaaj.........",
"...#aaf..daae.#aa........maai...babc.......#aa........#aa......#aa...............",
"...#aaf..cbabc#aa........babc...maai.......#aa........#aa......#aa...............",
"...#aaf...daad#aa.......naaaaaaaaaah.......#aa........#aa......#aa...............",
"...#aaf...caablaa.......haaaaaaaaaal.......#aa........#aa......#aa...............",
"...#aaf....eaaaaa.......laaaaaaaaaaaf......#aa........#aa......#aa...............",
"...#aaf....faaaaa......jaal......haad......#aa........#aa......#aa...............",
"...#aaf.....eaaaa......daad......jaam......#aa........#aa......#aaaaaaaaaaaah....",
"...maac.....naaaa......maaj.......bab......#aa........#aa......#aaaaaaaaaaaaa....",
"...ia#.......#aaa......kal........dae......kam........dae......#aaaaaaaaaaaah....",
".................................................................................",
".................................................................................",
".................................................................................",
".................................................................................",
".................................................................................",
"................................................................................."};
