/* XPM */
static xpm_row_t const point_limit_[] = {
/* columns rows colors chars-per-pixel */
"383 31 2 1 ",
"  c #FFFFFF",
". c None",
/* pixels */
"...............................................................................................................................................................................................................................................................................................................................................................................................",
"...............................................................................................................................................................................................................................................................................................................................................................................................",
"...............................................................................................................................................................................................................................................................................................................................................................................................",
"...............................................................................................................................................................................................................................................................................................................................................................................................",
"...............................................................................................................................................................................................................................................................................................................................................................................................",
"....             ......  .........  ......           ........             .........................             ....... .......... ......             .........................           .............    ...........             ......    .......  ......             ..........................  .................            ......    .....    .......            ......             ....",
"....             ......  ........   ......            .......             .........................             ......   ........  ......             .........................             ..........      ..........             ......    ......   ......             .........................   ................             ......     ....    ......             ......             ....",
"....             ......  ........   ......             ......             .........................             ......   ........  ......             .........................             ..........       .........             ......    ......   ......             .........................   .................            ......      ..     .......            ......             ....",
"....  ...   ..   ......   .......   ......  ........   ......  ....................................   ...  ...  ......   ........  ......   ...................................   ........  .........   ..   ..............   ...........     .....   ......  ...   ..   .........................   ......................  ...........      .      ............  ...........   ...  ...  ....",
"....  ...   ...  ......    .....    ......  ........   ......  .....................................  ...  ...  ......   ........  ......   ...................................   ........  .........   ...   .............   ...........     .....   ......  ...   ...  .........................   ......................  ...........   .      .  ............  ............  ...  ...  ....",
".........   ............   ....    .......  ........   ......  ..........................................  ...........   ........  ......   ...................................   ........  ........   ....   .............   ...........  .   ....   ...........   ..............................   ......................  ...........   ..    ..  ............  .................  .........",
".........   .............   ...   ........  ........   ......  ..........................................  ...........   ........  ......   ...................................   ........  ........   .....   ............   ...........  ..  ....   ...........   ..............................   ......................  ...........   ..   ...  ............  .................  .........",
".........   ..............   .   .........  ........   ......  ..........................................  ...........   ........  ......   ...................................   ........  .......   ......   ............   ...........  ..   ...   ...........   ..............................   ......................  ...........   ...  ...  ............  .................  .........",
".........   ..............      ..........  ........   ......  ..........................................  ...........   ........  ......   ...................................   ........  .......   .......   ...........   ...........  ..   ...   ...........   ..............................   ......................  ...........   ...  ...  ............  .................  .........",
".........   ...............     ..........             ......       .....................................  ...........             ......        ..............................             .......  ........   ...........   ...........  ...   ..   ...........   ..............................   ......................  ...........   ........  ............  .................  .........",
".........   ................   ...........            .......        ....................................  ...........             ......        ..............................             .......  ........   ...........   ...........  ...   ..   ...........   ..............................   ......................  ...........   ........  ............  .................  .........",
".........   ................   ...........           ........       .....................................  ...........             ......        ..............................           .........   .......   ...........   ...........  ....   .   ...........   ..............................   ......................  ...........   ........  ............  .................  .........",
".........   ................   ...........  .................  ..........................................  ...........   ........  ......   ...................................   .................   ......   ............   ...........  ....   .   ...........   ..............................   ......................  ...........   ........  ............  .................  .........",
".........   ................   ...........  .................  ..........................................  ...........   ........  ......   ...................................   ..................   .....   ............   ...........  .....      ...........   ..............................   ......................  ...........   ........  ............  .................  .........",
".........   ................   ...........  .................  ..........................................  ...........   ........  ......   ...................................   ..................   ....   .............   ...........  .....      ...........   ..............................   ......................  ...........   ........  ............  .................  .........",
".........   ................   ...........  .................  ..........................................  ...........   ........  ......   ...................................   ...................   ...   .............   ...........  ......     ...........   ..............................   ......................  ...........   ........  ............  .................  .........",
".........   ................   ...........  .................  ..........................................  ...........   ........  ......   ...................................   ...................   ..   ..............   ...........  ......     ...........   ..............................   ......................  ...........   ........  ............  .................  .........",
".........   ................   ...........  .................             ...............................  ...........   ........  ......             .........................   ....................       .........             ......  .......    ...........   ..............................             .......            ......   ........  .......            ............  .........",
".........   ................   ...........  .................             ...............................  ...........   ........  ......             .........................   ....................      ..........             ......  .......    ...........   ..............................             ......             ......   ........  ......             ............  .........",
".........  .................  ............  .................             ...............................  ............ .......... ......             ..........................  ......................   ...........             ......  .......    ...........  ...............................             .......            ......  .........  .......            ............  .........",
"...............................................................................................................................................................................................................................................................................................................................................................................................",
"...............................................................................................................................................................................................................................................................................................................................................................................................",
"...............................................................................................................................................................................................................................................................................................................................................................................................",
"...............................................................................................................................................................................................................................................................................................................................................................................................",
"...............................................................................................................................................................................................................................................................................................................................................................................................",
"..............................................................................................................................................................................................................................................................................................................................................................................................."
};
