/* XPM */
static xpm_row_t const score___[] = {
/* columns rows colors chars-per-pixel */
"95 22 2 1 ",
"  c #FFFFFF",
". c None",
/* pixels */
"...       .................     .............................         ...........            ..",
".            ............         ..........      ..........             .......              .",
"              ..........          ..........      ..........              ......              .",
"              .........          ..........        .........              ......             ..",
"    .......   .........   .................   ..   .........   ........   ......   ............",
".   ........ .........    ................    ..    ........   ........   ......   ............",
".    .................   .................   ....   ........   ........   ......   ............",
"..    ...............    ................    ....    .......              ......   ............",
"...    ..............   .................   ......   .......             .......   ............",
"....    ............    ................    ......    ......             .......   ............",
"....    ............   .................   ........   ......   ..    ...........        .......",
".....    ...........   .................   ........   ......   ...   ...........         ......",
"......    ..........    ................   ........   ......   ...    ..........       ........",
".......    ..........   .................   ......    ......   ....   ..........   ............",
"........    .........    ................   ......   .......   ....    .........   ............",
"........    ..........   ................    ....    .......   .....    ........   ............",
".........    .........    ................   ....   ........   ......   ........   ............",
"   .......    .........   ................    ..    ........   ......    .......   ............",
"   .......    .........    ................        .........   .......   .......   ............",
"              ..........          .........        .........   .......    ......              .",
".            ............         ..........      ..........   ........   ......              .",
"...         ...............      .............  ............. .......... .......             .."
};
