/* XPM */
static xpm_row_t const time_limit_seconds[] = {
/* columns rows colors chars-per-pixel */
"612 31 2 1 ",
"  c #FFFFFF",
". c None",
/* pixels */
"....................................................................................................................................................................................................................................................................................................................................................................................................................................................................................................................................................................................................................................",
"....................................................................................................................................................................................................................................................................................................................................................................................................................................................................................................................................................................................................................................",
"....................................................................................................................................................................................................................................................................................................................................................................................................................................................................................................................................................................................................................................",
"....................................................................................................................................................................................................................................................................................................................................................................................................................................................................................................................................................................................................................................",
"....................................................................................................................................................................................................................................................................................................................................................................................................................................................................................................................................................................................................................................",
"...             .......  .........  ......           ........             .........................             ....... .......... ......             .........................             .......            .......    .....    ......             .........................  .................             ......    .....    .......            ......             .................................  ..........             ......    .......  ..........................          ........             ............       ...........    ..........    .......  .......       .............          ...........  ...........",
"...             .......  ........   ......            .......             .........................             ......   ........  ......             .........................             ......             .......     ...     ......             .........................  .................             ......     ....    ......             ......             .................................   .........             ......    ......   .........................            .......             ..........          .........      .........     ......  ......         ...........            ..........   ..........",
"...             .......  ........   ......             ......             .........................             ......   ........  ......             .........................             .......            .......     ..      ......             .........................  .................             ......      ..     .......            ......             ................................   ..........             ......    ......   .........................             ......             ..........         .........       .........     ......  .......         .........             ..........   ..........",
"...   ...  ...  .......   .......   ......  ........   ......  ....................................  ...   ..   ......   ........  ......   ...................................   ...  ...  ............  ............      .      ......  ....................................  ......................   ...........      .      ............  ...........   ...  ...  ...............................   ................   ...........     .....   .........................   .......   ......  ....................   ................   ..   ........     ......  .........  ...   ........   ........  ...........   .........",
"....  ...  ...  .......    .....    ......  ........   ......  ....................................  ...   ...  ......   ........  ......   ....................................  ...  ...  ............  ............  .      .   ......  ....................................  ......................   ...........   .      .  ............  ............  ...  ...  ..............................    ................   ...........     .....   .........................   ........  ......  ....................   ...............   ...   ........      .....  .........  ...   .........   .......  ............   ........",
".........  .............   ....    .......  ........   ......  .........................................   ...........   ........  ......   .........................................  .................  ............  ..     .   ......  ....................................  ......................   ...........   ..    ..  ............  .................  ...................................   .................   ...........  .   ....   ..........................   ...............  ...................   ................   ....   .......   .  .....  .........  ....   ........    .....................   .......",
".........  ..............   ...   ........  ........   ......  .........................................   ...........   ........  ......   .........................................  .................  ............  ...   ..   ......  ....................................  ......................   ...........   ..   ...  ............  .................  ..................................   ..................   ...........  ..  ....   ...........................   ..............  ..................   ................   .....   .......   .   ....  .........  ....   .........    ....................   .......",
".........  ...............   .   .........  ........   ......  .........................................   ...........   ........  ......   .........................................  .................  ............  ...   ..   ......  ....................................  ......................   ...........   ...  ...  ............  .................  ..................................   ..................   ...........  ..   ...   ...........................    .............  ..................   ................   ......   ......   ..  ....  .........  .....   .........   .....................  .......",
".........  ...............      ..........  ........   ......  .........................................   ...........   ........  ......   .........................................  .................  ............  ...  ...   ......  ....................................  ......................   ...........   ...  ...  ............  .................  ..................................   ..................   ...........  ..   ...   ............................    ............  .................   ................   .......   ......   ..   ...  .........  .....   ..........   ....................  .......",
".........  ................     ..........             ......       ....................................   ...........             ......        ....................................  .................  ............  ........   ......       ...............................  ......................   ...........   ........  ............  .................  ..................................   ..................   ...........  ...   ..   .............................    ...........       ............   ................   ........  ......   ..   ...  .........  ......  ...........   ...................  .......",
".........  .................   ...........            .......        ...................................   ...........             ......        ....................................  .................  ............  ........   ......        ..............................  ......................   ...........   ........  ............  .................  ..................................   ..................   ...........  ...   ..   ..............................    ..........        ...........   ................   ........  ......   ...   ..  .........  ......  ............   ..................  .......",
".........  .................   ...........           ........       ....................................   ...........             ......        ....................................  .................  ............  ........   ......       ...............................  ......................   ...........   ........  ............  .................  ..................................   ..................   ...........  ....   .   ...............................   ..........       .............  ................   .......   ......   ...   ..  .........  .....   ............    .................  .......",
".........  .................   ...........  .................  .........................................   ...........   ........  ......   .........................................  .................  ............  ........   ......  ....................................  ......................   ...........   ........  ............  .................  ..................................   ..................   ...........  ....   .   ................................   .........  ..................   ................   ......   ......   ....   .  .........  .....   .............    ................  .......",
".........  .................   ...........  .................  .........................................   ...........   ........  ......   .........................................  .................  ............  ........   ......  ....................................  ......................   ...........   ........  ............  .................  ..................................   ..................   ...........  .....      .................................   ........  ...................   ...............   .....   .......   ....   .  .........  ....   ...............    ..............   .......",
".........  .................   ...........  .................  .........................................   ...........   ........  ......   .........................................  .................  ............  ........   ......  ....................................  ......................   ...........   ........  ............  .................  ...................................   .................   ...........  .....      .................................    .......  ...................   ................   ....   .......   .....     .........  ....   ................   ..............   .......",
".........  .................   ...........  .................  .........................................   ...........   ........  ......   .........................................  .................  ............  ........   ......  ....................................  ......................   ...........   ........  ............  .................  ...................................    ................   ...........  ......     .........................  .......    ......  ....................   ...............   ...   ........   .....     .........  ...   ........   .......   ............   ........",
".........  .................   ...........  .................  .........................................   ...........   ........  ......   .........................................  .................  ............  ........   ......  ....................................  ......................   ...........   ........  ............  .................  ....................................   ................   ...........  ......     .........................  ........   ......  ....................   ................   ..   ........   ......    .........  ...   ........   ........  ...........   .........",
".........  .................   ...........  .................             ..............................   ...........   ........  ......             ...............................  ............            .......  ........   ......             .........................             ......             ......   ........  .......            ............  .....................................   ..........             ......  .......    .........................             ......             ..........         .........       .........   ......    .......         .........             ..........   ..........",
".........  .................   ...........  .................             ..............................   ...........   ........  ......             ...............................  ...........             .......  ........   ......             .........................             ......             ......   ........  ......             ............  ......................................   .........             ......  .......    .........................             ......             ..........          .........      .........   .......   ......         ...........            ..........   ..........",
".........  .................  ............  .................             ..............................  ............. .......... ......             ...............................  ............            .......  .........  ......             .........................             ......             ......  .........  .......            ............  ......................................  ..........             ......  .......    ...........................          .......             ............       ...........    ...........  .......   .......       .............          ...........  ...........",
"....................................................................................................................................................................................................................................................................................................................................................................................................................................................................................................................................................................................................................................",
"....................................................................................................................................................................................................................................................................................................................................................................................................................................................................................................................................................................................................................................",
"....................................................................................................................................................................................................................................................................................................................................................................................................................................................................................................................................................................................................................................",
"....................................................................................................................................................................................................................................................................................................................................................................................................................................................................................................................................................................................................................................",
"....................................................................................................................................................................................................................................................................................................................................................................................................................................................................................................................................................................................................................................",
"...................................................................................................................................................................................................................................................................................................................................................................................................................................................................................................................................................................................................................................."
};
