/* XPM */
static xpm_row_t const button_exit_hover_0x14C[] = {
/* columns rows colors chars-per-pixel */
"246 67 18 1 ",
"  c #1D1D1B",
". c #1B221D",
"X c #19261E",
"o c #162F21",
"O c #182B20",
"+ c #143423",
"@ c #123824",
"# c #103D26",
"$ c #0E4227",
"% c #0D4629",
"& c #0B4B2A",
"* c #094F2C",
"= c #07542D",
"- c #05592F",
"; c #045D30",
": c #026232",
"> c #006633",
", c None",
/* pixels */
",,,,,,,,,,,                                                                                                                                                                                                                                ,,,,,,,,,,,",
",,,,,,,,                                                                                                                                                                                                                                     ,,,,,,,,,",
",,,,,,                                                                                                                                                                                                                                         ,,,,,,,",
",,,,,                                                                                                                                                                                                                                           ,,,,,,",
",,,,                                                                                                                                                                                                                                             ,,,,,",
",,,                                                                                                                                                                                                                                               ,,,,",
",,,                                                                                                                                                                                                                                                ,,,",
",,                                                                                                                                                                                                                                                  ,,",
",                                                                                                                                                                                                                                                   ,,",
",                                     %============================#.                 +*=@                     #=&O                O&=========================*+               O===============================O                                    ,,",
",                                     =>>>>>>>>>>>>>>>>>>>>>>>>>>>>>:X               &>>>>#                   %>>>>%              #>>>>>>>>>>>>>>>>>>>>>>>>>>>>>*              o>>>>>>>>>>>>>>>>>>>>>>>>>>>>>>>o                                     ,",
",                                     =>>>>>>>>>>>>>>>>>>>>>>>>>>>>>>$              X>>>>>:X                 o>>>>>:.             ;>>>>>>>>>>>>>>>>>>>>>>>>>>>>>>X             o>>>>>>>>>>>>>>>>>>>>>>>>>>>>>>>o                                     ,",
"                                      =>>>>>>>>>>>>>>>>>>>>>>>>>>>>>>=              @>>>>>>*                 ->>>>>>o            X>>>>>>>>>>>>>>>>>>>>>>>>>>>>>>>#             o>>>>>>>>>>>>>>>>>>>>>>>>>>>>>>>o                                     ,",
"                                      =>>>>>>>>>>>>>>>>>>>>>>>>>>>>>>$              .>>>>>>>o               $>>>>>>>.             ->>>>>>>>>>>>>>>>>>>>>>>>>>>>>>.             o>>>>>>>>>>>>>>>>>>>>>>>>>>>>>>>o                                     ,",
"                                      =>>>>>>>>>>>>>>>>>>>>>>>>>>>>>;.               *>>>>>>;.             X:>>>>>>&              +:>>>>>>>>>>>>>>>>>>>>>>>>>>>>$              o>>>>>>>>>>>>>>>>>>>>>>>>>>>>>>>o                                     ,",
"                                      =>>>>>;$$$$$$$$$$$$$$$$$$$$$$o                 X>>>>>>>$             *>>>>>>:.               .@$$$$$$$$$=>>>>>>$$$$$$$$$$X               o>>>>>>$$$$$$;>>>>>;$$$$$&>>>>>>o                                     ,",
"                                      =>>>>>=                                         $>>>>>>>X           o>>>>>>>@                           $>>>>>>                          o>>>>>>      =>>>>>=     o>>>>>>o                                     ,",
"                                      =>>>>>=                                          ;>>>>>>=           ;>>>>>>=                            $>>>>>>                          o>>>>>>      =>>>>>=     o>>>>>>o                                     ,",
"                                      =>>>>>=                                          o>>>>>>>@         $>>>>>>>O                            $>>>>>>                          .:>>>>=      =>>>>>=      ;>>>>:.                                     ,",
"                                      =>>>>>=                                           *>>>>>>:.       X:>>>>>>%                             $>>>>>>                           &>>>>@      =>>>>>=      $>>>>&                                      ,",
"                                      =>>>>>=                                           X:>>>>>>%       =>>>>>>:.                             $>>>>>>                            o&%X       =>>>>>=       O&*+                                       ,",
"                                      =>>>>>=                                            $>>>>>>>o     +>>>>>>>@                              $>>>>>>                                       =>>>>>=                                                  ,",
"                                      =>>>>>=                                             ;>>>>>>-    .;>>>>>>=                               $>>>>>>                                       =>>>>>=                                                  ,",
"                                      =>>>>>=                                             o>>>>>>>#   $>>>>>>>O                               $>>>>>>                                       =>>>>>=                                                  ,",
"                                      =>>>>>=                                              *>>>>>>:X X>>>>>>>$                                $>>>>>>                                       =>>>>>=                                                  ,",
"                                      =>>>>>=                                              X:>>>>>>* =>>>>>>;.                                $>>>>>>                                       =>>>>>=                                                  ,",
"                                      =>>>>>=                                               $>>>>>>>%>>>>>>>+                                 $>>>>>>                                       =>>>>>=                                                  ,",
"                                      =>>>>>=                                                ;>>>>>>>>>>>>>=                                  $>>>>>>                                       =>>>>>=                                                  ,",
"                                      =>>>>>=                                                o>>>>>>>>>>>>>X                                  $>>>>>>                                       =>>>>>=                                                  ,",
"                                      =>>>>>=                                                 *>>>>>>>>>>>$                                   $>>>>>>                                       =>>>>>=                                                  ,",
"                                      =>>>>>>>>>>>>>>>;@.                                     X:>>>>>>>>>;.                                   $>>>>>>                                       =>>>>>=                                                  ,",
"                                      =>>>>>>>>>>>>>>>>>&                                      $>>>>>>>>>+                                    $>>>>>>                                       =>>>>>=                                                  ,",
"                                      =>>>>>>>>>>>>>>>>>:.                                      ;>>>>>>>*                                     $>>>>>>                                       =>>>>>=                                                  ,",
"                                      =>>>>>>>>>>>>>>>>>>O                                      &>>>>>>>@                                     $>>>>>>                                       =>>>>>=                                                  ,",
"                                      =>>>>>>>>>>>>>>>>>=                                      o>>>>>>>>:.                                    $>>>>>>                                       =>>>>>=                                                  ,",
"                                      =>>>>>>>>>>>>>>>>;o                                      ->>>>>>>>>%                                    $>>>>>>                                       =>>>>>=                                                  ,",
"                                      =>>>>>;$$$$$$$$$o                                       #>>>>>>>>>>>O                                   $>>>>>>                                       =>>>>>=                                                  ,",
"                                      =>>>>>=                                                .:>>>>>>>>>>>=                                   $>>>>>>                                       =>>>>>=                                                  ,",
"                                      =>>>>>=                                                &>>>>>>>>>>>>>#                                  $>>>>>>                                       =>>>>>=                                                  ,",
"                                      =>>>>>=                                               o>>>>>>>;>>>>>>:.                                 $>>>>>>                                       =>>>>>=                                                  ,",
"                                      =>>>>>=                                               ->>>>>>-.:>>>>>>&                                 $>>>>>>                                       =>>>>>=                                                  ,",
"                                      =>>>>>=                                              $>>>>>>>o #>>>>>>>o                                $>>>>>>                                       =>>>>>=                                                  ,",
"                                      =>>>>>=                                             X:>>>>>>&   ->>>>>>-                                $>>>>>>                                       =>>>>>=                                                  ,",
"                                      =>>>>>=                                             *>>>>>>:.   o>>>>>>>#                               $>>>>>>                                       =>>>>>=                                                  ,",
"                                      =>>>>>=                                            o>>>>>>>#     &>>>>>>:.                              $>>>>>>                                       =>>>>>=                                                  ,",
"                                      =>>>>>=                                            ;>>>>>>-      .:>>>>>>&                              $>>>>>>                                       =>>>>>=                                                  ,",
"                                      =>>>>>=                                           $>>>>>>>o       #>>>>>>>o                             $>>>>>>                                       =>>>>>=                                                  ,",
"                                      =>>>>>=                                          X:>>>>>>%         ->>>>>>-                             $>>>>>>                                       =>>>>>=                                                  ,",
"                                      =>>>>>=                                          =>>>>>>:.         o>>>>>>>#                            $>>>>>>                                       =>>>>>=                                                  ,",
"                                      =>>>>>=                                         +>>>>>>>@           &>>>>>>:.                           $>>>>>>                                       =>>>>>=                                                  ,",
"                                      =>>>>>=                                        .;>>>>>>=            .:>>>>>>&                           $>>>>>>                                       =>>>>>=                                                  ,",
"                                      =>>>>>>>>>>>>>>>>>>>>>>>>>>>>=@                $>>>>>>>O             #>>>>>>>o              .$;>>>>>>>>>>>>>>>>>>>>>>>>>:&X                           =>>>>>=                                                  ,",
"                                      =>>>>>>>>>>>>>>>>>>>>>>>>>>>>>>o              .>>>>>>>%               ->>>>>>=              &>>>>>>>>>>>>>>>>>>>>>>>>>>>>>;                           =>>>>>=                                                  ,",
"                                      =>>>>>>>>>>>>>>>>>>>>>>>>>>>>>>&              @>>>>>>:.               o>>>>>>>X            .:>>>>>>>>>>>>>>>>>>>>>>>>>>>>>>+                          =>>>>>=                                                  ,",
"                                      =>>>>>>>>>>>>>>>>>>>>>>>>>>>>>>*              @>>>>>>@                 &>>>>>>X            .>>>>>>>>>>>>>>>>>>>>>>>>>>>>>>>@                          *>>>>>&                                                  ,",
",                                     =>>>>>>>>>>>>>>>>>>>>>>>>>>>>>>+               :>>>>=                  .:>>>>*              &>>>>>>>>>>>>>>>>>>>>>>>>>>>>>;                           o>>>>>X                                                  ,",
",                                     =>>>>>>>>>>>>>>>>>>>>>>>>>>>>;$                o=>>-X                   O:>>*O              O&>>>>>>>>>>>>>>>>>>>>>>>>>>>=+                            $;>;#                                                   ,",
",                                     Ooooooooooooooooooooooooooooo                    XO                       o.                  .oooooooooooooooooooooooooX                                O                                                    ,,",
",,                                                                                                                                                                                                                                                  ,,",
",,                                                                                                                                                                                                                                                 ,,,",
",,,                                                                                                                                                                                                                                                ,,,",
",,,,                                                                                                                                                                                                                                              ,,,,",
",,,,,                                                                                                                                                                                                                                            ,,,,,",
",,,,,,                                                                                                                                                                                                                                          ,,,,,,",
",,,,,,,                                                                                                                                                                                                                                       ,,,,,,,,",
",,,,,,,,,                                                                                                                                                                                                                                   ,,,,,,,,,,",
",,,,,,,,,,,,,                                                                                                                                                                                                                           ,,,,,,,,,,,,,,"
};
