
/* XPM */
static xpm_row_t const button_640x480[] = {
/* columns rows colors chars-per-pixel */
"320 48 18 1 ",
"  c #BD1622",
". c #C0232E",
"X c #C4313C",
"o c #C73F49",
"O c #CB4D56",
"+ c #CE5B63",
"@ c #D26971",
"# c #D5777E",
"$ c #D9858B",
"% c #DC9398",
"& c #E0A1A6",
"* c #E3AFB3",
"= c #E7BDC0",
"- c #EACBCD",
"; c #EED9DB",
": c #F1E7E8",
"> c #FFFFFF",
", c None",
/* pixels */
",,,,,,,,,,,,,,,,,,,,>>>>>>>>>>>>>>>>>>>>>>>>>>>>>>>>>>>>>>>>>>>>>>>>>>>>>>>>>>>>>>>>>>>>>>>>>>>>>>>>>>>>>>>>>>>>>>>>>>>>>>>>>>>>>>>>>>>>>>>>>>>>>>>>>>>>>>>>>>>>>>>>>>>>>>>>>>>>>>>>>>>>>>>>>>>>>>>>>>>>>>>>>>>>>>>>>>>>>>>>>>>>>>>>>>>>>>>>>>>>>>>>>>>>>>>>>>>>>>>>>>>>>>>>>>>>>>>>>>>>>>>>>>>>>>>>>>>>>>>>,,,,,,,,,,,,,,,,,,,,",
",,,,,,,,,,,,,,,,,>>>>>>>>>>>>>>>>>>>>>>>>>>>>>>>>>>>>>>>>>>>>>>>>>>>>>>>>>>>>>>>>>>>>>>>>>>>>>>>>>>>>>>>>>>>>>>>>>>>>>>>>>>>>>>>>>>>>>>>>>>>>>>>>>>>>>>>>>>>>>>>>>>>>>>>>>>>>>>>>>>>>>>>>>>>>>>>>>>>>>>>>>>>>>>>>>>>>>>>>>>>>>>>>>>>>>>>>>>>>>>>>>>>>>>>>>>>>>>>>>>>>>>>>>>>>>>>>>>>>>>>>>>>>>>>>>>>>>>>>>>>>>>,,,,,,,,,,,,,,,,,",
",,,,,,,,,,,,,,>>>>>>>>>>>>>>>>>>>>>>>>>>>>>>>>>>>>>>>>>>>>>>>>>>>>>>>>>>>>>>>>>>>>>>>>>>>>>>>>>>>>>>>>>>>>>>>>>>>>>>>>>>>>>>>>>>>>>>>>>>>>>>>>>>>>>>>>>>>>>>>>>>>>>>>>>>>>>>>>>>>>>>>>>>>>>>>>>>>>>>>>>>>>>>>>>>>>>>>>>>>>>>>>>>>>>>>>>>>>>>>>>>>>>>>>>>>>>>>>>>>>>>>>>>>>>>>>>>>>>>>>>>>>>>>>>>>>>>>>>>>>>>>>>>>>,,,,,,,,,,,,,,",
",,,,,,,,,,,,>>>>>>>>>>>>>>>>>>>>>>>>>>>>>>>>>>>>>>>>>>>>>>>>>>>>>>>>>>>>>>>>>>>>>>>>>>>>>>>>>>>>>>>>>>>>>>>>>>>>>>>>>>>>>>>>>>>>>>>>>>>>>>>>>>>>>>>>>>>>>>>>>>>>>>>>>>>>>>>>>>>>>>>>>>>>>>>>>>>>>>>>>>>>>>>>>>>>>>>>>>>>>>>>>>>>>>>>>>>>>>>>>>>>>>>>>>>>>>>>>>>>>>>>>>>>>>>>>>>>>>>>>>>>>>>>>>>>>>>>>>>>>>>>>>>>>>>>,,,,,,,,,,,,",
",,,,,,,,,,,>>>>>>>>>>>>>>>>>>>>>>>>>>>>>>>>>>>>>>>>>>>>>>>>>>>>>>>>>>>>>>>>>>>>>>>>>>>>>>>>>>>>>>>>>>>>>>>>>>>>>>>>>>>>>>>>>>>>>>>>>>>>>>>>>>>>>>>>>>>>>>>>>>>>>>>>>>>>>>>>>>>>>>>>>>>>>>>>>>>>>>>>>>>>>>>>>>>>>>>>>>>>>>>>>>>>>>>>>>>>>>>>>>>>>>>>>>>>>>>>>>>>>>>>>>>>>>>>>>>>>>>>>>>>>>>>>>>>>>>>>>>>>>>>>>>>>>>>>>,,,,,,,,,,,",
",,,,,,,,,>>>>>>>>>>>>>>>>>>>>>>>>>>>>>>>>>>>>>>>>>>>>>>>>>>>>>>>>>>>>>>>>>>>>>>>>>>>>>>>>>>>>>>>>>>>>>>>>>>>>>>>>>>>>>>>>>>>>>>>>>>>>>>>>>>>>>>>>>>>>>>>>>>>>>>>>>>>>>>>>>>>>>>>>>>>>>>>>>>>>>>>>>>>>>>>>>>>>>>>>>>>>>>>>>>>>>>>>>>>>>>>>>>>>>>>>>>>>>>>>>>>>>>>>>>>>>>>>>>>>>>>>>>>>>>>>>>>>>>>>>>>>>>>>>>>>>>>>>>>>>>,,,,,,,,,",
",,,,,,,,>>>>>>>>>>>>>>>>>>>>>>>>>>>>>>>>>>>>>>>>>>>>>>>>>>>>>>>>>>>>>>>>>>>>>>>>>>>>>>>>>>>>>>>>>>>>>>>>>>>>>>>>>>>>>>>>>>>>>>>>>>>>>>>>>>>>>>>>>>>>>>>>>>>>>>>>>>>>>>>>>>>>>>>>>>>>>>>>>>>>>>>>>>>>>>>>>>>>>>>>>>>>>>>>>>>>>>>>>>>>>>>>>>>>>>>>>>>>>>>>>>>>>>>>>>>>>>>>>>>>>>>>>>>>>>>>>>>>>>>>>>>>>>>>>>>>>>>>>>>>>>>>,,,,,,,,",
",,,,,,,>>>>>>>>>>>>>>>>>>>>>>>>>>>>>>>>>>>>>>>>>>>>>>>>>>>>>>>>>>>>>>>>>>>>>>>>>>>>>>>>>>>>>>>>>>>>>>>>>>>>>>>>>>>>>>>>>>>>>>>>>>>>>>>>>>>>>>>>>>>>>>>>>>>>>>>>>>>>>>>>>>>>>>>>>>>>>>>>>>>>>>>>>>>>>>>>>>>>>>>>>>>>>>>>>>>>>>>>>>>>>>>>>>>>>>>>>>>>>>>>>>>>>>>>>>>>>>>>>>>>>>>>>>>>>>>>>>>>>>>>>>>>>>>>>>>>>>>>>>>>>>>>>>,,,,,,,",
",,,,,,>>>>>>>>>>>>>>>>>>>>>>>>>>>>>>>>>>>>>>>>>>>>>>>>>>>>>>>>>>>>>>>>>>>>>>>>>>>>>>>>>>>>>>>>>>>>>>>>>>>>>>>>>>>>>>>>>>>>>>>>>>>>>>>>>>>>>>>>>>>>>>>>>>>>>>>>>>>>>>>>>>>>>>>>>>>>>>>>>>>>>>>>>>>>>>>>>>>>>>>>>>>>>>>>>>>>>>>>>>>>>>>>>>>>>>>>>>>>>>>>>>>>>>>>>>>>>>>>>>>>>>>>>>>>>>>>>>>>>>>>>>>>>>>>>>>>>>>>>>>>>>>>>>>>,,,,,,",
",,,,,>>>>>>>>>>>>>>>>>>>>>>>>>>>>>>>>>>>>>>>>>>>>>>>>>>>>>>>>>>>>>>>>>>>>>>>>>>>>>>>>>>>>>>>>>>>>>>>>>>>>>>>>>>>>>>>>>>>>>>>>>>>>>>>>>>>>>>>>>>>>>>>>>>>>>>>>>>>>>>>>>>>>>>>>>>>>>>>>>>>>>>>>>>>>>>>>>>>>>>>>>>>>>>>>>>>>>>>>>>>>>>>>>>>>>>>>>>>>>>>>>>>>>>>>>>>>>>>>>>>>>>>>>>>>>>>>>>>>>>>>>>>>>>>>>>>>>>>>>>>>>>>>>>>>>>,,,,,",
",,,,,>>>>>>>>>>>>>>>>>>>>>>>>>>>>>>>>>>>>>>>>>>>>>>>>>>>>>>>>>>>>>>>>>>>>>>>>>>>>>>>>>>>>>>>>>>>>>>>>>>>>>>>>>>>>>>>>>>>>>>>>>>>>>>>>>>>>>>>>>>>>>>>>>>>>>>>>>>>>>>>>>>>>>>>>>>>>>>>>>>>>>>>>>>>>>>>>>>>>>>>>>>>>>>>>>>>>>>>>>>>>>>>>>>>>>>>>>>>>>>>>>>>>>>>>>>>>>>>>>>>>>>>>>>>>>>>>>>>>>>>>>>>>>>>>>>>>>>>>>>>>>>>>>>>>>>,,,,,",
",,,,>>>>>>>>>>>>>>>>>>>>>>>>>>>>>>>>>>>>>>>>>>>>>>>>>>>>>>>>>>>>>>>>>>>>>>>>>>>>>>>>>>>>>>>>>>>>>>>>>>>>>>>>>>>>>>>>>>>>>>>>>>>>>>>>>>>>>>>>>>>>>>>>>>>>>>>>>>>>>>>>>>>>>>>>>>>>>>>>>>>>>>>>>>>>>>>>>>>>>>>>>>>>>>>>>>>>>>>>>>>>>>>>>>>>>>>>>>>>>>>>>>>>>>>>>>>>>>>>>>>>>>>>>>>>>>>>>>>>>>>>>>>>>>>>>>>>>>>>>>>>>>>>>>>>>>>>,,,,",
",,,>>>>>>>>>>>>>>>>>>>>>>>>>>>>>>>>>>>>>>>>>>>>>>>>>>>>>>>>>>>>>>>>>>>>>>>>=o  +:>>>>>>>>>>>>>>>>>>>>;+.%>>>>>>>>>>>>>>>>>>>>>>*O           o&:>>>>>>>>>>>>>>>>>>>>>>>>>>>>>>>>>>:@.%>>>>>>>>>>>>>>>>>>>>>>>>;+       X*>>>>>>>>>>>>;$.          .@;>>>>>>>>>>>>>>>>>>>>>>>>>>>>>>>>>>>>>>>>>>>>>>>>>>>>>>>>>>>>>>>>>>>>>>>>>,,,",
",,,>>>>>>>>>>>>>>>>>>>>>>>>>>>>>>>>>>>>>>>>>>>>>>>>>>>>>>>>>>>>>>>>>>>>>>>>+    %>>>>>>>>>>>>>>>>>>>>%  .>>>>>>>>>>>>>>>>>>>>>%               @>>>>>>>>>>>>>>>>>>>>>>>>>>>>>>>>>>&   ;>>>>>>>>>>>>>>>>>>>>>>>#         .>>>>>>>>>>>>.               ;>>>>>>>>>>>>>>>>>>>>>>>>>>>>>>>>>>>>>>>>>>>>>>>>>>>>>>>>>>>>>>>>>>>>>>>>,,,",
",,>>>>>>>>>>>>>>>>>>>>>>>>>>>>>>>>>>>>>>>>>>>>>>>>>>>>>>>>>>>>>>>>>>>>>>>>>O    &>>>>>>>>>>>>>>>>>>>>$   >>>>>>>>>>>>>>>>>>>>>X                :>>>>>>>>>>>>>>>>>>>>>>>>>>>>>>>>>$   =>>>>>>>>>>>>>>>>>>>>>>>O          >>>>>>>>>>>&                $>>>>>>>>>>>>>>>>>>>>>>>>>>>>>>>>>>>>>>>>>>>>>>>>>>>>>>>>>>>>>>>>>>>>>>>>>,,",
",,>>>>>>>>>>>>>>>>>>>>>>>>>>>>>>>>>>>>>>>>>>>>>>>>>>>>>>>>>>>>>>>>>>>>>>>>>O  .$:>>>>>>>>>>>>>>>>>>>>$   >>>>>>>%.@>>>>>>>>>>-   XOOOOOOOOOo   %>>>>>>>>>>>>>>>>>>>>>>>>>>>>>>>>>$   =>>>>>>%.+:>>>>>>>>>>>>>O   OOO.   >>>>>>>>>>>O   OOOOOOOOOO.  O>>>>>>>>>>>>>>>>>>>>>>>>>>>>>>>>>>>>>>>>>>>>>>>>>>>>>>>>>>>>>>>>>>>>>>>>>,,",
",,>>>>>>>>>>>>>>>>>>>>>>>>>>>>>>>>>>>>>>>>>>>>>>>>>>>>>>>>>>>>>>>>>>>>>>>>>O  O>>>>>>>>>>>>>>>>>>>>>>$   >>>>>>;   &>>>>>>>>>=   $>>>>>>>>>=   $>>>>>>>>>>>>>>>>>>>>>>>>>>>>>>>>>$   =>>>>>:.  %>>>>>>>>>>>>>O   >>>O   >>>>>>>>>>>O   >>>>>>>>>>O  O>>>>>>>>>>>>>>>>>>>>>>>>>>>>>>>>>>>>>>>>>>>>>>>>>>>>>>>>>>>>>>>>>>>>>>>>>,,",
",>>>>>>>>>>>>>>>>>>>>>>>>>>>>>>>>>>>>>>>>>>>>>>>>>>>>>>>>>>>>>>>>>>>>>>>>>>O  O>>>>>>>>>>>>>>>>>>>>>>$   >>>>>>=   $>>>>>>>>>=   $>>>>>>>>>=   $>>>>>>>>>>>>>>>>>>>>>>>>>>>>>>>>>$   =>>>>>=   $>>>>>>>>>>>>>O   >>>O   >>>>>>>>>>>O   >>>>>>>>>>O  O>>>>>>>>>>>>>>>>>>>>>>>>>>>>>>>>>>>>>>>>>>>>>>>>>>>>>>>>>>>>>>>>>>>>>>>>>>,",
",>>>>>>>>>>>>>>>>>>>>>>>>>>>>>>>>>>>>>>>>>>>>>>>>>>>>>>>>>>>>>>>>>>>>>>>>>>O  O>>>>>>>>>>>>>>>>>>>>>>$   >>>>>>=   $>>>>>>>>>=   $>>>>>>>>>=   $>>>>>>>>>>>>>>>>>>>>>>>>>>>>>>>>>$   =>>>>>=   $>>>>>>>>>>>>>O   >>>O   >>>>>>>>>>>O   >>>>>>>>>>O  O>>>>>>>>>>>>>>>>>>>>>>>>>>>>>>>>>>>>>>>>>>>>>>>>>>>>>>>>>>>>>>>>>>>>>>>>>>,",
",>>>>>>>>>>>>>>>>>>>>>>>>>>>>>>>>>>>>>>>>>>>>>>>>>>>>>>>>>>>>>>>>>>>>>>>>>>O  O>>>>>>>>>>>>>>>>>>>>>>$   >>>>>>=   $>>>>>>>>>=   $>>>>>>>>>=   $>>>>>>>>:&->>>>>>>>>>>&*>>>>>>>>>$   =>>>>>=   $>>>>>>>>>>>>>O   >>>O   >>>>>>>>>>>O   >>>>>>>>>>O  O>>>>>>>>>>>>>>>>>>>>>>>>>>>>>>>>>>>>>>>>>>>>>>>>>>>>>>>>>>>>>>>>>>>>>>>>>>,",
",>>>>>>>>>>>>>>>>>>>>>>>>>>>>>>>>>>>>>>>>>>>>>>>>>>>>>>>>>>>>>>>>>>>>>>>>>>O  O>>>>>>>>>>>>>>>>>>>>>>$   >>>>>>=   $>>>>>>>>>=   $>>>>>>>>>=   $>>>>>>>>o  #>>>>>>>>>o  $>>>>>>>>$   =>>>>>=   $>>>>>>>>>>>>>O   >>>O   >>>>>>>>>>>O   >>>>>>>>>>O  O>>>>>>>>>>>>>>>>>>>>>>>>>>>>>>>>>>>>>>>>>>>>>>>>>>>>>>>>>>>>>>>>>>>>>>>>>>,",
">>>>>>>>>>>>>>>>>>>>>>>>>>>>>>>>>>>>>>>>>>>>>>>>>>>>>>>>>>>>>>>>>>>>>>>>>>>O  O>>>>>>>>>>>>>>>>>>>>>>$   >>>>>>=   $>>>>>>>>>=   $>>>>>>>>>=   $>>>>>>>>    &>>>>>>>@   O>>>>>>>>$   =>>>>>=   $>>>>>>>>>>>>>O   >>>O   >>>>>>>>>>>O   >>>>>>>>>>O  O>>>>>>>>>>>>>>>>>>>>>>>>>>>>>>>>>>>>>>>>>>>>>>>>>>>>>>>>>>>>>>>>>>>>>>>>>>>",
">>>>>>>>>>>>>>>>>>>>>>>>>>>>>>>>>>>>>>>>>>>>>>>>>>>>>>>>>>>>>>>>>>>>>>>>>>>O  O>>>>>>>>>>>>>>>>>>>>>>$   >>>>>>=   $>>>>>>>>>=   $>>>>>>>>>=   $>>>>>>>>O    ->>>>>%    *>>>>>>>>$   =>>>>>=   $>>>>>>>>>>>>>O   >>>O   >>>>>>>>>>>O   >>>>>>>>>>O  O>>>>>>>>>>>>>>>>>>>>>>>>>>>>>>>>>>>>>>>>>>>>>>>>>>>>>>>>>>>>>>>>>>>>>>>>>>>",
">>>>>>>>>>>>>>>>>>>>>>>>>>>>>>>>>>>>>>>>>>>>>>>>>>>>>>>>>>>>>>>>>>>>>>>>>>>O  O>>>>>>>>>>>>>>>>>>>>>>$   >>>>>>=   $>>>>>>>>>=   $>>>>>>>>>=   $>>>>>>>>:o   .;>>>&    @>>>>>>>>>$   =>>>>>=   $>>>>>>>>>>>>>O   >>>O   >>>>>>>>>>>O   >>>>>>>>>>O  O>>>>>>>>>>>>>>>>>>>>>>>>>>>>>>>>>>>>>>>>>>>>>>>>>>>>>>>>>>>>>>>>>>>>>>>>>>>",
">>>>>>>>>>>>>>>>>>>>>>>>>>>>>>>>>>>>>>>>>>>>>>>>>>>>>>>>>>>>>>>>>>>>>>>>>>>O  O>>>>>>>>>>>>>>>>>>>>>>$   >>>>>>=   $>>>>>>>>>=   $>>>>>>>>>=   $>>>>>>>>>-.   o:>-.   O>>>>>>>>>>$   =>>>>>=   $>>>>>>>>>>>*O           X$:>>>>>>>>O   >>>>>>>>>>O  O>>>>>>>>>>>>>>>>>>>>>>>>>>>>>>>>>>>>>>>>>>>>>>>>>>>>>>>>>>>>>>>>>>>>>>>>>>>",
">>>>>>>>>>>>>>>>>>>>>>>>>>>>>>>>>>>>>>>>>>>>>>>>>>>>>>>>>>>>>>>>>>>>>>>>>>>O  O>>>>>>>>>>>>>>>>>>>>>>$   >>>>>>=   $>>>>>>>>>=   $>>>>>>>>>=   $>>>>>>>>>>=    +:.   o:>>>>>>>>>>$   =>>>>>=   $>>>>>>>>>>&               +>>>>>>>>O   >>>>>>>>>>O  O>>>>>>>>>>>>>>>>>>>>>>>>>>>>>>>>>>>>>>>>>>>>>>>>>>>>>>>>>>>>>>>>>>>>>>>>>>>",
">>>>>>>>>>>>>>>>>>>>>>>>>>>>>>>>>>>>>>>>>>>>>>>>>>>>>>>>>>>>>>>>>>>>>>>>>>>O  O>>>>>>>>>>>>>>>>>>>>>>$   >>>>>>=   $>>>>>>>>>=   $>>>>>>>>>=   $>>>>>>>>>>>&    .   .->>>>>>>>>>>$   =>>>>>=   $>>>>>>>>>>O                ;>>>>>>>O   >>>>>>>>>>O  O>>>>>>>>>>>>>>>>>>>>>>>>>>>>>>>>>>>>>>>>>>>>>>>>>>>>>>>>>>>>>>>>>>>>>>>>>>>",
",>>>>>>>>>>>>>>>>>>>>>>>>>>>>>>>>>>>>>>>>>>>>>>>>>>>>>>>>>>>>>>>>>>>>>>>>>>O               X=>>>>>>>>$              @>>>>>>>>=   $>>>>>>>>>=   $>>>>>>>>>>>>#       =>>>>>>>>>>>>$              O>>>>>>>>-   O$$$$$$$$$@   $>>>>>>>O   >>>>>>>>>>O  O>>>>>>>>>>>>>>>>>>>>>>>>>>>>>>>>>>>>>>>>>>>>>>>>>>>>>>>>>>>>>>>>>>>>>>>>>>,",
",>>>>>>>>>>>>>>>>>>>>>>>>>>>>>>>>>>>>>>>>>>>>>>>>>>>>>>>>>>>>>>>>>>>>>>>>>>O                @>>>>>>>>$               ;>>>>>>>=   $>>>>>>>>>=   $>>>>>>>>>>>>>+     %>>>>>>>>>>>>>$               ->>>>>>>=   $>>>>>>>>>=   $>>>>>>>O   >>>>>>>>>>O  O>>>>>>>>>>>>>>>>>>>>>>>>>>>>>>>>>>>>>>>>>>>>>>>>>>>>>>>>>>>>>>>>>>>>>>>>>>,",
",>>>>>>>>>>>>>>>>>>>>>>>>>>>>>>>>>>>>>>>>>>>>>>>>>>>>>>>>>>>>>>>>>>>>>>>>>>O                O>>>>>>>>$              X>>>>>>>>=   $>>>>>>>>>=   $>>>>>>>>>>>>>%     :>>>>>>>>>>>>>$              .:>>>>>>>=   $>>>>>>>>>=   $>>>>>>>O   >>>>>>>>>>O  O>>>>>>>>>>>>>>>>>>>>>>>>>>>>>>>>>>>>>>>>>>>>>>>>>>>>>>>>>>>>>>>>>>>>>>>>>>,",
",>>>>>>>>>>>>>>>>>>>>>>>>>>>>>>>>>>>>>>>>>>>>>>>>>>>>>>>>>>>>>>>>>>>>>>>>>>O  X$$$$$$$$$$   O>>>>>>>>=$$$$$$$$$@   O;>>>>>>>>=   $>>>>>>>>>=   $>>>>>>>>>>>>-.     o:>>>>>>>>>>>>=$$$$$$$$$@   O->>>>>>>>=   $>>>>>>>>>=   $>>>>>>>O   >>>>>>>>>>O  O>>>>>>>>>>>>>>>>>>>>>>>>>>>>>>>>>>>>>>>>>>>>>>>>>>>>>>>>>>>>>>>>>>>>>>>>>>,",
",,>>>>>>>>>>>>>>>>>>>>>>>>>>>>>>>>>>>>>>>>>>>>>>>>>>>>>>>>>>>>>>>>>>>>>>>>>O  O>>>>>>>>>>   O>>>>>>>>>>>>>>>>>>=   $>>>>>>>>>=   $>>>>>>>>>=   $>>>>>>>>>>>:.       @>>>>>>>>>>>>>>>>>>>>>>=   $>>>>>>>>>=   $>>>>>>>>>=   $>>>>>>>O   >>>>>>>>>>O  O>>>>>>>>>>>>>>>>>>>>>>>>>>>>>>>>>>>>>>>>>>>>>>>>>>>>>>>>>>>>>>>>>>>>>>>>>,,",
",,>>>>>>>>>>>>>>>>>>>>>>>>>>>>>>>>>>>>>>>>>>>>>>>>>>>>>>>>>>>>>>>>>>>>>>>>>O  O>>>>>>>>>>   O>>>>>>>>>>>>>>>>>>=   $>>>>>>>>>=   $>>>>>>>>>=   $>>>>>>>>>>:o   .#    $>>>>>>>>>>>>>>>>>>>>>=   $>>>>>>>>>=   $>>>>>>>>>=   $>>>>>>>O   >>>>>>>>>>O  O>>>>>>>>>>>>>>>>>>>>>>>>>>>>>>>>>>>>>>>>>>>>>>>>>>>>>>>>>>>>>>>>>>>>>>>>>,,",
",,>>>>>>>>>>>>>>>>>>>>>>>>>>>>>>>>>>>>>>>>>>>>>>>>>>>>>>>>>>>>>>>>>>>>>>>>>O  O>>>>>>>>>>   O>>>>>>>>>>>>>>>>>>=   $>>>>>>>>>=   $>>>>>>>>>=   $>>>>>>>>>>@    &>@    &>>>>>>>>>>>>>>>>>>>>=   $>>>>>>>>>=   $>>>>>>>>>=   $>>>>>>>O   >>>>>>>>>>O  O>>>>>>>>>>>>>>>>>>>>>>>>>>>>>>>>>>>>>>>>>>>>>>>>>>>>>>>>>>>>>>>>>>>>>>>>>,,",
",,,>>>>>>>>>>>>>>>>>>>>>>>>>>>>>>>>>>>>>>>>>>>>>>>>>>>>>>>>>>>>>>>>>>>>>>>>O  O>>>>>>>>>>   O>>>>>>>>>>>>>>>>>>=   $>>>>>>>>>=   $>>>>>>>>>=   $>>>>>>>>>$    $>>>o   .->>>>>>>>>>>>>>>>>>>=   $>>>>>>>>>=   $>>>>>>>>>=   $>>>>>>>O   >>>>>>>>>>O  O>>>>>>>>>>>>>>>>>>>>>>>>>>>>>>>>>>>>>>>>>>>>>>>>>>>>>>>>>>>>>>>>>>>>>>>>,,,",
",,,>>>>>>>>>>>>>>>>>>>>>>>>>>>>>>>>>>>>>>>>>>>>>>>>>>>>>>>>>>>>>>>>>>>>>>>>O  o==========   O>>>>>>>>>>>>>>>>>>=   $>>>>>>>>>=   @=========%   $>>>>>>>>&    @>>>>:X   .:>>>>>>>>>>>>>>>>>>=   $>>>>>>>>>=   @=========%   $>>>>>>>O   ==========o  O>>>>>>>>>>>>>>>>>>>>>>>>>>>>>>>>>>>>>>>>>>>>>>>>>>>>>>>>>>>>>>>>>>>>>>>>,,,",
",,,,>>>>>>>>>>>>>>>>>>>>>>>>>>>>>>>>>>>>>>>>>>>>>>>>>>>>>>>>>>>>>>>>>>>>>>>O                O>>>>>>>>>>>>>>>>>>=   $>>>>>>>>>;                 =>>>>>>>;.   o>>>>>>-.   O>>>>>>>>>>>>>>>>>>=   $>>>>>>>>>>.                *>>>>>>>@                +>>>>>>>>>>>>>>>>>>>>>>>>>>>>>>>>>>>>>>>>>>>>>>>>>>>>>>>>>>>>>>>>>>>>>>>,,,,",
",,,,>>>>>>>>>>>>>>>>>>>>>>>>>>>>>>>>>>>>>>>>>>>>>>>>>>>>>>>>>>>>>>>>>>>>>>>O                O>>>>>>>>>>>>>>>>>>=   $>>>>>>>>>>@               X>>>>>>>>$   X:>>>>>>>*    ;>>>>>>>>>>>>>>>>>-   $>>>>>>>>>>$               X>>>>>>>>-                *>>>>>>>>>>>>>>>>>>>>>>>>>>>>>>>>>>>>>>>>>>>>>>>>>>>>>>>>>>>>>>>>>>>>>>>,,,,",
",,,,,>>>>>>>>>>>>>>>>>>>>>>>>>>>>>>>>>>>>>>>>>>>>>>>>>>>>>>>>>>>>>>>>>>>>>>#                %>>>>>>>>>>>>>>>>>>>.  ;>>>>>>>>>>-X             X*>>>>>>>>=  .->>>>>>>>>$  X>>>>>>>>>>>>>>>>>>>X  =>>>>>>>>>>;O             X&>>>>>>>>>#              +>>>>>>>>>>>>>>>>>>>>>>>>>>>>>>>>>>>>>>>>>>>>>>>>>>>>>>>>>>>>>>>>>>>>>>>,,,,,",
",,,,,,>>>>>>>>>>>>>>>>>>>>>>>>>>>>>>>>>>>>>>>>>>>>>>>>>>>>>>>>>>>>>>>>>>>>>>&$$$$$$$$$$$$$$*>>>>>>>>>>>>>>>>>>>>;%->>>>>>>>>>>>>=$$$$$$$$$$$&>>>>>>>>>>>=%:>>>>>>>>>>>=%;>>>>>>>>>>>>>>>>>>>:%=>>>>>>>>>>>>>;$$$$$$$$$$$&>>>>>>>>>>>>:%$$$$$$$$$$$;>>>>>>>>>>>>>>>>>>>>>>>>>>>>>>>>>>>>>>>>>>>>>>>>>>>>>>>>>>>>>>>>>>>>>>>,,,,,,",
",,,,,,,>>>>>>>>>>>>>>>>>>>>>>>>>>>>>>>>>>>>>>>>>>>>>>>>>>>>>>>>>>>>>>>>>>>>>>>>>>>>>>>>>>>>>>>>>>>>>>>>>>>>>>>>>>>>>>>>>>>>>>>>>>>>>>>>>>>>>>>>>>>>>>>>>>>>>>>>>>>>>>>>>>>>>>>>>>>>>>>>>>>>>>>>>>>>>>>>>>>>>>>>>>>>>>>>>>>>>>>>>>>>>>>>>>>>>>>>>>>>>>>>>>>>>>>>>>>>>>>>>>>>>>>>>>>>>>>>>>>>>>>>>>>>>>>>>>>>>>>>>>>>>>>>>>,,,,,,,",
",,,,,,,,>>>>>>>>>>>>>>>>>>>>>>>>>>>>>>>>>>>>>>>>>>>>>>>>>>>>>>>>>>>>>>>>>>>>>>>>>>>>>>>>>>>>>>>>>>>>>>>>>>>>>>>>>>>>>>>>>>>>>>>>>>>>>>>>>>>>>>>>>>>>>>>>>>>>>>>>>>>>>>>>>>>>>>>>>>>>>>>>>>>>>>>>>>>>>>>>>>>>>>>>>>>>>>>>>>>>>>>>>>>>>>>>>>>>>>>>>>>>>>>>>>>>>>>>>>>>>>>>>>>>>>>>>>>>>>>>>>>>>>>>>>>>>>>>>>>>>>>>>>>>>>>>,,,,,,,,",
",,,,,,,,,>>>>>>>>>>>>>>>>>>>>>>>>>>>>>>>>>>>>>>>>>>>>>>>>>>>>>>>>>>>>>>>>>>>>>>>>>>>>>>>>>>>>>>>>>>>>>>>>>>>>>>>>>>>>>>>>>>>>>>>>>>>>>>>>>>>>>>>>>>>>>>>>>>>>>>>>>>>>>>>>>>>>>>>>>>>>>>>>>>>>>>>>>>>>>>>>>>>>>>>>>>>>>>>>>>>>>>>>>>>>>>>>>>>>>>>>>>>>>>>>>>>>>>>>>>>>>>>>>>>>>>>>>>>>>>>>>>>>>>>>>>>>>>>>>>>>>>>>>>>>>>,,,,,,,,,",
",,,,,,,,,,>>>>>>>>>>>>>>>>>>>>>>>>>>>>>>>>>>>>>>>>>>>>>>>>>>>>>>>>>>>>>>>>>>>>>>>>>>>>>>>>>>>>>>>>>>>>>>>>>>>>>>>>>>>>>>>>>>>>>>>>>>>>>>>>>>>>>>>>>>>>>>>>>>>>>>>>>>>>>>>>>>>>>>>>>>>>>>>>>>>>>>>>>>>>>>>>>>>>>>>>>>>>>>>>>>>>>>>>>>>>>>>>>>>>>>>>>>>>>>>>>>>>>>>>>>>>>>>>>>>>>>>>>>>>>>>>>>>>>>>>>>>>>>>>>>>>>>>>>>>>,,,,,,,,,,",
",,,,,,,,,,,,>>>>>>>>>>>>>>>>>>>>>>>>>>>>>>>>>>>>>>>>>>>>>>>>>>>>>>>>>>>>>>>>>>>>>>>>>>>>>>>>>>>>>>>>>>>>>>>>>>>>>>>>>>>>>>>>>>>>>>>>>>>>>>>>>>>>>>>>>>>>>>>>>>>>>>>>>>>>>>>>>>>>>>>>>>>>>>>>>>>>>>>>>>>>>>>>>>>>>>>>>>>>>>>>>>>>>>>>>>>>>>>>>>>>>>>>>>>>>>>>>>>>>>>>>>>>>>>>>>>>>>>>>>>>>>>>>>>>>>>>>>>>>>>>>>>>>>>>,,,,,,,,,,,,",
",,,,,,,,,,,,,,>>>>>>>>>>>>>>>>>>>>>>>>>>>>>>>>>>>>>>>>>>>>>>>>>>>>>>>>>>>>>>>>>>>>>>>>>>>>>>>>>>>>>>>>>>>>>>>>>>>>>>>>>>>>>>>>>>>>>>>>>>>>>>>>>>>>>>>>>>>>>>>>>>>>>>>>>>>>>>>>>>>>>>>>>>>>>>>>>>>>>>>>>>>>>>>>>>>>>>>>>>>>>>>>>>>>>>>>>>>>>>>>>>>>>>>>>>>>>>>>>>>>>>>>>>>>>>>>>>>>>>>>>>>>>>>>>>>>>>>>>>>>>>>>>>>>,,,,,,,,,,,,,,",
",,,,,,,,,,,,,,,,>>>>>>>>>>>>>>>>>>>>>>>>>>>>>>>>>>>>>>>>>>>>>>>>>>>>>>>>>>>>>>>>>>>>>>>>>>>>>>>>>>>>>>>>>>>>>>>>>>>>>>>>>>>>>>>>>>>>>>>>>>>>>>>>>>>>>>>>>>>>>>>>>>>>>>>>>>>>>>>>>>>>>>>>>>>>>>>>>>>>>>>>>>>>>>>>>>>>>>>>>>>>>>>>>>>>>>>>>>>>>>>>>>>>>>>>>>>>>>>>>>>>>>>>>>>>>>>>>>>>>>>>>>>>>>>>>>>>>>>>>>>>>>>>,,,,,,,,,,,,,,,,",
",,,,,,,,,,,,,,,,,,,,>>>>>>>>>>>>>>>>>>>>>>>>>>>>>>>>>>>>>>>>>>>>>>>>>>>>>>>>>>>>>>>>>>>>>>>>>>>>>>>>>>>>>>>>>>>>>>>>>>>>>>>>>>>>>>>>>>>>>>>>>>>>>>>>>>>>>>>>>>>>>>>>>>>>>>>>>>>>>>>>>>>>>>>>>>>>>>>>>>>>>>>>>>>>>>>>>>>>>>>>>>>>>>>>>>>>>>>>>>>>>>>>>>>>>>>>>>>>>>>>>>>>>>>>>>>>>>>>>>>>>>>>>>>>>>>>>>>>>>>>,,,,,,,,,,,,,,,,,,,,"
};
