/* XPM */
static xpm_row_t const game_header[] = {
/* columns rows colors chars-per-pixel */
"285 48 2 1 ",
"  c #FFFFFF",
". c None",
/* pixels */
".............................................................................................................................................................................................................................................................................................",
".............................................................................................................................................................................................................................................................................................",
".............................................................................................................................................................................................................................................................................................",
".............................................................................................................................................................................................................................................................................................",
".............................................................................................................................................................................................................................................................................................",
".............................................................................................................................................................................................................................................................................................",
".............................................................................................................................................................................................................................................................................................",
".............................................................................................................................................................................................................................................................................................",
"..............         ...................   .................     ........      ..........                  ......................................                   ...........  .............   .........                .............                  ..................................",
"............            ..................   .................      .......      ..........                   .....................................                   ..........    ...........    .........                 ............                   .................................",
"............            .................     ................       .....       ..........                   .....................................                   ..........    ...........    .........                  ...........                   .................................",
"...........            ..................     ................       .....       ..........                  ......................................                   ..........    ...........    .........                   ..........                  ..................................",
"..........     ..........................     ................        ...        ..........    ....................................................    ....   ....    ..........    ...........    .........    ...........    ..........    ................................................",
".........     ...........................      ...............        ..         ..........    ....................................................    ....   ....    ..........    ...........    .........    ...........    ..........    ................................................",
"........     ...........................       ...............    .         .    ..........    ....................................................   .....   .....  ...........     .........     .........    ...........    ..........    ................................................",
"........     ...........................       ...............    .         .    ..........    ............................................................   ...................     .......     ..........    ...........    ..........    ..............................       ...........",
".......     ............................       ...............    ..       ..    ..........    ............................................................   ....................     .....     ...........    ...........    ..........    ..............................       ...........",
"......     ............................         ..............    ..      ...    ..........    ............................................................   .....................     ...     ............    ...........    ..........    ..............................       ...........",
"......    .............................    .    ..............    ...     ...    ..........    ............................................................   .....................     ...     ............    ...........    ..........    ..............................       ...........",
".....     .............................    .    ..............    ...    ....    ..........    ............................................................   ......................     .     .............    ...........    ..........    ..............................       ...........",
".....    .............................    ...    .............    ...    ....    ..........    ............................................................   .......................         ..............    ...........    ..........    ..............................       ...........",
".....    .............................    ...    .............    ....   ....    ..........           .....................................................   ........................       ...............    ...........    ..........           .........................................",
".....    .............................    ...    .............    ...........    ..........           .....................................................   .........................     ................    ...........    ..........           .........................................",
".....    .............................    ...    .............    ...........    ..........           .....................................................   .........................     ................                   ..........           .........................................",
".....    ............................    .....    ............    ...........    ..........           .....................................................   ..........................   .................                  ...........           .........................................",
".....    ......         .............    .....    ............    ...........    ..........    ............................................................   ..........................   .................                 ............    ................................................",
".....    .....          .............    .....    ............    ...........    ..........    ............................................................   ..........................   .................                .............    ................................................",
".....    .....          ............    .......    ...........    ...........    ..........    ............................................................   ..........................   .................    .........................    ..............................       ...........",
".....    ......         ............               ...........    ...........    ..........    ............................................................   ..........................   .................    .........................    ..............................       ...........",
".....    ...........    ............               ...........    ...........    ..........    ............................................................   ..........................   .................    .........................    ..............................       ...........",
".....    ...........    ............               ...........    ...........    ..........    ............................................................   ..........................   .................    .........................    ..............................       ...........",
".....    ...........    ...........                 ..........    ...........    ..........    ............................................................   ..........................   .................    .........................    ..............................       ...........",
".....    ...........    ...........    .........    ..........    ...........    ..........    ............................................................   ..........................   .................    .........................    ..............................       ...........",
".....    ...........    ...........    .........    ..........    ...........    ..........    ............................................................   ..........................   .................    .........................    ................................................",
".....    ...........    ..........    ...........   ..........    ...........    ..........    ............................................................   ..........................   .................    .........................    ................................................",
".....                   ..........    ...........    .........    ...........    ..........                  ..............................................   ..........................   .................    .........................                  ..................................",
"......                 ...........    ...........    .........    ...........    ..........                   .............................................   ..........................   .................    .........................                   .................................",
".......               ............   ............    .........   ............    ..........                   .............................................   ..........................   .................    .........................                   .................................",
"........             .............   .............  ..........   .............  ...........                  ..............................................   ..........................   .................   ..........................                  ..................................",
".............................................................................................................................................................................................................................................................................................",
".............................................................................................................................................................................................................................................................................................",
".............................................................................................................................................................................................................................................................................................",
".............................................................................................................................................................................................................................................................................................",
".............................................................................................................................................................................................................................................................................................",
".............................................................................................................................................................................................................................................................................................",
".............................................................................................................................................................................................................................................................................................",
".............................................................................................................................................................................................................................................................................................",
"............................................................................................................................................................................................................................................................................................."
};
