/* XPM */
static xpm_row_t const highscore_header[] = {
/* columns rows colors chars-per-pixel */
"314 48 2 1 ",
"  c #FFFFFF",
". c None",
/* pixels */
"..........................................................................................................................................................................................................................................................................................................................",
"..........................................................................................................................................................................................................................................................................................................................",
"..........................................................................................................................................................................................................................................................................................................................",
"..........................................................................................................................................................................................................................................................................................................................",
"..........................................................................................................................................................................................................................................................................................................................",
"..........................................................................................................................................................................................................................................................................................................................",
"..........................................................................................................................................................................................................................................................................................................................",
"..........................................................................................................................................................................................................................................................................................................................",
"......   .............  ..........                  ....................         ..........   .............  ............              .....................           ................     .................                ............                  ............              .....................................",
"......    ...........    .........                   .................            .........    ...........    ..........                 ..................            ...............       ................                 ...........                   ..........                 ...................................",
"......    ...........    .........                   .................            .........    ...........    .........                  .................             ..............         ...............                  ..........                   .........                  ...................................",
"......    ...........    .........                  .................            ..........    ...........    .........                   ...............              ..............         ...............                   .........                  ..........                   ..................................",
"......    ...........    .................   .......................     ..................    ...........    .........    ...........    ...............    .......................    ..     ..............    ...........    .........    ........................    ...........    ..................................",
"......    ...........    .................   ......................     ...................    ...........    .........    ............   ..............    ........................    ...    ..............    ...........    .........    ........................    ............   ..................................",
"......    ...........    .................   .....................     ....................    ...........    .........     ...........   ..............    .......................    ....     .............    ...........    .........    ........................     ...........   ..................................",
"......    ...........    .................   .....................     ....................    ...........    ..........     ..........................    ........................    .....    .............    ...........    .........    .........................     .............................       ...........",
"......    ...........    .................   ....................     .....................    ...........    ...........    ..........................    .......................    ......     ............    ...........    .........    ..........................    .............................       ...........",
"......    ...........    .................   ...................     ......................    ...........    ...........     ........................    ........................    .......    ............    ...........    .........    ..........................     ............................       ...........",
"......    ...........    .................   ...................    .......................    ...........    ............     .......................    .......................    ........     ...........                   .........    ...........................     ...........................       ...........",
"......    ...........    .................   ..................     .......................    ...........    .............     .....................    ........................    .........    ...........                  ..........    ............................     ..........................       ...........",
"......    ...........    .................   ..................    ........................    ...........    ..............     ....................    .......................    ..........     ..........                 ...........    .............................     .........................       ...........",
"......                   .................   ..................    ........................                   ..............     ...................    ........................    ...........    ..........                ............           ......................     ...........................................",
"......                   .................   ..................    ........................                   ...............     ..................    ........................    ...........    ..........    ...    .................           .......................     ..........................................",
"......                   .................   ..................    ........................                   ................     .................    ........................    ...........    ..........    ...     ................           ........................     .........................................",
"......                   .................   ..................    ........................                   .................     ................    ........................    ...........    ..........    ....    ................           .........................     ........................................",
"......    ...........    .................   ..................    ......         .........    ...........    ..................    ................    ........................    ...........    ..........    .....    ...............    .................................    ........................................",
"......    ...........    .................   ..................    .....          .........    ...........    ..................     ...............     .......................    ..........     ..........    .....    ...............    .................................     .......................................",
"......    ...........    .................   ..................    .....          .........    ...........    ...................     ...............    ........................    .........    ...........    ......    ..............    ..................................     ....................       ...........",
"......    ...........    .................   ..................    ......         .........    ...........    ....................     ..............     .......................    ........     ...........    ......     .............    ...................................     ...................       ...........",
"......    ...........    .................   ..................    ...........    .........    ...........    .....................     ..............    ........................    .......    ............    .......    .............    ....................................     ..................       ...........",
"......    ...........    .................   ..................    ...........    .........    ...........    .....................     ..............     .......................    ......     ............    .......     ............    ....................................     ..................       ...........",
"......    ...........    .................   ..................    ...........    .........    ...........    ......................     ..............    ........................    .....    .............    ........    ............    .....................................     .................       ...........",
"......    ...........    .................   ..................    ...........    .........    ...........    .........   ...........     .............     .......................    ....     .............    .........    ...........    ........................   ...........     ................       ...........",
"......    ...........    .................   ..................    ...........    .........    ...........    .........    ...........    ..............    ........................    ...    ..............    .........    ...........    ........................    ...........    ..................................",
"......    ...........    .................   ..................    ...........    .........    ...........    .........    ...........    ..............     .......................    ..     ..............    ..........    ..........    ........................    ...........    ..................................",
"......    ...........    .........                  ...........                   .........    ...........    .........                   ...............              ..............         ...............    ..........     .........                  ..........                   ..................................",
"......    ...........    .........                   ...........                 ..........    ...........    .........                   ...............              ..............         ...............    ...........    .........                   .........                   ..................................",
"......   ............    .........                   ............               ...........   ............    ..........                 .................             ...............       ................    ...........    .........                   ..........                 ...................................",
"......   .............  ..........                  ..............             ............   .............  .............              ....................           ................     .................   .............   .........                  .............              ....................................",
"..........................................................................................................................................................................................................................................................................................................................",
"..........................................................................................................................................................................................................................................................................................................................",
"..........................................................................................................................................................................................................................................................................................................................",
"..........................................................................................................................................................................................................................................................................................................................",
"..........................................................................................................................................................................................................................................................................................................................",
"..........................................................................................................................................................................................................................................................................................................................",
"..........................................................................................................................................................................................................................................................................................................................",
"..........................................................................................................................................................................................................................................................................................................................",
".........................................................................................................................................................................................................................................................................................................................."
};
