/* XPM */
static xpm_row_t const name_subheader[] = {
/* columns rows colors chars-per-pixel */
"52 22 2 1 ",
"  c #FFFFFF",
". c None",
/* pixels */
"....................................................",
"....................................................",
"....................................................",
"...  ..... ........  .......   ...   ....         ..",
"...   ....  .......  .......    ..   ....         ..",
"...   ....  .......  .......         ....  .........",
"...    ...  ......    ......  .   .  ....  .........",
"...    ...  ......    ......  ..  .  ....  .........",
"...  .  ..  ......    ......  ..  .  ....  .........",
"...  .  ..  .....  .. ......  .....  ....     ......",
"...  .  ..  .....  ..  .....  .....  ....     ......",
"...  ..  .  .....  ..  .....  .....  ....  .........",
"...  ..     .....      .....  .....  ....  .........",
"...  ...    ....        ....  .....  ....  .........",
"...  ...    ....  ....  ....  .....  ....  .........",
"...  ....   ....  ....  ....  .....  ....         ..",
"...  ....   .... ...... ....  .....  ....         ..",
"....................................................",
"....................................................",
"....................................................",
"....................................................",
"...................................................."
};
