/* XPM */
static xpm_row_t const pause_subheader[] = {
/* columns rows colors chars-per-pixel */
"207 39 2 1 ",
"  c #93C01F",
". c None",
/* pixels */
".                    ...........................   .......................   .................   ...............                   ...............                        .............              ..........",
".                      ........................     .....................     ...............     .............                     ..............                        ............                .........",
".                       .......................     .....................     ...............     ............                       .............                         ...........                  .......",
".                        .....................       ....................     ...............     ............                        ............                        ............                  .......",
".                        .....................       ....................     ...............     ...........                         ............                        .............                  ......",
".     .............       ....................       ....................     ...............     ...........      .............      ............     ....................................     ...      ......",
".     ..............      ....................       ....................     ...............     ...........      ..............      ...........     ....................................     ....      .....",
".     ..............      ...................         ...................     ...............     ............      .............     ............     ....................................     ....      .....",
".     ..............      ...................         ...................     ...............     ............       .............    ............     ....................................     .....      ....",
".     ..............      ...................         ...................     ...............     .............      .............................     ....................................     .....      ....",
".     ..............      ..................           ..................     ...............     .............       ............................     ....................................     ......      ...",
".     ..............      ..................           ..................     ...............     ..............       ...........................     ....................................     ......      ...",
".     ..............      ..................           ..................     ...............     ...............       ..........................     ....................................     .......      ..",
".     ..............      .................      .     ..................     ...............     ................       .........................     ....................................     .......      ..",
".     ..............      .................      .      .................     ...............     .................      .........................     ....................................     ........      .",
".     ..............      .................      ..     .................     ...............     .................       ........................     ....................................     ........      .",
".     ..............      .................     ...     .................     ...............     ..................       .......................     ....................................     .........     .",
".     ..............      ................      ...      ................     ...............     ...................       ......................              ...........................     .........      ",
".     .............       ................      ...      ................     ...............     ....................      ......................              ...........................     ..........     ",
".                        .................     .....     ................     ...............     ....................       .....................               ..........................     ..........     ",
".                        ................      .....     ................     ...............     .....................       ....................              ...........................     .........      ",
".                       .................      .....      ...............     ...............     ......................       ...................              ...........................     .........      ",
".                      ..................     .......     ...............     ...............     .......................       ..................     ....................................     .........     .",
".                     ...................     .......     ...............     ...............     ........................      ..................     ....................................     ........      .",
".     ..................................      .......      ..............     ...............     ........................       .................     ....................................     ........      .",
".     ..................................                   ..............     ...............     .........................       ................     ....................................     .......      ..",
".     ..................................                   ..............     ...............     ..........................       ...............     ....................................     .......      ..",
".     .................................                     .............     ...............     ...........................       ..............     ....................................     ......      ...",
".     .................................                     .............     ...............     ............................      ..............     ....................................     ......      ...",
".     .................................                     .............     ...............     ............................       .............     ....................................     .....      ....",
".     ................................                      .............     ...............     ............    .............       ............     ....................................     .....      ....",
".     ................................      ...........      ............     ...............     ...........     ..............      ............     ....................................     ....      .....",
".     ................................     .............     ............      ..............     ...........      ..............      ...........     ....................................     ....      .....",
".     ................................     .............     ............       ...........       ...........      ..............      ...........     ....................................     ...      ......",
".     ...............................      .............      ............                        ............                         ...........                        .............                  ......",
".     ...............................      .............      ............                       .............                        ............                        ............                  .......",
".     ...............................     ...............     .............                     ...............                       ............                         ...........                  .......",
".     ...............................     ...............     ..............                   .................                     .............                        ............                .........",
"..   .................................   .................   ................                 ...................                   ..............                        .............              .........."
};
