/* XPM */
static xpm_row_t const resolution_header[] = {
/* columns rows colors chars-per-pixel */
"304 32 2 1 ",
"  c #FFFFFF",
". c None",
/* pixels */
"               ..............                  ...............            ......................  ............................................................................                    ...........                ....................  ..................     ......................................",
"                 ............                    ...........                ..................      ................    .........................    ............    .........                    .........                    ................      ................      ..........    .......................",
"                   ..........                    ..........                  ................        ...............    .........................    ............    .........                    .........                    ...............        ...............      ..........    .......................",
"                   ..........                    .........                    ..............          ..............    .........................    ............    .........                    .........                    ..............          ..............       .........    .......................",
"                    .........                   ..........                    .............           ..............    .........................    ............    .........                    ..........                  ..............           ..............       .........    .......................",
"    ...........     .........    .........................    ...........     .............     ..     .............    .........................    ............    .........    ....    ....    .................    .....................     ..     .............        ........    .................    ..",
"    ............    .........    .........................     ...........    .............    ...     .............    .........................    ............    .........    ....    ....    .................    ....................     ...     .............        ........    ...............       .",
"    ............    .........    .........................      ...........  .............     ....     ............    .........................    ............    ..........  .....    ....   ..................    ....................     ....     ............        ........    ...............        ",
"    ............    .........    ..........................      .........................    .....     ............    .........................    ............    .................    .........................    ...................     .....     ............         .......    ...............        ",
"    ............    .........    ...........................     ........................     ......     ...........    .........................    ............    .................    .........................    ...................     ......     ...........    .    .......    ...............        ",
"    ..........      .........    ............................     .......................    .......     ...........    .........................    ............    .................    .........................    ..................     .......     ...........    .     ......    ...............        ",
"                    .........    .............................     .....................     ........     ..........    .........................    ............    .................    .........................    ..................     ........     ..........    .     ......    ...............        ",
"                   ..........    .............................      ....................    .........     ..........    .........................    ............    .................    .........................    ..................    .........     ..........    ..     .....    ...............       .",
"                  ...........    ..............................      ..................     ..........     .........    .........................    ............    .................    .........................    .................     ..........     .........    ..     .....    .......................",
"                .............           ........................     ..................     ..........     .........    .........................    ............    .................    .........................    .................     ..........     .........    ...     ....    .......................",
"    ...     .................            ........................     .................    ............    .........    .........................    ............    .................    .........................    .................    ............    .........    ...     ....    .......................",
"    ....     ................            ........................      ................    ............    .........    .........................    ............    .................    .........................    .................    ............    .........    ....    ....    .......................",
"    ....     ................            .........................      ...............    ...........     .........    .........................    ............    .................    .........................    .................    ...........     .........    ....     ...    .......................",
"    .....     ...............    ..................................      ..............     ..........     .........    .........................    ............    .................    .........................    .................     ..........     .........    .....    ...    .......................",
"    .....      ..............    ...................................     ..............     ..........    ..........    .........................    ............    .................    .........................    .................     ..........    ..........    .....     ..    ................      .",
"    ......     ..............    ....................................     ..............     ........     ..........    .........................    ............    .................    .........................    ..................     ........     ..........    .....     ..    ...............        ",
"    .......     .............    ....................................      .............     ........     ..........    .........................    ............    .................    .........................    ..................     ........     ..........    ......     .    ...............        ",
"    .......     .............    .....................................      .............     ......     ...........    .........................    ............    .................    .........................    ...................     ......     ...........    ......     .    ...............        ",
"    ........     ............    ......................................     .............     ......     ...........    .........................    ............    .................    .........................    ...................     ......     ...........    .......         ...............        ",
"    ........     ............    ..........................  ...........     .............     ....     ............    .........................    ............    .................    .........................    ....................     ....     ............    .......         ...............        ",
"    .........     ...........    .........................    ..........      ............     ....     ............    .........................    ............    .................    .........................    ....................     ....     ............    ........        ...............        ",
"    .........      ..........    .........................    ...........     .............     ..     .............    .........................    ...........     .................    .........................    .....................     ..     .............    ........        ................      .",
"    ..........     ..........    .........................     ..........     .............            .............    .........................      ........      .................    .........................    .....................            .............    ........        .......................",
"    ...........     .........                    .........                    ..............          ..............                   ..........                   ..................    .................                   ...............          ..............    .........       .......................",
"    ...........     .........                    ..........                   ...............         ..............                    ..........                  ..................    .................                    ...............         ..............    .........       .......................",
"    ............    .........                    ...........                 ................        ...............                    ...........                ...................    .................                    ...............        ...............    ..........      .......................",
".  ..............  ..........                   .............               ...................    .................                   ..............            ......................  ...................                  ..................    ..................  ...........      ......................."
};
