/* XPM */
static xpm_row_t const score_subheader_[] = {
/* columns rows colors chars-per-pixel */
"60 15 2 1 ",
"  c #ffffff",
". c None",
/* pixels */
"..     ..........    ..................      ......        .",
".        .......      ......    ......        .....         ",
"         ......      ......      .....         ....        .",
"   ....  .....   ..........  ..  .....  .....  ....  .......",
".   ..........  ..........   ..   ....  .....  ....  .......",
"..  .........   ..........  ....  ....         ....  .......",
"...  ........  ...........  ....  ....        .....     ....",
"...   .......  ..........   ....   ...  ..  .......     ....",
"....   ......  ...........  ....  ....  ..   ......    .....",
".....   .....   ..........  ....  ....  ...  ......  .......",
"......  ......  ..........   ..   ....  ...   .....  .......",
". ....   .....   ..........  ..  .....  ....  .....  .......",
"         ......      ......      .....  ....   ....        .",
".        .......      ......    ......  .....  ....         ",
"...    ...........   ..............................        ."
};
