/* XPM */
static xpm_row_t const time_lim_s[] = {
/* columns rows colors chars-per-pixel */
"388 21 2 1 ",
"  c #FFFFFF",
". c None",
/* pixels */
"....................................................................................................................................................................................................................................................................................................................................................................................................",
"....................................................................................................................................................................................................................................................................................................................................................................................................",
"....................................................................................................................................................................................................................................................................................................................................................................................................",
"....................................................................................................................................................................................................................................................................................................................................................................................................",
"...        .... .....  ....       .....        ................        ....  ..... ....        ................         ....        ...   ...   ....        ................ ...........        ....   ...  ....        ....         ....................  ......        ...   ....  ................       .....        .......     .......   ......  ..... ....     ........      .......  .......",
"...        ....  ....  ....        ....        ................        ....  .....  ...        ................         ....        ...    .    ....        ................ ...........        ....   ..   ....        ....         ...................   ......        ...   ....  ................        ....        ......      ......    ......   .... ....      ......        ......  .......",
"... ..  .  ....  ....  ....  ....  ....  ......................  .  .. ....  .....  ...  ....................... ..  .  .......  ......         .... ....................... ..............  .......        .......  .......  .  .. ....................  ..........  ......    ...  ................  ....  .... ............  ..........  ..  .....   .... ...... ..  .....  ..... .......  ......",
"......  ........  ..  .....  ..... ....  .........................  .......  .....  ...  ..........................  ..........  ......  .   .  .... ....................... ..............  .......      . .......  ..........  ......................  ...........  ......    ...  ................   ......... ............  ..........  ..  .....    ... ...... ..  ......  .............  .....",
"......  ........     ......  ..... ....  .........................  .......  .....  ...  ..........................  ..........  ......  ..  .  .... ....................... ..............  .......  .  .. .......  ..........  ...................... ............  ......  .  ..  .................  ......... ...........  ..........  ....  ....    ... ...... ...  .....   ............  .....",
"......  .........    ......  ....  ....  .........................  .......  .....  ...  ..........................  ..........  ......  .. ..  .... ....................... ..............  .......  .  .. .......  ..........  ...................... ............  ......  .  ..  ..................  ........ ...........  ..........  ....  ....  .  .. ...... ...  ......  ............  .....",
"......  ..........  .......        ....     ......................  .......         ...     .......................  ..........  ......  .....  ....     ................... ..............  .......  ..... .......  ..........  ...................... ............  ......  ..  .  ...................  .......     .......  ..........  ..... ....  .  .. ...... .... .......  ...........  .....",
"......  ..........  .......       .....     ......................  .......         ...     .......................  ..........  ......  .....  ....     ................... ..............  .......  ..... .......  ..........  ...................... ............  ......  ..  .  ....................  ......     .......  ..........  ....  ....  ..  . ...... ...  ........  ..........  .....",
"......  ..........  .......  ..........  .........................  .......  .....  ...  ..........................  ..........  ......  .....  .... ....................... ..............  .......  ..... .......  ..........  ...................... ............  ......  ... .  ....................   ..... ...........  ..........  ....  ....  ..  . ...... ...  .........  .........  .....",
"......  ..........  .......  ..........  .........................  .......  .....  ...  ..........................  ..........  ......  .....  .... ....................... ..............  .......  ..... .......  ..........  ......................  ...........  ......  ...    .....................  ..... ............  ..........  ..  .....  ..    ...... ..  ...........  ........  .....",
"......  ..........  .......  ..........  .........................  .......  .....  ...  ..........................  ..........  ......  .....  .... ....................... ..............  .......  ..... .......  ..........  .......................  ..........  ......  ...    ................ .....  .... ............  ..........  ..  .....  ...   ...... ..  .....  ....  .......  ......",
"......  ..........  .......  ..........        ...................  .......  .....  ...        ....................  .......        ...  .....  ....        ................        ....        ....  ..... ....        .......  .......................   ......        ...  ....   ................        ....        ......      ......    ......  ...   ....      ......        ......  .......",
"......  ..........  .......  ..........        ...................  .......  ..... ....        .................... ........        .... .....  ....        ................        ....        ....  ..... ....        ........ ........................  ......        .... ....   .................      .....        .......     .......   ......  ....  ....     ........       ......  .......",
"....................................................................................................................................................................................................................................................................................................................................................................................................",
"....................................................................................................................................................................................................................................................................................................................................................................................................",
"....................................................................................................................................................................................................................................................................................................................................................................................................",
"...................................................................................................................................................................................................................................................................................................................................................................................................."
};
