/* XPM */
static xpm_row_t const time_button[] = {
/* columns rows colors chars-per-pixel */
"241 58 17 1 ",
"  c #662482",
". c #70328A",
"X c #794091",
"o c #834E99",
"O c #8C5CA1",
"+ c #966AA8",
"@ c #9F78B0",
"# c #A986B8",
"$ c #B293BF",
"% c #BCA1C7",
"& c #C5AFCF",
"* c #CFBDD6",
"= c #D8CBDE",
"- c #E2D9E6",
"; c #EBE7ED",
": c #FFFFFF",
"> c None",
/* pixels */
">>>>>>>>>>>>>>>>>>>>>>>::::::::::::::::::::::::::::::::::::::::::::::::::::::::::::::::::::::::::::::::::::::::::::::::::::::::::::::::::::::::::::::::::::::::::::::::::::::::::::::::::::::::::::::::::::::::::::::::::>>>>>>>>>>>>>>>>>>>>>>>>",
">>>>>>>>>>>>>>>>>>>>:::::::::::::::::::::::::::::::::::::::::::::::::::::::::::::::::::::::::::::::::::::::::::::::::::::::::::::::::::::::::::::::::::::::::::::::::::::::::::::::::::::::::::::::::::::::::::::::::::::::::>>>>>>>>>>>>>>>>>>>>",
">>>>>>>>>>>>>>>>>::::::::::::::::::::::::::::::::::::::::::::::::::::::::::::::::::::::::::::::::::::::::::::::::::::::::::::::::::::::::::::::::::::::::::::::::::::::::::::::::::::::::::::::::::::::::::::::::::::::::::::::>>>>>>>>>>>>>>>>>>",
">>>>>>>>>>>>>>>::::::::::::::::::::::::::::::::::::::::::::::::::::::::::::::::::::::::::::::::::::::::::::::::::::::::::::::::::::::::::::::::::::::::::::::::::::::::::::::::::::::::::::::::::::::::::::::::::::::::::::::::::>>>>>>>>>>>>>>>>",
">>>>>>>>>>>>>>:::::::::::::::::::::::::::::::::::::::::::::::::::::::::::::::::::::::::::::::::::::::::::::::::::::::::::::::::::::::::::::::::::::::::::::::::::::::::::::::::::::::::::::::::::::::::::::::::::::::::::::::::::::>>>>>>>>>>>>>>",
">>>>>>>>>>>>::::::::::::::::::::::::::::::::::::::::::::::::::::::::::::::::::::::::::::::::::::::::::::::::::::::::::::::::::::::::::::::::::::::::::::::::::::::::::::::::::::::::::::::::::::::::::::::::::::::::::::::::::::::::>>>>>>>>>>>>>",
">>>>>>>>>>>:::::::::::::::::::::::::::::::::::::::::::::::::::::::::::::::::::::::::::::::::::::::::::::::::::::::::::::::::::::::::::::::::::::::::::::::::::::::::::::::::::::::::::::::::::::::::::::::::::::::::::::::::::::::::::>>>>>>>>>>>",
">>>>>>>>>>:::::::::::::::::::::::::::::::::::::::::::::::::::::::::::::::::::::::::::::::::::::::::::::::::::::::::::::::::::::::::::::::::::::::::::::::::::::::::::::::::::::::::::::::::::::::::::::::::::::::::::::::::::::::::::::>>>>>>>>>>",
">>>>>>>>>:::::::::::::::::::::::::::::::::::::::::::::::::::::::::::::::::::::::::::::::::::::::::::::::::::::::::::::::::::::::::::::::::::::::::::::::::::::::::::::::::::::::::::::::::::::::::::::::::::::::::::::::::::::::::::::::>>>>>>>>>",
">>>>>>>>:::::::::::::::::::::::::::::::::::::::::::::::::::::::::::::::::::::::::::::::::::::::::::::::::::::::::::::::::::::::::::::::::::::::::::::::::::::::::::::::::::::::::::::::::::::::::::::::::::::::::::::::::::::::::::::::::>>>>>>>>",
">>>>>>>:::::::::::::::::::::::::::::::::::::::::::::::::::::::::::::::::::::::::::::::::::::::::::::::::::::::::::::::::::::::::::::::::::::::::::::::::::::::::::::::::::::::::::::::::::::::::::::::::::::::::::::::::::::::::::::::::::>>>>>>>",
">>>>>>::::::::::::::::::::::::::::::::::::::::::::::::::::::::::::::::::::::::::::::::::::::::::::::::::::::::::::::::::::::::::::::::::::::::::::::::::::::::::::::::::::::::::::::::::::::::::::::::::::::::::::::::::::::::::::::::::::>>>>>>>",
">>>>>>:::::::::::::::::::::::::::::::::::::::::::::::::::::::::::::::::::::::::::::::::::::::::::::::::::::::::::::::::::::::::::::::::::::::::::::::::::::::::::::::::::::::::::::::::::::::::::::::::::::::::::::::::::::::::::::::::::::>>>>>>",
">>>>>:::::::::::::::::::::::::::::::::::::::::::::::::::::::::::::::%                   -::::::::@                 $::::::::%     %:::::::#     *::::::::%                  $:::::::::::::::::::::::::::::::::::::::::::::::::::::::::::::::>>>>>",
">>>>::::::::::::::::::::::::::::::::::::::::::::::::::::::::::::::::%                   -:::::::=                   ;:::::::%     .;:::::=      *::::::::%                   ;::::::::::::::::::::::::::::::::::::::::::::::::::::::::::::::>>>>>",
">>>>::::::::::::::::::::::::::::::::::::::::::::::::::::::::::::::::%                   -:::::::=                   ;:::::::%      @:::::X      *::::::::%                   =:::::::::::::::::::::::::::::::::::::::::::::::::::::::::::::::>>>>",
">>>:::::::::::::::::::::::::::::::::::::::::::::::::::::::::::::::::%                   -::::::::@                 $::::::::%       *:::$       *::::::::%                  $::::::::::::::::::::::::::::::::::::::::::::::::::::::::::::::::>>>>",
">>>:::::::::::::::::::::::::::::::::::::::::::::::::::::::::::::::::%   @:::$   %:::O   -:::::::::::::::$   %:::::::::::::::%       X::-        *::::::::%   @::::::::::::::::::::::::::::::::::::::::::::::::::::::::::::::::::::::::::::::::>>>",
">>::::::::::::::::::::::::::::::::::::::::::::::::::::::::::::::::::&   #:::$   %:::O   ;:::::::::::::::$   %:::::::::::::::%   O    $:o   Xo   *::::::::%   @::::::::::::::::::::::::::::::::::::::::::::::::::::::::::::::::::::::::::::::::>>>",
">>:::::::::::::::::::::::::::::::::::::::::::::::::::::::::::::::::::+ o-:::$   %:::=X $::::::::::::::::$   %:::::::::::::::%   @$    #    &O   *::::::::%   @:::::::::::::::::::::::::::::::::::::::::::::::::::::::::::::::::::::::::::::::::>>",
">>::::::::::::::::::::::::::::::::::::::::::::::::::::::::::::::::::::::::::$   %:::::::::::::::::::::::$   %:::::::::::::::%   @:X       @:O   *::::::::%   @:::::::::::::::::::::::::::::::::::::::::::::::::::::::::::::::::::::::::::::::::>>",
">:::::::::::::::::::::::::::::::::::::::::::::::::::::::::::::::::::::::::::$   %:::::::::::::::::::::::$   %:::::::::::::::%   @:=      .;:O   *::::::::%   @:::::::::::::::::::::::::::::::::::::::::::::::::::::::::::::::::::::::::::::::::>>",
">:::::::::::::::::::::::::::::::::::::::::::::::::::::::::::::::::::::::::::$   %:::::::::::::::::::::::$   %:::::::::::::::%   @::#     %::O   *::::::::%   @::::::::::::::::::::::::::::::::::::::::::::::::::::::::::::::::::::::::::::::::::>",
">:::::::::::::::::::::::::::::::::::::::::::::::::::::::::::::::::::::::::::$   %:::::::::::::::::::::::$   %:::::::::::::::%   @::;X   +:::O   *::::::::%   @::::::::::::::::::::::::::::::::::::::::::::::::::::::::::::::::::::::::::::::::::>",
">:::::::::::::::::::::::::::::::::::::::::::::::::::::::::::::::::::::::::::$   %:::::::::::::::::::::::$   %:::::::::::::::%   @:::@   %:::O   *::::::::%   @::::::::::::::::::::::::::::::::::::::::::::::::::::::::::::::::::::::::::::::::::>",
">:::::::::::::::::::::::::::::::::::::::::::::::::::::::::::::::::::::::::::$   %:::::::::::::::::::::::$   %:::::::::::::::%   @:::#   &:::O   *::::::::%   @::::::::::::::::::::::::::::::::::::::::::::::::::::::::::::::::::::::::::::::::::>",
">:::::::::::::::::::::::::::::::::::::::::::::::::::::::::::::::::::::::::::$   %:::::::::::::::::::::::$   %:::::::::::::::%   @:::;o +::::O   *::::::::%          +:::::::::::::::::::::::::::::::::::::::::::::::::::::::::::::::::::::::::::>",
"::::::::::::::::::::::::::::::::::::::::::::::::::::::::::::::::::::::::::::$   %:::::::::::::::::::::::$   %:::::::::::::::%   @:::::::::::O   *::::::::%           %::::::::::::::::::::::::::::::::::::::::::::::::::::::::::::::::::::::::::>",
"::::::::::::::::::::::::::::::::::::::::::::::::::::::::::::::::::::::::::::$   %:::::::::::::::::::::::$   %:::::::::::::::%   @:::::::::::O   *::::::::%           &::::::::::::::::::::::::::::::::::::::::::::::::::::::::::::::::::::::::::>",
"::::::::::::::::::::::::::::::::::::::::::::::::::::::::::::::::::::::::::::$   %:::::::::::::::::::::::$   %:::::::::::::::%   @:::::::::::O   *::::::::%          O:::::::::::::::::::::::::::::::::::::::::::::::::::::::::::::::::::::::::::>",
"::::::::::::::::::::::::::::::::::::::::::::::::::::::::::::::::::::::::::::$   %:::::::::::::::::::::::$   %:::::::::::::::%   @:::::::::::O   *::::::::%   @::::::::::::::::::::::::::::::::::::::::::::::::::::::::::::::::::::::::::::::::::>",
">:::::::::::::::::::::::::::::::::::::::::::::::::::::::::::::::::::::::::::$   %:::::::::::::::::::::::$   %:::::::::::::::%   @:::::::::::O   *::::::::%   @::::::::::::::::::::::::::::::::::::::::::::::::::::::::::::::::::::::::::::::::::>",
">:::::::::::::::::::::::::::::::::::::::::::::::::::::::::::::::::::::::::::$   %:::::::::::::::::::::::$   %:::::::::::::::%   @:::::::::::O   *::::::::%   @::::::::::::::::::::::::::::::::::::::::::::::::::::::::::::::::::::::::::::::::::>",
">:::::::::::::::::::::::::::::::::::::::::::::::::::::::::::::::::::::::::::$   %:::::::::::::::::::::::$   %:::::::::::::::%   @:::::::::::O   *::::::::%   @::::::::::::::::::::::::::::::::::::::::::::::::::::::::::::::::::::::::::::::::::>",
">:::::::::::::::::::::::::::::::::::::::::::::::::::::::::::::::::::::::::::$   %:::::::::::::::::::::::$   %:::::::::::::::%   @:::::::::::O   *::::::::%   @::::::::::::::::::::::::::::::::::::::::::::::::::::::::::::::::::::::::::::::::::>",
">:::::::::::::::::::::::::::::::::::::::::::::::::::::::::::::::::::::::::::$   %:::::::::::::::::::::::$   %:::::::::::::::%   @:::::::::::O   *::::::::%   @::::::::::::::::::::::::::::::::::::::::::::::::::::::::::::::::::::::::::::::::::>",
">:::::::::::::::::::::::::::::::::::::::::::::::::::::::::::::::::::::::::::$   %:::::::::::::::::::::::$   %:::::::::::::::%   @:::::::::::O   *::::::::%   @:::::::::::::::::::::::::::::::::::::::::::::::::::::::::::::::::::::::::::::::::>>",
">>::::::::::::::::::::::::::::::::::::::::::::::::::::::::::::::::::::::::::$   %:::::::::::::::::::::::$   %:::::::::::::::%   @:::::::::::O   *::::::::%   @:::::::::::::::::::::::::::::::::::::::::::::::::::::::::::::::::::::::::::::::::>>",
">>::::::::::::::::::::::::::::::::::::::::::::::::::::::::::::::::::::::::::$   %:::::::::::::::::::::::$   %:::::::::::::::%   @:::::::::::O   *::::::::%   @:::::::::::::::::::::::::::::::::::::::::::::::::::::::::::::::::::::::::::::::::>>",
">>::::::::::::::::::::::::::::::::::::::::::::::::::::::::::::::::::::::::::$   %:::::::::::::::::::::::$   %:::::::::::::::%   @:::::::::::O   *::::::::%   @::::::::::::::::::::::::::::::::::::::::::::::::::::::::::::::::::::::::::::::::>>>",
">>>:::::::::::::::::::::::::::::::::::::::::::::::::::::::::::::::::::::::::$   %::::::::::::::::@                 $::::::::%   @:::::::::::O   *::::::::%                  $:::::::::::::::::::::::::::::::::::::::::::::::::::::::::::::::::>>>",
">>>:::::::::::::::::::::::::::::::::::::::::::::::::::::::::::::::::::::::::$   %:::::::::::::::=                   ;:::::::%   @:::::::::::O   *::::::::%                   =:::::::::::::::::::::::::::::::::::::::::::::::::::::::::::::::>>>>",
">>>>::::::::::::::::::::::::::::::::::::::::::::::::::::::::::::::::::::::::$   &:::::::::::::::=                   ;:::::::&   $:::::::::::+   =::::::::%                   =:::::::::::::::::::::::::::::::::::::::::::::::::::::::::::::::>>>>",
">>>>::::::::::::::::::::::::::::::::::::::::::::::::::::::::::::::::::::::::;O +:::::::::::::::::@                 $:::::::::+ O;:::::::::::-X $:::::::::%                  $:::::::::::::::::::::::::::::::::::::::::::::::::::::::::::::::>>>>>",
">>>>>:::::::::::::::::::::::::::::::::::::::::::::::::::::::::::::::::::::::::::::::::::::::::::::::::::::::::::::::::::::::::::::::::::::::::::::::::::::::::::::::::::::::::::::::::::::::::::::::::::::::::::::::::::::::::::::::::::::::>>>>>",
">>>>>>:::::::::::::::::::::::::::::::::::::::::::::::::::::::::::::::::::::::::::::::::::::::::::::::::::::::::::::::::::::::::::::::::::::::::::::::::::::::::::::::::::::::::::::::::::::::::::::::::::::::::::::::::::::::::::::::::::::>>>>>>",
">>>>>>::::::::::::::::::::::::::::::::::::::::::::::::::::::::::::::::::::::::::::::::::::::::::::::::::::::::::::::::::::::::::::::::::::::::::::::::::::::::::::::::::::::::::::::::::::::::::::::::::::::::::::::::::::::::::::::::::::>>>>>>>",
">>>>>>>:::::::::::::::::::::::::::::::::::::::::::::::::::::::::::::::::::::::::::::::::::::::::::::::::::::::::::::::::::::::::::::::::::::::::::::::::::::::::::::::::::::::::::::::::::::::::::::::::::::::::::::::::::::::::::::::::::>>>>>>>",
">>>>>>>>:::::::::::::::::::::::::::::::::::::::::::::::::::::::::::::::::::::::::::::::::::::::::::::::::::::::::::::::::::::::::::::::::::::::::::::::::::::::::::::::::::::::::::::::::::::::::::::::::::::::::::::::::::::::::::::::::>>>>>>>>",
">>>>>>>>>:::::::::::::::::::::::::::::::::::::::::::::::::::::::::::::::::::::::::::::::::::::::::::::::::::::::::::::::::::::::::::::::::::::::::::::::::::::::::::::::::::::::::::::::::::::::::::::::::::::::::::::::::::::::::::::::>>>>>>>>>",
">>>>>>>>>>:::::::::::::::::::::::::::::::::::::::::::::::::::::::::::::::::::::::::::::::::::::::::::::::::::::::::::::::::::::::::::::::::::::::::::::::::::::::::::::::::::::::::::::::::::::::::::::::::::::::::::::::::::::::::::::>>>>>>>>>>",
">>>>>>>>>>>:::::::::::::::::::::::::::::::::::::::::::::::::::::::::::::::::::::::::::::::::::::::::::::::::::::::::::::::::::::::::::::::::::::::::::::::::::::::::::::::::::::::::::::::::::::::::::::::::::::::::::::::::::::::::::>>>>>>>>>>>",
">>>>>>>>>>>>::::::::::::::::::::::::::::::::::::::::::::::::::::::::::::::::::::::::::::::::::::::::::::::::::::::::::::::::::::::::::::::::::::::::::::::::::::::::::::::::::::::::::::::::::::::::::::::::::::::::::::::::::::::::>>>>>>>>>>>>>",
">>>>>>>>>>>>>>:::::::::::::::::::::::::::::::::::::::::::::::::::::::::::::::::::::::::::::::::::::::::::::::::::::::::::::::::::::::::::::::::::::::::::::::::::::::::::::::::::::::::::::::::::::::::::::::::::::::::::::::::::::>>>>>>>>>>>>>>",
">>>>>>>>>>>>>>>::::::::::::::::::::::::::::::::::::::::::::::::::::::::::::::::::::::::::::::::::::::::::::::::::::::::::::::::::::::::::::::::::::::::::::::::::::::::::::::::::::::::::::::::::::::::::::::::::::::::::::::::::>>>>>>>>>>>>>>>>",
">>>>>>>>>>>>>>>>>::::::::::::::::::::::::::::::::::::::::::::::::::::::::::::::::::::::::::::::::::::::::::::::::::::::::::::::::::::::::::::::::::::::::::::::::::::::::::::::::::::::::::::::::::::::::::::::::::::::::::::::>>>>>>>>>>>>>>>>>>",
">>>>>>>>>>>>>>>>>>>>:::::::::::::::::::::::::::::::::::::::::::::::::::::::::::::::::::::::::::::::::::::::::::::::::::::::::::::::::::::::::::::::::::::::::::::::::::::::::::::::::::::::::::::::::::::::::::::::::::::::::>>>>>>>>>>>>>>>>>>>>",
">>>>>>>>>>>>>>>>>>>>>>>::::::::::::::::::::::::::::::::::::::::::::::::::::::::::::::::::::::::::::::::::::::::::::::::::::::::::::::::::::::::::::::::::::::::::::::::::::::::::::::::::::::::::::::::::::::::::::::::::>>>>>>>>>>>>>>>>>>>>>>>>"
};
