/* XPM */
static xpm_row_t const E[] = {
/* columns rows colors chars-per-pixel */
"10 17 2 1 ",
"  c #000000",
". c None",
/* pixels */
"..........",
"          ",
"         .",
"  ........",
"  ........",
"  ........",
"  ........",
"     .....",
"      ....",
"      ....",
"  ........",
"  ........",
"  ........",
"  ........",
"  ........",
"          ",
"         ."
};
