/* XPM */
static xpm_row_t const J[] = {
/* columns rows colors chars-per-pixel */
"8 17 2 1 ",
"  c #000000",
". c None",
/* pixels */
"........",
"......  ",
"......  ",
"......  ",
"......  ",
"......  ",
"......  ",
"......  ",
"......  ",
"......  ",
"  ....  ",
"  ....  ",
"  ....  ",
"  ....  ",
"        ",
".      .",
"..    .."
};
