/* XPM */
static xpm_row_t const U[] = {
/* columns rows colors chars-per-pixel */
"11 17 2 1 ",
"  c #000000",
". c None",
/* pixels */
"...........",
".  .....  .",
"   .....  .",
"   .....  .",
"   .....  .",
"   .....  .",
"   .....  .",
"   .....  .",
"   .....  .",
"   .....  .",
"   .....  .",
"   .....  .",
"   .....  .",
"   .....  .",
".         .",
".         .",
"..      ..."
};
