/* XPM */
static xpm_row_t const big_6[] = {
/* columns rows colors chars-per-pixel */
"13 20 2 1 ",
"  c #000000",
". c None",
/* pixels */
".. ..........",
"    .........",
"    .........",
"   ..........",
"   ..........",
"   ..........",
"   ..........",
"   ..........",
"   ..........",
"   ..........",
"   ..........",
"            .",
"             ",
"             ",
"   .......   ",
"   .......   ",
"   .......   ",
"             ",
"            .",
".          .."
};
