/* XPM */
static  xpm_row_t const n__[] = {
/* columns rows colors chars-per-pixel */
"20 30 2 1 ",
"  c #000000",
". c None",
/* pixels */
".    ...............",
"      ..........   .",
"      .........    .",
"       ........    .",
"       ........    .",
"        .......    .",
"        .......    .",
"         ......    .",
"         ......    .",
"    .    ......    .",
"    .     .....    .",
"    ..    .....    .",
"    ..     ....    .",
"    ...    ....    .",
"    ...     ...    .",
"    ....    ...    .",
"    ....     ..    .",
"    ....     ..    .",
"    .....     .    .",
"    .....     .    .",
"    ......    .    .",
"    ......         .",
"    .......        .",
"    .......        .",
"    ........       .",
"    ........       .",
"    .........      .",
"    .........      .",
"    .........      .",
".. ...........     ."
};
