/* XPM */
static xpm_row_t const o__[] = {
/* columns rows colors chars-per-pixel */
"20 30 2 1 ",
"  c #FFFFFF",
". c None",
/* pixels */
".......... .........",
".......       ......",
"......         .....",
"......         .....",
".....           ....",
".....    ..     ....",
"....     ...     ...",
"....    .....    ...",
"...     .....     ..",
"...    .......    ..",
"..     .......     .",
"..    .........    .",
".     .........     ",
".    ..........     ",
".    ...........    ",
".    ...........    ",
".    ...........    ",
".     .........     ",
".     .........    .",
"..     .......     .",
"..     .......    ..",
"...     .....     ..",
"...     .....    ...",
"....     ...     ...",
"....     ...    ....",
".....     .     ....",
".....          .....",
"......         .....",
".......       ......",
"..........  ........"
};
