/* XPM */
static xpm_row_t const ball[]={
"42 42 12 1",
". c None",
"c c #f5f5f5",
"# c #f5f5f5",
"i c #f5f5f5",
"a c #f5f5f5",
"d c #f5f5f5",
"b c #f5f5f5",
"h c #f5f5f5",
"e c #f5f5f5",
"j c #f5f5f5",
"f c #f5f5f5",
"g c #f5f5f5",
".................#aabbaa#.................",
".............cdefggggggggfedc.............",
"...........#hfggggggggggggggfh#...........",
".........cbggggggggggggggggggggbc.........",
"........ijggggggggggggggggggggggji........",
".......dggggggggggggggggggggggggggd.......",
"......dggggggggggggggggggggggggggggd......",
".....dggggggggggggggggggggggggggggggd.....",
"....iggggggggggggggggggggggggggggggggi....",
"...cjggggggggggggggggggggggggggggggggjc...",
"...bggggggggggggggggggggggggggggggggggb...",
"..#gggggggggggggggggggggggggggggggggggg#..",
"..hggggggggggggggggggggggggggggggggggggh..",
".cfggggggggggggggggggggggggggggggggggggfc.",
".dggggggggggggggggggggggggggggggggggggggd.",
".egggggggggggggggggggggggggggggggggggggge.",
".fggggggggggggggggggggggggggggggggggggggf.",
"#gggggggggggggggggggggggggggggggggggggggg#",
"agggggggggggggggggggggggggggggggggggggggga",
"agggggggggggggggggggggggggggggggggggggggga",
"bggggggggggggggggggggggggggggggggggggggggb",
"bggggggggggggggggggggggggggggggggggggggggb",
"agggggggggggggggggggggggggggggggggggggggga",
"agggggggggggggggggggggggggggggggggggggggga",
"#gggggggggggggggggggggggggggggggggggggggg#",
".fggggggggggggggggggggggggggggggggggggggf.",
".egggggggggggggggggggggggggggggggggggggge.",
".dggggggggggggggggggggggggggggggggggggggd.",
".cfggggggggggggggggggggggggggggggggggggfc.",
"..hggggggggggggggggggggggggggggggggggggh..",
"..#gggggggggggggggggggggggggggggggggggg#..",
"...bggggggggggggggggggggggggggggggggggb...",
"...cjggggggggggggggggggggggggggggggggjc...",
"....iggggggggggggggggggggggggggggggggi....",
".....dggggggggggggggggggggggggggggggd.....",
"......dggggggggggggggggggggggggggggd......",
".......dggggggggggggggggggggggggggd.......",
"........ijggggggggggggggggggggggji........",
".........cbggggggggggggggggggggbc.........",
"...........#hfggggggggggggggfh#...........",
".............cdefggggggggfedc.............",
".................#aabbaa#................."};
