/* XPM */
static xpm_row_t const cursor[]={
"15 24 112 2",
".a c None",
"#D c #000000",
".l c #7f7f7f",
".q c #2a2a2a",
"#C c #1f1f1f",
"#T c #191919",
".u c #171717",
".8 c #2e2e2e",
"#K c #131313",
".y c #0f0f0f",
"#p c #1e1e1e",
"#P c #222222",
".C c #141414",
"#a c #111111",
".7 c #0f0f0f",
".G c #0e0e0e",
"#k c #111111",
".K c #101010",
".6 c #0d0d0d",
".O c #0c0c0c",
".R c #0a0a0a",
"#x c #0d0d0d",
".5 c #090909",
".T c #0b0b0b",
".# c #0a0a0a",
".4 c #0a0a0a",
"#w c #0a0a0a",
"#G c #070707",
"#S c #070707",
"#H c #070707",
".d c #080808",
"#q c #080808",
"#u c #080808",
"#j c #070707",
".g c #090909",
"#Q c #070707",
"#h c #070707",
"#d c #060606",
".k c #060606",
"#e c #060606",
".p c #060606",
".t c #040404",
"#r c #050505",
".x c #030303",
".B c #030303",
"#J c #030303",
".3 c #040404",
"#R c #040404",
".F c #030303",
".Z c #060606",
"#v c #050505",
"Qt c #060606",
".J c #030303",
"#B c #030303",
"#O c #030303",
".N c #020202",
"#L c #030303",
"#o c #030303",
".Q c #030303",
".b c #030303",
".c c #030303",
"#l c #050505",
".Y c #010101",
".X c #0e0e0e",
".f c #111111",
"#y c #121212",
"#c c #171717",
".j c #191919",
"#. c #1f1f1f",
".o c #222222",
".W c #232323",
"#F c #242424",
"#N c #272727",
"#I c #282828",
".s c #2c2c2c",
"#t c #353535",
".w c #383838",
".A c #454545",
"#g c #474747",
".V c #4d4d4d",
".E c #535353",
"#f c #545454",
".2 c #5a5a5a",
".I c #636363",
"#M c #6b6b6b",
"#s c #737373",
".M c #757575",
".1 c #818181",
".P c #878787",
".U c #888888",
".S c #8f8f8f",
"#E c #929292",
"#i c #939393",
".e c #949494",
"#A c #a6a6a6",
"#n c #b9b9b9",
"## c #bfbfbf",
"#b c #c9c9c9",
".i c #cbcbcb",
".h c #cccccc",
".9 c #d3d3d3",
".n c #d5d5d5",
"#m c #dadada",
".0 c #dcdcdc",
".r c #dedede",
".v c #e6e6e6",
".z c #ececec",
"#z c #ededed",
".D c #f1f1f1",
".H c #f4f4f4",
".L c #f6f6f6",
".m c #f7f7f7",
"Qt.#.a.a.a.a.a.a.a.a.a.a.a.a.a",
".b.c.d.a.a.a.a.a.a.a.a.a.a.a.a",
".b.e.f.g.a.a.a.a.a.a.a.a.a.a.a",
".b.h.i.j.k.l.a.a.a.a.a.a.a.a.a",
".b.h.m.n.o.p.q.a.a.a.a.a.a.a.a",
".b.h.m.m.r.s.t.u.a.a.a.a.a.a.a",
".b.h.m.m.m.v.w.x.y.a.a.a.a.a.a",
".b.h.m.m.m.m.z.A.B.C.a.a.a.a.a",
".b.h.m.m.m.m.m.D.E.F.G.a.a.a.a",
".b.h.m.m.m.m.m.m.H.I.J.K.a.a.a",
".b.h.m.m.m.m.m.m.m.L.M.N.O.a.a",
".b.h.m.m.m.m.m.m.m.m.m.P.Q.R.a",
".b.h.m.m.m.m.m.m.m.m.m.m.S.b.T",
".b.h.m.m.m.m.m.U.V.w.W.X.Y.Y.Z",
".b.h.m.m.0.1.m.2.3.4.5.6.7.8.a",
".b.h.m.9#..Y##.i.b#a.a.a.a.a.a",
".b.h#b#c#d#e#f.m#g#h.a.a.a.a.a",
".b#i.f#j.a#k#l#m#n#o#p.a.a.a.a",
".b.c#q.a.a.a#r#s.m#t#u.a.a.a.a",
"#v#w.a.a.a.a#x#y#z#A#B#C.a.a.a",
".a.a.a.a.a.a#D.3#E.H#F#G.a.a.a",
".a.a.a.a.a.a.a#H#I.L.e#J.l.a.a",
".a.a.a.a.a.a.a#K#L#M#N#O#P.a.a",
".a.a.a.a.a.a.a.a#Q#R#S#T.a.a.a"};
