/* XPM */
static xpm_row_t const fire_frame_4[] = {
/* columns rows colors chars-per-pixel */
"30 48 61 1 ",
"  c #E63927",
". c #E73F25",
"X c #E5332A",
"o c #E84B1F",
"O c #E94F1D",
"+ c #EA561A",
"@ c #E9501D",
"# c #EB5C18",
"$ c #ED700F",
"% c #EE700F",
"& c #EE740D",
"* c #EF7A0A",
"= c #EF7D09",
"- c #EC6215",
"; c #ED6B11",
": c #EC6812",
"> c #ED6912",
", c #ED6E10",
"< c #E74522",
"1 c #F08605",
"2 c #F18406",
"3 c #F18903",
"4 c #F18B02",
"5 c #F18B03",
"6 c #F28D02",
"7 c #F08008",
"8 c #F18908",
"9 c #F29100",
"0 c #F29303",
"q c #F29304",
"w c #F39404",
"e c #F39506",
"r c #F3970A",
"t c #F3990C",
"y c #F3990D",
"u c #F4990D",
"i c #F49A0F",
"p c #F49B0F",
"a c #F49B10",
"s c #F49D13",
"d c #F59E14",
"f c #F49E15",
"g c #F59E16",
"h c #F59F16",
"j c #F5A11A",
"k c #F6A520",
"l c #F6A621",
"z c #F6A723",
"x c #F7A825",
"c c #F6A926",
"v c #F7A926",
"b c #F7AA27",
"n c #F7AB2A",
"m c #F7AD2D",
"M c #F8AF2F",
"N c #F8AF30",
"B c #F8B031",
"V c #F8B032",
"C c #F8B132",
"Z c #F8B133",
"A c None",
/* pixels */
"AAAAAAAAAAAAAAAAAAAAAAAAAAAAAA",
"AAAAAAAAAAAAAAAAAAAAXXXAAAAAAA",
"AAAAAAAAAAAAAAAAAAAXXXAAAAAAAA",
"AAAAAAAAAAAAAAAAAAAXXXAAAAAAAA",
"AAAAAAAAAAAAAAAAAAXXXAXXAAAAAA",
"AAAAAAAAAAAAAAAAAAXXAXXXXAAAAA",
"AAAAAAAAAAAAAAAAAAAAAXXXAAAAAA",
"AAAAAAAAAAAAAAAAAAAAXXXXAAAAAA",
"AAAAAAAAAAAAAAXXXXXXXXXXAAAAAA",
"AAAAAAAAAAAAXXXXXXXXXXXXXXAAAA",
"AAAAAAAAAAXXXXXXXX.,*<XXXXAAAA",
"AAAAAAAAAXXXXXXX.o799-XXXXXAAA",
"AAAAAAAAXXXXX >599999+XXXXXAAA",
"AAAAAAAAXXX $99inMbh0%.XXXXXAA",
"AAAAAAAXXX<499eVZZZZNj9*oXXXAA",
"AAAAAAAXX 4999jZZZZZZZl99#XXXA",
"AAAAAAAXX,0nZndNZZZZZZZj99@XXA",
"AAAAAAAXX9jZZZNueZZZZZZZa91XXA",
"AAAAAAAX<9cZZZZN9kZZZZZZN09.XA",
"AAAAAAAX.9nZZZZZaeZZZZZZZj9oXX",
"AAAAAAAXX4nZZZZZz9kZZZZZZz9.XX",
"AAAAAAAXX+nZZZZZZueZZZZZVr7XXX",
"AAAAAAAAXXxZZZZZZm9kZZZCt9oXXA",
"AAAAAAAAXXfZZZZZZZseZZZp9-XXXA",
"AAAAAAAAX.0BZZZZZZv9kZb9#XXXAA",
"AAAAAAAXX#9jZZZZZZz9qh8oXXXXAA",
"AAAAAXXXX*99kZZZZNr999 XXXXAAA",
"AAAXXX.-*9999ajja99996-XXAAAAA",
"AAAX ,99rhjjujjjjgw9999+XXAAAA",
"AAX 79evZZZZZZZZZZNy9991XXXAAA",
"AXX*9rNZZZZZZZZZZZZZk999OXXAAA",
"AX+90NZZZZZZZZNZZZZZZh993XXXAA",
"AX&9hZZZZZZZZZZZZZZZZn999+XXAA",
"X.99zZZZZZZZZZZZZZZZZZ999&XXAA",
"X:99vZZZZZZZZZZZZZZZZZ9994XXXA",
"X*99NZZZZZZZZZZZZZZZZZ9999XXXA",
"X*9eZZZZZZZZZZZZZZZZZm9999XXXA",
"X&9uZZZZZZZZZZZZZZZZZv9997XXXA",
"X+99ZZZZZZZZZZZZZZZZZh999:XXAA",
"AX79sZZZZmmZZZZZZZZZN0999.XXAA",
"AX.79easu9rNZZZZZvZZj999#XXXAA",
"AXX *9999990kZZZZZZm099:XXXAAA",
"AAXX 499991#4eajjjs091@XXXAAAA",
"AAXXX #*:+XX<&42=;-+<XXXXAAAAA",
"AAAXXXXXXXXXXXXXXXXXXXXXAAAAAA",
"AAAAAXXXXXXXXXXXXXXXXXXAAAAAAA",
"AAAAAAAXXAAAXXXXXXXXXAAAAAAAAA",
"AAAAAAAAAAAAAAAAAAAAAAAAAAAAAA"
};
