/* XPM */
static xpm_row_t const fire_frame_3[] = {
/* columns rows colors chars-per-pixel */
"30 45 48 1 ",
"  c #E63927",
". c #E73F25",
"X c #E5332A",
"o c #E84B1F",
"O c #E94F1D",
"+ c #EA561A",
"@ c #E9501D",
"# c #EB5C18",
"$ c #EE740D",
"% c #EF7A0A",
"& c #EB6215",
"* c #EC6215",
"= c #EC6812",
"- c #ED6912",
"; c #ED6E10",
": c #E74522",
"> c #F08605",
", c #F18B02",
"< c #F28E02",
"1 c #F08008",
"2 c #F29000",
"3 c #F29100",
"4 c #F29001",
"5 c #F29303",
"6 c #F29506",
"7 c #F39506",
"8 c #F39709",
"9 c #F3970A",
"0 c #F4990D",
"q c #F18412",
"w c #F49B10",
"e c #F49D13",
"r c #F59F16",
"t c #F59F17",
"y c #F5A11A",
"u c #F5A31D",
"i c #F6A520",
"p c #F6A723",
"a c #F7A926",
"s c #F7AB2A",
"d c #F7AD2D",
"f c #F8AE2E",
"g c #F8AF2F",
"h c #F8AF30",
"j c #F8AF31",
"k c #F8B132",
"l c #F8B133",
"z c None",
/* pixels */
"zzzzzzzzzzzzzzzzzzzzzzzzzzzzzz",
"zzzzzzzzzzzzzXXXzzzzzzzzzzzzzz",
"zzzzzzzzzzzXXXXXXzzXXzzzzzzzzz",
"zzzzzzzzzzXXXXXXzzzXXzzzzzzzzz",
"zzzzzzzzzzzzzzzzzzzXXzzzzzzzzz",
"zzzzzzzzzzzzzXXXzzzXXzzzzzzzzz",
"zzzzzzzzzzzzXXXXXzXXXXzzzzzzzz",
"zzzzzzzzzzzzzXXXXXXXXXzzzzzzzz",
"zzzzzzzzzzzzXXXXXXXXXXXzzzzzzz",
"zzzzzzzzzzXXXXXXXXXXXXXzzzzzzz",
"zzzzzzzzzXXXXXXXXXXXXXXXzzzzzz",
"zzzzzzzzzXXXX+%,3331# XXzzzzzz",
"zzzzzzzzXXXX;35rair53,oXXXzzzz",
"zzzzzzzzXXX.33slllls533@XXzzzz",
"zzzzzzzXXXX@3dlllllls53, XXzzz",
"zzzzzzzXXX+33ullllllle33=XXXzz",
"zzzzzzXXXo3507rllllllp33,XXXXz",
"zzzzzzXXX;yhlh9pllllla333.XXXz",
"zzzzzzXXXqllllh8hlllly333oXXXz",
"zzzzzzzXX%pllll0ellls3333oXXXz",
"zzzzzzzXX#5slls5390073333 XXXz",
"zzzzzzzXX ,33033350533331XXXXz",
"zzzzzzzXXX&33333whlp3233#XXXXz",
"zzzzzzXXX+333335alld333>XXXXzz",
"zzzzzXXX@3335eplllll333:XXXzzz",
"zzzzXXX:<33ejlllllls33+XXXzzzz",
"zzzXXXO433ullllllllu33;XXzzzzz",
"zzXXX+333tlllllllll7333*XXzzzz",
"zXXXo3336llllllllll53333 XXzzz",
"zXXX>333sllllllllllw3333+XXXzz",
"zXX:3338llllllllllli3333$XXXzz",
"XXX*333pllllllllllla3333-XXXzz",
"XXX*333gllllllllllla3333+XXXXz",
"XXX*333klllllllllllh3333:XXXXz",
"XXX*333lllllllllllla3331XXXXzz",
"XXXo333allfslllllllp333oXXXXzz",
"XXXX,33ells9llllllh933;XXXXzzz",
"XXXX=33300537slldu733;XXXXXzzz",
"zXXX %333333333333331 XXXXzzzz",
"zXXXXX@*#oX%33333331 XXXXzzzzz",
"zzXXXXXXXXX >3333,*XXXXXzzzzzz",
"zzzXXXXXXXXX #**@XXXXXXzzzzzzz",
"zzzzXXXXXXXXXXXXXXXXXzzzzzzzzz",
"zzzzzzXXXzzXXXXXXXXzzzzzzzzzzz",
"zzzzzzzzzzzzzXXXzzzzzzzzzzzzzz"
};
