/* XPM */
static xpm_row_t const fire_frame_5[] = {
/* columns rows colors chars-per-pixel */
"31 52 60 1 ",
"  c #E63927",
". c #E73F25",
"X c #E5332A",
"o c #E84B1F",
"O c #EA561A",
"+ c #E9501D",
"@ c #EA541C",
"# c #EA5819",
"$ c #EB5A18",
"% c #EA581A",
"& c #EB5C18",
"* c #EF770B",
"= c #EE740D",
"- c #EE760C",
"; c #EF7A0A",
": c #EC6215",
"> c #EC6812",
", c #ED6C10",
"< c #ED6E10",
"1 c #E74323",
"2 c #E74522",
"3 c #E84920",
"4 c #E84A20",
"5 c #F08207",
"6 c #F08605",
"7 c #F18B02",
"8 c #F28E01",
"9 c #F18C02",
"0 c #F18D02",
"q c #F18804",
"w c #F18904",
"e c #F29000",
"r c #F29100",
"t c #F29303",
"y c #F39506",
"u c #F3970A",
"i c #F4990D",
"p c #F49B10",
"a c #F49D13",
"s c #F59F16",
"d c #F5A017",
"f c #F5A11A",
"g c #F5A21B",
"h c #F6A21B",
"j c #F5A31D",
"k c #F6A520",
"l c #F6A723",
"z c #F6A825",
"x c #F7A926",
"c c #F7AB2A",
"v c #F7AC2B",
"b c #F7AD2D",
"n c #F7AE2E",
"m c #F7AE2F",
"M c #F8AF2F",
"N c #F8AF30",
"B c #F8B031",
"V c #F8B032",
"C c #F8B133",
"Z c None",
/* pixels */
"ZZZZZZZZZZZZZZZZXZZZZZZZZZZZZZZ",
"ZZZZZZZZZZZZZZZXXZZZZZZZZZZZZZZ",
"ZZZZZZZZZZZZZZXXXZZXXXZZZZZZZZZ",
"ZZZZZZZZZZZZZZXXXZXXXXZZZZZZZZZ",
"ZZZZZZZZZZZZZZXXXXXXXZZZZZZZZZZ",
"ZZZZZZZZZZZZZZXXZXXXXZZZZZZZZZZ",
"ZZZZZZZZZZZZZZXXZXXXXXZZZZZZZZZ",
"ZZZZZZZZZZZZZZXZZXXXXXZZZZZZZZZ",
"ZZZZZZZZZZZZZZZZZXXXXXZZZZZZZZZ",
"ZZZZZZZZZZZZZZZZZXXXXXXZZZZZZZZ",
"ZZZZZZZZZZZZZXXXXXXXXXXZZZZZZZZ",
"ZZZZZZZZXXXZZXXXXXXXXXXXZZZZZZZ",
"ZZZZZZZXXXXXZXXXXXXXXXXXXZZZZZZ",
"ZZZZZZZZXXXXZXXXXX2<7r>XXXZZZZZ",
"ZZZZZZZZZXXXXXXXX&rrrrr+XXXZZZZ",
"ZZZZZZZZZXXXXXXX2ryjxlt:XXXXZZZ",
"ZZZZZZZZZXXXXXX38uNCCCs52XXXXZZ",
"ZZZZZZZZZXXX :qrrlCCCCkr9oXXXZZ",
"ZZZZZZZZXXXO0rrrrcCCCCctr7 XXXZ",
"ZZZZZZZZXXOrrrrrtCCCCCCNur:XXXZ",
"ZZZZZZZXX.0rrrrrrNCCCCCCNt6XXXX",
"ZZZZZZXXX*rrfbCbptNCCCCCCsr.XXX",
"ZZZZZZXXorrkCCCCirfCCCCCCkrOXXX",
"ZZZZZXXX6rsCCCCCyryCCCCCCxr:XXX",
"ZZZZZXX+rrbCCCCCrrrcCCCCCjr:XXX",
"ZZZZZXX:ruCCCCCCrrrjCCCCCar:XXX",
"ZZZZZXX=riCCCCCCrrrfCCCCCtrOXXX",
"ZZZZZZX:rtCCCCCCrrraCCCCkrr2XXX",
"ZZZZZZX&rrcCCCCCtrrfCCCNtr;XXXX",
"ZZZZZZZ1rrkCCCCCarrifljyrr2XXXZ",
"ZZZZZZXX>raCCCCCxrrrrrrr7OXXXZZ",
"ZZZZZXXXX,yCCCCCCsyrrrr;.XXXZZZ",
"ZZZZXXXXOrrzCCCCCCBtr8@XXXXZZZZ",
"ZZZXXXX$rtcCCCCCCCCxrr72XXXZZZZ",
"ZZXXXX#rrvCCCCCCCCCCfrr7.XXXZZZ",
"ZZXXX2rrgCCCCCCCCCCCCprr;XXXXZZ",
"ZXXXXwrtVCCCCCCCCCCCCNurrOXXXZZ",
"ZXXX4rrdCCCCCCCCCCCCCCcrr6XXXXZ",
"ZXXX,rrxCCCCCCCCCCCCCCCsrr2XXXZ",
"ZXXX-rrMCCCCCCCCCCCCCCCfrroXXXZ",
"ZXXX;rrMCCCCCCCCCCCCCCChrr2XXXZ",
"ZXXX;rrkCCCCCCCCCCCCCCnrr7XXXXZ",
"ZXXX;rribCCmCCCCCCCCCbtrr:XXXXZ",
"ZXXX;rrrryarjCCCCCCCMtrr7 XXXXZ",
"ZXXX&rrrrrrrrcCCCCBltrrr+XXXXZZ",
"ZZXX 6rrrrrrrtakjirrrrrOXXXXXZZ",
"ZZXXX26rrrerrrrrrrrrr7+XXXXXZZZ",
"ZZZXXX O:O2;rrrrrrrr<.XXXXXXZZZ",
"ZZZZXXXXXXXXo>;;;<% XXXXXXXZZZZ",
"ZZZZZXXXXXXXXXXXXXXXXXXXXXZZZZZ",
"ZZZZZZZZXXZZZXXXXXXXXXXXZZZZZZZ",
"ZZZZZZZZZZZZZZZZZZXXZZZZZZZZZZZ"
};
