/* XPM */
static xpm_row_t const increase_frame_1[] = {
/* columns rows colors chars-per-pixel */
"24 46 2 1 ",
"  c #009540",
". c None",
/* pixels */
"..........    ..........",
".......    ..    .......",
".....   ........   .....",
"....  ............  ....",
"...  ..............  ...",
"..  ................ ...",
".. .........  ....... ..",
".. ........    ...... ..",
". ........     ....... .",
". .......       ...... .",
". .......        ..... .",
". .......        ..... .",
". .........     ...... .",
". .........   ........ .",
". .........   ........ .",
". .........   ........ .",
". .........   ........ .",
". .........   ........ .",
". .........   ........ .",
". .......... ......... .",
". .................... .",
". .................... .",
". .................... .",
". .................... .",
". .........   ........ .",
". .........   ........ .",
". .........   ........ .",
". .........   ........ .",
". .........   ........ .",
". .........   ........ .",
". .........   ........ .",
". .......        ..... .",
". .......        ..... .",
". .......       ...... .",
". ........     ....... .",
". ........     ....... .",
". .........   ........ .",
". .................... .",
".  ..................  .",
".. .................. ..",
"..  ................  ..",
"... ................ ...",
".... .............. ....",
".....  ..........  .....",
"......   ......   ......",
".........      ........."
};
