/* XPM */
static xpm_row_t const player_med_to_big_1[]={
"33 168 17 1",
". c None",
"j c #f5f5f5",
"# c #f5f5f5",
"g c #f5f5f5",
"l c #f5f5f5",
"h c #f5f5f5",
"a c #f5f5f5",
"f c #f5f5f5",
"m c #f5f5f5",
"n c #f5f5f5",
"b c #f5f5f5",
"o c #f5f5f5",
"c c #f5f5f5",
"e c #f5f5f5",
"i c #f5f5f5",
"k c #f5f5f5",
"d c #f5f5f5",
"...........#abccdecbfg...........",
".........hcdddddddddddea.........",
".......gcdddddddddddddddih.......",
"......fdddddddddddddddddddb......",
".....bdddddddddddddddddddddej....",
"....bddddddddddddddddddddddde....",
"...adddddddddddddddddddddddddb...",
"..#kddddddddddddddddddddddddddh..",
"..cdddddddddddddddddddddddddddij.",
".ldddddddddddddddddddddddddddddf.",
".bdddddddddddddddddddddddddddddi.",
".dddddddddddddddddddddddddddddddg",
"ldddddddddddddddddddddddddddddddm",
"mdddddddddddddddddddddddddddddddc",
"bddddddddddddddddddddddddddddddde",
"cdddddddddddddddddddddddddddddddd",
"cdddddddddddddddddddddddddddddddd",
"cdddddddddddddddddddddddddddddddd",
"cdddddddddddddddddddddddddddddddd",
"cdddddddddddddddddddddddddddddddd",
"cdddddddddddddddddddddddddddddddd",
"cdddddddddddddddddddddddddddddddd",
"cdddddddddddddddddddddddddddddddd",
"cdddddddddddddddddddddddddddddddd",
"cdddddddddddddddddddddddddddddddd",
"cdddddddddddddddddddddddddddddddd",
"cdddddddddddddddddddddddddddddddd",
"cdddddddddddddddddddddddddddddddd",
"cdddddddddddddddddddddddddddddddd",
"cdddddddddddddddddddddddddddddddd",
"cdddddddddddddddddddddddddddddddd",
"cdddddddddddddddddddddddddddddddd",
"cdddddddddddddddddddddddddddddddd",
"cdddddddddddddddddddddddddddddddd",
"cdddddddddddddddddddddddddddddddd",
"cdddddddddddddddddddddddddddddddd",
"cdddddddddddddddddddddddddddddddd",
"cdddddddddddddddddddddddddddddddd",
"cdddddddddddddddddddddddddddddddd",
"cdddddddddddddddddddddddddddddddd",
"cdddddddddddddddddddddddddddddddd",
"cdddddddddddddddddddddddddddddddd",
"cdddddddddddddddddddddddddddddddd",
"cdddddddddddddddddddddddddddddddd",
"cdddddddddddddddddddddddddddddddd",
"cdddddddddddddddddddddddddddddddd",
"cdddddddddddddddddddddddddddddddd",
"cdddddddddddddddddddddddddddddddd",
"cdddddddddddddddddddddddddddddddd",
"cdddddddddddddddddddddddddddddddd",
"cdddddddddddddddddddddddddddddddd",
"cdddddddddddddddddddddddddddddddd",
"cdddddddddddddddddddddddddddddddd",
"cdddddddddddddddddddddddddddddddd",
"cdddddddddddddddddddddddddddddddd",
"cdddddddddddddddddddddddddddddddd",
"cdddddddddddddddddddddddddddddddd",
"cdddddddddddddddddddddddddddddddd",
"cdddddddddddddddddddddddddddddddd",
"cdddddddddddddddddddddddddddddddd",
"cdddddddddddddddddddddddddddddddd",
"cdddddddddddddddddddddddddddddddd",
"cdddddddddddddddddddddddddddddddd",
"cdddddddddddddddddddddddddddddddd",
"cdddddddddddddddddddddddddddddddd",
"cdddddddddddddddddddddddddddddddd",
"cdddddddddddddddddddddddddddddddd",
"cdddddddddddddddddddddddddddddddd",
"cdddddddddddddddddddddddddddddddd",
"cdddddddddddddddddddddddddddddddd",
"cdddddddddddddddddddddddddddddddd",
"cdddddddddddddddddddddddddddddddd",
"cdddddddddddddddddddddddddddddddd",
"cdddddddddddddddddddddddddddddddd",
"cdddddddddddddddddddddddddddddddd",
"cdddddddddddddddddddddddddddddddd",
"cdddddddddddddddddddddddddddddddd",
"cdddddddddddddddddddddddddddddddd",
"cdddddddddddddddddddddddddddddddd",
"cdddddddddddddddddddddddddddddddd",
"cdddddddddddddddddddddddddddddddd",
"cdddddddddddddddddddddddddddddddd",
"cdddddddddddddddddddddddddddddddd",
"cdddddddddddddddddddddddddddddddd",
"cdddddddddddddddddddddddddddddddd",
"cdddddddddddddddddddddddddddddddd",
"cdddddddddddddddddddddddddddddddd",
"cdddddddddddddddddddddddddddddddd",
"cdddddddddddddddddddddddddddddddd",
"cdddddddddddddddddddddddddddddddd",
"cdddddddddddddddddddddddddddddddd",
"cdddddddddddddddddddddddddddddddd",
"cdddddddddddddddddddddddddddddddd",
"cdddddddddddddddddddddddddddddddd",
"cdddddddddddddddddddddddddddddddd",
"cdddddddddddddddddddddddddddddddd",
"cdddddddddddddddddddddddddddddddd",
"cdddddddddddddddddddddddddddddddd",
"cdddddddddddddddddddddddddddddddd",
"cdddddddddddddddddddddddddddddddd",
"cdddddddddddddddddddddddddddddddd",
"cdddddddddddddddddddddddddddddddd",
"cdddddddddddddddddddddddddddddddd",
"cdddddddddddddddddddddddddddddddd",
"cdddddddddddddddddddddddddddddddd",
"cdddddddddddddddddddddddddddddddd",
"cdddddddddddddddddddddddddddddddd",
"cdddddddddddddddddddddddddddddddd",
"cdddddddddddddddddddddddddddddddd",
"cdddddddddddddddddddddddddddddddd",
"cdddddddddddddddddddddddddddddddd",
"cdddddddddddddddddddddddddddddddd",
"cdddddddddddddddddddddddddddddddd",
"cdddddddddddddddddddddddddddddddd",
"cdddddddddddddddddddddddddddddddd",
"cdddddddddddddddddddddddddddddddd",
"cdddddddddddddddddddddddddddddddd",
"cdddddddddddddddddddddddddddddddd",
"cdddddddddddddddddddddddddddddddd",
"cdddddddddddddddddddddddddddddddd",
"cdddddddddddddddddddddddddddddddd",
"cdddddddddddddddddddddddddddddddd",
"cdddddddddddddddddddddddddddddddd",
"cdddddddddddddddddddddddddddddddd",
"cdddddddddddddddddddddddddddddddd",
"cdddddddddddddddddddddddddddddddd",
"cdddddddddddddddddddddddddddddddd",
"cdddddddddddddddddddddddddddddddd",
"cdddddddddddddddddddddddddddddddd",
"cdddddddddddddddddddddddddddddddd",
"cdddddddddddddddddddddddddddddddd",
"cdddddddddddddddddddddddddddddddd",
"cdddddddddddddddddddddddddddddddd",
"cdddddddddddddddddddddddddddddddd",
"cdddddddddddddddddddddddddddddddd",
"cdddddddddddddddddddddddddddddddd",
"cdddddddddddddddddddddddddddddddd",
"cdddddddddddddddddddddddddddddddd",
"cdddddddddddddddddddddddddddddddd",
"cdddddddddddddddddddddddddddddddd",
"cdddddddddddddddddddddddddddddddd",
"cdddddddddddddddddddddddddddddddd",
"cdddddddddddddddddddddddddddddddd",
"cdddddddddddddddddddddddddddddddd",
"cdddddddddddddddddddddddddddddddd",
"cdddddddddddddddddddddddddddddddd",
"cdddddddddddddddddddddddddddddddd",
"cdddddddddddddddddddddddddddddddd",
"cdddddddddddddddddddddddddddddddd",
"cdddddddddddddddddddddddddddddddd",
"cdddddddddddddddddddddddddddddddd",
"cdddddddddddddddddddddddddddddddd",
"cdddddddddddddddddddddddddddddddd",
"ndddddddddddddddddddddddddddddddc",
"fdddddddddddddddddddddddddddddddo",
"gdddddddddddddddddddddddddddddddf",
".kdddddddddddddddddddddddddddddd#",
".ndddddddddddddddddddddddddddddc.",
".#ddddddddddddddddddddddddddddda.",
"..ndddddddddddddddddddddddddddc..",
"..jkddddddddddddddddddddddddddg..",
"...ldddddddddddddddddddddddddf...",
"....adddddddddddddddddddddddb....",
".....adddddddddddddddddddddb.....",
"......gidddddddddddddddddka......",
".......jndddddddddddddddb#.......",
".........#midddddddddkb#.........",
"............gambcomfg............"};
