/* XPM */
static xpm_row_t const player_med_to_big_2[]={
"34 184 17 1",
". c None",
"h c #f5f5f5",
"o c #f5f5f5",
"# c #f5f5f5",
"k c #f5f5f5",
"g c #f5f5f5",
"m c #f5f5f5",
"l c #f5f5f5",
"a c #f5f5f5",
"f c #f5f5f5",
"j c #f5f5f5",
"b c #f5f5f5",
"c c #f5f5f5",
"n c #f5f5f5",
"d c #f5f5f5",
"e c #f5f5f5",
"i c #f5f5f5",
"............#abcdeccfgh...........",
".........hadiiiiiiiiiiijk.........",
"........leiiiiiiiiiiiiiiibh.......",
"......hciiiiiiiiiiiiiiiiiieg......",
".....#diiiiiiiiiiiiiiiiiiiiim.....",
"....heiiiiiiiiiiiiiiiiiiiiiiim....",
"....niiiiiiiiiiiiiiiiiiiiiiiii#...",
"...aiiiiiiiiiiiiiiiiiiiiiiiiiidh..",
"..oiiiiiiiiiiiiiiiiiiiiiiiiiiiia..",
"..jiiiiiiiiiiiiiiiiiiiiiiiiiiiieh.",
".hiiiiiiiiiiiiiiiiiiiiiiiiiiiiiil.",
".miiiiiiiiiiiiiiiiiiiiiiiiiiiiiin.",
".biiiiiiiiiiiiiiiiiiiiiiiiiiiiiiih",
".eiiiiiiiiiiiiiiiiiiiiiiiiiiiiiiik",
".iiiiiiiiiiiiiiiiiiiiiiiiiiiiiiiia",
"oiiiiiiiiiiiiiiiiiiiiiiiiiiiiiiiia",
"kiiiiiiiiiiiiiiiiiiiiiiiiiiiiiiiia",
"kiiiiiiiiiiiiiiiiiiiiiiiiiiiiiiiia",
"kiiiiiiiiiiiiiiiiiiiiiiiiiiiiiiiia",
"kiiiiiiiiiiiiiiiiiiiiiiiiiiiiiiiia",
"kiiiiiiiiiiiiiiiiiiiiiiiiiiiiiiiia",
"kiiiiiiiiiiiiiiiiiiiiiiiiiiiiiiiia",
"kiiiiiiiiiiiiiiiiiiiiiiiiiiiiiiiia",
"kiiiiiiiiiiiiiiiiiiiiiiiiiiiiiiiia",
"kiiiiiiiiiiiiiiiiiiiiiiiiiiiiiiiia",
"kiiiiiiiiiiiiiiiiiiiiiiiiiiiiiiiia",
"kiiiiiiiiiiiiiiiiiiiiiiiiiiiiiiiia",
"kiiiiiiiiiiiiiiiiiiiiiiiiiiiiiiiia",
"kiiiiiiiiiiiiiiiiiiiiiiiiiiiiiiiia",
"kiiiiiiiiiiiiiiiiiiiiiiiiiiiiiiiia",
"kiiiiiiiiiiiiiiiiiiiiiiiiiiiiiiiia",
"kiiiiiiiiiiiiiiiiiiiiiiiiiiiiiiiia",
"kiiiiiiiiiiiiiiiiiiiiiiiiiiiiiiiia",
"kiiiiiiiiiiiiiiiiiiiiiiiiiiiiiiiia",
"kiiiiiiiiiiiiiiiiiiiiiiiiiiiiiiiia",
"kiiiiiiiiiiiiiiiiiiiiiiiiiiiiiiiia",
"kiiiiiiiiiiiiiiiiiiiiiiiiiiiiiiiia",
"kiiiiiiiiiiiiiiiiiiiiiiiiiiiiiiiia",
"kiiiiiiiiiiiiiiiiiiiiiiiiiiiiiiiia",
"kiiiiiiiiiiiiiiiiiiiiiiiiiiiiiiiia",
"kiiiiiiiiiiiiiiiiiiiiiiiiiiiiiiiia",
"kiiiiiiiiiiiiiiiiiiiiiiiiiiiiiiiia",
"kiiiiiiiiiiiiiiiiiiiiiiiiiiiiiiiia",
"kiiiiiiiiiiiiiiiiiiiiiiiiiiiiiiiia",
"kiiiiiiiiiiiiiiiiiiiiiiiiiiiiiiiia",
"kiiiiiiiiiiiiiiiiiiiiiiiiiiiiiiiia",
"kiiiiiiiiiiiiiiiiiiiiiiiiiiiiiiiia",
"kiiiiiiiiiiiiiiiiiiiiiiiiiiiiiiiia",
"kiiiiiiiiiiiiiiiiiiiiiiiiiiiiiiiia",
"kiiiiiiiiiiiiiiiiiiiiiiiiiiiiiiiia",
"kiiiiiiiiiiiiiiiiiiiiiiiiiiiiiiiia",
"kiiiiiiiiiiiiiiiiiiiiiiiiiiiiiiiia",
"kiiiiiiiiiiiiiiiiiiiiiiiiiiiiiiiia",
"kiiiiiiiiiiiiiiiiiiiiiiiiiiiiiiiia",
"kiiiiiiiiiiiiiiiiiiiiiiiiiiiiiiiia",
"kiiiiiiiiiiiiiiiiiiiiiiiiiiiiiiiia",
"kiiiiiiiiiiiiiiiiiiiiiiiiiiiiiiiia",
"kiiiiiiiiiiiiiiiiiiiiiiiiiiiiiiiia",
"kiiiiiiiiiiiiiiiiiiiiiiiiiiiiiiiia",
"kiiiiiiiiiiiiiiiiiiiiiiiiiiiiiiiia",
"kiiiiiiiiiiiiiiiiiiiiiiiiiiiiiiiia",
"kiiiiiiiiiiiiiiiiiiiiiiiiiiiiiiiia",
"kiiiiiiiiiiiiiiiiiiiiiiiiiiiiiiiia",
"kiiiiiiiiiiiiiiiiiiiiiiiiiiiiiiiia",
"kiiiiiiiiiiiiiiiiiiiiiiiiiiiiiiiia",
"kiiiiiiiiiiiiiiiiiiiiiiiiiiiiiiiia",
"kiiiiiiiiiiiiiiiiiiiiiiiiiiiiiiiia",
"kiiiiiiiiiiiiiiiiiiiiiiiiiiiiiiiia",
"kiiiiiiiiiiiiiiiiiiiiiiiiiiiiiiiia",
"kiiiiiiiiiiiiiiiiiiiiiiiiiiiiiiiia",
"kiiiiiiiiiiiiiiiiiiiiiiiiiiiiiiiia",
"kiiiiiiiiiiiiiiiiiiiiiiiiiiiiiiiia",
"kiiiiiiiiiiiiiiiiiiiiiiiiiiiiiiiia",
"kiiiiiiiiiiiiiiiiiiiiiiiiiiiiiiiia",
"kiiiiiiiiiiiiiiiiiiiiiiiiiiiiiiiia",
"kiiiiiiiiiiiiiiiiiiiiiiiiiiiiiiiia",
"kiiiiiiiiiiiiiiiiiiiiiiiiiiiiiiiia",
"kiiiiiiiiiiiiiiiiiiiiiiiiiiiiiiiia",
"kiiiiiiiiiiiiiiiiiiiiiiiiiiiiiiiia",
"kiiiiiiiiiiiiiiiiiiiiiiiiiiiiiiiia",
"kiiiiiiiiiiiiiiiiiiiiiiiiiiiiiiiia",
"kiiiiiiiiiiiiiiiiiiiiiiiiiiiiiiiia",
"kiiiiiiiiiiiiiiiiiiiiiiiiiiiiiiiia",
"kiiiiiiiiiiiiiiiiiiiiiiiiiiiiiiiia",
"kiiiiiiiiiiiiiiiiiiiiiiiiiiiiiiiia",
"kiiiiiiiiiiiiiiiiiiiiiiiiiiiiiiiia",
"kiiiiiiiiiiiiiiiiiiiiiiiiiiiiiiiia",
"kiiiiiiiiiiiiiiiiiiiiiiiiiiiiiiiia",
"kiiiiiiiiiiiiiiiiiiiiiiiiiiiiiiiia",
"kiiiiiiiiiiiiiiiiiiiiiiiiiiiiiiiia",
"kiiiiiiiiiiiiiiiiiiiiiiiiiiiiiiiia",
"kiiiiiiiiiiiiiiiiiiiiiiiiiiiiiiiia",
"kiiiiiiiiiiiiiiiiiiiiiiiiiiiiiiiia",
"kiiiiiiiiiiiiiiiiiiiiiiiiiiiiiiiia",
"kiiiiiiiiiiiiiiiiiiiiiiiiiiiiiiiia",
"kiiiiiiiiiiiiiiiiiiiiiiiiiiiiiiiia",
"kiiiiiiiiiiiiiiiiiiiiiiiiiiiiiiiia",
"kiiiiiiiiiiiiiiiiiiiiiiiiiiiiiiiia",
"kiiiiiiiiiiiiiiiiiiiiiiiiiiiiiiiia",
"kiiiiiiiiiiiiiiiiiiiiiiiiiiiiiiiia",
"kiiiiiiiiiiiiiiiiiiiiiiiiiiiiiiiia",
"kiiiiiiiiiiiiiiiiiiiiiiiiiiiiiiiia",
"kiiiiiiiiiiiiiiiiiiiiiiiiiiiiiiiia",
"kiiiiiiiiiiiiiiiiiiiiiiiiiiiiiiiia",
"kiiiiiiiiiiiiiiiiiiiiiiiiiiiiiiiia",
"kiiiiiiiiiiiiiiiiiiiiiiiiiiiiiiiia",
"kiiiiiiiiiiiiiiiiiiiiiiiiiiiiiiiia",
"kiiiiiiiiiiiiiiiiiiiiiiiiiiiiiiiia",
"kiiiiiiiiiiiiiiiiiiiiiiiiiiiiiiiia",
"kiiiiiiiiiiiiiiiiiiiiiiiiiiiiiiiia",
"kiiiiiiiiiiiiiiiiiiiiiiiiiiiiiiiia",
"kiiiiiiiiiiiiiiiiiiiiiiiiiiiiiiiia",
"kiiiiiiiiiiiiiiiiiiiiiiiiiiiiiiiia",
"kiiiiiiiiiiiiiiiiiiiiiiiiiiiiiiiia",
"kiiiiiiiiiiiiiiiiiiiiiiiiiiiiiiiia",
"kiiiiiiiiiiiiiiiiiiiiiiiiiiiiiiiia",
"kiiiiiiiiiiiiiiiiiiiiiiiiiiiiiiiia",
"kiiiiiiiiiiiiiiiiiiiiiiiiiiiiiiiia",
"kiiiiiiiiiiiiiiiiiiiiiiiiiiiiiiiia",
"kiiiiiiiiiiiiiiiiiiiiiiiiiiiiiiiia",
"kiiiiiiiiiiiiiiiiiiiiiiiiiiiiiiiia",
"kiiiiiiiiiiiiiiiiiiiiiiiiiiiiiiiia",
"kiiiiiiiiiiiiiiiiiiiiiiiiiiiiiiiia",
"kiiiiiiiiiiiiiiiiiiiiiiiiiiiiiiiia",
"kiiiiiiiiiiiiiiiiiiiiiiiiiiiiiiiia",
"kiiiiiiiiiiiiiiiiiiiiiiiiiiiiiiiia",
"kiiiiiiiiiiiiiiiiiiiiiiiiiiiiiiiia",
"kiiiiiiiiiiiiiiiiiiiiiiiiiiiiiiiia",
"kiiiiiiiiiiiiiiiiiiiiiiiiiiiiiiiia",
"kiiiiiiiiiiiiiiiiiiiiiiiiiiiiiiiia",
"kiiiiiiiiiiiiiiiiiiiiiiiiiiiiiiiia",
"kiiiiiiiiiiiiiiiiiiiiiiiiiiiiiiiia",
"kiiiiiiiiiiiiiiiiiiiiiiiiiiiiiiiia",
"kiiiiiiiiiiiiiiiiiiiiiiiiiiiiiiiia",
"kiiiiiiiiiiiiiiiiiiiiiiiiiiiiiiiia",
"kiiiiiiiiiiiiiiiiiiiiiiiiiiiiiiiia",
"kiiiiiiiiiiiiiiiiiiiiiiiiiiiiiiiia",
"kiiiiiiiiiiiiiiiiiiiiiiiiiiiiiiiia",
"kiiiiiiiiiiiiiiiiiiiiiiiiiiiiiiiia",
"kiiiiiiiiiiiiiiiiiiiiiiiiiiiiiiiia",
"kiiiiiiiiiiiiiiiiiiiiiiiiiiiiiiiia",
"kiiiiiiiiiiiiiiiiiiiiiiiiiiiiiiiia",
"kiiiiiiiiiiiiiiiiiiiiiiiiiiiiiiiia",
"kiiiiiiiiiiiiiiiiiiiiiiiiiiiiiiiia",
"kiiiiiiiiiiiiiiiiiiiiiiiiiiiiiiiia",
"kiiiiiiiiiiiiiiiiiiiiiiiiiiiiiiiia",
"kiiiiiiiiiiiiiiiiiiiiiiiiiiiiiiiia",
"kiiiiiiiiiiiiiiiiiiiiiiiiiiiiiiiia",
"kiiiiiiiiiiiiiiiiiiiiiiiiiiiiiiiia",
"kiiiiiiiiiiiiiiiiiiiiiiiiiiiiiiiia",
"kiiiiiiiiiiiiiiiiiiiiiiiiiiiiiiiia",
"kiiiiiiiiiiiiiiiiiiiiiiiiiiiiiiiia",
"kiiiiiiiiiiiiiiiiiiiiiiiiiiiiiiiia",
"kiiiiiiiiiiiiiiiiiiiiiiiiiiiiiiiia",
"kiiiiiiiiiiiiiiiiiiiiiiiiiiiiiiiia",
"kiiiiiiiiiiiiiiiiiiiiiiiiiiiiiiiia",
"kiiiiiiiiiiiiiiiiiiiiiiiiiiiiiiiia",
"kiiiiiiiiiiiiiiiiiiiiiiiiiiiiiiiia",
"kiiiiiiiiiiiiiiiiiiiiiiiiiiiiiiiia",
"kiiiiiiiiiiiiiiiiiiiiiiiiiiiiiiiia",
"kiiiiiiiiiiiiiiiiiiiiiiiiiiiiiiiia",
"kiiiiiiiiiiiiiiiiiiiiiiiiiiiiiiiia",
"kiiiiiiiiiiiiiiiiiiiiiiiiiiiiiiiia",
"kiiiiiiiiiiiiiiiiiiiiiiiiiiiiiiiia",
"kiiiiiiiiiiiiiiiiiiiiiiiiiiiiiiiia",
"kiiiiiiiiiiiiiiiiiiiiiiiiiiiiiiiia",
"kiiiiiiiiiiiiiiiiiiiiiiiiiiiiiiiia",
"kiiiiiiiiiiiiiiiiiiiiiiiiiiiiiiiia",
".iiiiiiiiiiiiiiiiiiiiiiiiiiiiiiiia",
".iiiiiiiiiiiiiiiiiiiiiiiiiiiiiiiim",
".niiiiiiiiiiiiiiiiiiiiiiiiiiiiiiik",
".fiiiiiiiiiiiiiiiiiiiiiiiiiiiiiie.",
".giiiiiiiiiiiiiiiiiiiiiiiiiiiiiib.",
"..diiiiiiiiiiiiiiiiiiiiiiiiiiiiig.",
"..aiiiiiiiiiiiiiiiiiiiiiiiiiiiid..",
"...diiiiiiiiiiiiiiiiiiiiiiiiiiik..",
"...kiiiiiiiiiiiiiiiiiiiiiiiiiib...",
"....aiiiiiiiiiiiiiiiiiiiiiiiinh...",
".....jiiiiiiiiiiiiiiiiiiiiiieo....",
"......fiiiiiiiiiiiiiiiiiiiinh.....",
".......geiiiiiiiiiiiiiiiiijh......",
"........hjiiiiiiiiiiiiiick........",
"..........olniiiiiiiiejk..........",
".............hklaaag#............."};
