/* XPM */
static xpm_row_t const player_small[]={
"34 107 17 1",
". c None",
"b c #f5f5f5",
"# c #f5f5f5",
"n c #f5f5f5",
"a c #f5f5f5",
"l c #f5f5f5",
"c c #f5f5f5",
"j c #f5f5f5",
"h c #f5f5f5",
"k c #f5f5f5",
"g c #f5f5f5",
"d c #f5f5f5",
"o c #f5f5f5",
"m c #f5f5f5",
"i c #f5f5f5",
"f c #f5f5f5",
"e c #f5f5f5",
"..............#aaaab..............",
"..........bcdeeeeeeefdc...........",
"........bgeeeeeeeeeeeeefh.........",
".......cfeeeeeeeeeeeeeeeeia.......",
"......geeeeeeeeeeeeeeeeeeeej......",
".....geeeeeeeeeeeeeeeeeeeeeeg.....",
"....geeeeeeeeeeeeeeeeeeeeeeeec....",
"...jeeeeeeeeeeeeeeeeeeeeeeeeeea...",
"..#feeeeeeeeeeeeeeeeeeeeeeeeeei...",
"..geeeeeeeeeeeeeeeeeeeeeeeeeeeeh..",
".#eeeeeeeeeeeeeeeeeeeeeeeeeeeeei..",
".keeeeeeeeeeeeeeeeeeeeeeeeeeeeeel.",
".meeeeeeeeeeeeeeeeeeeeeeeeeeeeeeg.",
"beeeeeeeeeeeeeeeeeeeeeeeeeeeeeeei.",
"aeeeeeeeeeeeeeeeeeeeeeeeeeeeeeeee.",
"ceeeeeeeeeeeeeeeeeeeeeeeeeeeeeeeea",
"heeeeeeeeeeeeeeeeeeeeeeeeeeeeeeeea",
"heeeeeeeeeeeeeeeeeeeeeeeeeeeeeeeea",
"heeeeeeeeeeeeeeeeeeeeeeeeeeeeeeeea",
"heeeeeeeeeeeeeeeeeeeeeeeeeeeeeeeea",
"heeeeeeeeeeeeeeeeeeeeeeeeeeeeeeeea",
"heeeeeeeeeeeeeeeeeeeeeeeeeeeeeeeea",
"heeeeeeeeeeeeeeeeeeeeeeeeeeeeeeeea",
"heeeeeeeeeeeeeeeeeeeeeeeeeeeeeeeea",
"heeeeeeeeeeeeeeeeeeeeeeeeeeeeeeeea",
"heeeeeeeeeeeeeeeeeeeeeeeeeeeeeeeea",
"heeeeeeeeeeeeeeeeeeeeeeeeeeeeeeeea",
"heeeeeeeeeeeeeeeeeeeeeeeeeeeeeeeea",
"heeeeeeeeeeeeeeeeeeeeeeeeeeeeeeeea",
"heeeeeeeeeeeeeeeeeeeeeeeeeeeeeeeea",
"heeeeeeeeeeeeeeeeeeeeeeeeeeeeeeeea",
"heeeeeeeeeeeeeeeeeeeeeeeeeeeeeeeea",
"heeeeeeeeeeeeeeeeeeeeeeeeeeeeeeeea",
"heeeeeeeeeeeeeeeeeeeeeeeeeeeeeeeea",
"heeeeeeeeeeeeeeeeeeeeeeeeeeeeeeeea",
"heeeeeeeeeeeeeeeeeeeeeeeeeeeeeeeea",
"heeeeeeeeeeeeeeeeeeeeeeeeeeeeeeeea",
"heeeeeeeeeeeeeeeeeeeeeeeeeeeeeeeea",
"heeeeeeeeeeeeeeeeeeeeeeeeeeeeeeeea",
"heeeeeeeeeeeeeeeeeeeeeeeeeeeeeeeea",
"heeeeeeeeeeeeeeeeeeeeeeeeeeeeeeeea",
"heeeeeeeeeeeeeeeeeeeeeeeeeeeeeeeea",
"heeeeeeeeeeeeeeeeeeeeeeeeeeeeeeeea",
"heeeeeeeeeeeeeeeeeeeeeeeeeeeeeeeea",
"heeeeeeeeeeeeeeeeeeeeeeeeeeeeeeeea",
"heeeeeeeeeeeeeeeeeeeeeeeeeeeeeeeea",
"heeeeeeeeeeeeeeeeeeeeeeeeeeeeeeeea",
"heeeeeeeeeeeeeeeeeeeeeeeeeeeeeeeea",
"heeeeeeeeeeeeeeeeeeeeeeeeeeeeeeeea",
"heeeeeeeeeeeeeeeeeeeeeeeeeeeeeeeea",
"heeeeeeeeeeeeeeeeeeeeeeeeeeeeeeeea",
"heeeeeeeeeeeeeeeeeeeeeeeeeeeeeeeea",
"heeeeeeeeeeeeeeeeeeeeeeeeeeeeeeeea",
"heeeeeeeeeeeeeeeeeeeeeeeeeeeeeeeea",
"heeeeeeeeeeeeeeeeeeeeeeeeeeeeeeeea",
"heeeeeeeeeeeeeeeeeeeeeeeeeeeeeeeea",
"heeeeeeeeeeeeeeeeeeeeeeeeeeeeeeeea",
"heeeeeeeeeeeeeeeeeeeeeeeeeeeeeeeea",
"heeeeeeeeeeeeeeeeeeeeeeeeeeeeeeeea",
"heeeeeeeeeeeeeeeeeeeeeeeeeeeeeeeea",
"heeeeeeeeeeeeeeeeeeeeeeeeeeeeeeeea",
"heeeeeeeeeeeeeeeeeeeeeeeeeeeeeeeea",
"heeeeeeeeeeeeeeeeeeeeeeeeeeeeeeeea",
"heeeeeeeeeeeeeeeeeeeeeeeeeeeeeeeea",
"heeeeeeeeeeeeeeeeeeeeeeeeeeeeeeeea",
"heeeeeeeeeeeeeeeeeeeeeeeeeeeeeeeea",
"heeeeeeeeeeeeeeeeeeeeeeeeeeeeeeeea",
"heeeeeeeeeeeeeeeeeeeeeeeeeeeeeeeea",
"heeeeeeeeeeeeeeeeeeeeeeeeeeeeeeeea",
"heeeeeeeeeeeeeeeeeeeeeeeeeeeeeeeea",
"heeeeeeeeeeeeeeeeeeeeeeeeeeeeeeeea",
"heeeeeeeeeeeeeeeeeeeeeeeeeeeeeeeea",
"heeeeeeeeeeeeeeeeeeeeeeeeeeeeeeeea",
"heeeeeeeeeeeeeeeeeeeeeeeeeeeeeeeea",
"heeeeeeeeeeeeeeeeeeeeeeeeeeeeeeeea",
"heeeeeeeeeeeeeeeeeeeeeeeeeeeeeeeea",
"heeeeeeeeeeeeeeeeeeeeeeeeeeeeeeeea",
"heeeeeeeeeeeeeeeeeeeeeeeeeeeeeeeea",
"heeeeeeeeeeeeeeeeeeeeeeeeeeeeeeeea",
"heeeeeeeeeeeeeeeeeeeeeeeeeeeeeeeea",
"heeeeeeeeeeeeeeeeeeeeeeeeeeeeeeeea",
"heeeeeeeeeeeeeeeeeeeeeeeeeeeeeeeea",
"heeeeeeeeeeeeeeeeeeeeeeeeeeeeeeeea",
"heeeeeeeeeeeeeeeeeeeeeeeeeeeeeeeea",
"heeeeeeeeeeeeeeeeeeeeeeeeeeeeeeeea",
"heeeeeeeeeeeeeeeeeeeeeeeeeeeeeeeea",
"heeeeeeeeeeeeeeeeeeeeeeeeeeeeeeeea",
"heeeeeeeeeeeeeeeeeeeeeeeeeeeeeeeea",
"heeeeeeeeeeeeeeeeeeeeeeeeeeeeeeeea",
"heeeeeeeeeeeeeeeeeeeeeeeeeeeeeeeea",
"heeeeeeeeeeeeeeeeeeeeeeeeeeeeeeeea",
"heeeeeeeeeeeeeeeeeeeeeeeeeeeeeeeea",
"aeeeeeeeeeeeeeeeeeeeeeeeeeeeeeeee#",
"neeeeeeeeeeeeeeeeeeeeeeeeeeeeeeee.",
".feeeeeeeeeeeeeeeeeeeeeeeeeeeeeeo.",
".deeeeeeeeeeeeeeeeeeeeeeeeeeeeeej.",
".leeeeeeeeeeeeeeeeeeeeeeeeeeeeee#.",
"..ieeeeeeeeeeeeeeeeeeeeeeeeeeeeg..",
"..ceeeeeeeeeeeeeeeeeeeeeeeeeeee#..",
"...oeeeeeeeeeeeeeeeeeeeeeeeeeeh...",
"...bfeeeeeeeeeeeeeeeeeeeeeeeem....",
"....nfeeeeeeeeeeeeeeeeeeeeeemb....",
".....nfeeeeeeeeeeeeeeeeeeeemb.....",
"......#meeeeeeeeeeeeeeeeeedb......",
"........hfeeeeeeeeeeeeeeil........",
".........bhieeeeeeeeeemc..........",
"............njkoooohc#............"};
