/* XPM */
static xpm_row_t const BOLL[] = {
/* columns rows colors chars-per-pixel */
"34 35 2 1 ",
"  c #FFFFFF",
". c None",
/* pixels */
".............         ............",
"..........              ..........",
"........                  ........",
".......                    .......",
"......                      ......",
".....                        .....",
"....                          ....",
"....                           ...",
"...                            ...",
"..                              ..",
"..                              ..",
"..                               .",
".                                .",
".                                .",
".                                .",
".                                 ",
".                                 ",
".                                 ",
".                                 ",
".                                 ",
".                                .",
".                                .",
"..                               .",
"..                               .",
"..                              ..",
"...                             ..",
"...                            ...",
"....                           ...",
".....                         ....",
".....                        .....",
"......                      ......",
"........                   .......",
".........                .........",
"...........            ...........",
"..............      .............."
};
