/* XPM */
static xpm_row_t const DECREASE2[] = {
/* columns rows colors chars-per-pixel */
"21 37 2 1 ",
"  c #1D70B7",
". c None",
/* pixels */
".........   .........",
"......         ......",
"....   .......   ....",
"...  ...........  ...",
"..  ............. ...",
".. ............... ..",
".  ...............  .",
". ................. .",
". ........   ...... .",
". .......    ...... .",
". .......    ...... .",
". .......    ...... .",
". .......    ...... .",
". ......       .... .",
". .....        .... .",
". ......      ..... .",
". .......    ...... .",
". .......    ...... .",
". ........   ...... .",
". .......    ...... .",
". ......      ..... .",
". .....        .... .",
". .....        .... .",
". .......    ...... .",
". .......   ....... .",
". .......   ....... .",
". .......   ....... .",
". .......   ....... .",
". ................. .",
". ................. .",
".  ...............  .",
".. ............... ..",
"..  .............  ..",
"...  ...........  ...",
"....  .........  ....",
"......   ...   ......",
"........     ........"
};
