/* XPM */
static xpm_row_t const FIREFRAME5[] = {
/* columns rows colors chars-per-pixel */
"26 46 60 1 ",
"  c #E63927",
". c #E73F25",
"X c #E5332A",
"o c #E84B1F",
"O c #E94F1D",
"+ c #EA561A",
"@ c #EA571A",
"# c #E9501D",
"$ c #EA5919",
"% c #EB5C18",
"& c #EE740D",
"* c #EF780B",
"= c #EF7A0A",
"- c #EF7E08",
"; c #EC6215",
": c #EC6812",
"> c #ED6E10",
", c #E74522",
"< c #F08107",
"1 c #F18704",
"2 c #F08605",
"3 c #F08705",
"4 c #F18B02",
"5 c #F28E01",
"6 c #F18C02",
"7 c #F18804",
"8 c #F08008",
"9 c #F29100",
"0 c #F29303",
"q c #F39506",
"w c #F3970A",
"e c #F4990D",
"r c #F49B0F",
"t c #F49B10",
"y c #F49C12",
"u c #F49D13",
"i c #F49D14",
"p c #F49E14",
"a c #F59F16",
"s c #F59F17",
"d c #F5A11A",
"f c #F5A31D",
"g c #F6A41F",
"h c #F6A51F",
"j c #F6A520",
"k c #F6A723",
"l c #F7A825",
"z c #F6A926",
"x c #F7A926",
"c c #F7A927",
"v c #F7AB2A",
"b c #F7AC2B",
"n c #F7AD2D",
"m c #F8AF2F",
"M c #F8AF30",
"N c #F8B031",
"B c #F8B032",
"V c #F8B132",
"C c #F8B133",
"Z c None",
/* pixels */
"ZZZZZZZZZZZZZZZZZZZZZZZZZZ",
"ZZZZZZZZZZZZZZZZZZZZZZZZZZ",
"ZZZZZZZZZZZZXZZZXXZZZZZZZZ",
"ZZZZZZZZZZZXXZXXXXZZZZZZZZ",
"ZZZZZZZZZZZXXZXXXXZZZZZZZZ",
"ZZZZZZZZZZZXXXXXXZZZZZZZZZ",
"ZZZZZZZZZZZXXXXXXXZZZZZZZZ",
"ZZZZZZZZZZZXZXXXXXZZZZZZZZ",
"ZZZZZZZZZZZXZXXXXXZZZZZZZZ",
"ZZZZZZZZZZZXZXXXXXXZZZZZZZ",
"ZZZZZZZXZZXXXXXXXXXZZZZZZZ",
"ZZZZZZXXXZXXXXXXXXXXZZZZZZ",
"ZZZZZZXXXXXXXX %==#XXZZZZZ",
"ZZZZZZZXXXXXX,99994XXXZZZZ",
"ZZZZZZZXXXXX 2wkCn0XXXXZZZ",
"ZZZZZZZXXX $6wMCCCt* XXXZZ",
"ZZZZZZXXX%599dCCCCd9&XXXZZ",
"ZZZZZZXX:9999zCCCCNw9+XXZZ",
"ZZZZZXXo99999nCCCCCn08XXXZ",
"ZZZZZXX39tvCMiNCCCCCj9 XXZ",
"ZZZZXX%9eCCCCedCCCCCx9oXXZ",
"ZZZZXX49xCCCCwqCCCCCx9oXXZ",
"ZZZZXo9tCCCCC99nCCCCx9oXXZ",
"ZZZZX;9dCCCCC99xCCCCa9oXXZ",
"ZZZZX;9aCCCCC99fCCCM09 XXZ",
"ZZZZXo9wCCCCCe9kCCCd9=XXXZ",
"ZZZZZZ49CCCCCa9takt99,XXZZ",
"ZZZZXXo9xCCCCn099994#XXZZZ",
"ZZZXXX 4tCCCCCBr99>.XXZZZZ",
"ZZXXX 10xCCCCCCM09>XXXZZZZ",
"ZXXX 70bCCCCCCCCk99:XXXZZZ",
"ZXXX-9gCCCCCCCCCCa99oXXZZZ",
"ZXXO90VCCCCCCCCCCMw9=XXXZZ",
"XXX=9pCCCCCCCCCCCCb99,XXZZ",
"XXX79lCCCCCCCCCCCCCw9oXXZZ",
"XXX99cCCCCCCCCCCCCC09oXXZZ",
"XXX99fCCCCCCCCCCCCh99.XXXZ",
"XXX99qvCCBCCCCCCCn99&XXXZZ",
"XXX2999quyCCCCCCm099,XXXZZ",
"ZXX;999999aCCCvs999+XXXXZZ",
"ZXX 29999999e09999;XXXXZZZ",
"ZZXX >4<<99999992oXXXXXZZZ",
"ZZZXXXXXX+&29=>@XXXXXXZZZZ",
"ZZZZXXXXXXXXXXXXXXXXXZZZZZ",
"ZZZZZZZZZZXXXXXXXXXZZZZZZZ",
"ZZZZZZZZZZZZZZZZZZZZZZZZZZ"
};
