/* XPM */
static xpm_row_t const FIREFRAME4[] = {
/* columns rows colors chars-per-pixel */
"24 41 62 1 ",
"  c #E63927",
". c #E73F25",
"X c #E5332A",
"o c #E84B1F",
"O c #EA561A",
"+ c #E9501D",
"@ c #EA5819",
"# c #EA5919",
"$ c #EB5C18",
"% c #EE750C",
"& c #EE740D",
"* c #EF7A0A",
"= c #EF7B0A",
"- c #EC6215",
"; c #EC6812",
": c #ED6E10",
"> c #E74522",
", c #F08107",
"< c #F18505",
"1 c #F08704",
"2 c #F08605",
"3 c #F18406",
"4 c #F18B02",
"5 c #F18804",
"6 c #F08008",
"7 c #F1830B",
"8 c #F29100",
"9 c #F29001",
"0 c #F29303",
"q c #F39506",
"w c #F3970A",
"e c #F3990C",
"r c #F3990D",
"t c #F4990D",
"y c #F49A0E",
"u c #F49B10",
"i c #F49C11",
"p c #F49D13",
"a c #F59F16",
"s c #F5A018",
"d c #F5A11A",
"f c #F5A21B",
"g c #F5A21C",
"h c #F5A31D",
"j c #F6A520",
"k c #F6A621",
"l c #F6A722",
"z c #F6A723",
"x c #F6A724",
"c c #F6A824",
"v c #F6A926",
"b c #F7A926",
"n c #F7AA28",
"m c #F7AB2A",
"M c #F7AC2B",
"N c #F8AD2D",
"B c #F8AF30",
"V c #F8B031",
"C c #F8B032",
"Z c #F8B132",
"A c #F8B133",
"S c None",
/* pixels */
"SSSSSSSSSSSSSSSSXXSSSSSS",
"SSSSSSSSSSSSSSSXXXSSSSSS",
"SSSSSSSSSSSSSSSXXXSSSSSS",
"SSSSSSSSSSSSSSXXXXXXSSSS",
"SSSSSSSSSSSSSSXXXXXXSSSS",
"SSSSSSSSSSSSSSSSXXXXSSSS",
"SSSSSSSSSSSSXXXXXXXXSSSS",
"SSSSSSSSSSXXXXXXXXXXXSSS",
"SSSSSSSSXXXXXXX$->XXXSSS",
"SSSSSSSXXXXX o:88-XXXXSS",
"SSSSSSXXXX.%98888-XXXXSS",
"SSSSSSXX ;88kAABh5$.XXXS",
"SSSSSSX 688aAAAAAMw4OXXS",
"SSSSSXX-wxbbAAAAAACq8+XX",
"SSSSSXX4cAAAfiAAAAAM82XX",
"SSSSSXX8CAAAAwjAAAAAu8>X",
"SSSSSXX6AAAAAhqAAAAAl8oX",
"SSSSSXX=AAAAAB0vAAAAm8 X",
"SSSSSSX@AAAAAAdrAAAZw*XX",
"SSSSSSXoBAAAAAA8vAAy4.XX",
"SSSSSSX#sAAAAAAurAn4>XXS",
"SSSSSXX;0VAAAAAd8f7.XXXS",
"SSSXXXX38pAAAAb088 XXXSS",
"SSXXo&8888qage88881XXSSS",
"SSX;8qjBAABAAAN0888OXXSS",
"SX$8pBAAAAAAAAAAk08<XXSS",
"S 4qAAAAAAAAAAAAAj88#XXS",
"X+8hAAAAAAAAAAAAAB88,XXS",
"X68bAAAAAAAAAAAAAA888 XS",
".88mAAAAAAAAAAAAAA888oXS",
"o88AAAAAAAAAAAAAAA888oXX",
"o88AAAAAAAAAAAAAAb888>XS",
"X48AAAAAAAAAAAAAAj882XXS",
"X-8hAAABBAAAAAAAAt88-XXS",
"SX;8qtt8pAAAAAAAb886XXSS",
"SXX@88888wzAAAAbw8* XXSS",
"SXXX:884-O480t84&OXXXSSS",
"SSXXXXXXXX oo XXXXXXSSSS",
"SSSXXXXXXXXXXXXXXXXSSSSS",
"SSSSSSXXSSXXXXXXXSSSSSSS",
"SSSSSSSSSSSSSSSSSSSSSSSS"
};
