/* XPM */
static xpm_row_t const FIREFRAME2[] = {
/* columns rows colors chars-per-pixel */
"29 38 66 1 ",
"  c #E63927",
". c #E73F25",
"X c #E63C26",
"o c #E5332A",
"O c #E84B1F",
"+ c #E84C1F",
"@ c #E94F1E",
"# c #EA5D17",
"$ c #EA561A",
"% c #E9501D",
"& c #EA581A",
"* c #EB5C18",
"= c #EE710E",
"- c #EE740D",
"; c #EE750D",
": c #EF7A0A",
"> c #EF7B0A",
", c #EF7D09",
"< c #EF7E08",
"1 c #ED6613",
"2 c #EC6115",
"3 c #EC6215",
"4 c #EC6315",
"5 c #EC6812",
"6 c #ED6C10",
"7 c #ED6D10",
"8 c #ED6E10",
"9 c #E84422",
"0 c #E84A20",
"q c #F08107",
"w c #F08306",
"e c #F08605",
"r c #F18B02",
"t c #F28E01",
"y c #F28F01",
"u c #F18D02",
"i c #F18C03",
"p c #F18904",
"a c #F08008",
"s c #F29000",
"d c #F29100",
"f c #F29001",
"g c #F29202",
"h c #F29303",
"j c #F39405",
"k c #F39506",
"l c #F39709",
"z c #F3970A",
"x c #F4990D",
"c c #F49B10",
"v c #F49D13",
"b c #F59E15",
"n c #F59F16",
"m c #F5A11A",
"M c #F5A21C",
"N c #F6A722",
"B c #F6A723",
"V c #F7A926",
"C c #F7A927",
"Z c #F7AB2A",
"A c #F7AD2D",
"S c #F8AF30",
"D c #F8B031",
"F c #F8B032",
"G c #F8B133",
"H c None",
/* pixels */
"HHHHHHHHHHHHHHHHHHooooooHHHHH",
"HHHHHHHHHHHoooHHooooooooooHHH",
"HHHHHHHHHooooHHHHHHHHooooooHH",
"HHHHHHHHHHHHHHHHHHHHHHooooooH",
"HHHHHHHHHHHHHHHHHHHHHHHoooooH",
"HHHHHHHHHHHHHHHHHHHHHHooooooo",
"HHHHHHHHHHHHHHHHHHHHHHooooooo",
"HHHHHHHHHHHHHHHHHHHHHoooooooo",
"HHHHHHHHHHHHHHHHHHHoooooooooo",
"HHHHHHHHHHHHHHHoooooooooooooo",
"HHHHHHHHHHHHooooooooooooooooH",
"HHHHHHHHHHHooo 3:q,<<&ooooooH",
"HHHHHHHHHHooo0tddddddd@ooooHH",
"HHHHHHHHHHoo sdddzxhddXoooHHH",
"HHHHHHHHHHooudddnGGSkd*oooHHH",
"HHHHHHHHHHo.ddhVGGGGmu8$ ooHH",
"HHHHHHHHHHoOdhAGGGGSjdddr.ooH",
"HHHHHHHHHHo.dxGGGGGGzdddd3ooH",
"HHHHHHHHHHo sdznBmchddddd:ooH",
"HHHHHHHHHHo*ddddddddddddd8ooH",
"HHHHHHHHooo-dddddkddddddd$ooH",
"HHHHHHooooo,dvmmZGmddudd:ooHH",
"HHHHooooo.8hBGGGGGvdddd5 oHHH",
"HHHoooo#idgCGGGGGGMld8.ooHHHH",
"HHooo0udddbSGGGGGGGGd%ooHHHHH",
"Hooo7dddgAGGGGGGGGGZd ooHHHHH",
"Hoo ddddvGGGGGGGGGGvwoooHHHHH",
"ooo3ddddVGGGGGGDGGAd2ooHHHHHH",
"oooedddkGGGGGGGFGGxfoooHHHHHH",
"oo.ddddnGGGGGGGGGvd6oooHHHHHH",
"ooOddddBGGGGGGGGvdyooooHHHHHH",
"oo ddddAGGGGGGVzdd#ooooHHHHHH",
"oooedddVGGGGNxddd;ooooHHHHHHH",
"Hoo%dddhvmxddddd> ooooHHHHHHH",
"Hooo1ddddddddddaoooooHHHHHHHH",
"HHooo$rdddddp=9oooooHHHHHHHHH",
"HHHooooO4$+oooooooHHHHHHHHHHH",
"HHHHHHoooooooooHHHHHHHHHHHHHH"
};
