/* XPM */
static xpm_row_t const FIREFRAME0[] = {
/* columns rows colors chars-per-pixel */
"26 40 50 1 ",
"  c #E63927",
". c #E73F25",
"X c #E5332A",
"o c #E84B1F",
"O c #E9541B",
"+ c #EA561A",
"@ c #EA5B18",
"# c #EB5C18",
"$ c #EE740D",
"% c #EF790B",
"& c #EF7A0A",
"* c #EF7B0A",
"= c #F07F08",
"- c #EC6513",
"; c #EC6713",
": c #EC6215",
"> c #EC6315",
", c #EC6812",
"< c #ED6E10",
"1 c #EE6E10",
"2 c #E74522",
"3 c #E84A20",
"4 c #F08505",
"5 c #F08605",
"6 c #F18605",
"7 c #F18B02",
"8 c #F18A03",
"9 c #F28E01",
"0 c #F18C02",
"q c #F18D02",
"w c #F08008",
"e c #F29000",
"r c #F29100",
"t c #F29303",
"y c #F39506",
"u c #F3970A",
"i c #F4990D",
"p c #F49B10",
"a c #F49D13",
"s c #F59F16",
"d c #F5A11A",
"f c #F5A31D",
"g c #F6A520",
"h c #F6A723",
"j c #F7A926",
"k c #F7AB2A",
"l c #F7AD2D",
"z c #F8AF30",
"x c #F8B133",
"c c None",
/* pixels */
"ccccccccccccccXccccccccccc",
"cccccccccccccXXXXXXccccccc",
"ccccccccccccXXXXXXXccccccc",
"ccccccccccccXXXcccccXXcccc",
"cccccccccccXXXcccXXXXXXXcc",
"cccccccccXXXXcccXXXXXXXXXc",
"ccccccccccccccccccccXXXXXc",
"ccccccccccccccccccccXXXXXc",
"cccccccccccccccccccXXXXXXc",
"ccccccccccccXXXXXXXXXXXXXc",
"ccccccccccXXXXXXXXXXXXXXXc",
"cccccccccXXXXXXXXXoo+#XXcc",
"cccccccccXXXX2o+<wrrrr+Xcc",
"ccccccccXXX2wrrrrrrrrr$Xcc",
"ccccccccXX 7rrrrrrrrrr&XXc",
"ccccccccXX#rrrryjxjyrr7XXX",
"cccccccXXX:rrrtkxxxlyr8 XX",
"cccccccXXX:rrrkxxxxxprr<XX",
"cccccccXXX#rrrzxxxxzrrr&XX",
"cccccccXXX 7rrfxxxxhrrr&XX",
"ccccccXXXXX,rrrrtdprrrr+XX",
"ccccXXXXXo$rrrrrrrrrrr<XXX",
"ccXXXXX $rrigjafdurrr5XXXc",
"ccXXXX20rthxxgjxxfrr72XXcc",
"cXXXX3erilxxxxxxxjr< XXXcc",
"cXXX 9rixxxxxxxxxlr72XXXcc",
"XXXX4rtzxxxxxxxxxxrr&XXXXc",
"XXX:rrdxxxxxxxxxxxrrr.XXXc",
"XXX7rtzxxxxxxxxxxxrrroXXXc",
"XXorraxxxxxxxxxxxhrrr2XXXc",
"XXorrkxxxxxxxxxxxprr5XXXXc",
"XXoryxxxxxxxxxxxgrrr+XXXXc",
"XX raxxxxxxxxxxjtrr<XXXXXc",
"cXX,ihxxxxxxxzdrrr%XXXXXcc",
"cXXX=rihjjjfstrrrq XXXXXcc",
"ccXX 168rrrrrrrr* XXXXXccc",
"cccXXXXXX@>-;Oo XXXXXXcccc",
"ccccXXXXXXXXXXXXXXXXcccccc",
"ccccccXXXXXXXXXXXXXccccccc",
"cccccccccXXXXXXccccccccccc"
};
