/* XPM */
static xpm_row_t const FIREFRAME3[] = {
/* columns rows colors chars-per-pixel */
"25 39 52 1 ",
"  c #E63927",
". c #E73F25",
"X c #E5332A",
"o c #E84B1F",
"O c #EA561A",
"+ c #E9501D",
"@ c #EB5C18",
"# c #ED700F",
"$ c #EE740D",
"% c #EF7A0A",
"& c #EF780F",
"* c #F07D0D",
"= c #EC6215",
"- c #EC6812",
"; c #ED6E10",
": c #E74522",
"> c #F08306",
", c #F08605",
"< c #F18B02",
"1 c #F18D01",
"2 c #F18C02",
"3 c #F28E02",
"4 c #F08008",
"5 c #F29100",
"6 c #F29303",
"7 c #F39506",
"8 c #F3970A",
"9 c #F4990D",
"0 c #F49A0E",
"q c #F49B10",
"w c #F49D13",
"e c #F59F16",
"r c #F59F17",
"t c #F59E1B",
"y c #F5A11A",
"u c #F5A31D",
"i c #F6A520",
"p c #F6A621",
"a c #F6A723",
"s c #F7A825",
"d c #F7A926",
"f c #F7A927",
"g c #F7AA28",
"h c #F7AB29",
"j c #F7AB2A",
"k c #F7AC2B",
"l c #F7AD2D",
"z c #F8AF30",
"x c #F8AF31",
"c c #F8B031",
"v c #F8B133",
"b c None",
/* pixels */
"bbbbbbbbbbbbbbbbbbbbbbbbb",
"bbbbbbbbbbbbXXbbbbbbbbbbb",
"bbbbbbbbbbXXXXXbbXbbbbbbb",
"bbbbbbbbbXXXXXXbXXbbbbbbb",
"bbbbbbbbbXbbbbbbXXbbbbbbb",
"bbbbbbbbbbbXXXbbXXbbbbbbb",
"bbbbbbbbbbbXXXXXXXXbbbbbb",
"bbbbbbbbbbbXXXXXXXXbbbbbb",
"bbbbbbbbbbXXXXXXXXXXbbbbb",
"bbbbbbbbbXXXXXXXXXXXbbbbb",
"bbbbbbbbXXXO%555<;.XXbbbb",
"bbbbbbbXXX@59aldy5<OXXbbb",
"bbbbbbbXXX%8zvvvve55oXXbb",
"bbbbbbXXX+<avvvvvvq5,XXXb",
"bbbbbbXXo558zvvvvva55:XXb",
"bbbbbbXX&yzvsvvvvvd55=XXX",
"bbbbbbXXtvvvvhvvvvi55=XXX",
"bbbbbbXX*zvvvpjvvz655=XXX",
"bbbbbbXX-8zvj86985555OXXX",
"bbbbbbbX 155558ay6555.XXb",
"bbbbbbXXO55557vvv955;XXXb",
"bbbbXXX:555qilvvv95<.XXbb",
"bbbbXX 357gvvvvvv95+XXbbb",
"bbbXX.<56zvvvvvvz55;Xbbbb",
"bbXX.<55kvvvvvvvu555OXbbb",
"bbXX%55rvvvvvvvvd555>XXbb",
"bXX.555cvvvvvvvvv5555XXXb",
"bXXO550vvvvvvvvvv9555XXXb",
"bXX=55svvvvvvvvvv9552XXXb",
"bXX=55fvvvvvvvvvv955#XXXb",
"bXXO55yvvvvvvvvvv955oXXXb",
"bXX:55wvvvxvvvvvl55$XXXXb",
"bXXX,55yyqevvvvd854 XXXbb",
"bXXX:<555559y9755<.XXXbbb",
"bbXXX.==+O555555<:XXXbbbb",
"bbXXXXXXXX@,55<; XXXbbbbb",
"bbbXXXXXXXXXX.XXXXXbbbbbb",
"bbbbXXXXXXXXXXXXXXbbbbbbb",
"bbbbbbbbbbXXXXXbbbbbbbbbb"
};
