/* XPM */
static xpm_row_t const FIREFRAME1[] = {
/* columns rows colors chars-per-pixel */
"26 38 38 1 ",
"  c #E63927",
". c #E73F25",
"X c #E5332A",
"o c #E84B1F",
"O c #EA5D17",
"+ c #EA561A",
"@ c #E9501D",
"# c #EB5C18",
"$ c #EE740D",
"% c #EF7A0A",
"& c #EC6215",
"* c #EC6514",
"= c #EC6812",
"- c #ED6E10",
"; c #EE6E10",
": c #E74522",
"> c #F08207",
", c #F08605",
"< c #F18B02",
"1 c #F08008",
"2 c #F29100",
"3 c #F29303",
"4 c #F39506",
"5 c #F3970A",
"6 c #F4990D",
"7 c #F49B10",
"8 c #F49D13",
"9 c #F59F16",
"0 c #F5A11A",
"q c #F5A31D",
"w c #F6A520",
"e c #F6A723",
"r c #F7A926",
"t c #F7AB2A",
"y c #F7AD2D",
"u c #F8AF30",
"i c #F8B133",
"p c None",
/* pixels */
"pppppppppppppppppppppppppp",
"pppppppppppppppppXXXpppppp",
"pppppppppppppppXXXXppppppp",
"ppppppppppppppXXXXXXXXXXpp",
"ppppppppppppppXpXXXXXXXXpp",
"pppppppppppXXXXXpXpXXXXXpp",
"pppppppppppXXppppppXXXXXpp",
"ppppppppppppppXXXXXXXXXXpp",
"ppppppppppppXXXXXXXXXXXppp",
"pppppppppppXXXXXXXXXXXXXpp",
"ppppppppppXXXXXo$21&XXXXXp",
"pppppppppXXX.#&22222&XXXXp",
"pppppppppXX=22236322,:XXXX",
"ppppppppXX=224tiiq722<:XXX",
"ppppppppXX<23uiiiu82221XXX",
"ppppppppXX229iiiiri6222XXX",
"ppppppppXX22eiiiit6222<XXX",
"ppppppppXX<2ritw722222$XXX",
"ppppppppXX-22222222222oXXp",
"ppppppXXXX+225yi92222%XXXp",
"ppppXXXXXo%220iiu322<.XXpp",
"pppXXXXXO22q0wiii922@XXXpp",
"ppXXXXX#23eiiiiiir2>XXXppp",
"pXXXXX-23tiiiiiiiu22:XXppp",
"pXXXX@22riiiiiiiii22;XXXpp",
"XXXXX,28iiiiiiiiii22*XXXpp",
"XXXXo22yiiiiiiiiit22+XXXpp",
"XXXX&25iiiiiiiiii022:XXXpp",
"XXXX&26iiiiiiiiiu32,XXXXpp",
"pXXX&26iiiiiiiii722+XXXXpp",
"pXXX#22tiiiiiiu722<XXXXppp",
"pXXX.223eiiyw72222+XXXXppp",
"ppXXX=22234222222&XXXXpppp",
"ppXXXX=22222<%%-oXXXXXpppp",
"pppXXXX ooo:XXXXXXXXXppppp",
"pppppXXXXXXXXXXXXXXXpppppp",
"pppppppXXXXXXXXXXXXppppppp",
"pppppppppXXXXXXXXppppppppp"
};
