/* XPM */
static xpm_row_t const INCREASE1[] = {
/* columns rows colors chars-per-pixel */
"21 37 2 1 ",
"  c #009540",
". c None",
/* pixels */
"........     ........",
".....   .....   .....",
"....  .........  ....",
"...  ...........  ...",
"..  ....... .....  ..",
".. ......    ..... ..",
". .......     ....  .",
". ......      ..... .",
". .....        .... .",
". .....        .... .",
". .......    ...... .",
". .......    ...... .",
". .......    ...... .",
". .......    ...... .",
". .......   ....... .",
". ........ ........ .",
". ................. .",
". ................. .",
". ......... ....... .",
". ........   ...... .",
". .......    ...... .",
". .......    ...... .",
". .......    ...... .",
". .......    ...... .",
". ......       .... .",
". .....        .... .",
". .....       ..... .",
". ......     ...... .",
". .......    ...... .",
". ........ ........ .",
".  ............... ..",
".. ............... ..",
"... ............. ...",
"...  ........... ....",
".....  .......  .....",
"......         ......",
"....................."
};
