/* XPM */
static xpm_row_t const PLAYER_SMALL[] = {
/* columns rows colors chars-per-pixel */
"27 91 2 1 ",
"  c #FFFFFF",
". c None",
/* pixels */
".......            ........",
".....                 .....",
"...                    ....",
"..                      ...",
"..                       ..",
".                        ..",
".                         .",
"                          .",
"                          .",
"                          .",
"                          .",
"                          .",
"                          .",
"                          .",
"                          .",
"                          .",
"                          .",
"                          .",
"                          .",
"                          .",
"                          .",
"                          .",
"                          .",
"                          .",
"                          .",
"                          .",
"                          .",
"                          .",
"                          .",
"                          .",
"                          .",
"                          .",
"                          .",
"                          .",
"                          .",
"                          .",
"                          .",
"                          .",
"                          .",
"                          .",
"                          .",
"                          .",
"                          .",
"                          .",
"                          .",
"                          .",
"                          .",
"                          .",
"                          .",
"                          .",
"                          .",
"                          .",
"                          .",
"                          .",
"                          .",
"                          .",
"                          .",
"                          .",
"                          .",
"                          .",
"                          .",
"                          .",
"                          .",
"                          .",
"                          .",
"                          .",
"                          .",
"                          .",
"                          .",
"                          .",
"                          .",
"                          .",
"                          .",
"                          .",
"                          .",
"                          .",
"                          .",
"                          .",
"                          .",
"                          .",
"                          .",
"                          .",
"                          .",
"                          .",
".                         .",
".                        ..",
"..                      ...",
"...                    ....",
"....                  .....",
"......               ......",
".........        .........."
};
