/* XPM */
static xpm_row_t const C_[] = {
/* columns rows colors chars-per-pixel */
"22 35 2 1 ",
"  c #000000",
". c None",
/* pixels */
"...........        ...",
"........             .",
".......              .",
"......               .",
".....                .",
".....      ...........",
"....      ............",
"....     .............",
"...      .............",
"...     ..............",
"..      ..............",
"..     ...............",
".      ...............",
".     ................",
"      ................",
"     .................",
"     .................",
"     .................",
"     .................",
"     .................",
"     .................",
".     ................",
".     ................",
"..     ...............",
"..     ...............",
"...     ..............",
"...     ..............",
"....     .............",
"....     .............",
".....     ............",
".....               ..",
"......               .",
"......               .",
".......              .",
".........           .."
};
