/* XPM */
static xpm_row_t const J_[] = {
/* columns rows colors chars-per-pixel */
"18 35 2 1 ",
"  c #000000",
". c None",
/* pixels */
"..................",
".............    .",
".............    .",
".............     ",
".............     ",
".............     ",
".............     ",
".............     ",
".............     ",
".............     ",
".............     ",
".............     ",
".............     ",
".............     ",
".............     ",
".............     ",
".............     ",
".............     ",
".............     ",
".   .........     ",
".    ........     ",
"     ........     ",
"     ........     ",
"     ........     ",
"     ........     ",
"     ........     ",
"     ........     ",
"     ........     ",
"     ........     ",
"      ......     .",
".                .",
".                .",
"..              ..",
"...            ...",
"....         ....."
};
