/* XPM */
static xpm_row_t const BIG8_[] = {
/* columns rows colors chars-per-pixel */
"23 35 2 1 ",
"  c #000000",
". c None",
/* pixels */
"......           ......",
".....             .....",
".....             .....",
".....             .....",
".....             .....",
".....     ...     .....",
".....     ...     .....",
".....     ...     .....",
".....     ...     .....",
".....     ...     .....",
".....     ...     .....",
".....     ...     .....",
".....     ...     .....",
".....     ...     .....",
".....     ...     .....",
"...                 ...",
"..                   ..",
".                     .",
".                     .",
".                     .",
".    .............    .",
".    .............    .",
".    .............    .",
".    .............    .",
".    .............    .",
".    .............    .",
".    .............    .",
".    .............    .",
".    .............    .",
".    .............    .",
".                     .",
".                     .",
".                     .",
"..                   ..",
"....               ...."
};
