/* XPM */
static xpm_row_t const SMALL0_[] = {
/* columns rows colors chars-per-pixel */
"14 23 2 1 ",
"  c #000000",
". c None",
/* pixels */
".            .",
"              ",
"              ",
"   ........   ",
"   ........   ",
"   ........   ",
"   ........   ",
"   ........   ",
"   ........   ",
"   ........   ",
"   ........   ",
"   ........   ",
"   ........   ",
"   ........   ",
"   ........   ",
"   ........   ",
"   ........   ",
"   ........   ",
"   ........   ",
"              ",
"              ",
".            .",
"...        ..."
};
