/* XPM */
static xpm_row_t const SMALL2_[] = {
/* columns rows colors chars-per-pixel */
"15 23 2 1 ",
"  c #000000",
". c None",
/* pixels */
".            ..",
"              .",
".             .",
"...........    ",
"...........    ",
"...........    ",
"...........    ",
"...........    ",
"...........    ",
"...........    ",
".             .",
".             .",
"            ...",
"   ............",
"   ............",
"   ............",
"   ............",
"   ............",
"   ............",
"             ..",
"              .",
"              .",
".            .."
};
