/* XPM */
static xpm_row_t const button_1280x1024_hover_[] = {
/* columns rows colors chars-per-pixel */
"256 41 18 1 ",
"  c #1D1D1B",
". c #1B2523",
"X c #192D2B",
"o c #183633",
"O c #163E3B",
"+ c #144643",
"@ c #124E4A",
"# c #0E5F5A",
"$ c #105752",
"% c #0D6762",
"& c #0B6F6A",
"* c #097772",
"= c #07807A",
"- c #058882",
"; c #04908A",
": c #029892",
"> c #00A099",
", c None",
/* pixels */
",,,,,,,,,,,,                                                                                                                                                                                                                                         ,,,,,,,,,,,",
",,,,,,,,,                                                                                                                                                                                                                                              ,,,,,,,,,",
",,,,,,,                                                                                                                                                                                                                                                  ,,,,,,,",
",,,,,,                                                                                                                                                                                                                                                    ,,,,,,",
",,,,,                                                                                                                                                                                                                                                      ,,,,,",
",,,,                                                                                                                                                                                                                                                        ,,,,",
",,,                                                                                                                                                                                                                                                          ,,,",
",,,                                                                                                                                                                                                                                                           ,,",
",,                                      X&======%           .#==========@           #======+          X%========*+                            +=======@            X&========*+       .%==========@         #%.                                               ,,",
",,                                      *>>>>>>>=           $>>>>>>>>>>>>:.        +>>>>>>>>.        o>>>>>>>>>>>>&                          .>>>>>>>>#           O>>>>>>>>>>>>&      #>>>>>>>>>>>>:       @>>$                                                ,",
",                                       &>>>>>>>=           @>>>>>>>>>>>>>@        #>>>>>>>>O        &>>>>>>>>>>>>>.                         .:>>>>>>>#           &>>>>>>>>>>>>:.     $>>>>>>>>>>>>>@      #>>#                                                ,",
",                                       .$###&>>=           .@#########&>>=        #>>=##;>>O        =>>&#######;>>O                          O####;>>#           >>>########;>>O     .@#########=>>*      #>>#     *>$                                         ",
",                                            O>>=                      O>>=        #>>#  =>>O        =>>O       =>>O                               =>>#           >>>        =>>O                #>>=      #>>#    o>>=                                         ",
"                                             O>>=                      O>>=        #>>#  =>>O        =>>O       =>>O                               =>>#           >>>        =>>O                #>>=      #>>#    O>>=                                         ",
"                                             O>>=                      O>>=        #>>#  =>>O        =>>O       =>>O       O         .o            =>>#           >>>        =>>O                #>>=      #>>#    O>>=                                         ",
"                                             O>>=                      O>>=        #>>#  =>>O        =>>O       =>>O      *>;.      O:>@           =>>#           >>>        =>>O                #>>=      #>>#    O>>=                                         ",
"                                             O>>=                      O>>=        #>>#  =>>O        =>>O       =>>O      :>>=     X:>>#           =>>#           >>>        =>>O                #>>=      #>>#    O>>=                                         ",
"                                             O>>=                      O>>=        #>>#  =>>O        =>>O       =>>O      #>>>%   .->>>o           =>>#           >>>        =>>O                #>>=      #>>#    O>>=                                         ",
"                                             O>>=             O########&>>*       X*>>=##;>>#.       =>>O       =>>O       *>>>+  &>>>@            =>>#           >>>        =>>O       O########=>>*      #>>#    O>>=                                         ",
"                                             O>>=            *>>>>>>>>>>>>@      $>>>>>>>>>>>:o      =>>O       =>>O       .;>>:o$>>>&             =>>#           >>>        =>>O      *>>>>>>>>>>>>@      #>>#    O>>=                                         ",
"                                             O>>=           X>>>>>>>>>>>>:.      ;>>>>>>>>>>>>&      =>>O       =>>O        o:>>->>>-              =>>#           >>>        =>>O     o>>>>>>>>>>>>;       #>>#    O>>=                                         ",
"                                             O>>=  +;=      #>>;========@       o>>:========>>:      =>>O       =>>O         @>>>>>:X              =>>#  #:@      >>>        =>>O     #>>;========@        #>>>>>>>>>>>=                                        ",
"                                             O>>=  *>>O     #>>#                O>>=        >>>      =>>O       =>>O          %>>>>O               =>>#  >>;      >>>        =>>O     #>>#                 #>>>>>>>>>>>>o                                       ",
"                                             O>>=  =>>O     #>>#                O>>=        >>>      =>>O       =>>O          %>>>>O               =>>#  >>>      >>>        =>>O     #>>#                 #>>>>>>>>>>>;                                        ",
"                                             O>>=  =>>O     #>>#                O>>=        >>>      =>>O       =>>O         @>>>>>:.              =>>#  >>>      >>>        =>>O     #>>#                 XOOOOOOO$>>-                                         ",
"                                             O>>=  =>>O     #>>#                O>>=        >>>      =>>O       =>>O        o:>>:>>>-              =>>#  >>>      >>>        =>>O     #>>#                         O>>=                                         ",
"                                             O>>=  =>>O     #>>#                O>>=        >>>      =>>O       =>>O       .->>:o#>>>%             =>>#  >>>      >>>        =>>O     #>>#                         O>>=                                         ",
"                                             O>>=  =>>O     #>>#                O>>=        >>>      =>>O       =>>O       *>>>@  *>>>@            =>>#  >>>      >>>        =>>O     #>>#                         O>>=                                         ",
",                                       .@###&>>;##;>>O     #>>=#########+      O>>;########>>>      =>>&#######;>>O      #>>>&   .;>>:o      X####;>>=##>>>      >>>########;>>O     #>>=#########+               O>>=                                         ",
",                                       &>>>>>>>>>>>>>O     #>>>>>>>>>>>>>$      :>>>>>>>>>>>>*      &>>>>>>>>>>>>>.     X>>>-     o:>>=     .>>>>>>>>>>>>>>      *>>>>>>>>>>>>>.     #>>>>>>>>>>>>>$              O>>=                                        ,",
",                                       ->>>>>>>>>>>>>o     #>>>>>>>>>>>>>&      %>>>>>>>>>>>>+      +>>>>>>>>>>>>*      o>>:.      @>>;     X>>>>>>>>>>>>>;      +>>>>>>>>>>>>&      #>>>>>>>>>>>>>&              X>>=                                        ,",
",,                                      O*===========#      @============*o       O*========&o        O&=========@        %*o        @=O      #============O       O&=========@       @============*X               $*O                                        ,",
",,                                                                                                                                                                                                                                                            ,,",
",,,                                                                                                                                                                                                                                                          ,,,",
",,,,                                                                                                                                                                                                                                                         ,,,",
",,,,,                                                                                                                                                                                                                                                       ,,,,",
",,,,,,                                                                                                                                                                                                                                                     ,,,,,",
",,,,,,,                                                                                                                                                                                                                                                  ,,,,,,,",
",,,,,,,,                                                                                                                                                                                                                                                ,,,,,,,,",
",,,,,,,,,,,                                                                                                                                                                                                                                           ,,,,,,,,,,",
",,,,,,,,,,,,,,,                                                                                                                                                                                                                                  ,,,,,,,,,,,,,,,"
};
