/* XPM */
static xpm_row_t const button_800x600_hover_[] = {
/* columns rows colors chars-per-pixel */
"256 42 18 1 ",
"  c #1D1D1B",
". c #221D21",
"X c #261E28",
"o c #2B1E2E",
"O c #2F1F35",
"+ c #341F3B",
"@ c #382042",
"# c #3D2048",
"$ c #42214F",
"% c #462155",
"& c #4B215C",
"* c #4F2262",
"= c #542269",
"- c #59236F",
"; c #5D2375",
": c #62247C",
"> c #662482",
", c None",
/* pixels */
",,,,,,,,,,,,,,,,,,,,,,,,,,,,,,,,,,,,,,,,,,,,,,,,,,,,,,,,,,,,,,,,,,,,,,,,,,,,,,,,,,,,,,,,,,,,,,,,,,,,,,,,,,,,,,,,,,,,,,,,,,,,,,,,,,,,,,,,,,,,,,,,,,,,,,,,,,,,,,,,,,,,,,,,,,,,,,,,,,,,,,,,,,,,,,,,,,,,,,,,,,,,,,,,,,,,,,,,,,,,,,,,,,,,,,,,,,,,,,,,,,,,,,,,,,,,,,,,",
",,,,,,,,,,,,                                                                                                                                                                                                                                         ,,,,,,,,,,,",
",,,,,,,,,                                                                                                                                                                                                                                              ,,,,,,,,,",
",,,,,,,                                                                                                                                                                                                                                                  ,,,,,,,",
",,,,,,                                                                                                                                                                                                                                                    ,,,,,,",
",,,,,                                                                                                                                                                                                                                                      ,,,,,",
",,,,                                                                                                                                                                                                                                                        ,,,,",
",,,                                                             oOOOOO.            OOOOOOOOO.          oOOOOOOOOX                             .Oo                   oOOOOOOOOX          XOOOOOOOOo                                                           ,,,",
",,,                                                            =>>>>>>:o         #;>>>>>>>>>:$       O=>>>>>>>>>>&X                          X:>>%                O=>>>>>>>>>>&.      .&>>>>>>>>>>-O                                                          ,,",
",,                                                             >>>>>>>>$        X>>>>>>>>>>>>>o      =>>>>>>>>>>>>$                          $>>>;                ->>>>>>>>>>>>$      #>>>>>>>>>>>>-                                                          ,,",
",,                                                             >>>>>>>>$        #>>>>>>>>>>>>>$     X>>>>>>>>>>>>>;                          $>>>#               o>>>>>>>>>>>>>;      ;>>>>>>>>>>>>>o                                                          ,",
",                                                              >>>  $>>$        $>>$       O>>$     O>>=        >>>                          $>>$                O>>=        >>>      >>>        =>>O                                                          ,",
",                                                              >>>  $>>$        $>>$       O>>$     O>>=        >>>                          $>>$                O>>=        >>>      >>>        =>>O                                                           ",
",                                                              >>>  $>>$        $>>$       O>>$     O>>=        >>>                          $>>$                O>>=        >>>      >>>        =>>O                                                           ",
"                                                               >>>  $>>$        $>>$       O>>$     O>>=        >>>       $*o       o*$      $>>$                O>>=        >>>      >>>        =>>O                                                           ",
"                                                               >>>  $>>$        $>>$       O>>$     O>>=        >>>      o>>:X     .:>>o     $>>$                O>>=        >>>      >>>        =>>O                                                           ",
"                                                               >>>  $>>$        $>>$       O>>$     O>>=        >>>      X>>>-     ->>>X     $>>$                O>>=        >>>      >>>        =>>O                                                           ",
"                                                               >>>  $>>$        $>>$       O>>$     O>>=        >>>       #>>>&   &>>>#      $>>$                O>>=        >>>      >>>        =>>O                                                           ",
"                                                             #;>>>>>>>>>&X      $>>$       O>>$     O>>=        >>>        &>>>@ @>>>&       $>>$                O>>=        >>>      >>>        =>>O                                                           ",
"                                                            @>>>>>>>>>>>>=      $>>$       O>>$     O>>=        >>>        .->>>@:>>-.       $>>$                O>>=        >>>      >>>        =>>O                                                           ",
"                                                            =>>>>>>>>>>>>>X     $>>$       O>>$     O>>=        >>>         X:>>>>>:o        $>>=$$$$$$$$$@.     O>>=        >>>      >>>        =>>O                                                           ",
"                                                            >>>#OOOOOOO->>O     $>>$       O>>$     O>>=        >>>          O>>>>>+         $>>>>>>>>>>>>>$     O>>=        >>>      >>>        =>>O                                                           ",
"                                                            >>>O       =>>O     $>>$       O>>$     O>>=        >>>           &>>>&          $>>>>>>>>>>>>>=     O>>=        >>>      >>>        =>>O                                                           ",
"                                                            >>>O       =>>O     $>>$       O>>$     O>>=        >>>          +>>>>>+         $>>;=======;>>=     O>>=        >>>      >>>        =>>O                                                           ",
"                                                            >>>O       =>>O     $>>$       O>>$     O>>=        >>>         X:>>>>>:X        $>>$       $>>=     O>>=        >>>      >>>        =>>O                                                           ",
"                                                            >>>O       =>>O     $>>$       O>>$     O>>=        >>>        .->>>@>>>-.       $>>$       $>>=     O>>=        >>>      >>>        =>>O                                                           ",
"                                                            >>>O       =>>O     $>>$       O>>$     O>>=        >>>        &>>># #>>>&       $>>$       $>>=     O>>=        >>>      >>>        =>>O                                                           ",
"                                                            >>>O       =>>O     $>>$       O>>$     O>>=        >>>       #>>>&   &>>>@      $>>$       $>>=     O>>=        >>>      >>>        =>>O                                                           ",
"                                                            ->>>>>>>>>>>>>o     #>>>>>>>>>>>>>$     o>>>>>>>>>>>>>;      O>>>-.   .->>>o     $>>>>>>>>>>>>>=     o>>>>>>>>>>>>>;      ;>>>>>>>>>>>>>o                                                           ",
",                                                           @>>>>>>>>>>>>;      X>>>>>>>>>>>>>o      ->>>>>>>>>>>>%      $>>:X     X:>>$     $>>>>>>>>>>>>>=      ->>>>>>>>>>>>$      $>>>>>>>>>>>>;                                                            ",
",                                                           .&>>>>>>>>>>;O       $:>>>>>>>>>:%       O;>>>>>>>>>>=X      @>:O       +:>+     o>>>>>>>>>>>>>@      O;>>>>>>>>>>=X      X=>>>>>>>>>>;O                                                           ,",
",                                                             XOOOOOOOOo          .OOOOOOOOO.          OOOOOOOOOX         o.         .X       XOOOOOOOOOOOX         OOOOOOOOOX          XOOOOOOOOO                                                             ,",
",,                                                                                                                                                                                                                                                             ,",
",,                                                                                                                                                                                                                                                            ,,",
",,,                                                                                                                                                                                                                                                          ,,,",
",,,,                                                                                                                                                                                                                                                         ,,,",
",,,,,                                                                                                                                                                                                                                                       ,,,,",
",,,,,,                                                                                                                                                                                                                                                     ,,,,,",
",,,,,,,                                                                                                                                                                                                                                                  ,,,,,,,",
",,,,,,,,                                                                                                                                                                                                                                                ,,,,,,,,",
",,,,,,,,,,,                                                                                                                                                                                                                                           ,,,,,,,,,,",
",,,,,,,,,,,,,,,                                                                                                                                                                                                                                  ,,,,,,,,,,,,,,,"
};
