/* XPM */
static xpm_row_t const button_local_hover_[] = {
/* columns rows colors chars-per-pixel */
"217 76 18 1 ",
"  c #1D1D1B",
". c #23221F",
"X c #292723",
"o c #2F2B26",
"O c #34302A",
"+ c #3A352E",
"@ c #403A32",
"# c #463F36",
"$ c #4C443A",
"% c #52483D",
"& c #574D41",
"* c #5D5245",
"= c #635749",
"- c #695C4D",
"; c #6F6151",
": c #756554",
"> c #7A6A58",
", c None",
/* pixels */
",,,,,,,,,,,,,,,,,,,,,,,,,,,,                                                                                                                                                                 ,,,,,,,,,,,,,,,,,,,,,,,,,,,,",
",,,,,,,,,,,,,,,,,,,,,,                                                                                                                                                                             ,,,,,,,,,,,,,,,,,,,,,,",
",,,,,,,,,,,,,,,,,,,                                                                                                                                                                                   ,,,,,,,,,,,,,,,,,,,",
",,,,,,,,,,,,,,,,,                                                                                                                                                                                       ,,,,,,,,,,,,,,,,,",
",,,,,,,,,,,,,,,                                                                                                                                                                                           ,,,,,,,,,,,,,,,",
",,,,,,,,,,,,,,                                                                                                                                                                                              ,,,,,,,,,,,,,",
",,,,,,,,,,,,                                                                                                                                                                                                 ,,,,,,,,,,,,",
",,,,,,,,,,,                                                                                                                                                                                                   ,,,,,,,,,,,",
",,,,,,,,,,                                                                                                                                                                                                      ,,,,,,,,,",
",,,,,,,,,                                                                                                                                                                                                        ,,,,,,,,",
",,,,,,,,                                                                                                                                                                                                          ,,,,,,,",
",,,,,,,                                                                                                                                                                                                           ,,,,,,,",
",,,,,,                                                                                                                                                                                                             ,,,,,,",
",,,,,,                                                                                                                                                                                                              ,,,,,",
",,,,,                                                                                                                                                                                                                ,,,,",
",,,,                                                                                                                                                                                                                 ,,,,",
",,,,                                                                                                                                                                                                                  ,,,",
",,,                                                                                                                                                                                                                   ,,,",
",,,                                                                                                                                                                                                                    ,,",
",,                                                                                                                                                                                                                     ,,",
",,                                                                                                                                                                                                                     ,,",
",,                                       X$O                                 O$$$@                         X#$$$$$$$$@                  O$O                  X#@                                                        ,",
",,                                      .>>>@                              .*>>>>>-o                     .*>>>>>>>>>>>%                X:>>#                 ;>>$                                                       ,",
",                                       #>>>*                              &>>>>>>>;.                    =>>>>>>>>>>>>:                #>>>>.               O>>>;                                                       ,",
",                                       $>>>=                             O>>>>>>>>>$                   &>>>>>>>>>>>>>&                *>>>>+               O>>>>                                                       ,",
",                                       $>>>=                             *>>>>>>>>>;                  O>>>>>>>>>>>>>&X                :>>>>%               O>>>>                                                        ",
",                                       $>>>=                            X>>>>-X&>>>>@                 =>>>>&.                        O>>>>>;               O>>>>                                                        ",
",                                       $>>>=                            &>>>>X  ;>>>;                O>>>>=                          %>>>>>>X              O>>>>                                                        ",
",                                       $>>>=                           X>>>>&   $>>>>+               =>>>>O                          ->>>>>>@              O>>>>                                                        ",
"                                        $>>>=                           %>>>>o   .:>>>=              O>>>>=                          .>>>>>>>&              O>>>>                                                        ",
"                                        $>>>=                          .:>>>=     $>>>>O             =>>>>O                          @>>>>>>>:              O>>>>                                                        ",
"                                        $>>>=                          $>>>>O     .>>>>*            O>>>>=                           &>>>>>>>>o             O>>>>                                                        ",
"                                        $>>>=                          :>>>-       &>>>>X           =>>>>O                           :>>>&>>>>#             O>>>>                                                        ",
"                                        $>>>=                         @>>>>@       X>>>>&          O>>>>&                           o>>>>@*>>>=             O>>>>                                                        ",
"                                        $>>>=                         ;>>>;         &>>>>.         &>>>>X                           #>>>>.#>>>>             O>>>>                                                        ",
"                                        $>>>=                        X>>>>@         o>>>>@         >>>>&                            =>>>- o>>>>+            O>>>>                                                        ",
"                                        $>>>=                        +>>>>o          :>>>%        o>>>>@                            >>>>$  ;>>>%            O>>>>                                                        ",
"                                        $>>>=                        $>>>:           *>>>=        O>>>>o                           +>>>>o  &>>>-            O>>>>                                                        ",
"                                        $>>>=                        $>>>;           &>>>=        O>>>>o                           %>>>:   @>>>>.           O>>>>                                                        ",
"                                        $>>>=                        @>>>>X          ;>>>&        O>>>>@                           ;>>>&   .>>>>@           O>>>>                                                        ",
"                                        $>>>=                        O>>>>+         .>>>>#         >>>>&                          X>>>>@    ->>>&           O>>>>                                                        ",
"                                        $>>>=                         :>>>=         $>>>>o         *>>>>X                         @>>>>X    %>>>;           O>>>>                                                        ",
"                                        $>>>=                         %>>>>O       .:>>>=          O>>>>&                         *>>>-     O>>>>o          O>>>>                                                        ",
"                                        $>>>=                         X>>>>=       $>>>>O           ;>>>:.                        :>>>>>>>>>>>>>>#          O>>>>                                                        ",
"                                        $>>>=                          &>>>>X     .:>>>;            @>>>>$                       O>>>>>>>>>>>>>>>*          O>>>>                                                        ",
"                                        $>>>=                          X>>>>&     @>>>>@             ;>>>:.                      $>>>>>>>>>>>>>>>:          O>>>>                                                        ",
"                                        $>>>=                           &>>>>X    ;>>>;              @>>>>$                      ->>>>>>>>>>>>>>>>O         O>>>>                                                        ",
"                                        $>>>=                           O>>>>&   @>>>>#               ;>>>:.                    .>>>>&$$$$$$$$;>>>$         O>>>>                                                        ",
",                                       $>>>=                            =>>>>.  ;>>>:.               @>>>>$                    +>>>>X        &>>>-         O>>>>                                                        ",
",                                       $>>>=                            O>>>>& #>>>>$                 ;>>>:#                   &>>>-         +>>>>.        O>>>>                                                        ",
",                                       $>>>;$$$$$$$$$$$$$$O              ->>>>:>>>>:.                 @>>>>>=$$$$$$$@          ;>>>%         .>>>>+        O>>>>$$$$$$$$$$$$$$@                                         ",
",                                       $>>>>>>>>>>>>>>>>>>>+             +>>>>>>>>>&                   ;>>>>>>>>>>>>>#        o>>>>+          ->>>&        O>>>>>>>>>>>>>>>>>>>#                                       ,",
",                                       $>>>>>>>>>>>>>>>>>>>*              &>>>>>>>:X                   +>>>>>>>>>>>>>=        O>>>>           $>>>=        O>>>>>>>>>>>>>>>>>>>=                                       ,",
",                                       $>>>>>>>>>>>>>>>>>>>@               *>>>>>:+                     +:>>>>>>>>>>>%        .>>>*           o>>>$        O>>>>>>>>>>>>>>>>>>>%                                       ,",
",,                                      @==================$.                @===%X                       .#=========$.         O*&X            $=%.        o==================%.                                       ,",
",,                                                                                                                                                                                                                     ,,",
",,                                                                                                                                                                                                                     ,,",
",,,                                                                                                                                                                                                                    ,,",
",,,                                                                                                                                                                                                                   ,,,",
",,,,                                                                                                                                                                                                                  ,,,",
",,,,                                                                                                                                                                                                                 ,,,,",
",,,,,                                                                                                                                                                                                                ,,,,",
",,,,,                                                                                                                                                                                                               ,,,,,",
",,,,,,                                                                                                                                                                                                             ,,,,,,",
",,,,,,,                                                                                                                                                                                                            ,,,,,,",
",,,,,,,,                                                                                                                                                                                                          ,,,,,,,",
",,,,,,,,,                                                                                                                                                                                                        ,,,,,,,,",
",,,,,,,,,,                                                                                                                                                                                                      ,,,,,,,,,",
",,,,,,,,,,,                                                                                                                                                                                                    ,,,,,,,,,,",
",,,,,,,,,,,,                                                                                                                                                                                                  ,,,,,,,,,,,",
",,,,,,,,,,,,,                                                                                                                                                                                               ,,,,,,,,,,,,,",
",,,,,,,,,,,,,,,                                                                                                                                                                                            ,,,,,,,,,,,,,,",
",,,,,,,,,,,,,,,,,                                                                                                                                                                                        ,,,,,,,,,,,,,,,,",
",,,,,,,,,,,,,,,,,,,                                                                                                                                                                                    ,,,,,,,,,,,,,,,,,,",
",,,,,,,,,,,,,,,,,,,,,,                                                                                                                                                                              ,,,,,,,,,,,,,,,,,,,,,",
",,,,,,,,,,,,,,,,,,,,,,,,,,                                                                                                                                                                     ,,,,,,,,,,,,,,,,,,,,,,,,,,"
};
