/* XPM */
static xpm_row_t const button_time_hover_[] = {
/* columns rows colors chars-per-pixel */
"192 50 16 1 ",
"  c #1D1D1B",
". c #221D22",
"X c #271E29",
"o c #2C1E30",
"O c #301F36",
"+ c #351F3D",
"@ c #3A2044",
"# c #3F204B",
"$ c #442152",
"% c #492159",
"& c #532267",
"* c #57236D",
"= c #5C2374",
"- c #61247B",
"; c #662482",
": c None",
/* pixels */
":::::::::::::::                                                                                                                                                                  :::::::::::::::",
"::::::::::::                                                                                                                                                                        ::::::::::::",
"::::::::::                                                                                                                                                                            ::::::::::",
"::::::::                                                                                                                                                                                ::::::::",
":::::::                                                                                                                                                                                  :::::::",
"::::::                                                                                                                                                                                    ::::::",
":::::                                                                                                                                                                                      :::::",
"::::                                                                                                                                                                                        ::::",
":::                                                                                                                                                                                          :::",
":::                                                                                                                                                                                          :::",
"::                                                                                                                                                                                            ::",
"::                                                                                                                                                                                            ::",
":                                                     O;;;;;;;;;;;;;;;#      &;;;;;;;;;;;;;-o      @;;;;%     +;;;;%      O;;;;;;;;;;;;;;-o                                                    :",
":                                                     O;;;;;;;;;;;;;;;#     o;;;;;;;;;;;;;;;#      @;;;;;o    =;;;;%      O;;;;;;;;;;;;;;;$                                                    :",
":                                                     O;;;;;;;;;;;;;;;#      &;;;;;;;;;;;;;=X      @;;;;;&   #;;;;;%      O;;;;;;;;;;;;;;-o                                                    :",
"                                                      O;;;   ;;;O  %;;#            =;;O            @;;;;;;@ X-;;;;;%      O;;;                                                                  ",
"                                                      O;;=   ;;;O  %;;#            =;;O            @;;=*;;= %;;;&;;%      O;;;                                                                  ",
"                                                       &;#   ;;;O  o-=X            =;;O            @;;=O;;;&;;;#%;;%      O;;;                                                                  ",
"                                                             ;;;O                  =;;O            @;;= %;;;;;=.%;;%      O;;;                                                                  ",
"                                                             ;;;O                  =;;O            @;;= X;;;;;@ %;;%      O;;;                                                                  ",
"                                                             ;;;O                  =;;O            @;;=  #;;;&  %;;%      O;;;                                                                  ",
"                                                             ;;;O                  =;;O            @;;=  .;;;+  %;;%      O;;;                                                                  ",
"                                                             ;;;O                  =;;O            @;;=   -;;O  %;;%      O;;;                                                                  ",
"                                                             ;;;O                  =;;O            @;;=   #;&   %;;%      O;;;;;;;;*.                                                           ",
"                                                             ;;;O                  =;;O            @;;=         %;;%      O;;;;;;;;;O                                                           ",
"                                                             ;;;O                  =;;O            @;;=         %;;%      O;;;;;;;;*.                                                           ",
"                                                             ;;;O                  =;;O            @;;=         %;;%      O;;;                                                                  ",
"                                                             ;;;O                  =;;O            @;;=         %;;%      O;;;                                                                  ",
"                                                             ;;;O                  =;;O            @;;=         %;;%      O;;;                                                                  ",
"                                                             ;;;O                  =;;O            @;;=         %;;%      O;;;                                                                  ",
"                                                             ;;;O                  =;;O            @;;=         %;;%      O;;;                                                                  ",
"                                                             ;;;O                  =;;O            @;;=         %;;%      O;;;                                                                  ",
"                                                             ;;;O                  =;;O            @;;=         %;;%      O;;;                                                                  ",
"                                                             ;;;O                  =;;O            @;;=         %;;%      O;;;                                                                  ",
"                                                             ;;;O                  =;;O            @;;=         %;;%      O;;;                                                                  ",
":                                                            ;;;O            &;;;;;;;;;;;;;-o      @;;=         %;;%      O;;;;;;;;;;;;;;-o                                                    :",
":                                                            -;;O           o;;;;;;;;;;;;;;;#      +;;=         $;;$      O;;;;;;;;;;;;;;;$                                                    :",
":                                                            #;&             &;;;;;;;;;;;;;-o       &;@         o--o      O;;;;;;;;;;;;;;-o                                                    :",
"::                                                                                                                                                                                            ::",
"::                                                                                                                                                                                            ::",
":::                                                                                                                                                                                          :::",
":::                                                                                                                                                                                          :::",
"::::                                                                                                                                                                                        ::::",
":::::                                                                                                                                                                                      :::::",
"::::::                                                                                                                                                                                    ::::::",
":::::::                                                                                                                                                                                  :::::::",
":::::::::                                                                                                                                                                               ::::::::",
"::::::::::                                                                                                                                                                            ::::::::::",
"::::::::::::                                                                                                                                                                        ::::::::::::",
"::::::::::::::::                                                                                                                                                                ::::::::::::::::"
};
