/* XPM */
static xpm_row_t const ball_2[] = {
/* columns rows colors chars-per-pixel */
"65 63 2 1 ",
"  c #FFFFFF",
". c None",
/* pixels */
"..........................             ..........................",
".......................                    ......................",
"....................                          ...................",
"..................                              .................",
"................                                  ...............",
"..............                                     ..............",
".............                                        ............",
"............                                          ...........",
"...........                                            ..........",
".........                                               .........",
".........                                                ........",
"........                                                  .......",
".......                                                    ......",
"......                                                     ......",
".....                                                       .....",
".....                                                        ....",
"....                                                         ....",
"....                                                          ...",
"...                                                           ...",
"...                                                            ..",
"..                                                             ..",
"..                                                             ..",
"..                                                              .",
".                                                               .",
".                                                               .",
".                                                               .",
".                                                                ",
".                                                                ",
".                                                                ",
".                                                                ",
"                                                                 ",
"                                                                 ",
".                                                                ",
".                                                                ",
".                                                                ",
".                                                                ",
".                                                                ",
".                                                               .",
".                                                               .",
"..                                                              .",
"..                                                             ..",
"..                                                             ..",
"...                                                            ..",
"...                                                           ...",
"....                                                          ...",
"....                                                         ....",
".....                                                        ....",
".....                                                       .....",
"......                                                      .....",
".......                                                    ......",
".......                                                   .......",
"........                                                 ........",
".........                                               .........",
"..........                                             ..........",
"...........                                           ...........",
".............                                        ............",
"..............                                      .............",
"...............                                   ...............",
".................                               .................",
"...................                           ...................",
"......................                      .....................",
".........................               .........................",
"................................................................."
};
