/* XPM */
static xpm_row_t const decrease_2[] = {
/* columns rows colors chars-per-pixel */
"39 65 2 1 ",
"  c #1D70B7",
". c None",
/* pixels */
".......                        ........",
".....   .......................  ......",
"....  ...........................  ....",
"... ..............................  ...",
".. ................................  ..",
".  ................................. ..",
". ..................................  .",
". ................................... .",
"  ................................... .",
" .................................... .",
" .................................... .",
" .................................... .",
" .................................... .",
" ...................  ............... .",
" ..................   ............... .",
" ..................   ............... .",
" .................    ............... .",
" .................    ............... .",
" .................    ............... .",
" .................    ............... .",
" .................    ............... .",
" .................    ............... .",
" .................    ............... .",
" .............  ..    ..    ......... .",
" .............        .    .......... .",
" .............            ........... .",
" ..............          ............ .",
" ...............        ............. .",
" ................      .............. .",
" .................    ............... .",
" ................... ................ .",
" .................................... .",
" .................................... .",
" .................    ............... .",
" .................     .............. .",
" ...............        ............. .",
" ..............          ............ .",
" .............            ........... .",
" ............    .   .     .......... .",
" ............. ...   ..    .......... .",
" .................   ................ .",
" .................   ................ .",
" .................   ................ .",
" .................   ................ .",
" .................   ................ .",
" .................   ................ .",
" .................   ................ .",
" .................   ................ .",
" .................   ................ .",
" .................   ................ .",
" .................................... .",
" .................................... .",
" .................................... .",
" .................................... .",
" .................................... .",
" .................................... .",
"  ................................... .",
". ................................... .",
". .................................. ..",
".. ................................. ..",
"..  ............................... ...",
"...  ............................. ....",
"....  ..........................  .....",
"......                           ......",
".........                    .........."
};
