/* XPM */
static xpm_row_t const decrease_1[] = {
/* columns rows colors chars-per-pixel */
"39 66 2 1 ",
"  c #1D70B7",
". c None",
/* pixels */
".......................................",
".......                         .......",
".....   ........................  .....",
"....  ............................ ....",
"... ............................... ...",
"..  ................................ ..",
".. .................................  .",
".  .................................. .",
". ................................... .",
". ...................................  ",
". .................   ...............  ",
". .................   ...............  ",
". .................   ...............  ",
". .................   ...............  ",
". .................   ...............  ",
". .................   ...............  ",
". .................   ...............  ",
". .................   ...............  ",
". .................   ...............  ",
". .................   ...............  ",
". .................   ..   ..........  ",
". .............   .   .    ..........  ",
". .............       .   ...........  ",
". ..............          ...........  ",
". ..............         ............  ",
". ...............       .............  ",
". ................     ..............  ",
". .................    ..............  ",
". ...................................  ",
". ...................................  ",
". ...................................  ",
". ...................................  ",
". ...................................  ",
". ...................................  ",
". ...................................  ",
". ..................   ..............  ",
". .................     .............  ",
". ................      .............  ",
". ...............        ............  ",
". ..............          ...........  ",
". .............   .        ..........  ",
". .............  ..   .    ..........  ",
". .................   ..   ..........  ",
". .................   ...............  ",
". .................   ...............  ",
". .................   ...............  ",
". .................   ...............  ",
". .................   ...............  ",
". .................   ...............  ",
". .................   ...............  ",
". .................   ...............  ",
". .................   ...............  ",
". .................. ................  ",
". ...................................  ",
". ...................................  ",
". ...................................  ",
". ...................................  ",
". ................................... .",
". ................................... .",
".. .................................  .",
"..  ................................ ..",
"... ...............................  ..",
".... .............................  ...",
".....  .........................  .....",
".......                          ......",
"......................................."
};
