/* XPM */
static xpm_row_t const fire_0[] = {
/* columns rows colors chars-per-pixel */
"55 69 117 2 ",
"   c #E63927",
".  c #E63A27",
"X  c #E73D25",
"o  c #E73E25",
"O  c #E73F25",
"+  c #E73D26",
"@  c #E5332A",
"#  c #E53429",
"$  c #E53529",
"%  c #E63728",
"&  c #E5342A",
"*  c #E84B1F",
"=  c #E84C1F",
"-  c #EA5D17",
";  c #EA541B",
":  c #EA561A",
">  c #E9501D",
",  c #EB5C18",
"<  c #ED6E0F",
"1  c #ED6F0F",
"2  c #EE740D",
"3  c #EE750D",
"4  c #EE760C",
"5  c #EF770C",
"6  c #EF790B",
"7  c #EF7A0A",
"8  c #EF7B0A",
"9  c #EF7C09",
"0  c #EF7D09",
"q  c #EF7E09",
"w  c #EF7C0A",
"e  c #F07E08",
"r  c #F07F08",
"t  c #EC6613",
"y  c #EB6215",
"u  c #EC6215",
"i  c #EC6414",
"p  c #ED6A11",
"a  c #ED6B11",
"s  c #EC6812",
"d  c #ED6912",
"f  c #ED6D10",
"g  c #ED6E10",
"h  c #E74323",
"j  c #E74721",
"k  c #E74422",
"l  c #E74522",
"z  c #E84920",
"x  c #F08007",
"c  c #F08107",
"v  c #F08206",
"b  c #F08306",
"n  c #F08207",
"m  c #F08505",
"M  c #F18505",
"N  c #F18704",
"B  c #F08605",
"V  c #F08705",
"C  c #F18903",
"Z  c #F18B02",
"A  c #F18A03",
"S  c #F18B03",
"D  c #F28F01",
"F  c #F18C02",
"G  c #F18D02",
"H  c #F18E02",
"J  c #F28E02",
"K  c #F08008",
"L  c #F29000",
"P  c #F29100",
"I  c #F29001",
"U  c #F29101",
"Y  c #F29103",
"T  c #F29202",
"R  c #F29303",
"E  c #F39506",
"W  c #F3970A",
"Q  c #F3990C",
"!  c #F4990D",
"~  c #F49B0F",
"^  c #F28B15",
"/  c #F49B10",
"(  c #F49C11",
")  c #F49C12",
"_  c #F49D13",
"`  c #F49E15",
"'  c #F59F16",
"]  c #F59F1C",
"[  c #F5A018",
"{  c #F5A119",
"}  c #F5A11A",
"|  c #F5A21B",
" . c #F5A31C",
".. c #F5A31D",
"X. c #F5A41E",
"o. c #F6A51F",
"O. c #F6A520",
"+. c #F6A622",
"@. c #F6A722",
"#. c #F6A825",
"$. c #F7A926",
"%. c #F7AA27",
"&. c #F7AB29",
"*. c #F7AB2A",
"=. c #F7AC2B",
"-. c #F7AD2C",
";. c #F7AD2D",
":. c #F7AE2E",
">. c #F7AE2F",
",. c #F8AF30",
"<. c #F8AF31",
"1. c #F8AF32",
"2. c #F8B031",
"3. c #F8B032",
"4. c #F8B132",
"5. c #F8B133",
"6. c None",
/* pixels */
"6.6.6.6.6.6.6.6.6.6.6.6.6.6.6.6.6.6.6.6.6.6.6.6.6.6.6.6.6.6.6.6.6.6.6.6.6.6.6.6.6.6.6.6.6.6.6.6.6.6.6.6.6.6.6.",
"6.6.6.6.6.6.6.6.6.6.6.6.6.6.6.6.6.6.6.6.6.6.6.6.6.6.6.6.6.6.6.6.6.@ @ @ @ @ @ @ @ @ @ @ @ 6.6.6.6.6.6.6.6.6.6.",
"6.6.6.6.6.6.6.6.6.6.6.6.6.6.6.6.6.6.6.6.6.6.@ @ @ 6.6.6.6.6.6.6.@ @ @ 6.6.6.6.@ @ @ @ @ @ @ @ 6.6.6.6.6.6.6.6.",
"6.6.6.6.6.6.6.6.6.6.6.6.6.6.6.6.6.6.6.@ @ @ @ @ 6.6.6.6.6.6.6.6.6.6.6.6.6.6.6.6.6.@ @ @ @ @ @ @ @ 6.6.6.6.6.6.",
"6.6.6.6.6.6.6.6.6.6.6.6.6.6.6.6.6.6.@ @ @ @ 6.6.6.6.6.6.6.6.6.6.6.6.6.6.6.6.6.6.6.6.6.@ @ @ @ @ @ @ 6.6.6.6.6.",
"6.6.6.6.6.6.6.6.6.6.6.6.6.6.6.6.6.6.6.6.6.6.6.6.6.6.6.6.6.6.6.6.6.6.6.6.6.6.6.6.6.6.6.6.@ @ @ @ @ @ @ 6.6.6.6.",
"6.6.6.6.6.6.6.6.6.6.6.6.6.6.6.6.6.6.6.6.6.6.6.6.6.6.6.6.6.6.6.6.6.6.6.6.6.6.6.6.6.6.6.6.6.@ @ @ @ @ @ @ 6.6.6.",
"6.6.6.6.6.6.6.6.6.6.6.6.6.6.6.6.6.6.6.6.6.6.6.6.6.6.6.6.6.6.6.6.6.6.6.6.6.6.6.6.6.6.6.6.6.@ @ @ @ @ @ @ @ 6.6.",
"6.6.6.6.6.6.6.6.6.6.6.6.6.6.6.6.6.6.6.6.6.6.6.6.6.6.6.6.6.6.6.6.6.6.6.6.6.6.6.6.6.6.6.6.6.@ @ @ @ @ @ @ @ 6.6.",
"6.6.6.6.6.6.6.6.6.6.6.6.6.6.6.6.6.6.6.6.6.6.6.6.6.6.6.6.6.6.6.6.6.6.6.6.6.6.6.6.6.6.6.6.@ @ @ @ @ @ @ @ @ @ 6.",
"6.6.6.6.6.6.6.6.6.6.6.6.6.6.6.6.6.6.6.6.6.6.6.6.6.6.6.6.6.6.6.6.6.6.6.6.6.6.6.6.6.6.6.6.@ @ @ @ @ @ @ @ @ @ 6.",
"6.6.6.6.6.6.6.6.6.6.6.6.6.6.6.6.6.6.6.6.6.6.6.6.6.6.6.6.6.6.6.6.6.6.6.6.6.6.6.6.6.6.6.@ @ @ @ @ @ @ @ @ @ @ 6.",
"6.6.6.6.6.6.6.6.6.6.6.6.6.6.6.6.6.6.6.6.6.6.6.6.6.6.6.6.6.6.6.6.6.6.6.6.6.6.6.6.6.6.@ @ @ @ @ @ @ @ @ @ @ @ 6.",
"6.6.6.6.6.6.6.6.6.6.6.6.6.6.6.6.6.6.6.6.6.6.6.6.6.6.6.6.6.6.6.6.6.6.6.6.6.6.6.6.6.@ @ @ @ @ @ @ @ @ @ @ @ @ 6.",
"6.6.6.6.6.6.6.6.6.6.6.6.6.6.6.6.6.6.6.6.6.6.6.6.6.6.6.6.6.6.6.6.6.6.6.6.6.6.6.6.@ @ @ @ @ @ @ @ @ @ @ @ @ @ 6.",
"6.6.6.6.6.6.6.6.6.6.6.6.6.6.6.6.6.6.6.6.6.6.6.6.6.6.6.6.6.6.6.6.6.6.6.6.6.6.@ @ @ @ @ @ @ @ @ @ @ @ @ @ @ @ 6.",
"6.6.6.6.6.6.6.6.6.6.6.6.6.6.6.6.6.6.6.6.6.6.6.6.6.6.6.6.6.6.6.6.6.6.6.@ @ @ @ @ @ @ @ @ @ @ @ @ @ @ @ @ @ @ 6.",
"6.6.6.6.6.6.6.6.6.6.6.6.6.6.6.6.6.6.6.6.6.6.6.6.6.6.6.6.@ @ @ @ @ @ @ @ @ @ @ @ @ @ @ @ @ @ @ @ @ @ @ @ @ @ 6.",
"6.6.6.6.6.6.6.6.6.6.6.6.6.6.6.6.6.6.6.6.6.6.6.6.6.@ @ @ @ @ @ @ @ @ @ @ @ @ @ @ @ @ @ @ @ @ @ @ @ @ @ @ @ 6.6.",
"6.6.6.6.6.6.6.6.6.6.6.6.6.6.6.6.6.6.6.6.6.6.6.@ @ @ @ @ @ @ @ @ @ @ @ @ @ @ @ @ @ @ @ @ @ @ @ @ @ @ @ @ @ 6.6.",
"6.6.6.6.6.6.6.6.6.6.6.6.6.6.6.6.6.6.6.6.6.6.@ @ @ @ @ @ @ @ @ @ @ @ @ : 2 e x 3 . @ @ @ @ @ @ @ @ @ @ @ 6.6.6.",
"6.6.6.6.6.6.6.6.6.6.6.6.6.6.6.6.6.6.6.6.6.@ @ @ @ @ @ @   > < n n n G P P P P P D O @ @ @ @ @ @ @ @ @ @ 6.6.6.",
"6.6.6.6.6.6.6.6.6.6.6.6.6.6.6.6.6.6.6.6.@ @ @ @ @ @ O g J P P P P P P P P P P P P f @ @ @ @ @ @ @ @ @ 6.6.6.6.",
"6.6.6.6.6.6.6.6.6.6.6.6.6.6.6.6.6.6.6.6.@ @ @ @ @ > F P P P P P P P P P P P P P P L $ @ @ @ @ @ @ @ 6.6.6.6.6.",
"6.6.6.6.6.6.6.6.6.6.6.6.6.6.6.6.6.6.6.6.@ @ @ @ > P P P P P P P P P P P P P P P P P X @ @ @ @ @ @ 6.6.6.6.6.6.",
"6.6.6.6.6.6.6.6.6.6.6.6.6.6.6.6.6.6.6.@ @ @ @ # Z P P P P P P P P P P P P P P P P P * @ @ @ @ @ 6.6.6.6.6.6.6.",
"6.6.6.6.6.6.6.6.6.6.6.6.6.6.6.6.6.6.6.@ @ @ @ @ P P P P P P P P R -.5.5.O.P P P P P * @ @ @ @ @ @ 6.6.6.6.6.6.",
"6.6.6.6.6.6.6.6.6.6.6.6.6.6.6.6.6.6.6.@ @ @ @ O P P P P P P P E *.5.5.5.5.} P P P P l @ @ @ @ @ @ @ 6.6.6.6.6.",
"6.6.6.6.6.6.6.6.6.6.6.6.6.6.6.6.6.6.6.6.@ @ @ 7 P P P P P P } 5.5.5.5.5.5.*.H P P B @ @ @ @ @ @ @ @ @ 6.6.6.6.",
"6.6.6.6.6.6.6.6.6.6.6.6.6.6.6.6.6.6.6.6.@ @ @ s P P P P W ;.5.5.5.5.5.5.5.*.P P P : @ @ @ @ @ @ @ @ @ @ 6.6.6.",
"6.6.6.6.6.6.6.6.6.6.6.6.6.6.6.6.6.6.6.6.6.@ @ * P P P ! <.5.5.5.5.5.5.5.5.O.P P P P D 8 > @ @ @ @ @ @ @ 6.6.6.",
"6.6.6.6.6.6.6.6.6.6.6.6.6.6.6.6.6.6.6.6.6.@ @ @ v P P O.5.5.5.5.3.( $.+./ P P P P P P P P s @ @ @ @ @ @ 6.6.6.",
"6.6.6.6.6.6.6.6.6.6.6.6.6.6.6.6.6.6.6.6.6.@ @ @ t P P P [ =.=.| R P P P P P P P P P P P P P o @ @ @ @ @ @ 6.6.",
"6.6.6.6.6.6.6.6.6.6.6.6.6.6.6.6.6.6.6.6.6.@ @ @ N P P P P P P P P P P P P P P P P P P P P P y @ @ @ @ @ @ 6.6.",
"6.6.6.6.6.6.6.6.6.6.6.6.6.6.6.6.6.6.6.6.@ @ @ : P P P P P P P P P P P P P P P P P P P P P P y @ @ @ @ @ @ 6.6.",
"6.6.6.6.6.6.6.6.6.6.6.6.6.6.6.6.6.6.6.6.@ @ @ K P P P P P P P R ! R P P P P P P P P P P P P y @ @ @ @ @ 6.6.6.",
"6.6.6.6.6.6.6.6.6.6.6.6.6.6.6.6.@ @ @ @ @ @ + P P P P P P P ` 2.5.5.P P P P P P P P P P P P o @ @ @ @ @ 6.6.6.",
"6.6.6.6.6.6.6.6.6.6.6.6.6.@ @ @ @ @ @ @ @ @ = P P P P P P ! 5.5.5.5.P P P P P P P P P P P s @ @ @ @ @ @ 6.6.6.",
"6.6.6.6.6.6.6.6.6.6.6.@ @ @ @ @ @ @ @ @ O , n P P P P P _ 5.5.5.5.=.P P P P P P P P P P g @ @ @ @ @ @ 6.6.6.6.",
"6.6.6.6.6.6.6.6.6.@ @ @ @ @ @ @ @ O , c P P P P P P P _ 5.5.5.5.5.' P P P P P P P P C > @ @ @ @ @ @ 6.6.6.6.6.",
"6.6.6.6.6.6.6.6.@ @ @ @ @ @ @ > 4 P P P P P P P P P W ,.5.5.5.5.3.R P P P P P P 8 ; @ @ @ @ @ @ @ 6.6.6.6.6.6.",
"6.6.6.6.6.6.6.@ @ @ @ @ @ > V P P P P P P P P P P  .3.5.5.5.5.5.) P P P P P P 9 @ @ @ @ @ @ @ @ 6.6.6.6.6.6.6.",
"6.6.6.6.6.6.@ @ @ @ @   2 P P P P P P P P P P _ 3.5.5.5.5.5.5.@.P P P T R P P 0 $ & @ @ @ 6.6.6.6.6.6.6.6.6.6.",
"6.6.6.6.6.@ @ @ @ @ l Z P P P P P P P P P / &.5.5.5.5.5.5.5.;.P P T #.5.$.P P q @ @ @ @ 6.6.6.6.6.6.6.6.6.6.6.",
"6.6.6.6.@ @ @ @ @ l Z P P P P P P P P _ ;.5.5.5.5.5.5.5.5.3.R P ^ 5.5.5.+.P P i @ @ @ @ 6.6.6.6.6.6.6.6.6.6.6.",
"6.6.6.@ @ @ @ @   B P P P P P P P R *.5.5.5.5.5.5.5.5.5.5.Q P ] 5.5.5.4.R P P % @ @ @ @ 6.6.6.6.6.6.6.6.6.6.6.",
"6.6.6.@ @ @ @ @ g P P P P P P P E ,.5.5.5.5.5.5.5.5.5.5.{ P _ 5.2.5.5.X.P P M @ @ @ @ @ 6.6.6.6.6.6.6.6.6.6.6.",
"6.6.@ @ @ @ @ O P P P P P P P R *.5.5.5.5.5.5.5.5.5.5.#.E +.5.5.5.5.>.P P P : @ @ @ @ @ 6.6.6.6.6.6.6.6.6.6.6.",
"6.6.@ @ @ @ @ s P P P P P P P } 5.5.5.5.5.5.5.5.5.5.5.%.1.5.5.5.5.5.~ P P D @ @ @ @ @ @ 6.6.6.6.6.6.6.6.6.6.6.",
"6.@ @ @ @ @ @ S P P P P P P R ,.5.5.5.5.5.5.5.5.5.5.5.5.5.5.5.5.5.o.P P P a @ @ @ @ @ @ 6.6.6.6.6.6.6.6.6.6.6.",
"6.@ @ @ @ @ j P P P P P P P ' 5.5.5.5.5.5.5.5.5.5.5.5.5.5.5.5.5.:.R P P L   @ @ @ @ @ 6.6.6.6.6.6.6.6.6.6.6.6.",
"6.@ @ @ @ @ d P P P P P P P *.5.5.5.5.5.5.5.5.5.5.5.5.5.5.5.5.5.! P P P 5 @ @ @ @ @ @ 6.6.6.6.6.6.6.6.6.6.6.6.",
"6.@ @ @ @ @ b P P P P P P E 5.5.5.5.5.5.5.5.5.5.5.5.5.5.5.5.5...P P P P O @ @ @ @ @ @ 6.6.6.6.6.6.6.6.6.6.6.6.",
"6.@ @ @ @ @ F P P P P P P ! 5.5.5.5.5.5.5.5.5.5.5.5.5.5.5.5.;.R P P P 5 @ @ @ @ @ @ @ 6.6.6.6.6.6.6.6.6.6.6.6.",
"@ @ @ @ @ @ P P P P P P P } 5.5.5.5.5.5.5.5.5.5.5.5.5.5.5.5.! P P P D   @ @ @ @ @ @ @ 6.6.6.6.6.6.6.6.6.6.6.6.",
"@ @ @ @ @ @ P P P P P P P O.5.5.5.5.5.5.5.5.5.5.5.5.5.5.5.} P P P P - @ @ @ @ @ @ @ 6.6.6.6.6.6.6.6.6.6.6.6.6.",
"6.@ @ @ @ @ Z P P P P P P &.5.5.5.5.5.5.5.5.5.5.5.5.5.5.*.P P P P r @ @ @ @ @ @ @ @ 6.6.6.6.6.6.6.6.6.6.6.6.6.",
"6.@ @ @ @ @ K P P P P P P *.5.5.5.5.5.5.5.5.5.5.5.5.5.*.R P P P 1 @ @ @ @ @ @ @ @ @ 6.6.6.6.6.6.6.6.6.6.6.6.6.",
"6.@ @ @ @ @ p P P P P P P :.5.5.5.5.5.5.5.5.5.5.5.5.$.R P P P g @ @ @ @ @ @ @ @ @ 6.6.6.6.6.6.6.6.6.6.6.6.6.6.",
"6.@ @ @ @ @ l P P P P P P ' 4.5.5.5.5.5.5.5.5.5.$./ P P P S : @ @ @ @ @ @ @ @ @ @ 6.6.6.6.6.6.6.6.6.6.6.6.6.6.",
"6.6.@ @ @ @ @ 0 P P P P P P P W ! } } } } } / E P U Y P r h @ @ @ @ @ @ @ @ @ @ 6.6.6.6.6.6.6.6.6.6.6.6.6.6.6.",
"6.6.@ @ @ @ @   K P P P P P P P P P P P P P P P P P P y @ @ @ @ @ @ @ @ @ @ @ 6.6.6.6.6.6.6.6.6.6.6.6.6.6.6.6.",
"6.6.6.@ @ @ @ @ @ u N P P P P P P P P P P P P P P 6 k @ @ @ @ @ @ @ @ @ @ @ @ 6.6.6.6.6.6.6.6.6.6.6.6.6.6.6.6.",
"6.6.6.6.@ @ @ @ @ @ @ l , u r m A I I P P H w g z @ @ @ @ @ @ @ @ @ @ @ @ @ 6.6.6.6.6.6.6.6.6.6.6.6.6.6.6.6.6.",
"6.6.6.6.6.@ @ @ @ @ @ @ @ @ @ @ @ @ @ @ @ @ @ @ @ @ @ @ @ @ @ @ @ @ @ @ 6.6.6.6.6.6.6.6.6.6.6.6.6.6.6.6.6.6.6.",
"6.6.6.6.6.6.6.@ @ @ @ @ @ @ @ @ @ @ @ @ @ @ @ @ @ @ @ @ @ @ @ @ @ @ @ 6.6.6.6.6.6.6.6.6.6.6.6.6.6.6.6.6.6.6.6.",
"6.6.6.6.6.6.6.6.6.@ @ @ @ @ @ @ @ @ @ @ @ @ @ @ @ @ @ @ @ @ @ @ @ 6.6.6.6.6.6.6.6.6.6.6.6.6.6.6.6.6.6.6.6.6.6.",
"6.6.6.6.6.6.6.6.6.6.6.6.@ @ @ @ @ @ @ @ @ @ @ @ @ @ @ @ @ 6.6.6.6.6.6.6.6.6.6.6.6.6.6.6.6.6.6.6.6.6.6.6.6.6.6.",
"6.6.6.6.6.6.6.6.6.6.6.6.6.6.6.6.6.6.6.6.6.6.6.6.6.6.6.6.6.6.6.6.6.6.6.6.6.6.6.6.6.6.6.6.6.6.6.6.6.6.6.6.6.6.6."
};
