/* XPM */
static xpm_row_t const fire_2[] = {
/* columns rows colors chars-per-pixel */
"45 67 113 2 ",
"   c #E63927",
".  c #E63F25",
"X  c #E73F25",
"o  c #E5332A",
"O  c #E53529",
"+  c #E53629",
"@  c #E63828",
"#  c #E84B1F",
"$  c #E94F1D",
"%  c #E94D1F",
"&  c #EB5E17",
"*  c #E9541B",
"=  c #EA541B",
"-  c #EA561A",
";  c #E9501D",
":  c #E9521C",
">  c #EA5919",
",  c #EA581A",
"<  c #EA5C18",
"1  c #EB5C18",
"2  c #EE770B",
"3  c #EE730D",
"4  c #EE700F",
"5  c #EE740D",
"6  c #EE750D",
"7  c #EE760C",
"8  c #EE770C",
"9  c #EE760D",
"0  c #EF7A0A",
"q  c #EF7B0A",
"w  c #EF7D09",
"e  c #F07F08",
"r  c #EC6513",
"t  c #EB6115",
"y  c #EB6315",
"u  c #EC6115",
"i  c #EC6215",
"p  c #EB6514",
"a  c #EC6414",
"s  c #ED6A11",
"d  c #ED6C11",
"f  c #ED6E10",
"g  c #E74522",
"h  c #E74024",
"j  c #E84920",
"k  c #E84A20",
"l  c #F08107",
"z  c #F08306",
"x  c #F18704",
"c  c #F18B02",
"v  c #F18B03",
"b  c #F18D01",
"n  c #F28E01",
"m  c #F18C02",
"M  c #F18D02",
"N  c #F28D02",
"B  c #F18804",
"V  c #F08008",
"C  c #F29100",
"Z  c #F29001",
"A  c #F29201",
"S  c #F29202",
"D  c #F29203",
"F  c #F29303",
"G  c #F39304",
"H  c #F29404",
"J  c #F39404",
"K  c #F39405",
"L  c #F39406",
"P  c #F39506",
"I  c #F39507",
"U  c #F29209",
"Y  c #F39409",
"T  c #F39608",
"R  c #F39708",
"E  c #F39709",
"W  c #F3970A",
"Q  c #F3980B",
"!  c #F3990D",
"~  c #F4990D",
"^  c #F49B0F",
"/  c #F49B10",
"(  c #F49A13",
")  c #F49C12",
"_  c #F49D13",
"`  c #F59E14",
"'  c #F49F16",
"]  c #F59F16",
"[  c #F49D19",
"{  c #F5A018",
"}  c #F5A119",
"|  c #F5A11A",
" . c #F5A21B",
".. c #F5A31D",
"X. c #F6A520",
"o. c #F6A621",
"O. c #F6A622",
"+. c #F6A723",
"@. c #F7A724",
"#. c #F6A824",
"$. c #F6A926",
"%. c #F7A926",
"&. c #F7AA29",
"*. c #F7AB29",
"=. c #F7AB2A",
"-. c #F7AB2B",
";. c #F7AD2C",
":. c #F7AD2D",
">. c #F7AE2D",
",. c #F8AF30",
"<. c #F8B032",
"1. c #F8B133",
"2. c None",
/* pixels */
"2.2.2.2.2.2.2.2.2.2.2.2.2.2.2.2.2.2.2.2.2.o o o 2.2.2.2.2.2.2.2.2.2.2.2.2.2.2.2.2.2.2.2.2.",
"2.2.2.2.2.2.2.2.2.2.2.2.2.2.2.2.2.2.2.o o o o o 2.2.2.2.2.2.o 2.2.2.2.2.2.2.2.2.2.2.2.2.2.",
"2.2.2.2.2.2.2.2.2.2.2.2.2.2.2.2.2.o o o o o o o 2.2.2.2.2.2.o o 2.2.2.2.2.2.2.2.2.2.2.2.2.",
"2.2.2.2.2.2.2.2.2.2.2.2.2.2.2.o o o 2.2.o o o o 2.2.2.2.2.2.o o 2.2.2.2.2.2.2.2.2.2.2.2.2.",
"2.2.2.2.2.2.2.2.2.2.2.2.2.2.2.2.2.2.2.2.2.2.2.2.2.2.2.2.2.2.o o 2.2.2.2.2.2.2.2.2.2.2.2.2.",
"2.2.2.2.2.2.2.2.2.2.2.2.2.2.2.2.2.2.2.2.2.2.2.2.2.2.2.2.2.o o o 2.2.2.2.2.2.2.2.2.2.2.2.2.",
"2.2.2.2.2.2.2.2.2.2.2.2.2.2.2.2.2.2.2.2.2.2.2.2.2.2.2.2.2.o o o o 2.2.2.2.2.2.2.2.2.2.2.2.",
"2.2.2.2.2.2.2.2.2.2.2.2.2.2.2.2.2.2.2.o o o o 2.2.2.2.2.2.o o o o 2.2.2.2.2.2.2.2.2.2.2.2.",
"2.2.2.2.2.2.2.2.2.2.2.2.2.2.2.2.2.2.2.2.o o o o 2.2.2.2.2.o o o o 2.2.2.2.2.2.2.2.2.2.2.2.",
"2.2.2.2.2.2.2.2.2.2.2.2.2.2.2.2.2.2.2.2.2.o o o o 2.2.2.o o o o o o 2.2.2.2.2.2.2.2.2.2.2.",
"2.2.2.2.2.2.2.2.2.2.2.2.2.2.2.2.2.2.2.2.2.2.o o o o 2.2.o o o o o o 2.2.2.2.2.2.2.2.2.2.2.",
"2.2.2.2.2.2.2.2.2.2.2.2.2.2.2.2.2.2.2.o o o o o o o 2.o o o o o o o 2.2.2.2.2.2.2.2.2.2.2.",
"2.2.2.2.2.2.2.2.2.2.2.2.2.2.2.2.2.o o o o o o o o o o o o o o o o o o 2.2.2.2.2.2.2.2.2.2.",
"2.2.2.2.2.2.2.2.2.2.2.2.2.2.2.2.o o o o o o o o o o o o o o o o o o o 2.2.2.2.2.2.2.2.2.2.",
"2.2.2.2.2.2.2.2.2.2.2.2.2.2.2.o o o o o o o o o o o o o o o o o o o o o 2.2.2.2.2.2.2.2.2.",
"2.2.2.2.2.2.2.2.2.2.2.2.2.2.o o o o o o o o o o o o o o o o o o o o o o 2.2.2.2.2.2.2.2.2.",
"2.2.2.2.2.2.2.2.2.2.2.2.2.o o o o o o o o o # 3 n C C C 0 1   o o o o o o 2.2.2.2.2.2.2.2.",
"2.2.2.2.2.2.2.2.2.2.2.2.2.o o o o o o o o 6 C C C C C C C C m - o o o o o o 2.2.2.2.2.2.2.",
"2.2.2.2.2.2.2.2.2.2.2.2.o o o o o o o o 5 C C D ] +.X.( C C C C 8 o o o o o o 2.2.2.2.2.2.",
"2.2.2.2.2.2.2.2.2.2.2.2.o o o o o o o ; C C F >.1.1.1.1.*.Y C C C 4 o o o o o o 2.2.2.2.2.",
"2.2.2.2.2.2.2.2.2.2.2.o o o o o o g 5 C C C *.1.1.1.1.1.1.,.F C C C : o o o o o o 2.2.2.2.",
"2.2.2.2.2.2.2.2.2.2.2.o o o o o - C C C C F <.1.1.1.1.1.1.1.$.C C C C O o o o o o o 2.2.2.",
"2.2.2.2.2.2.2.2.2.2.2.o o o o # C C C C C U ,.1.1.1.1.1.1.1.1.! C C C d o o o o o o 2.2.2.",
"2.2.2.2.2.2.2.2.2.2.o o o o o q C C C C C C A $.1.1.1.1.1.1.1.#.C C C C k o o o o o o 2.2.",
"2.2.2.2.2.2.2.2.2.2.o o o o - C C C C C C C C C &.1.1.1.1.1.1.1.C C C C 5 o o o o o o o 2.",
"2.2.2.2.2.2.2.2.2.2.o o o ; C C C G $.1.E C C C S 1.1.1.1.1.1.1.I C C C C @ o o o o o o 2.",
"2.2.2.2.2.2.2.2.2.2.o o o 0 C C [ 1.1.1.1.Q C C C O.1.1.1.1.1.1.P C C C C ; o o o o o o 2.",
"2.2.2.2.2.2.2.2.2.2.o o o 0 C C  .1.1.1.1.1.C C C J ,.1.1.1.1.1.D C C C C p o o o o o o o ",
"2.2.2.2.2.2.2.2.2.2.2.o o f C C A *.1.1.1.,.C C C C W ,.1.1.1.=.C C C C C q o o o o o o o ",
"2.2.2.2.2.2.2.2.2.2.2.o o g C C C S _ ..$.E C C C C C P ~ ~ ~ C C C C C C 9 o o o o o o o ",
"2.2.2.2.2.2.2.2.2.2.2.o o o - C C C C C C C C C C C C C C C C C C C C C C r o o o o o o 2.",
"2.2.2.2.2.2.2.2.2.2.2.2.o o o $ n C C C C C C C C C C C C C C C C C C C C . o o o o o o 2.",
"2.2.2.2.2.2.2.2.2.2.2.2.o o o o   B C C C C C C C C W +.+.F C C C C C C C o o o o o o o 2.",
"2.2.2.2.2.2.2.2.2.2.2.o o o o o f C C C C C C C C C ,.1.1._ C C C C C C V o o o o o o 2.2.",
"2.2.2.2.2.2.2.2.2.o o o o o o y C C C C C C C C C _ 1.1.1. .C C C C C C 1 o o o o o o 2.2.",
"2.2.2.2.2.2.2.2.o o o o o o 7 C C C C C C C C P | 1.1.1.1.{ C C C C C m   o o o o o 2.2.2.",
"2.2.2.2.2.2.2.o o o o o X w C C C C C F _ +.,.1.1.1.1.1.1.I C C C C V g o o o o o 2.2.2.2.",
"2.2.2.2.2.2.o o o o o g c C C C C C ] ,.1.1.1.1.1.1.1.1.*.C C C N & o o o o o o 2.2.2.2.2.",
"2.2.2.2.2.o o o o o g c C C C C F %.1.1.1.1.1.1.1.1.1.1.} C C C 5   o o o o o 2.2.2.2.2.2.",
"2.2.2.2.o o o o o g c C C C C C -.1.1.1.1.1.1.1.1.1.1.1.! C C C C c g o o 2.2.2.2.2.2.2.2.",
"2.2.2.o o o o o   V C C C C C o.1.1.1.1.1.1.1.1.1.1.1.1.I C C C C C m X o o 2.2.2.2.2.2.2.",
"2.2.2.o o o o o s C C C C C ` 1.1.1.1.1.1.1.1.1.1.1.1.1.L C C C C C C z o o o 2.2.2.2.2.2.",
"2.2.o o o o o i C C C C C C ;.1.1.1.1.1.1.1.1.1.1.1.1.1.) C C C C C C C t o o o 2.2.2.2.2.",
"2.2.o o o o j C C C C C C H 1.1.1.1.1.1.1.1.1.1.1.1.1.1.+.C C C C C C C M X o o o 2.2.2.2.",
"2.o o o o o 2 C C C C C C / 1.1.1.1.1.1.1.1.1.1.1.1.1.1.,.C C C C C C C C f o o o o 2.2.2.",
"2.o o o o   Z C C C C C C } 1.1.1.1.1.1.1.1.1.1.1.1.1.1.1.W C C C C C C C C   o o o o 2.2.",
"2.o o o o - C C C C C C C } 1.1.1.1.1.1.1.1.1.1.1.1.1.1.1._ C C C C C C C C ; o o o o 2.2.",
"o o o o o 5 C C C C C C C +.1.1.1.1.1.1.1.1.1.1.1.1.1.1.1.| C C C C C C C C i o o o o 2.2.",
"o o o o o 0 C C C C C C C } 1.1.1.1.1.1.1.1.1.1.1.1.1.1.1.| C C C C C C C C i o o o o 2.2.",
"o o o o o C C C C C C C C ' 1.1.1.1.1.1.1.1.1.1.1.1.1.1.1.%.C C C C C C C C 1 o o o o o 2.",
"o o o o o c C C C C C C C ^ 1.1.1.1.1.1.1.1.1.1.1.1.1.1.1.@.C C C C C 7 i ; o o o o o o 2.",
"o o o o o 0 C C C C C C C C :.,.1.1.1.1.1.1.1.1.1.1.1.1.1.) C C C C C * o o o o o o o 2.2.",
"o o o o o f C C C C C C C C R / ~ +.1.1.1.1.1.1.1.1.1.1.1.P C C C C v + o o o o o o o 2.2.",
"o o o o o ; C C C C C C C C C K C C | ,.1.1.1.1.1.1.1.1.$.C C C C C < o o o o o o o 2.2.2.",
"o o o o o o m C C C C C C C C C C C C E *.1.1.1.1.1.1.1.T C C C C e o o o o o o o o 2.2.2.",
"o o o o o o > C C C C C A C C C C C C C C _ +.,.1.$. .T C C C C C   o o o o o o o 2.2.2.2.",
"2.o o o o o o 0 C C C C C C Z C C C C C C C C C C C C C C C C C h o o o o o o o 2.2.2.2.2.",
"2.o o o o o o o q C C C C C C C C C C C C C C C C C C C C C C * o o o o o o o o 2.2.2.2.2.",
"2.2.o o o o o o o = l C C C x u r C C C C C C C C C C C C C , o o o o o o o o 2.2.2.2.2.2.",
"2.2.2.o o o o o o o o o o o o o o a C C C C C C C C C C C y o o o o o o o o 2.2.2.2.2.2.2.",
"2.2.2.o o o o o o o o o o o o o o o ; b C C C C C C C c % o o o o o o o o 2.2.2.2.2.2.2.2.",
"2.2.2.2.o o o o o o o o o o o o o o o X f C C C C V 1 + o o o o o o o o 2.2.2.2.2.2.2.2.2.",
"2.2.2.2.2.2.o o o o o o o o o o o o o o o o g # o o o o o o o o o o 2.2.2.2.2.2.2.2.2.2.2.",
"2.2.2.2.2.2.2.2.o o o o o o o o o o o o o o o o o o o o o o o o o 2.2.2.2.2.2.2.2.2.2.2.2.",
"2.2.2.2.2.2.2.2.2.2.2.2.2.2.2.2.2.o o o o o o o o o o o o o o 2.2.2.2.2.2.2.2.2.2.2.2.2.2.",
"2.2.2.2.2.2.2.2.2.2.2.2.2.2.2.2.2.2.o o o o o o o o o o 2.2.2.2.2.2.2.2.2.2.2.2.2.2.2.2.2.",
"2.2.2.2.2.2.2.2.2.2.2.2.2.2.2.2.2.2.2.o o o o o o 2.2.2.2.2.2.2.2.2.2.2.2.2.2.2.2.2.2.2.2."
};
