/* XPM */
static xpm_row_t const fire_3[] = {
/* columns rows colors chars-per-pixel */
"49 68 101 2 ",
"   c #E63927",
".  c #E73D25",
"X  c #E73E25",
"o  c #E73F25",
"O  c #E5332A",
"+  c #E63628",
"@  c #E63828",
"#  c #E84B1F",
"$  c #E94F1D",
"%  c #EA561A",
"&  c #E9501D",
"*  c #E9541C",
"=  c #EB5A18",
"-  c #EA5A19",
";  c #EB5C18",
":  c #EF770B",
">  c #ED700F",
",  c #EE740D",
"<  c #EE770C",
"1  c #EF780B",
"2  c #EF790B",
"3  c #EF7A0A",
"4  c #EF7B0A",
"5  c #EF7D09",
"6  c #EF7C0A",
"7  c #F07E09",
"8  c #EB6115",
"9  c #EB6215",
"0  c #EC6215",
"q  c #EC6812",
"w  c #EC6912",
"e  c #ED6E10",
"r  c #E74123",
"t  c #E74621",
"y  c #E74721",
"u  c #E74422",
"i  c #E74522",
"p  c #E64024",
"a  c #F08306",
"s  c #F08207",
"d  c #F08605",
"f  c #F18605",
"g  c #F08406",
"h  c #F18B02",
"j  c #F28F01",
"k  c #F18D02",
"l  c #F28E02",
"z  c #F08804",
"x  c #F08008",
"c  c #F29000",
"v  c #F29100",
"b  c #F29201",
"n  c #F29202",
"m  c #F29303",
"M  c #F39405",
"N  c #F39506",
"B  c #F39309",
"V  c #F39608",
"C  c #F39709",
"Z  c #F3970A",
"A  c #F3980C",
"S  c #F3990D",
"D  c #F4990D",
"F  c #F49A0E",
"G  c #F49B10",
"H  c #F49D13",
"J  c #F49C14",
"K  c #F59E15",
"L  c #F49F16",
"P  c #F59F16",
"I  c #F49F17",
"U  c #F5A119",
"Y  c #F5A11A",
"T  c #F5A21C",
"R  c #F5A31D",
"E  c #F6A31D",
"W  c #F6A51F",
"Q  c #F6A520",
"!  c #F6A621",
"~  c #F6A622",
"^  c #F6A723",
"/  c #F6A724",
"(  c #F7A926",
")  c #F7A927",
"_  c #F7AB28",
"`  c #F7AB29",
"'  c #F7AB2A",
"]  c #F7AC2B",
"[  c #F7AC2C",
"{  c #F7AD2C",
"}  c #F7AD2D",
"|  c #F7AE2D",
" . c #F7AE2E",
".. c #F7AF2F",
"X. c #F8AE2F",
"o. c #F8AF30",
"O. c #F8B031",
"+. c #F8B032",
"@. c #F8B132",
"#. c #F8B133",
"$. c None",
/* pixels */
"$.$.$.$.$.$.$.$.$.$.$.$.$.$.$.$.$.$.$.$.$.$.$.$.$.$.$.$.$.$.$.$.$.$.$.O $.$.$.$.$.$.$.$.$.$.$.$.$.",
"$.$.$.$.$.$.$.$.$.$.$.$.$.$.$.$.$.$.$.$.$.$.$.$.$.$.$.$.$.$.$.$.$.O O O O $.$.$.$.$.$.$.$.$.$.$.$.",
"$.$.$.$.$.$.$.$.$.$.$.$.$.$.$.$.$.$.$.$.$.$.$.$.$.$.$.$.$.$.$.$.O O O $.$.$.$.$.$.$.$.$.$.$.$.$.$.",
"$.$.$.$.$.$.$.$.$.$.$.$.$.$.$.$.$.$.$.$.$.$.$.$.$.$.$.$.$.$.O O O O $.$.$.$.$.$.$.$.$.$.$.$.$.$.$.",
"$.$.$.$.$.$.$.$.$.$.$.$.$.$.$.$.$.$.$.$.$.$.$.$.$.$.$.$.$.O O O $.$.$.O O O O O O O O $.$.$.$.$.$.",
"$.$.$.$.$.$.$.$.$.$.$.$.$.$.$.$.$.$.$.$.$.$.$.$.$.$.$.$.O O O $.$.O O O O O O O O O O O $.$.$.$.$.",
"$.$.$.$.$.$.$.$.$.$.$.$.$.$.$.$.$.$.$.$.$.$.$.$.$.$.$.$.$.$.$.$.O O O O O O O O O O O O O $.$.$.$.",
"$.$.$.$.$.$.$.$.$.$.$.$.$.$.$.$.$.$.$.$.$.$.$.$.$.$.O $.$.$.$.$.O O O $.$.$.O O O O O O O $.$.$.$.",
"$.$.$.$.$.$.$.$.$.$.$.$.$.$.$.$.$.$.$.$.$.O O O O O O O $.$.$.$.$.$.$.$.$.$.O O O O O O O $.$.$.$.",
"$.$.$.$.$.$.$.$.$.$.$.$.$.$.$.$.$.$.$.$.O O O O O O O $.$.$.$.$.$.$.$.$.$.$.O O O O O O O $.$.$.$.",
"$.$.$.$.$.$.$.$.$.$.$.$.$.$.$.$.$.$.$.$.$.$.$.$.$.$.$.$.$.$.$.$.$.$.$.$.$.O O O O O O O $.$.$.$.$.",
"$.$.$.$.$.$.$.$.$.$.$.$.$.$.$.$.$.$.$.$.$.$.$.$.$.$.$.$.$.$.$.$.$.$.$.$.O O O O O O O O $.$.$.$.$.",
"$.$.$.$.$.$.$.$.$.$.$.$.$.$.$.$.$.$.$.$.$.$.$.$.$.$.$.$.$.$.$.$.O O O O O O O O O O O O $.$.$.$.$.",
"$.$.$.$.$.$.$.$.$.$.$.$.$.$.$.$.$.$.$.$.$.$.$.$.$.$.$.O O O O O O O O O O O O O O O O $.$.$.$.$.$.",
"$.$.$.$.$.$.$.$.$.$.$.$.$.$.$.$.$.$.$.$.$.$.$.$.O O O O O O O O O O O O O O O O O O $.$.$.$.$.$.$.",
"$.$.$.$.$.$.$.$.$.$.$.$.$.$.$.$.$.$.$.$.$.$.O O O O O O O O O O O O O O O O O O O O $.$.$.$.$.$.$.",
"$.$.$.$.$.$.$.$.$.$.$.$.$.$.$.$.$.$.$.$.$.O O O O O O O O O O O O O O O O O O O O O O O $.$.$.$.$.",
"$.$.$.$.$.$.$.$.$.$.$.$.$.$.$.$.$.$.$.$.O O O O O O O O O O O O O O O O O O O O O O O O O $.$.$.$.",
"$.$.$.$.$.$.$.$.$.$.$.$.$.$.$.$.$.$.$.O O O O O O O & , h v v v j v k r O O O O O O O O O O $.$.$.",
"$.$.$.$.$.$.$.$.$.$.$.$.$.$.$.$.$.$.O O O O O O % d v v v v v v v v v j i O O O O O O O O O $.$.$.",
"$.$.$.$.$.$.$.$.$.$.$.$.$.$.$.$.$.O O O O O   3 v v v v h v v v v v v v j   O O O O O O O O O $.$.",
"$.$.$.$.$.$.$.$.$.$.$.$.$.$.$.$.$.O O O O   a v v v v v N P N v v v v v v : O O O O O O O O O $.$.",
"$.$.$.$.$.$.$.$.$.$.$.$.$.$.$.$.O O O O O 1 v v v v v K #.#.+.v v v v v v v = O O O O O O O O O $.",
"$.$.$.$.$.$.$.$.$.$.$.$.$.$.$.$.O O O O - v v v v j T #.#.#.o.Y v v v v v v v u O O O O O O O O $.",
"$.$.$.$.$.$.$.$.$.$.$.$.$.$.$.$.O O O i c v v v v H #.#.#.#.#.#.U v v v v v v k u O O O O O O O $.",
"$.$.$.$.$.$.$.$.$.$.$.$.$.$.$.$.O O O . v v v v v ( #.#.#.#.#.#.! v v v v v v v 2 O O O O O O O $.",
"$.$.$.$.$.$.$.$.$.$.$.$.$.$.$.$.O O O * v v v v Z #.#.#.#.#.o.( +.#.H v v v v v 6 O O O O O O O $.",
"$.$.$.$.$.$.$.$.$.$.$.$.$.$.$.$.O O O t v v v v H #.#.#.#.#.#.#.#...v v v v v v 7 O O O O O O O $.",
"$.$.$.$.$.$.$.$.$.$.$.$.$.$.$.O O O O p v v v v [ #.#.#.#.#.#.#.o.Y v v v v v v 2 O O O O O O O $.",
"$.$.$.$.$.$.$.$.$.$.$.$.$.$.$.$.O O O O h v v v #.#.#.#.#.#.} Y m v v v v v v v 2 O O O O O O O $.",
"$.$.$.$.$.$.$.$.$.$.$.$.$.$.$.$.O O O O > v v v P ! _ ^ Y D v v v v v v v v v v e O O O O O O O $.",
"$.$.$.$.$.$.$.$.$.$.$.$.$.$.$.$.O O O O X v v v v v v v v v v v v v v v v v v v 9 O O O O O O $.$.",
"$.$.$.$.$.$.$.$.$.$.$.$.$.$.$.$.O O O O @ v v v v v v v v v v v v v v v v v v v & O O O O O O $.$.",
"$.$.$.$.$.$.$.$.$.$.$.$.$.O O O O O O O O x v v v v v v v v v v v v v v v v v h + O O O O O $.$.$.",
"$.$.$.$.$.$.$.$.$.$.O O O O O O O O O O O 3 v v v v m F v v v v v v v v v v v & O O O O O $.$.$.$.",
"$.$.$.$.$.$.$.$.O O O O O O O O O O O O o f v v v v D o.m v v v v v v v v v q O O O O O O $.$.$.$.",
"$.$.$.$.$.$.$.O O O O O O O O O O O   q v v v v v v v ( R v v v v v v v v e O O O O O O $.$.$.$.$.",
"$.$.$.$.$.$.O O O O O O O O O O O i d v v v v m P Y Z D #.C v v v v v v e O O O O O O $.$.$.$.$.$.",
"$.$.$.$.$.O O O O O O O O O O O = l v v v v A  .#.#.Q v ' ^ v v v v v v i O O O O O O $.$.$.$.$.$.",
"$.$.$.$.O O O O O O O O O O O , v v v v v P O.#.#.#.#.H H #.N v v v v v 2 O O O O O $.$.$.$.$.$.$.",
"$.$.$.O O O O O O O O O O   < v v v v V { #.#.#.#.#.#.#.W #.R v v v v v z O O O O O $.$.$.$.$.$.$.",
"$.$.O O O O O O O O O O   s v v v v K #.#.#.#.#.#.#.#.#.#.+.} v v v v v v o O O O O O $.$.$.$.$.$.",
"$.$.O O O O O O O O O   x v v v v J #.#.#.#.#.#.#.#.#.#.#.#.#.n v v v v v ; O O O O O O $.$.$.$.$.",
"$.O O O O O O O O O O 3 v v v v B @.#.#.#.#.#.#.#.#.#.#.#.#.#.M v v v v v w O O O O O O $.$.$.$.$.",
"$.O O O O O O O O O % v v v v v | #.#.#.#.#.#.#.#.#.#.#.#.#.#.Z v v v v v e O O O O O O $.$.$.$.$.",
"$.O O O O O O O O O d v v v v I #.#.#.#.#.#.#.#.#.#.#.#.#.#.#.U v v v v v e O O O O O O $.$.$.$.$.",
"$.O O O O O O O O % v v v v v  .#.#.#.#.#.#.#.#.#.#.#.#.#.#.#.U v v v v v * O O O O O O O $.$.$.$.",
"$.O O O O O O O O , v v v v C #.#.#.#.#.#.#.#.#.#.#.#.#.#.#.#.L v v v v v y O O O O O O O $.$.$.$.",
"$.O O O O O O O O h v v v v E #.#.#.#.#.#.#.#.#.#.#.#.#.#.#.#.S v v v v c O O O O O O O O $.$.$.$.",
"$.O O O O O O O O v v v v v ` #.#.#.#.#.#.#.#.#.#.#.#.#.#.#.o.b v v v v 4 O O O O O O O $.$.$.$.$.",
"$.O O O O O O O O v v v v v } #.#.#.#.#.#.#.#.#.#.#.#.#.#.#.G v v v v v $ O O O O O O O $.$.$.$.$.",
"$.O O O O O O O O v v v v v } #.#.#.#.#.#.#.#.#.#.#.#.#.#.~ v v v v v 5 O O O O O O O O $.$.$.$.$.",
"$.$.O O O O O O O v v v v v ] #.#.#.#.#.#.#.#.#.#.#.#.#./ v v v v v v i O O O O O O O O $.$.$.$.$.",
"$.$.O O O O O O O x v v v v ) #.#.#.#.#.#.#.#.#.#.#.o.H v v v v v v 0 O O O O O O O O $.$.$.$.$.$.",
"$.$.$.O O O O O O ; v v v v ^ #.#.#.#.#.#.#.#.#.o.Q N v v v v v v e O O O O O O O O O $.$.$.$.$.$.",
"$.$.$.O O O O O O @ h v v v m P ^ X.@. .` ! Y D v v v v v v v v e O O O O O O O O O $.$.$.$.$.$.$.",
"$.$.$.$.O O O O O O % v v v v v v v v v v v v v v v v v v v v ; O O O O O O O O O O $.$.$.$.$.$.$.",
"$.$.$.$.O O O O O O O % v v v k j v v v v v v v v v v v v 4 o O O O O O O O O O O $.$.$.$.$.$.$.$.",
"$.$.$.$.$.O O O O O O O # , v v v v v v v v v v v v v , # O O O O O O O O O O O O $.$.$.$.$.$.$.$.",
"$.$.$.$.$.$.O O O O O O O O O 8 4 g v v v v v 3 e %   O O O O O O O O O O O O O $.$.$.$.$.$.$.$.$.",
"$.$.$.$.$.$.$.O O O O O O O O O O O O O O O O O O O O O O O O O O O O O O O O $.$.$.$.$.$.$.$.$.$.",
"$.$.$.$.$.$.$.$.O O O O O O O O O O O O O O O O O O O O O O O O O O O O O O $.$.$.$.$.$.$.$.$.$.$.",
"$.$.$.$.$.$.$.$.$.O O O O O O O O O O O O O O O O O O O O O O O O O O O O $.$.$.$.$.$.$.$.$.$.$.$.",
"$.$.$.$.$.$.$.$.$.$.O O O O O O O O O O O O O O O O O O O O O O O O O O $.$.$.$.$.$.$.$.$.$.$.$.$.",
"$.$.$.$.$.$.$.$.$.$.$.O O O O O O O O O O O O O O O O O O O O O O O $.$.$.$.$.$.$.$.$.$.$.$.$.$.$.",
"$.$.$.$.$.$.$.$.$.$.$.$.$.O O O O O O O O O O O O O O O O O O O O $.$.$.$.$.$.$.$.$.$.$.$.$.$.$.$.",
"$.$.$.$.$.$.$.$.$.$.$.$.$.$.$.O O O O O O O O O O O O O O O $.$.$.$.$.$.$.$.$.$.$.$.$.$.$.$.$.$.$.",
"$.$.$.$.$.$.$.$.$.$.$.$.$.$.$.$.$.$.O O O O O O O O O O $.$.$.$.$.$.$.$.$.$.$.$.$.$.$.$.$.$.$.$.$."
};
