/* XPM */
static xpm_row_t const small_player[] = {
/* columns rows colors chars-per-pixel */
"53 164 2 1 ",
"  c #FFFFFF",
". c None",
/* pixels */
".....................................................",
".......                                       .......",
".....                                           .....",
"....                                             ....",
"...                                               ...",
"..                                                 ..",
"..                                                 ..",
".                                                   .",
".                                                   .",
".                                                   .",
".                                                   .",
".                                                   .",
".                                                   .",
".                                                   .",
".                                                   .",
".                                                   .",
".                                                   .",
".                                                   .",
".                                                   .",
".                                                   .",
".                                                   .",
".                                                   .",
".                                                   .",
".                                                   .",
".                                                   .",
".                                                   .",
".                                                   .",
".                                                   .",
".                                                   .",
".                                                   .",
".                                                   .",
".                                                   .",
".                                                   .",
".                                                   .",
".                                                   .",
".                                                   .",
".                                                   .",
".                                                   .",
".                                                   .",
".                                                   .",
".                                                   .",
".                                                   .",
".                                                   .",
".                                                   .",
".                                                   .",
".                                                   .",
".                                                   .",
".                                                   .",
".                                                   .",
".                                                   .",
".                                                   .",
".                                                   .",
".                                                   .",
".                                                   .",
".                                                   .",
".                                                   .",
".                                                   .",
".                                                   .",
".                                                   .",
".                                                   .",
".                                                   .",
".                                                   .",
".                                                   .",
".                                                   .",
".                                                   .",
".                                                   .",
".                                                   .",
".                                                   .",
".                                                   .",
".                                                   .",
".                                                   .",
".                                                   .",
".                                                   .",
".                                                   .",
".                                                   .",
".                                                   .",
".                                                   .",
".                                                   .",
".                                                   .",
".                                                   .",
".                                                   .",
".                                                   .",
".                                                   .",
".                                                   .",
".                                                   .",
".                                                   .",
".                                                   .",
".                                                   .",
".                                                   .",
".                                                   .",
".                                                   .",
".                                                   .",
".                                                   .",
".                                                   .",
".                                                   .",
".                                                   .",
".                                                   .",
".                                                   .",
".                                                   .",
".                                                   .",
".                                                   .",
".                                                   .",
".                                                   .",
".                                                   .",
".                                                   .",
".                                                   .",
".                                                   .",
".                                                   .",
".                                                   .",
".                                                   .",
".                                                   .",
".                                                   .",
".                                                   .",
".                                                   .",
".                                                   .",
".                                                   .",
".                                                   .",
".                                                   .",
".                                                   .",
".                                                   .",
".                                                   .",
".                                                   .",
".                                                   .",
".                                                   .",
".                                                   .",
".                                                   .",
".                                                   .",
".                                                   .",
".                                                   .",
".                                                   .",
".                                                   .",
".                                                   .",
".                                                   .",
".                                                   .",
".                                                   .",
".                                                   .",
".                                                   .",
".                                                   .",
".                                                   .",
".                                                   .",
".                                                   .",
".                                                   .",
".                                                   .",
".                                                   .",
".                                                   .",
".                                                   .",
".                                                   .",
".                                                   .",
".                                                   .",
".                                                   .",
".                                                   .",
".                                                   .",
".                                                   .",
".                                                   .",
".                                                   .",
".                                                   .",
".                                                   .",
"..                                                 ..",
"..                                                 ..",
"...                                               ...",
"....                                             ....",
".....                                           .....",
".......                                       .......",
"....................................................."
};
