/* XPM */
static xpm_row_t const med_player[] = {
/* columns rows colors chars-per-pixel */
"53 233 2 1 ",
"  c #FFFFFF",
". c None",
/* pixels */
".........                                   .........",
"......                                         ......",
".....                                           .....",
"....                                              ...",
"...                                               ...",
"..                                                 ..",
".                                                   .",
".                                                   .",
".                                                   .",
".                                                   .",
".                                                   .",
".                                                   .",
".                                                   .",
".                                                   .",
".                                                   .",
".                                                   .",
".                                                   .",
".                                                   .",
".                                                   .",
".                                                   .",
".                                                   .",
".                                                   .",
".                                                   .",
".                                                   .",
".                                                   .",
".                                                   .",
".                                                   .",
".                                                   .",
".                                                   .",
".                                                   .",
".                                                   .",
".                                                   .",
".                                                   .",
".                                                   .",
".                                                   .",
".                                                   .",
".                                                   .",
".                                                   .",
".                                                   .",
".                                                   .",
".                                                   .",
".                                                   .",
".                                                   .",
".                                                   .",
".                                                   .",
".                                                   .",
".                                                   .",
".                                                   .",
".                                                   .",
".                                                   .",
".                                                   .",
".                                                   .",
".                                                   .",
".                                                   .",
".                                                   .",
".                                                   .",
".                                                   .",
".                                                   .",
".                                                   .",
".                                                   .",
".                                                   .",
".                                                   .",
".                                                   .",
".                                                   .",
".                                                   .",
".                                                   .",
".                                                   .",
".                                                   .",
".                                                   .",
".                                                   .",
".                                                   .",
".                                                   .",
".                                                   .",
".                                                   .",
".                                                   .",
".                                                   .",
".                                                   .",
".                                                   .",
".                                                   .",
".                                                   .",
".                                                   .",
".                                                   .",
".                                                   .",
".                                                   .",
".                                                   .",
".                                                   .",
".                                                   .",
".                                                   .",
".                                                   .",
".                                                   .",
".                                                   .",
".                                                   .",
".                                                   .",
".                                                   .",
".                                                   .",
".                                                   .",
".                                                   .",
".                                                   .",
".                                                   .",
".                                                   .",
".                                                   .",
".                                                   .",
".                                                   .",
".                                                   .",
".                                                   .",
".                                                   .",
".                                                   .",
".                                                   .",
".                                                   .",
".                                                   .",
".                                                   .",
".                                                   .",
".                                                   .",
".                                                   .",
".                                                   .",
".                                                   .",
".                                                   .",
".                                                   .",
".                                                   .",
".                                                   .",
".                                                   .",
".                                                   .",
".                                                   .",
".                                                   .",
".                                                   .",
".                                                   .",
".                                                   .",
".                                                   .",
".                                                   .",
".                                                   .",
".                                                   .",
".                                                   .",
".                                                   .",
".                                                   .",
".                                                   .",
".                                                   .",
".                                                   .",
".                                                   .",
".                                                   .",
".                                                   .",
".                                                   .",
".                                                   .",
".                                                   .",
".                                                   .",
".                                                   .",
".                                                   .",
".                                                   .",
".                                                   .",
".                                                   .",
".                                                   .",
".                                                   .",
".                                                   .",
".                                                   .",
".                                                   .",
".                                                   .",
".                                                   .",
".                                                   .",
".                                                   .",
".                                                   .",
".                                                   .",
".                                                   .",
".                                                   .",
".                                                   .",
".                                                   .",
".                                                   .",
".                                                   .",
".                                                   .",
".                                                   .",
".                                                   .",
".                                                   .",
".                                                   .",
".                                                   .",
".                                                   .",
".                                                   .",
".                                                   .",
".                                                   .",
".                                                   .",
".                                                   .",
".                                                   .",
".                                                   .",
".                                                   .",
".                                                   .",
".                                                   .",
".                                                   .",
".                                                   .",
".                                                   .",
".                                                   .",
".                                                   .",
".                                                   .",
".                                                   .",
".                                                   .",
".                                                   .",
".                                                   .",
".                                                   .",
".                                                   .",
".                                                   .",
".                                                   .",
".                                                   .",
".                                                   .",
".                                                   .",
".                                                   .",
".                                                   .",
".                                                   .",
".                                                   .",
".                                                   .",
".                                                   .",
".                                                   .",
".                                                   .",
".                                                   .",
".                                                   .",
".                                                   .",
".                                                   .",
".                                                   .",
".                                                   .",
".                                                   .",
".                                                   .",
".                                                   .",
".                                                   .",
".                                                   .",
".                                                   .",
".                                                   .",
".                                                   .",
".                                                   .",
".                                                   .",
".                                                   .",
".                                                   .",
".                                                   .",
"..                                                 ..",
"..                                                 ..",
"...                                               ...",
"....                                             ....",
"......                                         ......",
"........                                     ........"
};
