/* XPM */
static xpm_row_t const BALL__[] = {
/* columns rows colors chars-per-pixel */
"73 75 2 1 ",
"  c #FFFFFF",
". c None",
/* pixels */
"................................         ................................",
"...........................                   ...........................",
"........................                         ........................",
"......................                             ......................",
"....................                                 ....................",
"..................                                     ..................",
".................                                        ................",
"...............                                           ...............",
"..............                                             ..............",
".............                                               .............",
"............                                                 ............",
"...........                                                   ...........",
"..........                                                     ..........",
".........                                                       .........",
"........                                                         ........",
"........                                                          .......",
".......                                                           .......",
"......                                                             ......",
"......                                                             ......",
".....                                                               .....",
".....                                                                ....",
"....                                                                 ....",
"....                                                                 ....",
"...                                                                   ...",
"...                                                                   ...",
"...                                                                   ...",
"..                                                                     ..",
"..                                                                     ..",
"..                                                                     ..",
"..                                                                      .",
".                                                                       .",
".                                                                       .",
".                                                                       .",
".                                                                       .",
".                                                                       .",
".                                                                       .",
".                                                                       .",
".                                                                       .",
".                                                                       .",
".                                                                       .",
".                                                                       .",
".                                                                       .",
".                                                                       .",
".                                                                       .",
".                                                                       .",
"..                                                                     ..",
"..                                                                     ..",
"..                                                                     ..",
"..                                                                     ..",
"...                                                                   ...",
"...                                                                   ...",
"...                                                                   ...",
"....                                                                 ....",
"....                                                                 ....",
".....                                                               .....",
".....                                                               .....",
"......                                                             ......",
".......                                                            ......",
".......                                                           .......",
"........                                                         ........",
".........                                                       .........",
"..........                                                      .........",
"..........                                                     ..........",
"...........                                                   ...........",
"............                                                 ............",
".............                                               .............",
"...............                                           ...............",
"................                                         ................",
".................                                       .................",
"...................                                   ...................",
".....................                               .....................",
".......................                           .......................",
"..........................                     ..........................",
".............................               .............................",
"........................................................................."
};
