/* XPM */
static xpm_row_t const DECREASE1_[] = {
/* columns rows colors chars-per-pixel */
"43 77 2 1 ",
"  c #1D70B7",
". c None",
/* pixels */
".........                          ........",
"......                                .....",
".....  ..............................  ....",
".... .................................. ...",
"... .................................... ..",
".. .....................................  .",
".. ...................................... .",
". ....................................... .",
". ........................................ ",
". ........................................ ",
". ........................................ ",
". ....................  .................. ",
". ...................    ................. ",
". ...................    ................. ",
". ...................    ................. ",
". ...................    ................. ",
". ...................    ................. ",
". ...................    ................. ",
". ...................    ................. ",
". ...................    ................. ",
". ...................    ................. ",
". ...................    ................. ",
". ...................    ................. ",
". ...................    ..   ............ ",
". ...............   .    ..   ............ ",
". ...............        .   ............. ",
". ...............            ............. ",
". ................          .............. ",
". .................        ............... ",
". ..................      ................ ",
". ...................     ................ ",
". ....................   ................. ",
". ........................................ ",
". ........................................ ",
". ........................................ ",
". ........................................ ",
". ........................................ ",
". ........................................ ",
". ........................................ ",
". ........................................ ",
". ........................................ ",
". ....................   ................. ",
". ...................     ................ ",
". ..................       ............... ",
". .................        ............... ",
". .................         .............. ",
". ................      .    ............. ",
". ...............   .   .     ............ ",
". ............... ...    .    ............ ",
". ...................    ..   ............ ",
". ...................    ................. ",
". ...................    ................. ",
". ...................    ................. ",
". ...................    ................. ",
". ...................    ................. ",
". ...................    ................. ",
". ...................    ................. ",
". ...................    ................. ",
". ...................    ................. ",
". ...................    ................. ",
". ...................    ................. ",
". ....................  .................. ",
". ........................................ ",
". ........................................ ",
". ........................................ ",
". ........................................ ",
". ........................................ ",
". ........................................ ",
". ........................................ ",
".  ...................................... .",
".. ...................................... .",
"..  ....................................  .",
"... .................................... ..",
".... .................................  ...",
".....  ..............................  ....",
"......                               ......",
"..........                        ........."
};
