/* XPM */
static xpm_row_t const FIREFRAME1_[] = {
/* columns rows colors chars-per-pixel */
"53 81 121 2 ",
"   c #E63827",
".  c #E63927",
"X  c #E63B26",
"o  c #E73F24",
"O  c #E63E25",
"+  c #E73E25",
"@  c #E73F25",
"#  c #E5332A",
"$  c #E53429",
"%  c #E53529",
"&  c #E53629",
"*  c #E5342A",
"=  c #E63928",
"-  c #E84B1F",
";  c #E94F1E",
":  c #EB5E17",
">  c #EA561A",
",  c #E9501D",
"<  c #EA531C",
"1  c #EB5B18",
"2  c #EB5C18",
"3  c #EE710E",
"4  c #EE740D",
"5  c #EE750D",
"6  c #EE760C",
"7  c #EF7A0A",
"8  c #EF7C09",
"9  c #EF7C0A",
"0  c #F07F08",
"q  c #EC6513",
"w  c #EB6215",
"e  c #EC6215",
"r  c #EC6B11",
"t  c #EC6812",
"y  c #ED6813",
"u  c #ED6C10",
"i  c #ED6E10",
"p  c #E74422",
"a  c #E74522",
"s  c #E74024",
"d  c #E74224",
"f  c #E84323",
"g  c #E84423",
"h  c #E84A20",
"j  c #F08206",
"k  c #F08207",
"l  c #F08505",
"z  c #F18505",
"x  c #F18704",
"c  c #F08605",
"v  c #F18605",
"b  c #F18B02",
"n  c #F18B03",
"m  c #F18D01",
"M  c #F18E01",
"N  c #F28E01",
"B  c #F28F01",
"V  c #F18C02",
"C  c #F18D02",
"Z  c #F28D02",
"A  c #F18804",
"S  c #F08008",
"D  c #F29000",
"F  c #F29100",
"G  c #F29001",
"H  c #F29202",
"J  c #F29303",
"K  c #F29506",
"L  c #F39506",
"P  c #F39507",
"I  c #F39608",
"U  c #F3970A",
"Y  c #F3990C",
"T  c #F3990D",
"R  c #F4990D",
"E  c #F49A0E",
"W  c #F49B10",
"Q  c #F49D13",
"!  c #F59E14",
"~  c #F59F16",
"^  c #F49E19",
"/  c #F4A017",
"(  c #F5A018",
")  c #F5A119",
"_  c #F5A11A",
"`  c #F5A21C",
"'  c #F5A31C",
"]  c #F5A31D",
"[  c #F6A31D",
"{  c #F6A41E",
"}  c #F6A41F",
"|  c #F6A520",
" . c #F6A622",
".. c #F6A722",
"X. c #F6A723",
"o. c #F6A724",
"O. c #F6A824",
"+. c #F7A926",
"@. c #F7A927",
"#. c #F7AA27",
"$. c #F7AA28",
"%. c #F7AB29",
"&. c #F7AB2A",
"*. c #F7A82F",
"=. c #F7AC2C",
"-. c #F7AD2D",
";. c #F7AE2E",
":. c #F7AF2F",
">. c #F8AE2E",
",. c #F8AE2F",
"<. c #F8AF2F",
"1. c #F7A931",
"2. c #F7AB32",
"3. c #F7AF30",
"4. c #F8AF30",
"5. c #F8AF31",
"6. c #F8B031",
"7. c #F8B032",
"8. c #F8B132",
"9. c #F8B133",
"0. c None",
/* pixels */
"0.0.0.0.0.0.0.0.0.0.0.0.0.0.0.0.0.0.0.0.0.0.0.0.0.0.0.0.# # # # # # 0.0.0.0.0.0.0.0.0.0.0.0.0.0.0.0.0.0.0.",
"0.0.0.0.0.0.0.0.0.0.0.0.0.0.0.0.0.0.0.0.0.0.0.0.0.0.0.# # # # # # # # # # 0.0.0.0.0.0.0.0.0.0.0.0.0.0.0.0.",
"0.0.0.0.0.0.0.0.0.0.0.0.0.0.0.0.0.0.0.0.0.0.0.0.0.0.# # # # # # # # # # # 0.0.0.0.0.0.0.0.0.0.0.0.0.0.0.0.",
"0.0.0.0.0.0.0.0.0.0.0.0.0.0.0.0.0.0.0.0.0.0.0.0.0.0.# # # # # # # 0.0.0.0.0.0.0.0.0.0.0.0.0.0.0.0.0.0.0.0.",
"0.0.0.0.0.0.0.0.0.0.0.0.0.0.0.0.0.0.0.0.0.0.0.0.0.0.# # # 0.0.0.0.0.0.0.0.0.0.0.0.0.0.0.0.0.0.0.0.0.0.0.0.",
"0.0.0.0.0.0.0.0.0.0.0.0.0.0.0.0.0.0.0.0.0.0.0.0.0.0.0.0.0.0.0.0.0.0.0.0.0.0.0.0.0.0.0.0.0.0.0.0.0.0.0.0.0.",
"0.0.0.0.0.0.0.0.0.0.0.0.0.0.0.0.0.0.0.0.0.0.0.0.0.0.0.0.0.0.0.0.0.0.0.0.0.0.0.0.0.0.# # 0.0.0.0.0.0.0.0.0.",
"0.0.0.0.0.0.0.0.0.0.0.0.0.0.0.0.0.0.0.0.0.0.0.0.0.0.0.0.0.0.0.0.0.0.0.0.0.0.# # # # # # # # # 0.0.0.0.0.0.",
"0.0.0.0.0.0.0.0.0.0.0.0.0.0.0.0.0.0.0.0.0.# # # # # 0.0.0.0.0.0.0.0.0.# # # # # # # # # # # # # 0.0.0.0.0.",
"0.0.0.0.0.0.0.0.0.0.0.0.0.0.0.0.0.0.0.0.# # # # 0.0.0.0.0.0.0.0.0.0.# # # # # 0.0.0.0.# # # # # # 0.0.0.0.",
"0.0.0.0.0.0.0.0.0.0.0.0.0.0.0.0.0.0.0.0.0.0.0.0.0.0.0.0.0.0.0.0.0.0.0.0.0.0.0.0.0.0.0.# # # # # # # 0.0.0.",
"0.0.0.0.0.0.0.0.0.0.0.0.0.0.0.0.0.0.0.0.0.0.0.0.0.0.0.0.0.0.0.0.0.0.0.0.0.0.0.0.0.0.0.# # # # # # # 0.0.0.",
"0.0.0.0.0.0.0.0.0.0.0.0.0.0.0.0.0.0.0.0.0.0.0.0.0.0.0.0.0.0.0.0.0.0.0.0.0.0.0.0.0.0.0.# # # # # # # # 0.0.",
"0.0.0.0.0.0.0.0.0.0.0.0.0.0.0.0.0.0.0.0.0.0.0.0.0.0.0.0.0.0.0.0.0.0.0.0.0.0.0.0.0.0.0.# # # # # # # # 0.0.",
"0.0.0.0.0.0.0.0.0.0.0.0.0.0.0.0.0.0.0.0.0.0.0.0.0.0.0.0.0.0.0.0.0.0.0.0.0.0.0.0.0.0.0.# # # # # # # # 0.0.",
"0.0.0.0.0.0.0.0.0.0.0.0.0.0.0.0.0.0.0.0.0.0.0.0.0.0.0.0.0.0.0.0.0.0.0.0.0.0.0.0.0.0.# # # # # # # # # 0.0.",
"0.0.0.0.0.0.0.0.0.0.0.0.0.0.0.0.0.0.0.0.0.0.0.0.0.0.0.0.0.0.0.0.0.0.0.0.0.0.0.0.0.# # # # # # # # # # 0.0.",
"0.0.0.0.0.0.0.0.0.0.0.0.0.0.0.0.0.0.0.0.0.0.0.0.0.0.0.0.0.0.0.0.0.0.0.0.0.0.0.# # # # # # # # # # # 0.0.0.",
"0.0.0.0.0.0.0.0.0.0.0.0.0.0.0.0.0.0.0.0.0.0.0.0.0.0.0.# # # # # 0.0.0.0.0.0.# # # # # # # # # # # # 0.0.0.",
"0.0.0.0.0.0.0.0.0.0.0.0.0.0.0.0.0.0.0.0.0.0.0.# # # # # # # # # # # # # # # # # # # # # # # # # # # 0.0.0.",
"0.0.0.0.0.0.0.0.0.0.0.0.0.0.0.0.0.0.0.0.0.0.# # # # # # # # # # # # # # # # # # # # # # # # # # # 0.0.0.0.",
"0.0.0.0.0.0.0.0.0.0.0.0.0.0.0.0.0.0.0.0.# # # # # # # # # # # # # # # # # # # # # # # # # # # # 0.0.0.0.0.",
"0.0.0.0.0.0.0.0.0.0.0.0.0.0.0.0.0.0.0.0.# # # # # # # # # # # # # # # # # # # # # # # # # # # 0.0.0.0.0.0.",
"0.0.0.0.0.0.0.0.0.0.0.0.0.0.0.0.0.0.0.# # # # # # # # # # # # # # # # # # # # # # # # $ # # 0.0.0.0.0.0.0.",
"0.0.0.0.0.0.0.0.0.0.0.0.0.0.0.0.0.0.# # # # # # # # # # # # # # # # # # # # # p 1 > # # & # 0.0.0.0.0.0.0.",
"0.0.0.0.0.0.0.0.0.0.0.0.0.0.0.0.0.0.# # # # # # # # # # # > 7 7 a # # # # O k F F N # # # # # 0.0.0.0.0.0.",
"0.0.0.0.0.0.0.0.0.0.0.0.0.0.0.0.0.# # # # # # # # # # , c F F F a # # = r n F F F F h # # # # # 0.0.0.0.0.",
"0.0.0.0.0.0.0.0.0.0.0.0.0.0.0.0.0.# # # # # # # # f l F F F F 0 2 3 j D F F F F F F k # # # # # # 0.0.0.0.",
"0.0.0.0.0.0.0.0.0.0.0.0.0.0.0.0.0.# # # # # # # i F F F F F F F F F F F F F F F F F F + # # # # # # 0.0.0.",
"0.0.0.0.0.0.0.0.0.0.0.0.0.0.0.0.# # # # # # a x F F F F F F F F F F F F F F F F F F F 5 # # # # # # 0.0.0.",
"0.0.0.0.0.0.0.0.0.0.0.0.0.0.0.0.# # # # # # 6 F F F F F F F F F F F F J L F F F F F F F + # # # # # # 0.0.",
"0.0.0.0.0.0.0.0.0.0.0.0.0.0.0.0.# # # # # # m F F F F F F F F F F %.9.9.[ F F F F F F F w # # # # # # 0.0.",
"0.0.0.0.0.0.0.0.0.0.0.0.0.0.0.0.# # # # # # F F F F F F F F F K 6.9.9.9.Y F F F F F F F A # # # # # # # 0.",
"0.0.0.0.0.0.0.0.0.0.0.0.0.0.0.# # # # # # # F F F F F F F F J 4.9.9.9.o.,.;.F F F F F F F X # # # # # # 0.",
"0.0.0.0.0.0.0.0.0.0.0.0.0.0.0.# # # # # # # F F F F F F F F ;.9.9.9.| 8.9.9.I F F F F F F q # # # # # # 0.",
"0.0.0.0.0.0.0.0.0.0.0.0.0.0.0.# # # # # # # F F F F F F F / 9.9.9.3.,.9.9.9.~ F F F F F F z # # # # # # 0.",
"0.0.0.0.0.0.0.0.0.0.0.0.0.0.0.0.# # # # # # 7 F F F F F F -.9.9.9.>.9.9.9.9.) F F F F F F F # # # # # # 0.",
"0.0.0.0.0.0.0.0.0.0.0.0.0.0.0.0.# # # # # # 2 F F F F F F <.9.9.9.9.9.9.9.9.' F F F F F F F < # # # # # # ",
"0.0.0.0.0.0.0.0.0.0.0.0.0.0.0.0.# # # # # # . b F F F F F 9.9.9.9.9.4.9.9.9.| F F F F B F F i # # # # # # ",
"0.0.0.0.0.0.0.0.0.0.0.0.0.0.0.0.# # # # # # # , F F F F F ,.9.9...R U 9.9.9.( F F F F A F F 0 # # # # # 0.",
"0.0.0.0.0.0.0.0.0.0.0.0.0.0.0.0.# # # # # # # # c F F F F F ! F F F F } ;.) F F F F F v F F 0 # # # # # 0.",
"0.0.0.0.0.0.0.0.0.0.0.0.0.0.0.0.# # # # # # # # e F F F F F F F F F F F F F F F F F F D F F 8 # # # # # 0.",
"0.0.0.0.0.0.0.0.0.0.0.0.0.0.0.0.# # # # # # # . S F F F F F F F F F F F F F F F F F F F F F 2 # # # # # 0.",
"0.0.0.0.0.0.0.0.0.0.# # # # # # # # # # # # d b F F F F F F F F D F F F F F F F F F F F F V @ # # # # 0.0.",
"0.0.0.0.0.0.0.0.# # # # # # # # # # # # o 7 F F F F F F F F F F F F F F F F F F F F F F F > # # # # # 0.0.",
"0.0.0.0.0.0.# # # # # # # # # # # #   9 F F F F F J Q | R F F F F F F F F F F F F F F Z > # # # # # 0.0.0.",
"0.0.0.0.0.# # # # # # # # # # # * y F F F F F F ] 7.9.&.J F F F U J F F F F F F F F 0 @ # # # # # 0.0.0.0.",
"0.0.0.0.# # # # # # # # # # # s n F F F F F ( 7.9.9.@.F F F { 4.9.] F F F F F F k ; # # # # # # 0.0.0.0.0.",
"0.0.0.0.# # # # # # # # # % : F F F F F U =.9.9.9.^ F F F U %.9.9.-.N F F F F > # # # # # # 0.0.0.0.0.0.0.",
"0.0.0.# # # # # # # # # h M F F F F F W 6.9.9.8.$.} +.9.9.9.9.9.9.9.J F F F u # # # # # # # 0.0.0.0.0.0.0.",
"0.0.0.# # # # # # # # g D F F F F L +.9.9.9.9.9.9.9.9.9.9.9.9.9.9.9.P F F F F > # # # # # # # 0.0.0.0.0.0.",
"0.0.# # # # # # # # . N F F F F U 4.9.9.9.9.9.9.9.9.9.9.9.9.9.9.9.9.Q F F F F b @ # # # # # # # 0.0.0.0.0.",
"0.0.# # # # # # # . A F F F F U 2.9.9.9.9.9.9.9.9.9.9.9.9.9.9.9.9.9.Q F F F F F 7 # # # # # # # 0.0.0.0.0.",
"0.0.# # # # # # . k F F F F J *.9.9.9.9.9.9.9.9.9.9.9.9.9.9.9.9.9.9._ F F F F F F a # # # # # # # 0.0.0.0.",
"0.# # # # # # # 4 F F F F F ] 9.9.9.9.9.9.9.9.9.9.9.9.9.9.9.9.9.9.9. .F F F F F F i # # # # # # # 0.0.0.0.",
"0.# # # # # # 2 F F F F F L 9.9.9.9.9.9.9.9.9.9.9.9.9.9.4.9.9.9.9.9.9.F F F F F F C # # # # # # # # 0.0.0.",
"0.# # # # # @ b F F F F F | 9.9.9.9.9.9.9.9.9.9.9.7.9.9.9.9.9.9.9.9.9.F F F F F F F @ # # # # # # # 0.0.0.",
"0.# # # # # i F F F F F J 6.9.9.9.9.9.9.9.9.9.9.1.9.9.9.9.9.9.9.9.9.9.F F F F F F F - # # # # # # # 0.0.0.",
"0.# # # # @ F F D F F F ] 9.9.9.9.9.9.9.9.9.9.9.9.9.9.9.9.9.9.9.9.9.-.F F F F F F F e # # # # # # # 0.0.0.",
"0.# # # # 2 F F F F F J 9.9.9.9.9.9.9.9.9.9.9.9.9.9.9.9.9.9.9.9.9.9.X.F F F F F F F e # # # # # # # 0.0.0.",
"0.# # # # 7 F F F F F _ 9.9.9.9.9.9.9.9.9.9.9.9.9.9.9.9.9.9.9.9.9.9.~ F F F F F F F e # # # # # # # # 0.0.",
"0.# # # # F F F F F F 6.9.9.9.9.9.9.9.9.9.9.9.9.9.9.9.9.9.9.-.9.9.9.L F F F F F F F - # # # # # # # # 0.0.",
"0.# # # # F F F F F Q 9.9.9.9.9.9.9.9.9.9.9.9.9.9.9.9.9.9.9.8.9.9.#.F F F F F F F F @ # # # # # # # 0.0.0.",
"0.# # # # F F F F F O.9.9.9.9.9.9.9.9.9.9.9.9.9.9.9.9.9.9.9.9.9.9.L F F F F F F F c # # # # # # # # 0.0.0.",
"0.# # # # F F F F H 9.9.9.9.9.9.9.9.9.9.9.9.9.9.9.9.9.9.9.9.9.9.` F F F F F F F F i # # # # # # # # 0.0.0.",
"0.# # # # 7 F F F T 9.9.9.9.9.9.9.9.9.9.9.9.9.9.9.9.9.9.9.9.9.O.F F F F F F D F F a # # # # # # # # 0.0.0.",
"0.# # # # 2 F F F W 9.9.9.9.9.9.9.9.9.9.9.9.9.9.9.9.9.9.9.9.&.J F F F F F F F F 7 # # # # # # # # 0.0.0.0.",
"0.# # # # @ F F F E 9.9.9.9.9.9.9.9.9.9.9.9.9.9.9.9.9.9.9.| F F F F F F F B F F - # # # # # # # # 0.0.0.0.",
"0.# # # # # 7 F F J 8.9.9.9.9.9.9.9.9.9.9.9.9.9.9.9.9.5.Q F F F F F F F N F F t # # # # # # # # # 0.0.0.0.",
"0.# # # # # a F F F _ 9.9.9.9.9.9.9.9.9.9.9.9.9.9.9.] J F F F F F F F G F F c . # # # # # # # # 0.0.0.0.0.",
"0.0.# # # # # 7 F F F _ 4.9.9.9.9.9.9.9.9.9.6.:._ J F F F F F F F F F N F b a # # # # # # # # 0.0.0.0.0.0.",
"0.0.# # # # # @ b F F F J W _ | %.&.o._ R J F F F F F F F F F F F F G F b , # # # # # # # # # 0.0.0.0.0.0.",
"0.0.0.# # # # # > F F F F F F F F F F F F F F F F F F F F F F F F F F b a # # # # # # # # # 0.0.0.0.0.0.0.",
"0.0.0.0.# # # # # - b F F F F F F F D F F F F F F F F F F F F F F F 4 . # # # # # # # # # 0.0.0.0.0.0.0.0.",
"0.0.0.0.0.# # # # # . t F F F F F F F F F F F F F A D F F F F F l a # # # # # # # # # # 0.0.0.0.0.0.0.0.0.",
"0.0.0.0.0.0.# # # # # # . 2 S F F F F F F F F F F F F F F F S > # # # # # # # # # # # 0.0.0.0.0.0.0.0.0.0.",
"0.0.0.0.0.0.0.# # # # # # # # @ , t 7 c F F F F F F c 4 2 a # # # # # # # # # # # 0.0.0.0.0.0.0.0.0.0.0.0.",
"0.0.0.0.0.0.0.0.0.0.# # # # # # # # # # # # # # # # # # # # # # # # # # # # # # 0.0.0.0.0.0.0.0.0.0.0.0.0.",
"0.0.0.0.0.0.0.0.0.0.0.# # # # # # # # # # # # # # # # # # # # # # # # # # # 0.0.0.0.0.0.0.0.0.0.0.0.0.0.0.",
"0.0.0.0.0.0.0.0.0.0.0.0.0.# # # # # # # # # # # # # # # # # # # # # # 0.0.0.0.0.0.0.0.0.0.0.0.0.0.0.0.0.0.",
"0.0.0.0.0.0.0.0.0.0.0.0.0.0.0.0.0.# # # # # # # # # # # # # # # 0.0.0.0.0.0.0.0.0.0.0.0.0.0.0.0.0.0.0.0.0."
};
