/* XPM */
static xpm_row_t const FIREFRAME3_[] = {
/* columns rows colors chars-per-pixel */
"50 79 131 2 ",
"   c #E63927",
".  c #E73F25",
"X  c #E63C26",
"o  c #E63D26",
"O  c #E5332A",
"+  c #E53429",
"@  c #E53529",
"#  c #E53728",
"$  c #E63728",
"%  c #E5342A",
"&  c #E63828",
"*  c #E84B1F",
"=  c #E84D1E",
"-  c #E94F1E",
";  c #EA5C17",
":  c #EB5F16",
">  c #EA551B",
",  c #EA561A",
"<  c #E9501D",
"1  c #E9521C",
"2  c #EA541C",
"3  c #EA5919",
"4  c #EB5C18",
"5  c #ED6F0F",
"6  c #EE730D",
"7  c #ED700F",
"8  c #EE710E",
"9  c #EE700F",
"0  c #EE750C",
"q  c #EE740D",
"w  c #EE760C",
"e  c #EE770C",
"r  c #EF7A0A",
"t  c #EF7C09",
"y  c #EF7D09",
"u  c #F07F08",
"i  c #EC6613",
"p  c #EB6115",
"a  c #EB6215",
"s  c #EC6215",
"d  c #EC6514",
"f  c #EC6812",
"g  c #ED6812",
"h  c #ED6912",
"j  c #EC6A12",
"k  c #ED6C10",
"l  c #ED6E10",
"z  c #E74323",
"x  c #E74522",
"c  c #E74423",
"v  c #E84323",
"b  c #E84920",
"n  c #EF8007",
"m  c #F08207",
"M  c #F08505",
"N  c #F08605",
"B  c #F18605",
"V  c #F18B02",
"C  c #F18A03",
"Z  c #F18B03",
"A  c #F18F01",
"S  c #F28E01",
"D  c #F28F01",
"F  c #F18C02",
"G  c #F18D02",
"H  c #F18804",
"J  c #F18904",
"K  c #F18A07",
"L  c #F28E05",
"P  c #F08008",
"I  c #F28D0C",
"U  c #F29000",
"Y  c #F29100",
"T  c #F29101",
"R  c #F29201",
"E  c #F29002",
"W  c #F29202",
"Q  c #F29302",
"!  c #F29303",
"~  c #F29304",
"^  c #F39404",
"/  c #F39405",
"(  c #F39506",
")  c #F39507",
"_  c #F29208",
"`  c #F39409",
"'  c #F39608",
"]  c #F39609",
"[  c #F39709",
"{  c #F3970A",
"}  c #F3920F",
"|  c #F3980B",
" . c #F3990D",
".. c #F4990D",
"X. c #F28F10",
"o. c #F49B10",
"O. c #F49B13",
"+. c #F49C11",
"@. c #F49D13",
"#. c #F49F16",
"$. c #F59F16",
"%. c #F5A018",
"&. c #F5A119",
"*. c #F5A11A",
"=. c #F5A31D",
"-. c #F6A31C",
";. c #F5A41F",
":. c #F6A41E",
">. c #F59E25",
",. c #F6A520",
"<. c #F6A622",
"1. c #F6A723",
"2. c #F6A226",
"3. c #F7A724",
"4. c #F6A825",
"5. c #F6A926",
"6. c #F7A926",
"7. c #F7A927",
"8. c #F7AA27",
"9. c #F7AA28",
"0. c #F7AB2A",
"q. c #F7AC2C",
"w. c #F7AD2D",
"e. c #F8AD2D",
"r. c #F7AF30",
"t. c #F8AF30",
"y. c #F8B031",
"u. c #F8B032",
"i. c #F8B132",
"p. c #F8B133",
"a. c None",
/* pixels */
"a.a.a.a.a.a.a.a.a.a.a.a.a.a.a.a.a.a.a.a.a.a.a.O O O a.a.a.a.a.a.a.a.a.a.a.a.a.a.a.a.a.a.a.a.a.a.a.a.",
"a.a.a.a.a.a.a.a.a.a.a.a.a.a.a.a.a.a.a.a.O O O O O O O a.a.a.a.a.a.a.a.a.a.a.a.a.a.a.a.a.a.a.a.a.a.a.",
"a.a.a.a.a.a.a.a.a.a.a.a.a.a.a.a.a.a.a.O O O O O O O O a.a.a.a.a.a.O O a.a.a.a.a.a.a.a.a.a.a.a.a.a.a.",
"a.a.a.a.a.a.a.a.a.a.a.a.a.a.a.a.a.O O O O O O O O O O a.a.a.a.a.a.O O a.a.a.a.a.a.a.a.a.a.a.a.a.a.a.",
"a.a.a.a.a.a.a.a.a.a.a.a.a.a.a.a.a.O O a.a.a.a.O O O a.a.a.a.a.a.a.O O a.a.a.a.a.a.a.a.a.a.a.a.a.a.a.",
"a.a.a.a.a.a.a.a.a.a.a.a.a.a.a.a.a.a.a.a.a.a.a.a.a.a.a.a.a.a.a.a.a.O O O a.a.a.a.a.a.a.a.a.a.a.a.a.a.",
"a.a.a.a.a.a.a.a.a.a.a.a.a.a.a.a.a.a.a.a.a.a.a.a.a.a.a.a.a.a.a.a.a.O O O a.a.a.a.a.a.a.a.a.a.a.a.a.a.",
"a.a.a.a.a.a.a.a.a.a.a.a.a.a.a.a.a.a.a.a.a.a.a.a.a.a.a.a.a.a.a.a.O O O O a.a.a.a.a.a.a.a.a.a.a.a.a.a.",
"a.a.a.a.a.a.a.a.a.a.a.a.a.a.a.a.a.a.a.a.a.O O O O a.a.a.a.a.a.a.O O O O a.a.a.a.a.a.a.a.a.a.a.a.a.a.",
"a.a.a.a.a.a.a.a.a.a.a.a.a.a.a.a.a.a.a.a.a.a.O O O O O a.a.a.a.a.O O O O O a.a.a.a.a.a.a.a.a.a.a.a.a.",
"a.a.a.a.a.a.a.a.a.a.a.a.a.a.a.a.a.a.a.a.a.a.a.O O O O a.a.a.a.a.O O O O O a.a.a.a.a.a.a.a.a.a.a.a.a.",
"a.a.a.a.a.a.a.a.a.a.a.a.a.a.a.a.a.a.a.a.a.a.a.a.O O O O a.a.a.O O O O O O a.a.a.a.a.a.a.a.a.a.a.a.a.",
"a.a.a.a.a.a.a.a.a.a.a.a.a.a.a.a.a.a.a.a.a.a.a.a.a.O O O O a.a.O O O O O O O a.a.a.a.a.a.a.a.a.a.a.a.",
"a.a.a.a.a.a.a.a.a.a.a.a.a.a.a.a.a.a.a.a.O O O O O O O O O a.O O O O O O O O a.a.a.a.a.a.a.a.a.a.a.a.",
"a.a.a.a.a.a.a.a.a.a.a.a.a.a.a.a.a.a.a.O O O O O O O O O O a.O O O O O O O O a.a.a.a.a.a.a.a.a.a.a.a.",
"a.a.a.a.a.a.a.a.a.a.a.a.a.a.a.a.a.a.O O O O O O O O O O O O O O O O O O O O O a.a.a.a.a.a.a.a.a.a.a.",
"a.a.a.a.a.a.a.a.a.a.a.a.a.a.a.a.a.O O O O O O O O O O O O O O O O O O O O O O a.a.a.a.a.a.a.a.a.a.a.",
"a.a.a.a.a.a.a.a.a.a.a.a.a.a.a.a.O O O O O O O O O O O O O O O O O O O O O O O O a.a.a.a.a.a.a.a.a.a.",
"a.a.a.a.a.a.a.a.a.a.a.a.a.a.a.O O O O O O O O O O O % = : w X O O O O O O O O O a.a.a.a.a.a.a.a.a.a.",
"a.a.a.a.a.a.a.a.a.a.a.a.a.a.a.O O O O O O O O O v m U Y Y Y Y J s . O O O O O O O a.a.a.a.a.a.a.a.a.",
"a.a.a.a.a.a.a.a.a.a.a.a.a.a.O O O O O O O O O ; Y Y Y Y Y Y Y Y Y D 8 O O O O O O O a.a.a.a.a.a.a.a.",
"a.a.a.a.a.a.a.a.a.a.a.a.a.a.O O O O O O O O - Y Y Y O.5.t.>.X.E Y Y Y C z O O O O O O a.a.a.a.a.a.a.",
"a.a.a.a.a.a.a.a.a.a.a.a.a.O O O O O O O O   F Y Y &.p.p.p.p.p.w.I Y Y Y S z O O O O O O a.a.a.a.a.a.",
"a.a.a.a.a.a.a.a.a.a.a.a.a.O O O O O O O O k Y Y ( p.p.p.p.p.p.p.p.} Y Y Y G   O O O O O O a.a.a.a.a.",
"a.a.a.a.a.a.a.a.a.a.a.a.O O O O O O O . 7 Y Y Y 8.p.p.p.p.p.p.p.p.t.L Y Y Y w O O O O O O O a.a.a.a.",
"a.a.a.a.a.a.a.a.a.a.a.a.O O O O O O , Y Y Y Y ~ p.p.p.p.p.p.p.p.p.p.:.Y Y Y Y 3 O O O O O O a.a.a.a.",
"a.a.a.a.a.a.a.a.a.a.a.a.O O O O O < Y Y Y Y Y D ..t.p.p.p.p.p.p.p.p.p.R Y Y Y Z & O O O O O O a.a.a.",
"a.a.a.a.a.a.a.a.a.a.a.a.O O O O O F Y Y Y Y U Y Y ' t.p.p.p.p.p.p.p.p. .Y Y Y Y 4 O O O O O O O a.a.",
"a.a.a.a.a.a.a.a.a.a.a.O O O O O h Y Y Y Y Y Y Y Y Y { p.p.p.p.p.p.p.p.:.Y Y U Y u O O O O O O O a.a.",
"a.a.a.a.a.a.a.a.a.a.a.O O O O s Y Y Y ` 5.w.^ Y Y Y Y ;.p.p.p.p.p.p.p.5.Y Y Y Y Y X O O O O O O a.a.",
"a.a.a.a.a.a.a.a.a.a.a.O O O   Y Y Y 1.p.p.p.0.Q Y Y Y ! y.p.p.p.p.p.p.5.Y Y Y Y Y 4 O O O O O O O a.",
"a.a.a.a.a.a.a.a.a.a.a.O O O * Y Y K p.p.p.p.p.0.R Y Y Y *.p.p.p.p.p.p.<.Y Y Y Y Y q O O O O O O O a.",
"a.a.a.a.a.a.a.a.a.a.a.a.O O * Y Y Y e.p.p.p.p.p.+.Y Y Y Y 0.p.p.p.p.p.@.Y Y Y Y Y u O O O O O O O a.",
"a.a.a.a.a.a.a.a.a.a.a.a.O O   V Y Y ) p.p.p.p.p.' Y Y Y Y ! 6.p.p.p.1.Y Y Y Y Y Y Y O O O O O O O a.",
"a.a.a.a.a.a.a.a.a.a.a.a.O O O s Y Y Y | t.p.p.,.Y Y Y Y Y Y Y { ..{ Y Y Y Y Y Y Y r O O O O O O O a.",
"a.a.a.a.a.a.a.a.a.a.a.a.O O O O P Y Y Y Y _ / Y Y Y Y Y Y Y Y Y Y Y Y Y Y Y Y Y Y l O O O O O O O a.",
"a.a.a.a.a.a.a.a.a.a.a.a.a.O O O   6 Y Y Y Y Y Y Y Y Y Y Y Y Y Y Y Y Y Y Y Y Y Y Y 1 O O O O O O O a.",
"a.a.a.a.a.a.a.a.a.a.a.a.a.O O O O O g Y Y Y Y Y Y Y Y Y Y Y Y Y Y Y Y Y Y Y Y Y Y $ O O O O O O O a.",
"a.a.a.a.a.a.a.a.a.a.a.a.a.a.O O O O   H Y Y Y Y Y Y Y Y Y o.0.w.( Y Y Y Y Y Y Y H O O O O O O O a.a.",
"a.a.a.a.a.a.a.a.a.a.a.a.O O O O O   P Y Y Y Y Y Y Y Y Y ! p.p.p.$.Y Y Y Y Y Y Y g O O O O O O O a.a.",
"a.a.a.a.a.a.a.a.a.a.O O O O O O $ P Y Y Y Y Y Y Y Y Y Y @.p.p.p.=.Y Y Y Y Y Y Y 1 O O O O O O a.a.a.",
"a.a.a.a.a.a.a.a.a.O O O O O O O y Y Y Y Y Y Y Y Y Y Y { t.p.p.p.3.Y Y Y Y Y Y B O O O O O O a.a.a.a.",
"a.a.a.a.a.a.a.a.O O O O O O   N Y Y Y Y Y Y Y Y ..$.1.p.p.p.p.p.%.Y Y Y Y Y Y < O O O O O a.a.a.a.a.",
"a.a.a.a.a.a.a.O O O O O O x F Y Y Y Y Y Y ..,.p.p.p.p.p.p.p.p.p.] Y Y Y Y P x O O O O O a.a.a.a.a.a.",
"a.a.a.a.a.a.O O O O O O , Y Y Y Y Y Y ! ,.p.p.p.i.e.p.p.p.p.p.t.Y Y Y A a O O O O O O a.a.a.a.a.a.a.",
"a.a.a.a.a.O O O O O O * Y Y Y Y Y Y ! 0.p.p.p.p.p.p.p.p.p.p.p.,.Y Y Y G 4 O O O O O a.a.a.a.a.a.a.a.",
"a.a.a.a.O O O O O O . V Y Y Y Y Y ! q.p.p.p.u.p.p.p.p.p.p.p.p.%.Y Y Y Y Y l O O O a.a.a.a.a.a.a.a.a.",
"a.a.a.a.O O O O O O P Y Y Y Y Y Y 9.p.p.p.p.p.p.p.p.p.p.p.p.p.[ Y Y Y Y Y Y f O O O a.a.a.a.a.a.a.a.",
"a.a.a.O O O O O O d Y Y Y Y Y Y &.p.p.p.p.p.p.p.p.p.p.p.p.p.e.Y Y Y Y Y Y Y Y * O O O a.a.a.a.a.a.a.",
"a.a.O O O O O O > Y Y Y Y Y Y ) p.p.p.p.p.p.p.p.p.p.p.p.p.p.u.! Y Y Y Y Y Y Y H O O O O a.a.a.a.a.a.",
"a.a.O O O O O b Y Y Y Y Y Y Y 4.p.p.p.p.p.p.p.p.p.p.p.p.p.p.p.@.Y Y Y Y Y Y Y Y i O O O O a.a.a.a.a.",
"a.a.O O O O O q Y Y Y Y Y Y Y p.p.p.p.p.p.p.p.p.p.p.p.p.p.p.p.2.Y Y Y Y Y Y Y Y Y . O O O O a.a.a.a.",
"a.O O O O O & Y Y Y Y Y Y Y | p.p.p.p.p.p.p.p.p.p.p.p.p.p.p.p.t.Y Y Y Y Y Y Y Y Y l O O O O O a.a.a.",
"a.O O O O O p Y Y Y Y Y Y Y  .p.p.p.p.p.p.p.p.p.p.p.p.p.p.p.p.p.( Y Y Y Y Y Y Y Y V O O O O O a.a.a.",
"a.O O O O O t Y Y Y Y Y Y Y &.p.p.p.p.p.p.p.p.p.p.p.p.p.p.p.p.p.o.Y Y Y Y Y Y Y Y Y * O O O O a.a.a.",
"O O O O O O Y Y Y Y Y Y Y Y &.p.p.p.p.p.p.p.p.p.p.p.p.p.p.p.p.p.*.Y Y Y Y Y Y Y Y Y s O O O O O a.a.",
"O O O O O x Y Y Y Y Y Y Y Y &.p.p.p.p.p.p.p.p.p.p.p.p.p.p.p.p.p.*.Y Y Y Y Y Y Y Y Y s O O O O O a.a.",
"O O O O O * Y Y Y Y Y Y Y Y #.p.p.p.p.p.p.p.p.p.p.p.p.p.p.p.p.p.=.Y Y Y Y Y Y Y Y Y s O O O O O a.a.",
"O O O O O * Y Y Y Y Y Y Y Y ' p.p.p.p.p.p.p.p.p.p.p.p.p.p.p.p.p.6.Y Y Y Y Y Y S Y N x O O O O O a.a.",
"O O O O O * Y Y Y Y Y Y Y Y ' p.p.p.p.p.p.p.p.p.p.p.p.p.p.p.p.p.,.Y Y Y Y Y Y 5 O O O O O O O O a.a.",
"O O O O O * Y Y Y Y Y Y Y Y Y 1.=.t.p.p.p.p.p.p.p.p.p.p.p.p.p.p.*.Y Y Y Y Y Y x O O O O O O O O a.a.",
"O O O O O O Y Y Y Y Y Y T Y Y ! &.Y ! 1.p.p.p.p.p.p.p.p.p.y.p.p.o.Y Y Y Y Y M O O O O O O O O a.a.a.",
"O O O O O O r Y Y Y Y Y Y Y Y Y ' Y Y Y 6.p.p.p.p.p.p.p.p.r.p.p.W Y Y Y Y Y b O O O O O O O O a.a.a.",
"O O O O O O , Y Y Y Y Y Y Y Y Y Y T Y Y W 7.p.p.p.p.p.p.p.p.p.-.Y Y Y Y Y n O O O O O O O O a.a.a.a.",
"O O O O O O O G Y Y Y Y Y Y Y Y Y Y Y Y Y R 1.p.p.p.p.p.p.p.6.T Y Y Y Y V # O O O O O O O O a.a.a.a.",
"a.O O O O O O 2 Y Y Y Y Y Y Y Y Y Y Y Y Y Y Y  .,.w.p.w.$.( Y Y Y Y Y V o O O O O O O O O a.a.a.a.a.",
"a.O O O O O O O 9 Y Y Y Y Y Y V Y Y Y Y Y Y Y Y Y Y Y Y Y Y Y Y Y Y Y * O O O O O O O O a.a.a.a.a.a.",
"a.O O O O O O O O 0 Y Y Y Y Y Y Y Y Y Y Y Y Y Y Y Y Y Y Y Y Y Y Y Y j O O O O O O O O O a.a.a.a.a.a.",
"a.a.O O O O O O O O * u D Y U H 9 . 9 Y Y Y Y Y Y Y Y Y Y Y Y Y Y P + O O O O O O O O a.a.a.a.a.a.a.",
"a.a.a.O O O O O O O O O O O O O O O O u Y Y Y Y Y Y Y Y Y Y U Y P @ O O O O O O O O a.a.a.a.a.a.a.a.",
"a.a.a.O O O O O O O O O O O O O O O O O e Y Y Y Y Y Y Y Y Y Y f O O O O O O O O O a.a.a.a.a.a.a.a.a.",
"a.a.a.a.O O O O O O O O O O O O O O O O O 4 V Y Y Y Y Y Y q c O O O O O O O O O a.a.a.a.a.a.a.a.a.a.",
"a.a.a.a.a.O O O O O O O O O O O O O O O O O . 4 q r f , . O O O O O O O O O O a.a.a.a.a.a.a.a.a.a.a.",
"a.a.a.a.a.a.a.O O O O O O O O O O O O O O O O O O O O O O O O O O O O O O a.a.a.a.a.a.a.a.a.a.a.a.a.",
"a.a.a.a.a.a.a.a.a.O O O O O O O O O O O O O O O O O O O O O O O O O O O a.a.a.a.a.a.a.a.a.a.a.a.a.a.",
"a.a.a.a.a.a.a.a.a.a.a.a.a.a.a.a.a.a.a.O O O O O O O O O O O O O O O a.a.a.a.a.a.a.a.a.a.a.a.a.a.a.a.",
"a.a.a.a.a.a.a.a.a.a.a.a.a.a.a.a.a.a.a.a.O O O O O O O O O O O a.a.a.a.a.a.a.a.a.a.a.a.a.a.a.a.a.a.a.",
"a.a.a.a.a.a.a.a.a.a.a.a.a.a.a.a.a.a.a.a.a.O O O O O O O a.a.a.a.a.a.a.a.a.a.a.a.a.a.a.a.a.a.a.a.a.a.",
"a.a.a.a.a.a.a.a.a.a.a.a.a.a.a.a.a.a.a.a.a.a.a.a.a.a.a.a.a.a.a.a.a.a.a.a.a.a.a.a.a.a.a.a.a.a.a.a.a.a."
};
