/* XPM */
static xpm_row_t const FIREFRAME4_[] = {
/* columns rows colors chars-per-pixel */
"50 84 133 2 ",
"   c #E63927",
".  c #E63A27",
"X  c #E73E25",
"o  c #E73F25",
"O  c #E63C26",
"+  c #E63D26",
"@  c #E5332A",
"#  c #E53529",
"$  c #E53728",
"%  c #E53629",
"&  c #E5342A",
"*  c #E63928",
"=  c #E84B1F",
"-  c #E94F1D",
";  c #E94E1E",
":  c #EA5D17",
">  c #EA551B",
",  c #EA561A",
"<  c #E9501D",
"1  c #EB5A18",
"2  c #EB5C18",
"3  c #EE720D",
"4  c #EE710E",
"5  c #EE740D",
"6  c #EE770C",
"7  c #EF790B",
"8  c #EF7A0A",
"9  c #EF7B0A",
"0  c #EF7D09",
"q  c #EF7E08",
"w  c #F07F08",
"e  c #EC6513",
"r  c #EB6115",
"t  c #EB6215",
"y  c #EB6016",
"u  c #EC6215",
"i  c #EC6414",
"p  c #EC6812",
"a  c #ED6812",
"s  c #EC6813",
"d  c #ED6D10",
"f  c #ED6E10",
"g  c #EE6E10",
"h  c #E74223",
"j  c #E74422",
"k  c #E74522",
"l  c #E84621",
"z  c #E84A20",
"x  c #F08107",
"c  c #F08306",
"v  c #F08207",
"b  c #F08505",
"n  c #F08704",
"m  c #F18704",
"M  c #F08605",
"N  c #F18605",
"B  c #F08406",
"V  c #F18406",
"C  c #F18B02",
"Z  c #F18A03",
"A  c #F18B03",
"S  c #F28E01",
"D  c #F28F01",
"F  c #F18C02",
"G  c #F18D02",
"H  c #F28D02",
"J  c #F18804",
"K  c #F18904",
"L  c #F28F04",
"P  c #F29000",
"I  c #F29100",
"U  c #F29101",
"Y  c #F29201",
"T  c #F29202",
"R  c #F29203",
"E  c #F29303",
"W  c #F39303",
"Q  c #F29304",
"!  c #F29305",
"~  c #F29405",
"^  c #F39405",
"/  c #F39506",
"(  c #F39608",
")  c #F39709",
"_  c #F3970A",
"`  c #F3980B",
"'  c #F3990D",
"]  c #F39A0E",
"[  c #F4990C",
"{  c #F4990D",
"}  c #F4980F",
"|  c #F49B10",
" . c #F49C12",
".. c #F49D13",
"X. c #F49E14",
"o. c #F49E15",
"O. c #F59E15",
"+. c #F59F16",
"@. c #F59F18",
"#. c #F5A018",
"$. c #F5A019",
"%. c #F5A119",
"&. c #F5A11A",
"*. c #F5A31D",
"=. c #F6A41D",
"-. c #F6A41E",
";. c #F6A520",
":. c #F5A522",
">. c #F6A722",
",. c #F6A723",
"<. c #F6A824",
"1. c #F7A825",
"2. c #F6A926",
"3. c #F7A926",
"4. c #F7AA27",
"5. c #F6AA28",
"6. c #F7AA28",
"7. c #F7AB29",
"8. c #F7AB2A",
"9. c #F7AC2A",
"0. c #F7AC2B",
"q. c #F7AD2D",
"w. c #F7AE2E",
"e. c #F7AE2F",
"r. c #F7AF2F",
"t. c #F8AE2F",
"y. c #F8AF2F",
"u. c #F8AF30",
"i. c #F8B031",
"p. c #F8B032",
"a. c #F8B132",
"s. c #F8B133",
"d. c None",
/* pixels */
"d.d.d.d.d.d.d.d.d.d.d.d.d.d.d.d.d.d.d.d.d.d.d.d.d.d.d.d.d.d.d.d.d.d.d.d.d.d.d.d.d.d.d.d.d.d.d.d.d.d.",
"d.d.d.d.d.d.d.d.d.d.d.d.d.d.d.d.d.d.d.d.d.d.d.d.d.d.d.d.d.d.d.d.d.d.@ @ @ d.d.d.d.d.d.d.d.d.d.d.d.d.",
"d.d.d.d.d.d.d.d.d.d.d.d.d.d.d.d.d.d.d.d.d.d.d.d.d.d.d.d.d.d.d.d.d.d.@ @ @ d.d.d.d.d.d.d.d.d.d.d.d.d.",
"d.d.d.d.d.d.d.d.d.d.d.d.d.d.d.d.d.d.d.d.d.d.d.d.d.d.d.d.d.d.d.d.d.@ @ @ d.d.d.d.d.d.d.d.d.d.d.d.d.d.",
"d.d.d.d.d.d.d.d.d.d.d.d.d.d.d.d.d.d.d.d.d.d.d.d.d.d.d.d.d.d.d.d.d.@ @ @ d.d.d.d.d.d.d.d.d.d.d.d.d.d.",
"d.d.d.d.d.d.d.d.d.d.d.d.d.d.d.d.d.d.d.d.d.d.d.d.d.d.d.d.d.d.d.d.@ @ @ d.d.d.d.d.d.d.d.d.d.d.d.d.d.d.",
"d.d.d.d.d.d.d.d.d.d.d.d.d.d.d.d.d.d.d.d.d.d.d.d.d.d.d.d.d.d.d.d.@ @ @ d.d.d.d.d.d.d.d.d.d.d.d.d.d.d.",
"d.d.d.d.d.d.d.d.d.d.d.d.d.d.d.d.d.d.d.d.d.d.d.d.d.d.d.d.d.d.d.@ @ @ d.d.d.d.d.@ d.d.d.d.d.d.d.d.d.d.",
"d.d.d.d.d.d.d.d.d.d.d.d.d.d.d.d.d.d.d.d.d.d.d.d.d.d.d.d.d.d.d.@ @ d.d.d.d.@ @ @ @ d.d.d.d.d.d.d.d.d.",
"d.d.d.d.d.d.d.d.d.d.d.d.d.d.d.d.d.d.d.d.d.d.d.d.d.d.d.d.d.d.d.d.d.d.d.d.d.@ @ @ @ d.d.d.d.d.d.d.d.d.",
"d.d.d.d.d.d.d.d.d.d.d.d.d.d.d.d.d.d.d.d.d.d.d.d.d.d.d.d.d.d.d.d.d.d.d.d.@ @ @ @ d.d.d.d.d.d.d.d.d.d.",
"d.d.d.d.d.d.d.d.d.d.d.d.d.d.d.d.d.d.d.d.d.d.d.d.d.d.d.d.d.d.d.d.d.d.d.@ @ @ @ @ d.d.d.d.d.d.d.d.d.d.",
"d.d.d.d.d.d.d.d.d.d.d.d.d.d.d.d.d.d.d.d.d.d.d.d.d.d.d.d.d.d.d.d.d.d.d.@ @ @ @ @ d.d.d.d.d.d.d.d.d.d.",
"d.d.d.d.d.d.d.d.d.d.d.d.d.d.d.d.d.d.d.d.d.d.d.d.d.d.d.d.d.d.d.d.d.d.@ @ @ @ @ @ d.d.d.d.d.d.d.d.d.d.",
"d.d.d.d.d.d.d.d.d.d.d.d.d.d.d.d.d.d.d.d.d.d.d.d.@ @ d.d.d.d.d.@ d.@ @ @ @ @ @ @ d.d.d.d.d.d.d.d.d.d.",
"d.d.d.d.d.d.d.d.d.d.d.d.d.d.d.d.d.d.d.d.d.@ @ @ @ @ @ @ @ @ @ @ @ @ @ @ @ @ @ @ d.d.d.d.d.d.d.d.d.d.",
"d.d.d.d.d.d.d.d.d.d.d.d.d.d.d.d.d.d.d.d.@ @ @ @ @ @ @ @ @ @ @ @ @ @ @ @ @ @ @ d.d.d.d.d.d.d.d.d.d.d.",
"d.d.d.d.d.d.d.d.d.d.d.d.d.d.d.d.d.d.@ @ @ @ @ @ @ @ @ @ @ @ @ @ @ @ @ @ @ @ @ d.d.d.d.@ d.d.d.d.d.d.",
"d.d.d.d.d.d.d.d.d.d.d.d.d.d.d.d.d.@ @ @ @ @ @ @ @ @ @ @ @ @ @ @ o 5 p o @ @ @ @ @ @ @ @ d.d.d.d.d.d.",
"d.d.d.d.d.d.d.d.d.d.d.d.d.d.d.d.@ @ @ @ @ @ @ @ @ @ @ @ @ @ @ o C I I = @ @ @ @ @ @ @ @ @ d.d.d.d.d.",
"d.d.d.d.d.d.d.d.d.d.d.d.d.d.d.@ @ @ @ @ @ @ @ @ @ @ @ @ @ ; y V I I I = @ @ @ @ @ @ @ @ @ d.d.d.d.d.",
"d.d.d.d.d.d.d.d.d.d.d.d.d.d.@ @ @ @ @ @ @ @ @ @ @ @ d K I I I I I I I = @ @ @ @ @ @ @ @ @ d.d.d.d.d.",
"d.d.d.d.d.d.d.d.d.d.d.d.d.d.@ @ @ @ @ @ @ @   2 x I I I { / I I I I I 1 @ @ @ @ @ @ @ @ @ d.d.d.d.d.",
"d.d.d.d.d.d.d.d.d.d.d.d.d.@ @ @ @ @ @ @   u C I I I ;.s.s.s.w.+.I I I I , @ @ @ @ @ @ @ @ @ d.d.d.d.",
"d.d.d.d.d.d.d.d.d.d.d.d.d.@ @ @ @ @ @ k M I I I I I s.s.s.s.s.s.w.Q I I I w = @ @ @ @ @ @ @ @ d.d.d.",
"d.d.d.d.d.d.d.d.d.d.d.d.d.@ @ @ @ @ < C I I I I I I i.s.s.s.s.s.s.i.( I I I I A e   @ @ @ @ @ d.d.d.",
"d.d.d.d.d.d.d.d.d.d.d.d.d.@ @ @ @ k C I I I I I I I <.s.s.s.s.s.s.s.p.%.T I I I I B k @ @ @ @ @ d.d.",
"d.d.d.d.d.d.d.d.d.d.d.d.@ @ @ @   M I I I I I I I I +.s.s.s.s.s.s.s.s.s.s.+.I I I I N   @ @ @ @ d.d.",
"d.d.d.d.d.d.d.d.d.d.d.d.@ @ @ @ u I I / +./ I I I I / s.s.s.s.s.s.s.s.s.s.s.+.I I I I d @ @ @ @ d.d.",
"d.d.d.d.d.d.d.d.d.d.d.d.@ @ @ @ C I / u.s.s.r.T I I I 7.s.s.s.s.s.s.s.s.s.s.s.{ I I I P   @ @ @ @ d.",
"d.d.d.d.d.d.d.d.d.d.d.d.@ @ @ = I I 1.s.s.s.s.w.U I I O.s.s.s.s.s.s.s.s.s.s.s.u.T I I I u @ @ @ @ d.",
"d.d.d.d.d.d.d.d.d.d.d.d.@ @ @ , I I t.s.s.s.s.s. .I I T s.s.s.s.s.s.s.s.s.s.s.s.-.I I I M @ @ @ @ d.",
"d.d.d.d.d.d.d.d.d.d.d.d.@ @ @ u I I s.s.s.s.s.s.5.I I I ;.s.s.s.s.s.s.s.s.s.s.s.s.I I I A + @ @ @ d.",
"d.d.d.d.d.d.d.d.d.d.d.d.@ @ @ u I I s.s.s.s.s.s.s.^ I I E s.s.s.s.s.s.s.s.s.s.s.q.I I I 7 @ @ @ @ d.",
"d.d.d.d.d.d.d.d.d.d.d.d.@ @ @ = I _ s.s.s.s.s.s.s.,.I I I >.s.s.s.s.s.s.s.s.s.s.2.I I I 7 @ @ @ @ @ ",
"d.d.d.d.d.d.d.d.d.d.d.d.@ @ @ o I { s.s.s.s.s.s.s.a.I I I E s.s.s.s.s.s.s.s.s.s.%.I I I 7 @ @ @ @ @ ",
"d.d.d.d.d.d.d.d.d.d.d.d.@ @ @ @ 8 { s.s.s.s.s.s.s.s.&.I I I #.s.s.s.s.s.s.s.s.s.) I I I f @ @ @ @ @ ",
"d.d.d.d.d.d.d.d.d.d.d.d.d.@ @ @ = I s.s.s.s.s.s.s.s.i.I I I Y i.s.s.s.s.s.s.s.q.I I I I - @ @ @ @ @ ",
"d.d.d.d.d.d.d.d.d.d.d.d.d.@ @ @ @ g s.s.s.s.s.s.s.s.s.] I I I *.s.s.s.s.s.s.s.+.I I I A @ @ @ @ @ d.",
"d.d.d.d.d.d.d.d.d.d.d.d.d.d.@ @ @ u 0.s.s.s.s.s.s.s.s.0.I I I Y p.s.s.s.s.s.e.R I I I > @ @ @ @ @ d.",
"d.d.d.d.d.d.d.d.d.d.d.d.d.d.@ @ @ u *.s.s.s.s.s.s.s.s.s.' I I I *.s.s.s.s.s.} I I I 7 @ @ @ @ @ @ d.",
"d.d.d.d.d.d.d.d.d.d.d.d.d.d.@ @ @ a | s.s.s.s.s.s.s.s.s.2.I I I Y i.s.s.s.+.I I I A # @ @ @ @ @ d.d.",
"d.d.d.d.d.d.d.d.d.d.d.d.d.d.@ @ @ 4 I u.s.s.s.s.s.s.s.s.s.+.Y I I ..s.s...I I I G   @ @ @ @ @ @ d.d.",
"d.d.d.d.d.d.d.d.d.d.d.d.d.d.@ @ @ m I &.s.s.s.s.s.s.s.s.s.s...I I I &.) I I I c $ @ @ @ @ @ @ d.d.d.",
"d.d.d.d.d.d.d.d.d.d.d.d.d.d.@ @ k I I E u.s.s.s.s.s.s.s.s.s.;.I I I I I I I s & @ @ @ @ @ @ @ d.d.d.",
"d.d.d.d.d.d.d.d.d.d.d.d.d.@ @ @ u I I I | s.s.s.s.s.s.s.s.s.*.I I I I I N h @ @ @ @ @ @ @ @ d.d.d.d.",
"d.d.d.d.d.d.d.d.d.d.@ @ @ @ @ @ 8 I I I I ..s.s.s.s.s.s.s.;.E Z I I I w % @ @ @ @ @ @ @ @ d.d.d.d.d.",
"d.d.d.d.d.d.d.d.@ @ @ @ @ @ @ @ I I I I I I / ;.3.:.@.` W I D D I I I < @ @ @ @ @ @ @ @ d.d.d.d.d.d.",
"d.d.d.d.d.d.d.@ @ @ @ @ @ @ @ k I I I I I I I I I I I I I I I I I I I l @ @ @ @ @ @ d.d.d.d.d.d.d.d.",
"d.d.d.d.d.d.@ @ @ @ @ = 5 n I I I I I I I I I I I I I I I I c I I I I t @ @ @ @ @ d.d.d.d.d.d.d.d.d.",
"d.d.d.d.d.@ @ @ @ O b I I I I I I I I I I I I I I I I I S 7 M I I I I I < @ @ @ @ @ @ d.d.d.d.d.d.d.",
"d.d.d.d.@ @ @   i S I D I I I ! $.t.6.#.| ..o.%.2.s.s.u.,...E I I I I I A j @ @ @ @ @ @ d.d.d.d.d.d.",
"d.d.d.@ @ @   x I I I I I / 5.s.s.s.s.s.s.s.s.s.s.s.s.s.s.s.u.| I I I I I b @ @ @ @ @ @ @ d.d.d.d.d.",
"d.d.d.@ @ @ 8 I I I I I ..p.s.s.s.s.s.s.s.s.s.s.s.s.s.s.s.s.s.s.[ I I I I I t @ @ @ @ @ @ d.d.d.d.d.",
"d.d.@ @ @ u I I I I I | s.s.s.s.s.s.s.s.s.s.s.s.s.s.s.s.s.s.s.s.q.I I I I I A * @ @ @ @ @ @ d.d.d.d.",
"d.d.@ @   C I I I I E p.s.s.s.s.s.s.s.s.s.s.s.s.s.s.s.s.s.s.s.s.s.) I I I I I t @ @ @ @ @ @ d.d.d.d.",
"d.@ @ @ u I I I I I 1.s.s.s.s.s.s.s.s.s.s.s.s.s.s.s.s.s.s.s.s.s.s.*.I I I I I b @ @ @ @ @ @ d.d.d.d.",
"d.@ @ @ M I I I I / s.s.s.s.s.s.s.s.s.s.s.s.s.s.s.s.s.s.s.s.s.s.s.q.I I I I I I z @ @ @ @ @ @ d.d.d.",
"d.@ @ o I I I I I =.s.s.s.s.s.s.s.s.s.s.s.s.s.s.s.s.s.s.s.s.s.s.s.s.) I I I I I p @ @ @ @ @ @ d.d.d.",
"d.@ @ = I I I I I w.s.s.s.s.s.s.s.s.s.s.s.s.s.s.s.s.s.s.9.s.s.s.s.s.*.I I I I I 7 @ @ @ @ @ @ d.d.d.",
"@ @ @ u I I I I I s.s.s.s.s.s.s.s.s.s.s.s.s.s.s.s.s.s.s.s.s.s.s.s.s.q.I I I I I I @ @ @ @ @ @ @ d.d.",
"@ @ @ u I I I I { s.s.s.s.s.s.s.s.s.s.s.s.s.s.s.s.s.s.s.s.s.s.s.s.s.s.) I I I I I X @ @ @ @ @ @ d.d.",
"@ @ @ u I I I I ..s.s.s.s.s.s.s.s.s.s.s.s.s.s.s.s.s.s.s.s.s.s.s.s.s.s.*.I I I I I z @ @ @ @ @ @ d.d.",
"@ @ @ 2 I I I I &.s.s.s.s.s.s.s.s.s.s.s.s.s.s.s.s.s.s.s.s.s.s.s.s.s.s.q.I I I I I z @ @ @ @ @ @ d.d.",
"@ @ @ = I I I I &.s.s.s.s.s.s.s.s.s.s.s.s.s.s.s.s.s.s.s.s.s.s.s.s.s.s.s.I I I I I z @ @ @ @ @ @ d.d.",
"@ @ @ o I I I I &.s.s.s.s.s.s.s.s.s.s.s.s.s.s.s.s.s.s.s.s.s.s.s.s.s.s.q.I I I I I z @ @ @ @ @ @ d.d.",
"@ @ @ @ J I I I { s.s.s.s.s.s.s.s.s.s.s.s.s.s.s.s.s.s.s.s.s.s.s.s.s.s.#.I I I I I * @ @ @ @ @ @ d.d.",
"@ @ @ @ p I I I E s.s.s.s.s.s.s.s.s.s.s.s.y.s.s.s.s.s.s.s.s.s.s.s.s.s.Q I I I I A @ @ @ @ @ @ @ d.d.",
"d.@ @ @ k I I I I 3.s.s.s.s.s.s.s.s.s.s.s.s.s.s.s.s.s.s.s.s.s.s.s.s.;.I I I I I 7 @ @ @ @ @ @ @ d.d.",
"d.@ @ @ @ q I I I { s.s.s.s.s.s.s.s.s.s.s.s.s.s.s.s.s.s.s.s.s.s.s.u.E I I I I I 2 @ @ @ @ @ @ d.d.d.",
"d.@ @ @ @ k I I I I ;.s.s.s.s.s.s.s.p.s.s.s.s.s.s.s.s.s.s.s.s.s.s.| I I I I I I X @ @ @ @ @ @ d.d.d.",
"d.@ @ @ @ @ r I I I I | +.&.4.3.&._ _ u.s.s.s.s.s.s.s.s.s.s.s.p.%.I I I I I I 0 @ @ @ @ @ @ d.d.d.d.",
"d.d.@ @ @ @ @ 0 I I I I I I I I I I I L o.s.s.s.s.s.s.s.s.s.w.X.I I I I I I I z @ @ @ @ @ @ d.d.d.d.",
"d.d.@ @ @ @ @ @ 6 I I I I I I I I I I I I ) <.s.s.s.s.s.8.+.~ I I I I I I I 9 @ @ @ @ @ @ d.d.d.d.d.",
"d.d.@ @ @ @ @ @ @ f I I I I I I I I I I I I I R ' ' ' / I I I I I I I I I S % @ @ @ @ @ @ d.d.d.d.d.",
"d.d.d.@ @ @ @ @ @ @ a D I I I I I H : u G I I I I I I I I I I I I I I I Z . @ @ @ @ @ @ d.d.d.d.d.d.",
"d.d.d.d.@ @ @ @ @ @ @ @ z y 3 0 1 @ @ @   p D I I I I I I I I I I I F r @ @ @ @ @ @ @ d.d.d.d.d.d.d.",
"d.d.d.d.@ @ @ @ @ @ @ @ @ @ @ @ @ @ @ @ @ @ o p 8 0 v 0 N I I C 5 , @ @ @ @ @ @ @ @ d.d.d.d.d.d.d.d.",
"d.d.d.d.d.@ @ @ @ @ @ @ @ @ @ @ @ @ @ @ @ @ @ @ @ @ @ @ @ @ @ @ @ @ @ @ @ @ @ @ @ d.d.d.d.d.d.d.d.d.",
"d.d.d.d.d.d.@ @ @ @ @ @ @ @ @ @ @ @ @ @ @ @ @ @ @ @ @ @ @ @ @ @ @ @ @ @ @ @ @ @ d.d.d.d.d.d.d.d.d.d.",
"d.d.d.d.d.d.d.@ @ @ @ @ @ @ @ @ @ @ @ @ @ @ @ @ @ @ @ @ @ @ @ @ @ @ @ @ @ @ @ d.d.d.d.d.d.d.d.d.d.d.",
"d.d.d.d.d.d.d.d.d.@ @ @ @ @ @ @ @ @ @ @ @ @ @ @ @ @ @ @ @ @ @ @ @ @ @ @ @ @ d.d.d.d.d.d.d.d.d.d.d.d.",
"d.d.d.d.d.d.d.d.d.d.d.d.d.d.d.d.d.d.d.d.d.@ @ @ @ @ @ @ @ @ @ @ @ @ @ @ d.d.d.d.d.d.d.d.d.d.d.d.d.d.",
"d.d.d.d.d.d.d.d.d.d.d.d.d.d.d.d.d.d.d.d.d.d.d.d.d.@ @ @ @ @ @ @ @ d.d.d.d.d.d.d.d.d.d.d.d.d.d.d.d.d."
};
