/* XPM */
static xpm_row_t const FIREFRAME0_[] = {
/* columns rows colors chars-per-pixel */
"60 79 125 2 ",
"   c #E63927",
".  c #E63A27",
"X  c #E73D25",
"o  c #E73F25",
"O  c #E63D26",
"+  c #E5332A",
"@  c #E53529",
"#  c #E53629",
"$  c #E63728",
"%  c #E63828",
"&  c #E63928",
"*  c #E84B1F",
"=  c #E94E1E",
"-  c #EB5D17",
";  c #EA561A",
":  c #E9501D",
">  c #E9521C",
",  c #EA541C",
"<  c #EA5819",
"1  c #EB5A19",
"2  c #EB5C18",
"3  c #EF770B",
"4  c #EE700F",
"5  c #EE720E",
"6  c #EE750C",
"7  c #EE740D",
"8  c #EF790B",
"9  c #EF7A0A",
"0  c #EF7B0A",
"q  c #EF7D09",
"w  c #EF7E08",
"e  c #EF7E09",
"r  c #F07F08",
"t  c #EB6115",
"y  c #EB6215",
"u  c #EB6016",
"i  c #EC6215",
"p  c #EC6414",
"a  c #EC6514",
"s  c #EC6812",
"d  c #ED6812",
"f  c #ED6912",
"g  c #ED6C10",
"h  c #ED6E10",
"j  c #E74422",
"k  c #E74522",
"l  c #E84522",
"z  c #E84622",
"x  c #E84A20",
"c  c #F08007",
"v  c #F08306",
"b  c #F08207",
"n  c #F08505",
"m  c #F18704",
"M  c #F08605",
"N  c #F18605",
"B  c #F18903",
"V  c #F18B02",
"C  c #F18B03",
"Z  c #F28E01",
"A  c #F28F01",
"S  c #F18C02",
"D  c #F18D02",
"F  c #F28D02",
"G  c #F18E02",
"H  c #F18804",
"J  c #F18A04",
"K  c #F08008",
"L  c #F1870C",
"P  c #F28E0C",
"I  c #F29000",
"U  c #F29100",
"Y  c #F29001",
"T  c #F29101",
"R  c #F29201",
"E  c #F29303",
"W  c #F29204",
"Q  c #F29405",
"!  c #F29506",
"~  c #F39506",
"^  c #F3970A",
"/  c #F3970B",
"(  c #F4980B",
")  c #F3990C",
"_  c #F4980D",
"`  c #F4990D",
"'  c #F49A0F",
"]  c #F49B0F",
"[  c #F49B10",
"{  c #F49C13",
"}  c #F49D13",
"|  c #F59F16",
" . c #F5A018",
".. c #F5A119",
"X. c #F5A11A",
"o. c #F5A31C",
"O. c #F5A31D",
"+. c #F6A31D",
"@. c #F6A41D",
"#. c #F5A41E",
"$. c #F6A41E",
"%. c #F6A520",
"&. c #F6A724",
"*. c #F6A926",
"=. c #F7A926",
"-. c #F7AA27",
";. c #F7AA28",
":. c #F7AB28",
">. c #F7AA29",
",. c #F7AB2A",
"<. c #F7AC2A",
"1. c #F7AC2B",
"2. c #F7AD2C",
"3. c #F7AD2D",
"4. c #F7AE2E",
"5. c #F7AF2F",
"6. c #F8AD2D",
"7. c #F8AE2F",
"8. c #F8AF30",
"9. c #F8AF31",
"0. c #F8B031",
"q. c #F8B032",
"w. c #F8B132",
"e. c #F8B133",
"r. c None",
/* pixels */
"r.r.r.r.r.r.r.r.r.r.r.r.r.r.r.r.r.r.r.r.r.r.r.r.r.r.r.r.r.r.r.r.r.r.r.r.r.r.+ + + + + + + r.r.r.r.r.r.r.r.r.r.r.r.r.r.r.",
"r.r.r.r.r.r.r.r.r.r.r.r.r.r.r.r.r.r.r.r.r.r.r.r.r.r.r.r.r.r.r.r.r.r.r.+ + + + + + + + + + + + + + r.r.r.r.r.r.r.r.r.r.r.",
"r.r.r.r.r.r.r.r.r.r.r.r.r.r.r.r.r.r.r.r.r.r.r.+ + + + r.r.r.r.r.r.r.r.r.r.r.r.r.r.r.r.r.+ + + + + + + r.r.r.r.r.r.r.r.r.",
"r.r.r.r.r.r.r.r.r.r.r.r.r.r.r.r.r.r.r.r.+ + + + + + r.r.r.r.r.r.r.r.r.r.r.r.r.r.r.r.r.r.r.r.r.+ + + + + + r.r.r.r.r.r.r.",
"r.r.r.r.r.r.r.r.r.r.r.r.r.r.r.r.r.r.r.+ + + + r.r.r.r.r.r.r.r.r.r.r.r.r.r.r.r.r.r.r.r.r.r.r.r.r.+ + + + + + r.r.r.r.r.r.",
"r.r.r.r.r.r.r.r.r.r.r.r.r.r.r.r.r.r.r.r.r.r.r.r.r.r.r.r.r.r.r.r.r.r.r.r.r.r.r.r.r.r.r.r.r.r.r.r.+ + + + + + + r.r.r.r.r.",
"r.r.r.r.r.r.r.r.r.r.r.r.r.r.r.r.r.r.r.r.r.r.r.r.r.r.r.r.r.r.r.r.r.r.r.r.r.r.r.r.r.r.r.r.r.r.r.r.r.+ + + + + + + r.r.r.r.",
"r.r.r.r.r.r.r.r.r.r.r.r.r.r.r.r.r.r.r.r.r.r.r.r.r.r.r.r.r.r.r.r.r.r.r.r.r.r.r.r.r.r.r.r.r.r.r.r.r.+ + + + + + + + r.r.r.",
"r.r.r.r.r.r.r.r.r.r.r.r.r.r.r.r.r.r.r.r.r.r.r.r.r.r.r.r.r.r.r.r.r.r.r.r.r.r.r.r.r.r.r.r.r.r.r.r.r.r.+ + + + + + + + r.r.",
"r.r.r.r.r.r.r.r.r.r.r.r.r.r.r.r.r.r.r.r.r.r.r.r.r.r.r.r.r.r.r.r.r.r.r.r.r.r.r.r.r.r.r.r.r.r.r.r.r.+ + + + + + + + + r.r.",
"r.r.r.r.r.r.r.r.r.r.r.r.r.r.r.r.r.r.r.r.r.r.r.r.r.r.r.r.r.r.r.r.r.r.r.r.r.r.r.r.r.r.r.r.r.r.r.r.r.+ + + + + + + + + + r.",
"r.r.r.r.r.r.r.r.r.r.r.r.r.r.r.r.r.r.r.r.r.r.r.r.r.r.r.r.r.r.r.r.r.r.r.r.r.r.r.r.r.r.r.r.r.r.r.r.+ + + + + + + + + + + r.",
"r.r.r.r.r.r.r.r.r.r.r.r.r.r.r.r.r.r.r.r.r.r.r.r.r.r.r.r.r.r.r.r.r.r.r.r.r.r.r.r.r.r.r.r.r.r.r.+ + + + + + + + + + + + r.",
"r.r.r.r.r.r.r.r.r.r.r.r.r.r.r.r.r.r.r.r.r.r.r.r.r.r.r.r.r.r.r.r.r.r.r.r.r.r.r.r.r.r.r.r.r.r.r.+ + + + + + + + + + + + r.",
"r.r.r.r.r.r.r.r.r.r.r.r.r.r.r.r.r.r.r.r.r.r.r.r.r.r.r.r.r.r.r.r.r.r.r.r.r.r.r.r.r.r.r.r.r.r.+ + + + + + + + + + + + + r.",
"r.r.r.r.r.r.r.r.r.r.r.r.r.r.r.r.r.r.r.r.r.r.r.r.r.r.r.r.r.r.r.r.r.r.r.r.r.r.r.r.r.r.r.r.r.+ + + + + + + + + + + + + + r.",
"r.r.r.r.r.r.r.r.r.r.r.r.r.r.r.r.r.r.r.r.r.r.r.r.r.r.r.r.r.r.r.r.r.r.r.r.r.r.r.r.r.r.r.r.+ + + + + + + + + + + + + + + r.",
"r.r.r.r.r.r.r.r.r.r.r.r.r.r.r.r.r.r.r.r.r.r.r.r.r.r.r.r.r.r.r.r.r.r.r.r.r.r.r.r.r.r.+ + + + + + + + + + + + + + + + + r.",
"r.r.r.r.r.r.r.r.r.r.r.r.r.r.r.r.r.r.r.r.r.r.r.r.r.r.r.r.r.r.r.r.r.r.r.r.r.r.r.r.+ + + + + + + + + + + + + + + + + + + r.",
"r.r.r.r.r.r.r.r.r.r.r.r.r.r.r.r.r.r.r.r.r.r.r.r.r.r.r.r.r.r.r.r.r.r.r.r.r.+ + + + + + + + + + + + + + + + + + + + + + r.",
"r.r.r.r.r.r.r.r.r.r.r.r.r.r.r.r.r.r.r.r.r.r.r.r.r.r.r.r.r.r.+ + + + + + + + + + + + + + + + + + + + + + + + + + + + + r.",
"r.r.r.r.r.r.r.r.r.r.r.r.r.r.r.r.r.r.r.r.r.r.r.r.r.r.r.+ + + + + + + + + + + + + + + + + + + + + + + + + + + + + + + r.r.",
"r.r.r.r.r.r.r.r.r.r.r.r.r.r.r.r.r.r.r.r.r.r.r.r.r.+ + + + + + + + + + + + + + + + + + + + + + + + + + + + + + + + + r.r.",
"r.r.r.r.r.r.r.r.r.r.r.r.r.r.r.r.r.r.r.r.r.r.r.r.+ + + + + + + + + + + + + + + u 9 9 9 < + + + + + + + + + + + + + r.r.r.",
"r.r.r.r.r.r.r.r.r.r.r.r.r.r.r.r.r.r.r.r.r.r.r.+ + + + + + + + + o 2 i i : p Y U U U U U e + + + + + + + + + + + r.r.r.r.",
"r.r.r.r.r.r.r.r.r.r.r.r.r.r.r.r.r.r.r.r.r.r.+ + + + + + + +   5 U U U U U U U U U U U U U 1 + + + + + + + + + + r.r.r.r.",
"r.r.r.r.r.r.r.r.r.r.r.r.r.r.r.r.r.r.r.r.r.r.+ + + + + + + y I U U U U U U U U U U U U U U S + + + + + + + + + r.r.r.r.r.",
"r.r.r.r.r.r.r.r.r.r.r.r.r.r.r.r.r.r.r.r.r.+ + + + + +   w U U U U U U U U U U U U U U U U U @ + + + + + + + r.r.r.r.r.r.",
"r.r.r.r.r.r.r.r.r.r.r.r.r.r.r.r.r.r.r.r.r.+ + + + +   V U U U U U U U U U U U U U U U U U U + + + + + + + r.r.r.r.r.r.r.",
"r.r.r.r.r.r.r.r.r.r.r.r.r.r.r.r.r.r.r.r.r.+ + + + + 9 U U U U U U U U U E ` _ U U U U U U U + + + + + r.r.r.r.r.r.r.r.r.",
"r.r.r.r.r.r.r.r.r.r.r.r.r.r.r.r.r.r.r.r.r.+ + + + . U U U U U U U U U U 1.e.e.=.W U U U U U + + + + + + + r.r.r.r.r.r.r.",
"r.r.r.r.r.r.r.r.r.r.r.r.r.r.r.r.r.r.r.r.r.+ + + + y U U U U U U U U ` <.e.e.e.e.%.U U U U U + + + + + + + + + r.r.r.r.r.",
"r.r.r.r.r.r.r.r.r.r.r.r.r.r.r.r.r.r.r.r.r.+ + + + 9 U U U U U U E O.e.e.e.e.e.e.e.U Z U U 7 + + + + + + + + + r.r.r.r.r.",
"r.r.r.r.r.r.r.r.r.r.r.r.r.r.r.r.r.r.r.r.r.r.+ + + 7 U U U U U ^ 3.e.e.e.e.e.e.e.e.( A U U ; + + + + + + + + + + r.r.r.r.",
"r.r.r.r.r.r.r.r.r.r.r.r.r.r.r.r.r.r.r.r.r.r.r.+ + 2 U U U U } 8.e.e.e.e.e.e.e.e.e.Q U U F r h 2 & + + + + + + + + r.r.r.",
"r.r.r.r.r.r.r.r.r.r.r.r.r.r.r.r.r.r.r.r.r.r.r.+ +   U U U U 8.e.e.e.e.e.e.e.e.e.6.U U U U U U U C ; + + + + + + + r.r.r.",
"r.r.r.r.r.r.r.r.r.r.r.r.r.r.r.r.r.r.r.r.r.r.r.+ + + 4 U U ^ e.e.e.e.e.9.|  .@./ U U U U U U U U U U j + + + + + + r.r.r.",
"r.r.r.r.r.r.r.r.r.r.r.r.r.r.r.r.r.r.r.r.r.r.r.+ + + , U U U ` *.2.:.%.~ U U U U U U U U U U U U U U 8 + + + + + + + r.r.",
"r.r.r.r.r.r.r.r.r.r.r.r.r.r.r.r.r.r.r.r.r.r.+ + + + c U U U U U U U U U U U U U G U U Y U U U U U U U & + + + + + + r.r.",
"r.r.r.r.r.r.r.r.r.r.r.r.r.r.r.r.r.r.r.r.r.r.+ + + * U U U U U U U U U Z U U U U U U U H U U U U U U U x + + + + + + r.r.",
"r.r.r.r.r.r.r.r.r.r.r.r.r.r.r.r.r.r.r.r.r.r.+ + + h U U U U U U U U U U U U U U U U U m U U U U U I U x + + + + + r.r.r.",
"r.r.r.r.r.r.r.r.r.r.r.r.r.r.r.r.r.r.r.r.r.+ + + + V U U U U U U U } 5.8.) U U U U U U U U U U U U A U & + + + + + r.r.r.",
"r.r.r.r.r.r.r.r.r.r.r.r.r.r.r.r.r.r.+ + + + + + * U U U U U U U E e.e.e.,.U U U U U U U U U U U U U 7 + + + + + + r.r.r.",
"r.r.r.r.r.r.r.r.r.r.r.r.r.r.r.+ + + + + + + + + i U U U U U U ^ ,.e.e.e.-.U U U U U U U U U U U U U x + + + + + r.r.r.r.",
"r.r.r.r.r.r.r.r.r.r.r.r.r.+ + + + + + + + + + + 6 U U U U U E ,.e.e.e.e.&.U U U U U U U U U U U U 2 + + + + + + r.r.r.r.",
"r.r.r.r.r.r.r.r.r.r.r.+ + + + + + + + + + : h V U U U U U U ,.e.e.e.e.e. .U U U U U U U U U U U ; + + + + + + r.r.r.r.r.",
"r.r.r.r.r.r.r.r.r.r.+ + + + + + + + k h V U U U U U U U U %.e.e.e.e.e.w.E U U U U U U U U U 8 j + + + + + + r.r.r.r.r.r.",
"r.r.r.r.r.r.r.r.r.+ + + + + + + ; K U U U U U U U U U ~ ;.e.e.e.e.e.e.%.U U U U U U U V s j + + + + + + + r.r.r.r.r.r.r.",
"r.r.r.r.r.r.r.+ + + + + + + : M U U U U U U U U U E +.e.e.e.e.e.e.e.8.U U U U U U U U = + + + + + + + r.r.r.r.r.r.r.r.r.",
"r.r.r.r.r.r.+ + + + + +   9 U U U U U U U U U U ` 4.e.e.e.e.e.e.e.e.^ U U U R P U U U > + + + r.r.r.r.r.r.r.r.r.r.r.r.r.",
"r.r.r.r.r.+ + + + + + k V U U U U U U U U U } ,.e.e.e.e.e.e.e.e.e...U U T >.e.e.^ U U X + + + + r.r.r.r.r.r.r.r.r.r.r.r.",
"r.r.r.r.+ + + + + + k V U U U U U U U U [ 3.e.e.e.e.e.e.e.e.e.e.,.U U L 7.e.e.e.~ U Y + + + + + r.r.r.r.r.r.r.r.r.r.r.r.",
"r.r.r.r.+ + + + + k V U U U U U U U U O.e.e.e.e.e.e.e.e.e.e.e.0.E U { e.e.e.e.$.U U b + + + + + r.r.r.r.r.r.r.r.r.r.r.r.",
"r.r.r.+ + + + + + K U U U U U U U U %.e.e.e.e.e.e.e.e.e.e.e.e.' U { e.e.e.e.w.E U U - + + + + + r.r.r.r.r.r.r.r.r.r.r.r.",
"r.r.+ + + + + + ; U U U U U U U U } e.e.e.e.e.e.e.e.e.e.e.e.@.~ +.q.e.e.e.e.#.U U U   + + + + + r.r.r.r.r.r.r.r.r.r.r.r.",
"r.r.+ + + + + + M U U U U U U U ~ 8.e.e.e.e.e.e.e.e.e.e.e.3.[ 8.e.e.e.e.e.8.U U U 0 + + + + + + r.r.r.r.r.r.r.r.r.r.r.r.",
"r.+ + + + + + ; U U U U U U U U %.e.e.e.e.e.e.e.e.e.e.e.e.8.e.e.e.e.e.e.e.] U U U ; + + + + + + r.r.r.r.r.r.r.r.r.r.r.r.",
"r.+ + + + + + 0 U U U U U U U ~ e.e.e.e.e.e.e.e.e.e.e.e.e.e.e.e.e.e.e.e.*.U U U Z + + + + + + r.r.r.r.r.r.r.r.r.r.r.r.r.",
"r.+ + + + + + Y U U U U U U U X.e.e.e.e.e.e.e.e.e.e.e.e.e.e.e.e.e.e.e.0.~ U U U d + + + + + + r.r.r.r.r.r.r.r.r.r.r.r.r.",
"+ + + + + + l U U U U U U U U 4.e.e.e.e.e.e.e.e.e.e.e.e.e.e.e.e.e.e.e.X.U U U I   + + + + + + r.r.r.r.r.r.r.r.r.r.r.r.r.",
"+ + + + + + f U U U U U U U ~ e.e.e.e.e.e.e.e.e.e.e.e.e.e.e.e.e.e.e.3.U U U U 7 + + + + + + + r.r.r.r.r.r.r.r.r.r.r.r.r.",
"+ + + + + + v U U U U U U U } e.e.e.e.e.e.e.e.e.e.e.e.e.e.e.e.e.e.e.` U U U Y + + + + + + + + r.r.r.r.r.r.r.r.r.r.r.r.r.",
"+ + + + + + S U U U U U U U #.e.e.e.e.e.e.e.e.e.e.e.e.e.e.e.e.e.e.O.U U U U g + + + + + + + + r.r.r.r.r.r.r.r.r.r.r.r.r.",
"+ + + + + + U U U U U U U U ,.e.e.e.e.e.e.e.e.e.e.e.e.e.e.e.e.e.3.E U U U Y + + + + + + + + r.r.r.r.r.r.r.r.r.r.r.r.r.r.",
"+ + + + + + U U U U U U U U 0.e.e.e.e.e.e.e.e.e.e.e.e.e.e.e.e.e.` U U U U t + + + + + + + + r.r.r.r.r.r.r.r.r.r.r.r.r.r.",
"+ + + + + + B U U U U U U U e.e.e.e.e.e.e.e.e.e.e.e.e.e.e.e.e.O.U U U U m + + + + + + + + + r.r.r.r.r.r.r.r.r.r.r.r.r.r.",
"+ + + + + + N U U U I U U U e.e.e.e.e.e.e.e.e.e.e.e.e.e.e.e.,.E U U U J # + + + + + + + + r.r.r.r.r.r.r.r.r.r.r.r.r.r.r.",
"+ + + + + + 3 U U U U U U U e.e.e.e.e.e.e.e.e.e.e.e.e.e.e.8.^ U U U r % + + + + + + + + + r.r.r.r.r.r.r.r.r.r.r.r.r.r.r.",
"r.+ + + + + > U U U U U U U w.e.e.e.e.e.e.e.e.e.e.e.e.e.8.^ U U U 8 $ + + + + + + + + + + r.r.r.r.r.r.r.r.r.r.r.r.r.r.r.",
"r.+ + + + +   U U U U U U U o.e.e.e.e.e.e.e.e.e.e.e.e.=.~ U U U s + + + + + + + + + + + r.r.r.r.r.r.r.r.r.r.r.r.r.r.r.r.",
"r.+ + + + + + h U U U U U U R ! [ O.=.e.e.e.e.e.,.O.^ U E T C : + + + + + + + + + + + r.r.r.r.r.r.r.r.r.r.r.r.r.r.r.r.r.",
"r.r.+ + + + +   K U U U U U U U U U U U U U U U U U U U U 8 O + + + + + + + + + + + + r.r.r.r.r.r.r.r.r.r.r.r.r.r.r.r.r.",
"r.r.r.+ + + + +   9 U U U U U U U U U U U U U U U U U D 2 + + + + + + + + + + + + + r.r.r.r.r.r.r.r.r.r.r.r.r.r.r.r.r.r.",
"r.r.r.r.+ + + + + + * 7 U U U U U U U U U U U U U D s % + + + + + + + + + + + + + r.r.r.r.r.r.r.r.r.r.r.r.r.r.r.r.r.r.r.",
"r.r.r.r.r.+ + + + + + +   * i h 9 r U U n n q a z + + + + + + + + + + + + + + + r.r.r.r.r.r.r.r.r.r.r.r.r.r.r.r.r.r.r.r.",
"r.r.r.r.r.r.+ + + + + + + + + + + + + + + + + + + + + + + + + + + + + + + + + r.r.r.r.r.r.r.r.r.r.r.r.r.r.r.r.r.r.r.r.r.",
"r.r.r.r.r.r.r.r.+ + + + + + + + + + + + + + + + + + + + + + + + + + + + + r.r.r.r.r.r.r.r.r.r.r.r.r.r.r.r.r.r.r.r.r.r.r.",
"r.r.r.r.r.r.r.r.r.r.+ + + + + + + + + + + + + + + + + + + + + + + + r.r.r.r.r.r.r.r.r.r.r.r.r.r.r.r.r.r.r.r.r.r.r.r.r.r.",
"r.r.r.r.r.r.r.r.r.r.r.r.r.+ + + + + + + + + + + + + + + + + r.r.r.r.r.r.r.r.r.r.r.r.r.r.r.r.r.r.r.r.r.r.r.r.r.r.r.r.r.r."
};
