/* XPM */
static xpm_row_t const FIREFRAME5_[] = {
/* columns rows colors chars-per-pixel */
"52 91 146 2 ",
"   c #E63927",
".  c #E63A27",
"X  c #E63B27",
"o  c #E73F25",
"O  c #E63C26",
"+  c #E5332A",
"@  c #E53628",
"#  c #E53728",
"$  c #E53629",
"%  c #E5342A",
"&  c #E63828",
"*  c #E63928",
"=  c #E84B1F",
"-  c #E94E1D",
";  c #E94D1E",
":  c #E84E1F",
">  c #EB5F16",
",  c #EC5F16",
"<  c #E9541B",
"1  c #EA561A",
"2  c #E9501D",
"3  c #E9531C",
"4  c #EA531C",
"5  c #EA5B18",
"6  c #EB5B18",
"7  c #EB5C18",
"8  c #EB5D18",
"9  c #ED6F0F",
"0  c #ED710E",
"q  c #ED700F",
"w  c #EE710E",
"e  c #EE740D",
"r  c #EE750D",
"t  c #EE760C",
"y  c #EF770C",
"u  c #EF7B09",
"i  c #EF790A",
"p  c #EF790B",
"a  c #EF7A0A",
"s  c #EF7C09",
"d  c #EF7D09",
"f  c #F07F08",
"g  c #EC6613",
"h  c #EC6713",
"j  c #EC6215",
"k  c #EC6414",
"l  c #EC6514",
"z  c #EC6A11",
"x  c #ED6A11",
"c  c #EC6812",
"v  c #ED6912",
"b  c #ED6813",
"n  c #EC6A12",
"m  c #ED6C11",
"M  c #ED6E10",
"N  c #E74223",
"B  c #E74621",
"V  c #E74522",
"C  c #E84721",
"Z  c #E84522",
"A  c #E84622",
"S  c #E84A20",
"D  c #F08007",
"F  c #F08107",
"G  c #F08207",
"H  c #F08505",
"J  c #F08704",
"K  c #F08605",
"L  c #F08406",
"P  c #F18B02",
"I  c #F18A03",
"U  c #F18B03",
"Y  c #F18E01",
"T  c #F28E01",
"R  c #F28F01",
"E  c #F18C02",
"W  c #F18D02",
"Q  c #F28D02",
"!  c #F18804",
"~  c #F08008",
"^  c #F28E0A",
"/  c #F29000",
"(  c #F29100",
")  c #F29001",
"_  c #F29201",
"`  c #F29103",
"'  c #F29202",
"]  c #F29302",
"[  c #F29303",
"{  c #F39303",
"}  c #F39405",
"|  c #F39506",
" . c #F39608",
".. c #F29709",
"X. c #F39709",
"o. c #F3970A",
"O. c #F3980B",
"+. c #F3980C",
"@. c #F3990C",
"#. c #F4990C",
"$. c #F4990D",
"%. c #F49811",
"&. c #F49B10",
"*. c #F49B11",
"=. c #F49C11",
"-. c #F49C12",
";. c #F49D13",
":. c #F49E14",
">. c #F59F16",
",. c #F59E17",
"<. c #F59F17",
"1. c #F5A017",
"2. c #F5A018",
"3. c #F5A119",
"4. c #F5A11A",
"5. c #F5A21B",
"6. c #F5A21C",
"7. c #F5A31D",
"8. c #F6A31D",
"9. c #F6A41F",
"0. c #F6A51F",
"q. c #F6A520",
"w. c #F6A723",
"e. c #F7A724",
"r. c #F6A824",
"t. c #F6A825",
"y. c #F6A926",
"u. c #F7A926",
"i. c #F7A927",
"p. c #F7AA27",
"a. c #F7AA28",
"s. c #F7AB29",
"d. c #F7AB2A",
"f. c #F7AC2A",
"g. c #F7AD2D",
"h. c #F7AE2E",
"j. c #F8AD2D",
"k. c #F8AE2D",
"l. c #F8AE2E",
"z. c #F8AE2F",
"x. c #F8AF30",
"c. c #F8B031",
"v. c #F8B032",
"b. c #F8B132",
"n. c #F8B133",
"m. c None",
/* pixels */
"m.m.m.m.m.m.m.m.m.m.m.m.m.m.m.m.m.m.m.m.m.m.m.m.m.m.m.m.m.m.m.m.m.m.m.m.m.m.m.m.m.m.m.m.m.m.m.m.m.m.m.m.",
"m.m.m.m.m.m.m.m.m.m.m.m.m.m.m.m.m.m.m.m.m.m.m.m.m.m.+ m.m.m.m.m.m.m.m.m.m.m.m.m.m.m.m.m.m.m.m.m.m.m.m.m.",
"m.m.m.m.m.m.m.m.m.m.m.m.m.m.m.m.m.m.m.m.m.m.m.m.m.m.+ m.m.m.m.m.+ + + m.m.m.m.m.m.m.m.m.m.m.m.m.m.m.m.m.",
"m.m.m.m.m.m.m.m.m.m.m.m.m.m.m.m.m.m.m.m.m.m.m.m.m.+ + m.m.m.m.m.+ + + m.m.m.m.m.m.m.m.m.m.m.m.m.m.m.m.m.",
"m.m.m.m.m.m.m.m.m.m.m.m.m.m.m.m.m.m.m.m.m.m.m.m.+ + + m.m.m.+ + + + + m.m.m.m.m.m.m.m.m.m.m.m.m.m.m.m.m.",
"m.m.m.m.m.m.m.m.m.m.m.m.m.m.m.m.m.m.m.m.m.m.m.+ + + + m.m.m.+ + + + m.m.m.m.m.m.m.m.m.m.m.m.m.m.m.m.m.m.",
"m.m.m.m.m.m.m.m.m.m.m.m.m.m.m.m.m.m.m.m.m.m.+ + + + m.m.m.+ + + + + m.m.m.m.m.m.m.m.m.m.m.m.m.m.m.m.m.m.",
"m.m.m.m.m.m.m.m.m.m.m.m.m.m.m.m.m.m.m.m.m.m.+ + + + m.m.m.+ + + + + m.m.m.m.m.m.m.m.m.m.m.m.m.m.m.m.m.m.",
"m.m.m.m.m.m.m.m.m.m.m.m.m.m.m.m.m.m.m.m.m.m.+ + + + m.m.m.+ + + + + m.m.m.m.m.m.m.m.m.m.m.m.m.m.m.m.m.m.",
"m.m.m.m.m.m.m.m.m.m.m.m.m.m.m.m.m.m.m.m.m.m.+ + + m.m.m.+ + + + + + m.m.m.m.m.m.m.m.m.m.m.m.m.m.m.m.m.m.",
"m.m.m.m.m.m.m.m.m.m.m.m.m.m.m.m.m.m.m.m.m.m.+ m.m.m.m.m.+ + + + + + m.m.m.m.m.m.m.m.m.m.m.m.m.m.m.m.m.m.",
"m.m.m.m.m.m.m.m.m.m.m.m.m.m.m.m.m.m.m.m.m.m.+ m.m.m.m.m.+ + + + + + + m.m.m.m.m.m.m.m.m.m.m.m.m.m.m.m.m.",
"m.m.m.m.m.m.m.m.m.m.m.m.m.m.m.m.m.m.m.m.m.m.+ m.m.m.m.m.+ + + + + + + m.m.m.m.m.m.m.m.m.m.m.m.m.m.m.m.m.",
"m.m.m.m.m.m.m.m.m.m.m.m.m.m.m.m.m.m.m.m.m.m.+ m.m.m.m.m.+ + + + + + + m.m.m.m.m.m.m.m.m.m.m.m.m.m.m.m.m.",
"m.m.m.m.m.m.m.m.m.m.m.m.m.m.m.m.m.m.m.m.m.m.m.m.m.m.m.m.+ + + + + + + + m.m.m.m.m.m.m.m.m.m.m.m.m.m.m.m.",
"m.m.m.m.m.m.m.m.m.m.m.m.m.m.m.m.m.m.m.m.m.m.m.m.m.m.m.m.m.+ + + + + + + m.m.m.m.m.m.m.m.m.m.m.m.m.m.m.m.",
"m.m.m.m.m.m.m.m.m.m.m.m.m.m.m.m.m.m.m.m.m.m.m.m.m.m.m.m.m.+ + + + + + + + m.m.m.m.m.m.m.m.m.m.m.m.m.m.m.",
"m.m.m.m.m.m.m.m.m.m.m.m.m.m.m.m.m.m.m.m.m.m.m.+ + m.m.m.m.+ + + + + + + + m.m.m.m.m.m.m.m.m.m.m.m.m.m.m.",
"m.m.m.m.m.m.m.m.m.m.m.m.m.m.m.m.m.m.m.m.m.m.+ + + + m.m.+ + + + + + + + + + m.m.m.m.m.m.m.m.m.m.m.m.m.m.",
"m.m.m.m.m.m.m.m.m.m.m.m.m.m.+ m.m.m.m.m.m.m.+ + + + + + m.+ + + + + + + + + m.m.m.m.m.m.m.m.m.m.m.m.m.m.",
"m.m.m.m.m.m.m.m.m.m.m.m.+ + + + m.m.m.m.m.m.m.+ + + + + + + + + + + + + + + + m.m.m.m.m.m.m.m.m.m.m.m.m.",
"m.m.m.m.m.m.m.m.m.m.m.m.m.+ + + + m.m.m.m.m.m.+ + + + + + + m.+ + + + + + + + + + m.m.m.m.m.m.m.m.m.m.m.",
"m.m.m.m.m.m.m.m.m.m.m.m.m.m.+ + + + m.m.m.m.m.+ + + + + + + + + +   + + + + + + + + m.m.m.m.m.m.m.m.m.m.",
"m.m.m.m.m.m.m.m.m.m.m.m.m.m.+ + + + + m.m.m.m.+ + + + + + +   j a ( ( ( c + + + + + + m.m.m.m.m.m.m.m.m.",
"m.m.m.m.m.m.m.m.m.m.m.m.m.m.m.+ + + + m.m.m.m.+ + + + + + + ~ ( ( ( ( ( ( Z + + + + + + m.m.m.m.m.m.m.m.",
"m.m.m.m.m.m.m.m.m.m.m.m.m.m.m.+ + + + + m.m.m.+ + + + + + < ( ( ;.w.q.| ( V + + + + + + + m.m.m.m.m.m.m.",
"m.m.m.m.m.m.m.m.m.m.m.m.m.m.m.+ + + + + + + m.+ + + + + . ( ( u.n.n.n.w.( 2 + + + + + + + + m.m.m.m.m.m.",
"m.m.m.m.m.m.m.m.m.m.m.m.m.m.m.+ + + + + + + + + + + + V H ( >.n.n.n.n.n.( c + + + + + + + + + m.m.m.m.m.",
"m.m.m.m.m.m.m.m.m.m.m.m.m.m.+ + + + + + + + + + + + + ~ ( [ c.n.n.n.n.n.' ) 9 + + + + + + + + m.m.m.m.m.",
"m.m.m.m.m.m.m.m.m.m.m.m.m.m.+ + + + + + + + + + + + e ( ( t.n.n.n.n.n.c.( ( ( j + + + + + + + + m.m.m.m.",
"m.m.m.m.m.m.m.m.m.m.m.m.m.m.+ + + + + + + + V j F R ( ( ;.n.n.n.n.n.n.n.*.( ( ( = + + + + + + + m.m.m.m.",
"m.m.m.m.m.m.m.m.m.m.m.m.m.m.+ + + + + + 2 K ( ( ( ( ( ( g.n.n.n.n.n.n.n.x.[ ( ( K + + + + + + + + m.m.m.",
"m.m.m.m.m.m.m.m.m.m.m.m.m.+ + + + + + M ( ( ( ( ( ( ( [ n.n.n.n.n.n.n.n.n.q.( ( ( j + + + + + + + m.m.m.",
"m.m.m.m.m.m.m.m.m.m.m.m.m.+ + + + + ~ ( ( ( ( ( ( ( ( o.n.n.n.n.n.n.n.n.n.n.6.( ( P + + + + + + + + m.m.",
"m.m.m.m.m.m.m.m.m.m.m.m.+ + + + + M ( ( ( ( ( ( ( ( ( ( x.n.n.n.n.n.n.n.n.n.n.o.( ( 1 + + + + + + + m.m.",
"m.m.m.m.m.m.m.m.m.m.m.m.+ + + + = ( ( ( ( ( ( ( ( ( ( ( 7.n.n.n.n.n.n.n.n.n.n.d.( ( e + + + + + + + m.m.",
"m.m.m.m.m.m.m.m.m.m.m.+ + + + + a ( ( ( ( ( ( ( ( ( ( ( | n.n.n.n.n.n.n.n.n.n.n.o.( (   + + + + + + m.m.",
"m.m.m.m.m.m.m.m.m.m.+ + + + + V ( ( ( ( ( ` 2.e.4.o.( ( ( w.n.n.n.n.n.n.n.b.n.n.q.( ( 2 + + + + + + + m.",
"m.m.m.m.m.m.m.m.m.m.+ + + + + ~ ( ( ( ( -.n.n.n.n.4.( ( ( $.n.n.n.n.n.n.n.n.n.n.h.( ( j + + + + + + + m.",
"m.m.m.m.m.m.m.m.m.+ + + + + j ( ( ( [ y.n.n.n.n.n.&.( ( ( ( d.n.n.n.n.n.n.n.n.n.n.| ( M + + + + + + + m.",
"m.m.m.m.m.m.m.m.m.+ + + + O ( ( ( ] x.n.n.n.n.n.n.$.( ( ( ( ;.n.n.n.n.n.n.n.n.n.n.$.( s + + + + + + + m.",
"m.m.m.m.m.m.m.m.+ + + + + 6 ( ( ( 7.n.n.n.n.n.n.n.( ( ( ( ( ( g.n.n.n.n.n.n.n.n.n.$.( f + + + + + + + m.",
"m.m.m.m.m.m.m.m.+ + + + + U ( ( [ x.n.n.n.n.n.n.x.( ( ( ( ( ( ;.n.n.n.n.n.n.n.n.n.$.( L + + + + + + + m.",
"m.m.m.m.m.m.m.m.+ + + + N ( ( ( ;.n.n.n.n.n.n.n.u.( ( ( ( ( ( [ x.n.n.n.n.n.n.n.n.$.( H + + + + + + + m.",
"m.m.m.m.m.m.m.m.+ + + + 1 ( ( ( 7.n.n.n.n.n.n.n.u.( ( ( ( ( ( ( 7.n.n.n.n.c.v.n.n.o.( y + + + + + + + m.",
"m.m.m.m.m.m.m.m.+ + + + 0 ( ( W u.n.n.n.n.n.n.n.u.( ( ( ( ( ( ( | n.n.n.n.a.n.n.n.( ( l + + + + + + + m.",
"m.m.m.m.m.m.m.m.+ + + + p ( ( ! u.n.n.n.n.n.n.n.u.( ( ( ( ( ( ( ( h.n.n.n.c.n.n.w.( ( V + + + + + + + m.",
"m.m.m.m.m.m.m.m.m.+ + + p ( ( ( 7.n.n.n.n.n.n.n.u.( ( ( ( ( ( ( ( 9.n.n.n.n.n.n.;.( Q + + + + + + + + m.",
"m.m.m.m.m.m.m.m.m.+ + + c ( ( ( ;.n.n.n.n.n.n.n.f.( ( ( ( ( ( ( ( X.n.n.n.n.n.z.( ( r + + + + + + + + m.",
"m.m.m.m.m.m.m.m.m.+ + + m ( ( ( { n.n.n.n.n.n.n.k.( ( ( ( ( ( ( ( ( b.n.n.n.n.=.( ( o + + + + + + + + m.",
"m.m.m.m.m.m.m.m.m.m.+ + 1 ( ( ( ( t.n.n.n.n.n.n.n.( ( ( ( ( ( ( ( ( h.n.n.n.u.( ( f + + + + + + + + m.m.",
"m.m.m.m.m.m.m.m.m.m.m.+ . ( ( ( ( =.n.n.n.n.n.n.n.3.( ( ( ( ( ( ( ( u.n.n.r.( ( ( V + + + + + + + + m.m.",
"m.m.m.m.m.m.m.m.m.m.m.m.m.i ( ( ( ^ n.n.n.n.n.n.n.c.[ ( ( ( ( ( ( ( [ 4.$.( ( ( c + + + + + + + + m.m.m.",
"m.m.m.m.m.m.m.m.m.m.m.+ + j ( ( ( _ n.n.n.n.n.n.n.n.q.( ( ( ( ( ( ( ( ( ( ( ( ~ + + + + + + + + m.m.m.m.",
"m.m.m.m.m.m.m.m.m.+ + + + = ( ( ( ( x.n.n.n.n.n.n.n.n.;.( ( ( ( ( ( ( ( ( ( ~   + + + + + + + m.m.m.m.m.",
"m.m.m.m.m.m.m.m.+ + + + + + P ( ( ;.n.n.n.n.n.n.n.n.n.n.$.( ( ( ( ( ( ( ( a   + + + + + + + m.m.m.m.m.m.",
"m.m.m.m.m.m.+ + + + + + + + e ( 4.n.n.n.n.n.n.n.n.n.n.n.x.@.( ( ( ( ( ! 1 + + + + + + + m.m.m.m.m.m.m.m.",
"m.m.m.m.m.+ + + + + + + + + g &.n.n.n.n.n.n.n.n.n.n.n.n.n.x.o.( ( ( W . + + + + + + + m.m.m.m.m.m.m.m.m.",
"m.m.m.m.m.+ + + + + + + + : ) z.n.n.n.n.n.n.n.n.n.n.n.n.n.n.x.o.( ( ( t % + + + + + + m.m.m.m.m.m.m.m.m.",
"m.m.m.m.+ + + + + + + + 5 ( 1.n.n.n.n.n.n.n.n.n.n.n.n.n.n.n.n.x.o.( ( ( n + + + + + + + m.m.m.m.m.m.m.m.",
"m.m.m.+ + + + + + + + j ( ( g.n.n.n.n.n.n.n.n.n.n.n.n.n.c.n.n.n.x.o.( ( ( = + + + + + + + m.m.m.m.m.m.m.",
"m.m.m.+ + + + + + + - ( ( [ n.n.n.n.n.n.n.n.n.n.n.l.n.n.n.n.n.n.n.x.| ( ( ( @ + + + + + + + m.m.m.m.m.m.",
"m.m.+ + + + + + + # ( ( ( >.n.n.n.n.n.n.n.n.n.n.n.n.n.n.n.n.n.n.n.n.d.[ ( ( m + + + + + + + + m.m.m.m.m.",
"m.m.+ + + + + + + P ( ( ( g.n.n.n.n.n.n.n.n.n.n.n.n.n.n.n.n.v.n.n.n.n.7.( ( ( 2 + + + + + + + m.m.m.m.m.",
"m.+ + + + + + + 8 ( ( ( [ n.n.n.n.n.n.n.n.n.n.n.n.n.n.n.n.n.n.b.n.n.n.n.o.( ( U + + + + + + + + m.m.m.m.",
"m.+ + + + + + & ( ( ( ( <.n.n.n.n.n.n.n.n.n.n.n.n.n.n.n.n.n.n.n.n.n.n.n.u.( ( ( ; + + + + + + + m.m.m.m.",
"m.+ + + + + + 7 ( ( ( ( p.n.n.n.n.n.n.n.n.n.n.n.n.n.n.n.n.n.n.n.n.n.n.n.n.| ( ( J + + + + + + + m.m.m.m.",
"m.+ + + + + + f ( ( ( ( c.n.n.n.n.n.n.n.n.n.n.n.n.n.n.n.n.n.n.n.n.n.n.n.n.,.( ( ( X + + + + + + + m.m.m.",
"+ + + + + + + Q ( ( ( ( n.n.n.n.n.n.n.n.n.n.n.n.n.n.n.n.n.n.n.n.n.n.n.n.n.s.( ( ( b + + + + + + + m.m.m.",
"+ + + + + + o ( ( ( ( ( n.n.n.n.n.n.n.n.n.n.n.n.n.n.n.n.n.n.n.n.n.n.n.n.n.b.( ( ( ( + + + + + + + m.m.m.",
"+ + + + + + = ( ( ( ( ( n.n.n.n.n.n.n.n.n.n.n.n.n.n.n.n.n.n.n.n.n.n.n.n.n.n.( ( ( ( S + + + + + + m.m.m.",
"+ + + + + + 1 ( ( ( ( ( n.n.n.n.n.n.n.n.n.n.n.n.n.n.n.n.n.n.n.n.n.n.n.n.n.n.( ( ( ( A + + + + + + + m.m.",
"+ + + + + + , ( ( ( ( ( n.n.n.n.n.n.n.n.n.n.n.n.n.n.n.n.n.n.n.n.n.n.n.n.n.h.( ( ( ( 3 + + + + + + + m.m.",
"+ + + + + + 4 ( ( ( ( ( v.n.n.n.n.n.n.n.n.n.n.n.n.n.n.n.n.n.n.n.n.n.n.n.n...( ( ( ( C + + + + + + + m.m.",
"+ + + + + + C ( ( ( ( ( s.n.n.n.n.n.n.b.n.n.n.n.n.n.n.n.n.n.n.n.n.n.n.n.8.( R ( ( ( * + + + + + + + m.m.",
"+ + + + + +   ( ( ( ( ( +.c.b.n.n.n.d.#.n.n.n.n.n.n.n.n.n.n.n.n.n.n.n.0.( ( ( ( ( u + + + + + + + + m.m.",
"m.+ + + + + + e ( ( ( ( ( ( (  .%.[ ( ( 4.n.n.n.n.n.n.n.n.n.n.n.n.n.i.( ( / ( ( ( = + + + + + + + m.m.m.",
"m.+ + + + + + S ( ( ( ( ( ( ( ( ( ( ( ( ( d.n.n.n.n.n.n.n.n.n.n.n.q.( ( ( ( ( ( e + + + + + + + + m.m.m.",
"m.+ + + + + + + p ( ( ( ( ( ( ( ( Y ( ( ( | x.n.n.n.n.n.n.n.a.5.:.( ( ( ( / ( P o + + + + + + + + m.m.m.",
"m.+ + + + + + + S ( ( ( ( ( ( ( ( ( ( ( ( ( o.x.n.n.b.z.y.} ( ( ( ( ( ( / ( ( 2 + + + + + + + + m.m.m.m.",
"m.m.+ + + + + + + q ( ( ( ( ( ( ( ( ( ( ( ( (  .w.n.j.O.( ( ( ( ( ( ( ( ( ( j + + + + + + + + + m.m.m.m.",
"m.m.+ + + + + + + * I ( ( ( ( ( ( ( ( ( ( ( ( ( ( ( ( ( ( ( ( ( ( ( ( ( ( h + + + + + + + + + + m.m.m.m.",
"m.m.m.+ + + + + + + & D ( ( ( E z ( ( ( ( ( ( ( ( ( ( ( ( ( ( ( ( ( ( ( C + + + + + + + + + + m.m.m.m.m.",
"m.m.m.+ + + + + + + + $ > a c   + j ( ( ( ( ( ( ( ( ( ( ( ( ( ( ( ( d $ + + + + + + + + + + m.m.m.m.m.m.",
"m.m.m.m.+ + + + + + + + + + + + + + B K ( ( ( ( ( ( ( ( ( ( ( ( ) 5 + + + + + + + + + + + m.m.m.m.m.m.m.",
"m.m.m.m.m.+ + + + + + + + + + + + + + + 1 G ( ( ( ( ( ( ( ( T w   + + + + + + + + + + + m.m.m.m.m.m.m.m.",
"m.m.m.m.m.m.+ + + + + + + + + + + + + + + + o = v x k j j = + + + + + + + + + + + + + m.m.m.m.m.m.m.m.m.",
"m.m.m.m.m.m.m.m.+ + + + + + + + + + + + + + + + + + + + + + + + + + + + + + + + + + m.m.m.m.m.m.m.m.m.m.",
"m.m.m.m.m.m.m.m.m.+ + + + + + + + + + + + + + + + + + + + + + + + + + + + + + + + m.m.m.m.m.m.m.m.m.m.m.",
"m.m.m.m.m.m.m.m.m.m.m.m.m.+ + + + m.m.m.m.m.+ + + + + + + + + + + + + + + + + + m.m.m.m.m.m.m.m.m.m.m.m.",
"m.m.m.m.m.m.m.m.m.m.m.m.m.m.m.m.m.m.m.m.m.m.m.m.m.+ + + + + + + + + + + + m.m.m.m.m.m.m.m.m.m.m.m.m.m.m."
};
