/* XPM */
static xpm_row_t const INCREASE0_[] = {
/* columns rows colors chars-per-pixel */
"43 77 2 1 ",
"  c #009540",
". c None",
/* pixels */
"..........                       ..........",
"......                               ......",
"....   .............................  .....",
"...  ................................. ....",
"..  ................................... ...",
".. ..................................... ..",
". ......................................  .",
". ....................................... .",
". ....................................... .",
"  ....................................... .",
"  ....................................... .",
"  ....................................... .",
"  ....................................... .",
"  ....................................... .",
"  ..................   .................. .",
"  ................     .................. .",
"  ................      ................. .",
"  ...............       ................. .",
"  ..............         ................ .",
"  .............           ............... .",
"  .............   .   .    .............. .",
"  ............   ..   .    .............. .",
"  .................   ..   .............. .",
"  .................   ................... .",
"  .................   ................... .",
"  .................   ................... .",
"  .................   ................... .",
"  .................   ................... .",
"  .................   ................... .",
"  .................   ................... .",
"  .................   ................... .",
"  .................   ................... .",
"  .................   ................... .",
"  .................   ................... .",
"  ................. ..................... .",
"  ....................................... .",
"  ....................................... .",
"  ....................................... .",
"  .................   ................... .",
"  ................    ................... .",
"  ................    ................... .",
"  ................    ................... .",
"  ................    ................... .",
"  ................    ................... .",
"  ................    ................... .",
"  ................    ................... .",
"  ................    ................... .",
"  ................    ................... .",
"  ................    ................... .",
"  ................    ................... .",
"  ............. ..    ..   .............. .",
"  ............   .    .   ............... .",
"  ............        .   ............... .",
"  .............          ................ .",
"  ..............        ................. .",
"  ...............      .................. .",
"  ...............      .................. .",
"  ................    ................... .",
"  .................   ................... .",
"  ....................................... .",
"  ....................................... .",
"  ....................................... .",
"  ....................................... .",
"  ....................................... .",
"  ....................................... .",
"  ....................................... .",
"  ....................................... .",
"  ....................................... .",
"  ....................................... .",
". ....................................... .",
". ......................................  .",
".. ..................................... ..",
"..  ...................................  ..",
"...  .................................  ...",
"....  ...............................  ....",
".....    ........................    ......",
"........                           ........"
};
