/* XPM */
static xpm_row_t const INCREASE2_[] = {
/* columns rows colors chars-per-pixel */
"42 77 2 1 ",
"  c #009540",
". c None",
/* pixels */
"..........                       .........",
"......                              ......",
"....  ..............................  ....",
"...  ................................  ...",
".. .................................... ..",
".  ....................................  .",
". ...................................... .",
". ......................................  ",
" ........................................ ",
" ..................   ................... ",
" .................     .................. ",
" .................      ................. ",
" ................       ................. ",
" ...............         ................ ",
" ..............           ............... ",
" .............   .        ............... ",
" .............   .    .    .............. ",
" .................    ..   .............. ",
" .................    ................... ",
" .................    ................... ",
" .................    ................... ",
" .................    ................... ",
" .................    ................... ",
" .................    ................... ",
" .................    ................... ",
" .................    ................... ",
" .................    ................... ",
" .................    ................... ",
" .................    ................... ",
" ........................................ ",
" ........................................ ",
" ........................................ ",
" ........................................ ",
" ........................................ ",
" ........................................ ",
" ........................................ ",
" ........................................ ",
" ........................................ ",
" ........................................ ",
" ........................................ ",
" ........................................ ",
" ........................................ ",
" ........................................ ",
" ........................................ ",
" ........................................ ",
" ..................  .................... ",
" .................   .................... ",
" .................   .................... ",
" .................   .................... ",
" .................   .................... ",
" .................   .................... ",
" .................   .................... ",
" .................   .................... ",
" .................   .................... ",
" .................   .................... ",
" .................   .................... ",
" .................   ..... .............. ",
" .............       ...   .............. ",
" ............    .   ..   ............... ",
" .............       .   ................ ",
" ..............         ................. ",
" ...............        ................. ",
" ...............       .................. ",
" ................     ................... ",
" .................    ................... ",
" ........................................ ",
" ........................................ ",
" ........................................ ",
" ........................................ ",
"  ......................................  ",
". ...................................... .",
".  ..................................... .",
".. .................................... ..",
"... .................................. ...",
"....  ..............................  ....",
".....    ........................    .....",
"........                          ........"
};
