/* XPM */
static xpm_row_t const button_endless_hover[] = {
/* columns rows colors chars-per-pixel */
"240 59 17 1 ",
"  c #1D1D1B",
". c #1F2628",
"X c #203035",
"o c #223942",
"O c #234250",
"+ c #254B5D",
"@ c #27556A",
"# c #285E77",
"$ c #2A6784",
"% c #2B7091",
"& c #2D7A9E",
"* c #2F83AB",
"= c #308CB9",
"- c #3295C6",
"; c #339FD3",
": c #35A8E0",
"> c None",
/* pixels */
">>>>>>>>>>>>>>>>>>>>>>>>                                                                                                                                                                                                >>>>>>>>>>>>>>>>>>>>>>>>",
">>>>>>>>>>>>>>>>>>>>                                                                                                                                                                                                        >>>>>>>>>>>>>>>>>>>>",
">>>>>>>>>>>>>>>>>>                                                                                                                                                                                                            >>>>>>>>>>>>>>>>>>",
">>>>>>>>>>>>>>>>                                                                                                                                                                                                                >>>>>>>>>>>>>>>>",
">>>>>>>>>>>>>>                                                                                                                                                                                                                    >>>>>>>>>>>>>>",
">>>>>>>>>>>>                                                                                                                                                                                                                        >>>>>>>>>>>>",
">>>>>>>>>>>                                                                                                                                                                                                                          >>>>>>>>>>>",
">>>>>>>>>>                                                                                                                                                                                                                            >>>>>>>>>>",
">>>>>>>>>                                                                                                                                                                                                                              >>>>>>>>>",
">>>>>>>>                                                                                                                                                                                                                                >>>>>>>>",
">>>>>>>                                                                                                                                                                                                                                  >>>>>>>",
">>>>>>                                                                                                                                                                                                                                    >>>>>>",
">>>>>                                                                                                                                                                                                                                      >>>>>",
">>>>>                    @::::::::::::::::::#        O:::::X         o-:#         %:::::::::=@                 $:=X                       @::::::::::::::::::#           o&::::::::::::=+            o&::::::::::::=+                      >>>>>",
">>>>                     @:::::::::::::::::::.       O:::::$         &:::.       +::::::::::::*               o:::$                       @:::::::::::::::::::.         o;:::::::::::::::$          o;:::::::::::::::$                      >>>>",
">>>>                     @:::::::::::::::::::o       O:::::;.        *:::O       o:::::::::::::&              O:::%                       @:::::::::::::::::::o         -:::::::::::::::::#         -:::::::::::::::::#                     >>>>",
">>>                      @::::::::::::::::::#        O::::::#        *:::O        %:::::::::::::O             O:::%                       @::::::::::::::::::#         o::::::::::::::::::;        o::::::::::::::::::;                      >>>",
">>>                      @:::%                       O::::::-        *:::O           @:::# .*:::*             O:::%                       @:::%                        O:::%          X-:::o       O:::%          X-:::o                     >>>",
">>                       @:::%                       O:::::::O       *:::O           @:::#  X::::O            O:::%                       @:::%                        o::::o          #:::o       o::::o          #:::o                      >>",
">>                       @:::%                       O:::::::*       *:::O           @:::#   %:::*            O:::%                       @:::%                         -:::-.         X-:$         -:::-.         X-:$                       >>",
">                        @:::%                       O:::*::::X      *:::O           @:::#   X::::X           O:::%                       @:::%                         o::::&                      o::::&                                     >",
">                        @:::%                       O:::%*:::$      *:::O           @:::#    %:::%           O:::%                       @:::%                          #::::#                      #::::#                                    >",
">                        @:::%                       O:::%O:::;.     *:::O           @:::#    X::::X          O:::%                       @:::%                           &::::+                      &::::+                                   >",
">                        @:::%                       O:::% -:::#     *:::O           @:::#     %:::%          O:::%                       @:::%                           .-:::;X                     .-:::;X                                  >",
"                         @:::%                       O:::% #:::-     *:::O           @:::#     O::::X         O:::%                       @:::%                            X;:::=                      X;:::=                                   ",
"                         @:::%                       O:::% .;:::O    *:::O           @:::#      *:::#         O:::%                       @:::%                             +::::$                      +::::$                                  ",
"                         @::::::::::&                O:::%  $:::*    *:::O           @:::#      O:::=         O:::%                       @::::::::::&                       $::::+                      $::::+                                 ",
"                         @:::::::::::@               O:::%  X::::X   *:::O           @:::#       ;:::.        O:::%                       @:::::::::::@                       =::::o                      =::::o                                ",
"                         @:::::::::::+               O:::%   *:::%   *:::O           @:::#       -:::X        O:::%                       @:::::::::::+                       X;:::-.                     X;:::-.                               ",
"                         @::::::::::*                O:::%   O:::;.  *:::O           @:::#       =:::X        O:::%                       @::::::::::*                         o::::&                      o::::&                               ",
"                         @:::%                       O:::%    -:::#  *:::O           @:::#      .:::;         O:::%                       @:::%                                 #::::#                      #::::#                              ",
"                         @:::%                       O:::%    @:::-  *:::O           @:::#      #:::&         O:::%                       @:::%                                  &::::o                      &::::o                             ",
"                         @:::%                       O:::%    .;:::+ *:::O           @:::#     .;:::O         O:::%                       @:::%                                  .-:::-X                     .-:::-X                            ",
"                         @:::%                       O:::%     $:::* *:::O           @:::#     #:::*          O:::%                       @:::%                                   o::::=                      o::::=                            ",
">                        @:::%                       O:::%     X::::X*:::O           @:::#    X;:::O          O:::%                       @:::%                                    @::::$                      @::::$                          >",
">                        @:::%                       O:::%      &:::%*:::O           @:::#    %:::*           O:::%                       @:::%                                     $::::+                      $::::+                         >",
">                        @:::%                       O:::%      O:::;=:::O           @:::#   X::::O           O:::%                       @:::%                                      =:::;X                      =:::;X                        >",
">                        @:::%                       O:::%       -:::::::O           @:::#   %:::*            O:::%                       @:::%                         &:-X         X;:::*         &:-X         X;:::*                        >",
">>                       @:::%                       O:::%       @:::::::O           @:::#  X::::O            O:::%                       @:::%                        O:::$          +::::.       O:::$          +::::.                      >>",
">>                       @:::%                       O:::%       .;::::::O           @:::# .*:::*             O:::%                       @:::%                        O:::-X          *:::O       O:::-X          *:::O                      >>",
">>                       @::::::::::::::::::#        O:::%        $::::::O        %:::::::::::::O             O::::::::::::::::::#        @::::::::::::::::::#         .:::::::::::::::::::X       .:::::::::::::::::::X                      >>",
">>>                      @:::::::::::::::::::o       O:::%        X::::::O       o:::::::::::::%              O:::::::::::::::::::o       @:::::::::::::::::::o         $:::::::::::::::::*         $:::::::::::::::::*                      >>>",
">>>                      @:::::::::::::::::::o       o:::$         &:::::O       +::::::::::::*               O:::::::::::::::::::o       @:::::::::::::::::::o          *:::::::::::::::;o          *:::::::::::::::;o                      >>>",
">>>>                     @::::::::::::::::::#         $:=X         O:::::O        %:::::::::=@                O::::::::::::::::::#        @::::::::::::::::::#            #-::::::::::::*o            #-::::::::::::*o                      >>>>",
">>>>                                                                                                                                                                                                                                        >>>>",
">>>>>                                                                                                                                                                                                                                      >>>>>",
">>>>>>                                                                                                                                                                                                                                    >>>>>>",
">>>>>>>                                                                                                                                                                                                                                  >>>>>>>",
">>>>>>>                                                                                                                                                                                                                                  >>>>>>>",
">>>>>>>>                                                                                                                                                                                                                                >>>>>>>>",
">>>>>>>>>                                                                                                                                                                                                                              >>>>>>>>>",
">>>>>>>>>>                                                                                                                                                                                                                            >>>>>>>>>>",
">>>>>>>>>>>>                                                                                                                                                                                                                        >>>>>>>>>>>>",
">>>>>>>>>>>>>                                                                                                                                                                                                                      >>>>>>>>>>>>>",
">>>>>>>>>>>>>>>                                                                                                                                                                                                                  >>>>>>>>>>>>>>>",
">>>>>>>>>>>>>>>>                                                                                                                                                                                                                >>>>>>>>>>>>>>>>",
">>>>>>>>>>>>>>>>>>>                                                                                                                                                                                                          >>>>>>>>>>>>>>>>>>>",
">>>>>>>>>>>>>>>>>>>>>>                                                                                                                                                                                                    >>>>>>>>>>>>>>>>>>>>>>",
">>>>>>>>>>>>>>>>>>>>>>>>>>>>>>>>>>>>>>>>>>>>>>>>>>>>>>>>>>>>>>>>>>>>>>>>>>>>>>>>>>>>>>>>>>>>>>>>>>>>>>>>>>>>>>>>>>>>>>>>>>>>>>>>>>>>>>>>>>>>>>>>>>>>>>>>>>>>>>>>>>>>>>>>>>>>>>>>>>>>>>>>>>>>>>>>>>>>>>>>>>>>>>>>>>>>>>>>>>>>>>>>>>>>>>>>>>>>>>>>"
};
