/* XPM */
static xpm_row_t const button_exit_hover[] = {
/* columns rows colors chars-per-pixel */
"156 44 18 1 ",
"  c #1D1D1B",
". c #1B221D",
"X c #19261E",
"o c #162F21",
"O c #182B20",
"+ c #143423",
"@ c #123824",
"# c #103D26",
"$ c #0E4227",
"% c #0D4629",
"& c #0B4B2A",
"* c #094F2C",
"= c #07542D",
"- c #05592F",
"; c #045D30",
": c #026232",
"> c #006633",
", c None",
/* pixels */
",,,,,,,,,,,,,,,,,,,,,,,,,,,,,,,,,,,,,,,,,,,,,,,,,,,,,,,,,,,,,,,,,,,,,,,,,,,,,,,,,,,,,,,,,,,,,,,,,,,,,,,,,,,,,,,,,,,,,,,,,,,,,,,,,,,,,,,,,,,,,,,,,,,,,,,,,,,,",
",,,,,,,,,,,,,,,,                                                                                                                            ,,,,,,,,,,,,,,,,",
",,,,,,,,,,,,,                                                                                                                                  ,,,,,,,,,,,,,",
",,,,,,,,,,,                                                                                                                                      ,,,,,,,,,,,",
",,,,,,,,,,                                                                                                                                        ,,,,,,,,,,",
",,,,,,,,                                                                                                                                            ,,,,,,,,",
",,,,,,,                 Xoooooooooooooooooo            O.              OX           ooooooooooooooooo          XoooooooooooooooooooX                 ,,,,,,,",
",,,,,,                  $>>>>>>>>>>>>>>>>>>:X         &>:#            &>>#        X:>>>>>>>>>>>>>>>>>;.        $>>>>>>>>>>>>>>>>>>>$                  ,,,,,,",
",,,,,                   $>>>>>>>>>>>>>>>>>>>#        X>>>>o          $>>>:        #>>>>>>>>>>>>>>>>>>>#        $>>>>>>>>>>>>>>>>>>>$                   ,,,,,",
",,,,,                   $>>>>>>>>>>>>>>>>>>>@         :>>>-         X:>>>-        @>>>>>>>>>>>>>>>>>>>+        $>>>>>>>>>>>>>>>>>>>$                   ,,,,,",
",,,,                    $>>>>>>>>>>>>>>>>>:%          %>>>>@        &>>>>@         %:>>>>>>>>>>>>>>>:$         $>>>>>>>>>>>>>>>>>>>$                    ,,,,",
",,,                     $>>>=                         .:>>>:.      o>>>>=                 $>>>$                $>>>$   =>>>$   =>>>$                     ,,,",
",,,                     $>>>=                          @>>>>%      ->>>>O                 $>>>$                #>>>#   =>>>$   &>>>#                     ,,,",
",,                      $>>>=                           ->>>>O    #>>>>%                  $>>>$                X;>;X   =>>>$   O:>;.                      ,,",
",,                      $>>>=                           o>>>>=   .:>>>:.                  $>>>$                  o     =>>>$    .o                        ,,",
",,                      $>>>=                            &>>>>@  %>>>>#                   $>>>$                        =>>>$                              ,,",
",                       $>>>=                            X:>>>:.O>>>>-                    $>>>$                        =>>>$                               ,",
",                       $>>>=                             $>>>>%=>>>>o                    $>>>$                        =>>>$                               ,",
",                       $>>>=                              ;>>>>>>>>&                     $>>>$                        =>>>$                               ,",
",                       $>>>=                              +>>>>>>>:X                     $>>>$                        =>>>$                               ,",
"                        $>>>:======@                        =>>>>>>$                      $>>>$                        =>>>$                                ",
"                        $>>>>>>>>>>>@                       X>>>>>;                       $>>>$                        =>>>$                                ",
"                        $>>>>>>>>>>>%                        ->>>>$                       $>>>$                        =>>>$                                ",
"                        $>>>>>>>>>>>O                       o>>>>>:.                      $>>>$                        =>>>$                                ",
"                        $>>>;$$$$$$X                        ;>>>>>>%                      $>>>$                        =>>>$                                ",
",                       $>>>=                              $>>>>>>>>O                     $>>>$                        =>>>$                               ,",
",                       $>>>=                             X:>>>:>>>>=                     $>>>$                        =>>>$                               ,",
",                       $>>>=                             &>>>>@&>>>>+                    $>>>$                        =>>>$                               ,",
",                       $>>>=                            o>>>>= X:>>>;.                   $>>>$                        =>>>$                               ,",
",,                      $>>>=                            ->>>>O  $>>>>$                   $>>>$                        =>>>$                              ,,",
",,                      $>>>=                           #>>>>&    ;>>>:X                  $>>>$                        =>>>$                              ,,",
",,                      $>>>=                          .:>>>:.    +>>>>*                  $>>>$                        =>>>$                              ,,",
",,,                     $>>>=                          %>>>>#      =>>>>o                 $>>>$                        =>>>$                             ,,,",
",,,                     $>>>=                         O>>>>-       X>>>>-                 $>>>$                        =>>>$                             ,,,",
",,,,                    $>>>>>>>>>>>>>>>>>>=.         =>>>>o        %>>>>#        .=>>>>>>>>>>>>>>>>>=.                =>>>$                            ,,,,",
",,,,,                   $>>>>>>>>>>>>>>>>>>>#        X>>>>*         .:>>>-        #>>>>>>>>>>>>>>>>>>>@                =>>>$                           ,,,,,",
",,,,,,                  $>>>>>>>>>>>>>>>>>>>#        X>>>:X          @>>>=        #>>>>>>>>>>>>>>>>>>>@                $>>>@                          ,,,,,,",
",,,,,,,                 $>>>>>>>>>>>>>>>>>>*.         #:-o            #:;o        .*>>>>>>>>>>>>>>>>>*                 X=>*.                         ,,,,,,,",
",,,,,,,,                                                                                                                                            ,,,,,,,,",
",,,,,,,,,                                                                                                                                          ,,,,,,,,,",
",,,,,,,,,,                                                                                                                                        ,,,,,,,,,,",
",,,,,,,,,,,,                                                                                                                                    ,,,,,,,,,,,,",
",,,,,,,,,,,,,,                                                                                                                                ,,,,,,,,,,,,,,",
",,,,,,,,,,,,,,,,,                                                                                                                          ,,,,,,,,,,,,,,,,,"
};
