/* XPM */
static xpm_row_t const button_help_hover[] = {
/* columns rows colors chars-per-pixel */
"156 44 18 1 ",
"  c #1D1D1B",
". c #24271B",
"X c #2C311C",
"o c #333C1C",
"O c #3B461C",
"+ c #42501C",
"@ c #495A1D",
"# c #51651D",
"$ c #586F1D",
"% c #60791D",
"& c #67831E",
"* c #6E8E1E",
"= c #76981E",
"- c #7DA21E",
"; c #85AC1F",
": c #8CB61F",
"> c #93C01F",
", c None",
/* pixels */
",,,,,,,,,,,,,,,,,,                                                                                                                        ,,,,,,,,,,,,,,,,,,",
",,,,,,,,,,,,,,,                                                                                                                              ,,,,,,,,,,,,,,,",
",,,,,,,,,,,,                                                                                                                                    ,,,,,,,,,,,,",
",,,,,,,,,,,                                                                                                                                      ,,,,,,,,,,,",
",,,,,,,,,                                                                                                                                          ,,,,,,,,,",
",,,,,,,,                                                                                                                                            ,,,,,,,,",
",,,,,,,                  @&@             @*+         @=================*@          +*@                         @==============*#.                    ,,,,,,,",
",,,,,,                  +>>>O           @>>>o        $>>>>>>>>>>>>>>>>>>>O        o>>>@                        $>>>>>>>>>>>>>>>>:+                    ,,,,,,",
",,,,,                   $>>>$           *>>>$        $>>>>>>>>>>>>>>>>>>>$        $>>>*                        $>>>>>>>>>>>>>>>>>>O                    ,,,,,",
",,,,                    $>>>$           =>>>$        $>>>>>>>>>>>>>>>>>>>o        $>>>=                        $>>>>>>>>>>>>>>>>>>;                     ,,,,",
",,,,                    $>>>$           =>>>$        $>>>;$$$$$$$$$$$$$$X         $>>>=                        $>>>;$$$$$$$$$%:>>>>@                    ,,,,",
",,,                     $>>>$           =>>>$        $>>>=                        $>>>=                        $>>>=          .:>>>$                     ,,,",
",,,                     $>>>$           =>>>$        $>>>=                        $>>>=                        $>>>=           &>>>$                     ,,,",
",,                      $>>>$           =>>>$        $>>>=                        $>>>=                        $>>>=           $>>>$                      ,,",
",,                      $>>>$           =>>>$        $>>>=                        $>>>=                        $>>>=           $>>>$                      ,,",
",                       $>>>$           =>>>$        $>>>=                        $>>>=                        $>>>=           $>>>$                       ,",
",                       $>>>$           =>>>$        $>>>=                        $>>>=                        $>>>=           $>>>$                       ,",
",                       $>>>$           =>>>$        $>>>=                        $>>>=                        $>>>=           $>>>$                       ,",
",                       $>>>$           =>>>$        $>>>=                        $>>>=                        $>>>=           $>>>$                       ,",
",                       $>>>&OOOOOOOOOOO->>>$        $>>>-OOOOOo                  $>>>=                        $>>>=           %>>>$                       ,",
"                        $>>>>>>>>>>>>>>>>>>>$        $>>>>>>>>>>-X                $>>>=                        $>>>=           :>>>$                        ",
"                        $>>>>>>>>>>>>>>>>>>>$        $>>>>>>>>>>>$                $>>>=                        $>>>;$$$$$$$$$$;>>>>@                        ",
"                        $>>>>>>>>>>>>>>>>>>>$        $>>>>>>>>>>>#                $>>>=                        $>>>>>>>>>>>>>>>>>>:.                        ",
"                        $>>>>>>>>>>>>>>>>>>>$        $>>>>>>>>>>=.                $>>>=                        $>>>>>>>>>>>>>>>>>>@                         ",
",                       $>>>=           =>>>$        $>>>=                        $>>>=                        $>>>>>>>>>>>>>>>>:@                         ,",
",                       $>>>=           =>>>$        $>>>=                        $>>>=                        $>>>:===========$X                          ,",
",                       $>>>=           =>>>$        $>>>=                        $>>>=                        $>>>=                                       ,",
",                       $>>>=           =>>>$        $>>>=                        $>>>=                        $>>>=                                       ,",
",                       $>>>=           =>>>$        $>>>=                        $>>>=                        $>>>=                                       ,",
",,                      $>>>=           =>>>$        $>>>=                        $>>>=                        $>>>=                                      ,,",
",,                      $>>>=           =>>>$        $>>>=                        $>>>=                        $>>>=                                      ,,",
",,,                     $>>>=           =>>>$        $>>>=                        $>>>=                        $>>>=                                     ,,,",
",,,                     $>>>=           =>>>$        $>>>=                        $>>>=                        $>>>=                                     ,,,",
",,,,                    $>>>=           =>>>$        $>>>;$$$$$$$$$$$$$$X         $>>>;$$$$$$$$$$$$$$X         $>>>=                                    ,,,,",
",,,,                    $>>>=           =>>>$        $>>>>>>>>>>>>>>>>>>>o        $>>>>>>>>>>>>>>>>>>>o        $>>>=                                    ,,,,",
",,,,,                   $>>>*           *>>>$        $>>>>>>>>>>>>>>>>>>>$        $>>>>>>>>>>>>>>>>>>>$        $>>>=                                   ,,,,,",
",,,,,,                  O>>>+           @>>>o        $>>>>>>>>>>>>>>>>>>>O        $>>>>>>>>>>>>>>>>>>>O        o>>>@                                  ,,,,,,",
",,,,,,,                  @&+             @&O         @=================*+         @=================*+          +*@                                  ,,,,,,,",
",,,,,,,,                                                                                                                                            ,,,,,,,,",
",,,,,,,,,                                                                                                                                          ,,,,,,,,,",
",,,,,,,,,,,                                                                                                                                      ,,,,,,,,,,,",
",,,,,,,,,,,,                                                                                                                                    ,,,,,,,,,,,,",
",,,,,,,,,,,,,,,                                                                                                                              ,,,,,,,,,,,,,,,",
",,,,,,,,,,,,,,,,,,,                                                                                                                      ,,,,,,,,,,,,,,,,,,,"
};
