/* XPM */
static xpm_row_t const button_resume_hover[] = {
/* columns rows colors chars-per-pixel */
"245 68 17 1 ",
"  c #1D1D1B",
". c #1B2623",
"X c #192E2C",
"o c #173734",
"O c #15403D",
"+ c #134945",
"@ c #11514D",
"# c #0F5A56",
"$ c #0E635E",
"% c #0C6C67",
"& c #0A746F",
"* c #087D77",
"= c #068680",
"- c #048F88",
"; c #029791",
": c #00A099",
"> c None",
/* pixels */
">>>>>>>>>>>>>>>>>>>>>>>>>>>>>>                                                                                                                                                                                          >>>>>>>>>>>>>>>>>>>>>>>>>>>>>",
">>>>>>>>>>>>>>>>>>>>>>>>>                                                                                                                                                                                                   >>>>>>>>>>>>>>>>>>>>>>>>>",
">>>>>>>>>>>>>>>>>>>>>>                                                                                                                                                                                                         >>>>>>>>>>>>>>>>>>>>>>",
">>>>>>>>>>>>>>>>>>>>                                                                                                                                                                                                              >>>>>>>>>>>>>>>>>>>",
">>>>>>>>>>>>>>>>>>                                                                                                                                                                                                                  >>>>>>>>>>>>>>>>>",
">>>>>>>>>>>>>>>>                                                                                                                                                                                                                     >>>>>>>>>>>>>>>>",
">>>>>>>>>>>>>>>                                                                                                                                                                                                                        >>>>>>>>>>>>>>",
">>>>>>>>>>>>>                                                                                                                                                                                                                           >>>>>>>>>>>>>",
">>>>>>>>>>>>                                                                                                                                                                                                                             >>>>>>>>>>>>",
">>>>>>>>>>>                                                                                                                                                                                                                               >>>>>>>>>>>",
">>>>>>>>>>                                                                                                                                                                                                                                 >>>>>>>>>>",
">>>>>>>>>                                                                                                                                                                                                                                   >>>>>>>>>",
">>>>>>>>          -::::::::::::::::::*@               :::::::::::::::::::::::*.             .$::::::::::::::::$X              X=:*X               o-:*.          X::::::$           &:::::-            :::::::::::::::::::::::*.             >>>>>>>>",
">>>>>>>           -::::::::::::::::::::=X             ::::::::::::::::::::::::%            o;:::::::::::::::::::+             *:::*               -:::%          X:::::::o         #::::::-            ::::::::::::::::::::::::%              >>>>>>>",
">>>>>>>           -:::::::::::::::::::::-X            ::::::::::::::::::::::::-           .;:::::::::::::::::::::#            :::::              X::::-          X:::::::-.       X;::::::-            ::::::::::::::::::::::::-               >>>>>>",
">>>>>>            -::::::::::::::::::::::*            ::::::::::::::::::::::::%           $:::::::::::::::::::::::X           :::::              X::::-          X::::::::$       =:::::::-            ::::::::::::::::::::::::%               >>>>>>",
">>>>>             -:::::::::::::::::::::::+           :::::::::::::::::::::::*.           -:::::::::::::::::::::::$           :::::              X::::-          X:::::::::O     #::::::::-            :::::::::::::::::::::::*.                >>>>>",
">>>>>             -::::X            o-::::&           :::::                               :::::.             %::::=           :::::              X::::-          X:::::::::-.   o:::::::::-            :::::                                     >>>>",
">>>>              -::::X             O::::-           :::::                               ;::::#             .;:::;           :::::              X::::-          X::::::::::%   =:::::::::-            :::::                                     >>>>",
">>>>              -::::X             X::::;           :::::                               &:::::+             %:::*           :::::              X::::-          X::::-&:::::+ $:::::%::::-            :::::                                      >>>",
">>>               -::::X             X:::::           :::::                               o:::::;X            X-:=X           :::::              X::::-          X::::-X;::::;+:::::=X::::-            :::::                                      >>>",
">>>               -::::X             X:::::           :::::                                $:::::=                            :::::              X::::-          X::::- +:::::::::::XX::::-            :::::                                      >>>",
">>                -::::X             X::::;           :::::                                 &:::::$                           :::::              X::::-          X::::-  &:::::::::# X::::-            :::::                                       >>",
">>                -::::X             O::::-           :::::                                 .-:::::#                          :::::              X::::-          X::::-  .-:::::::*  X::::-            :::::                                       >>",
">>                -::::X            o-::::&           :::::                                  o::::::o                         :::::              X::::-          X::::-   +::::::;X  X::::-            :::::                                        >",
">                 -:::::::::::::::::::::::+           :::::                                   #:::::-.                        :::::              X::::-          X::::-    $:::::@   X::::-            :::::                                        >",
">                 -::::::::::::::::::::::=            :::::                                    $:::::&                        :::::              X::::-          X::::-    X::::-    X::::-            :::::                                        >",
">                 -:::::::::::::::::::::-X            :::::                                     =:::::#                       :::::              X::::-          X::::-    X::::-    X::::-            :::::                                        >",
">                 -::::::::::::::::::::=X             :::::                                     X;:::::+                      :::::              X::::-          X::::-     -:::*    X::::-            :::::                                        >",
">                 -::::::::::::::::::*@               :::::::::::::=X                            +:::::;X                     :::::              X::::-          X::::-     o-:*X    X::::-            :::::::::::::=X                               ",
"                  -::::X  X;::::%                     ::::::::::::::*                             #:::::=                     :::::              X::::-          X::::-              X::::-            ::::::::::::::*                               ",
"                  -::::X   #:::::O                    :::::::::::::::                              &:::::%                    :::::              X::::-          X::::-              X::::-            :::::::::::::::                               ",
"                  -::::X    -::::-                    ::::::::::::::*                              .-:::::#                   :::::              X::::-          X::::-              X::::-            ::::::::::::::*                               ",
"                  -::::X    +:::::#                   :::::::::::::=X                               o::::::o                  :::::              X::::-          X::::-              X::::-            :::::::::::::=X                               ",
"                  -::::X     *::::;.                  :::::                                          +:::::-.                 :::::              X::::-          X::::-              X::::-            :::::                                         ",
"                  -::::X     X:::::%                  :::::                                           $:::::*                 :::::              X::::-          X::::-              X::::-            :::::                                         ",
"                  -::::X      $:::::o                 :::::                                            =:::::$                :::::              X::::-          X::::-              X::::-            :::::                                         ",
"                  -::::X      .-::::=                 :::::                                            X;:::::+               :::::              X::::-          X::::-              X::::-            :::::                                         ",
">                 -::::X       @:::::@                :::::                                             O:::::;X              :::::              X::::-          X::::-              X::::-            :::::                                         ",
">                 -::::X        *::::;.               :::::                                              #:::::=.             :::::              X::::-          X::::-              X::::-            :::::                                         ",
">                 -::::X        o:::::$               :::::                                               &:::::&             :::::              X::::-          X::::-              X::::-            :::::                                        >",
">                 -::::X         %:::::o              :::::                                               .-:::::#            :::::              X::::-          X::::-              X::::-            :::::                                        >",
">                 -::::X         .;::::*              :::::                               o-:=o            o;:::::X           :::::              X::::-          X::::-              X::::-            :::::                                        >",
">>                -::::X          @:::::@             :::::                               =:::=             +:::::%           :::::              X::::-          X::::-              X::::-            :::::                                        >",
">>                -::::X           =::::-.            :::::                               :::::              $::::-           :::::X             +::::=          X::::-              X::::-            :::::                                       >>",
">>                -::::X           O:::::$            :::::                               ;::::$             X::::;           =::::=o           O-::::%          X::::-              X::::-            :::::                                       >>",
">>>               -::::X            %:::::X           :::::::::::::::::::::::*.           &:::::::::::::::::::::::=           #:::::::::::::::::::::::O          X::::-              X::::-            :::::::::::::::::::::::*.                   >>",
">>>               -::::X            X;::::&           ::::::::::::::::::::::::&           O:::::::::::::::::::::::#           .-:::::::::::::::::::::*           X::::-              X::::-            ::::::::::::::::::::::::&                  >>>",
">>>>              -::::X             #::::;           ::::::::::::::::::::::::-            #:::::::::::::::::::::;.            o;:::::::::::::::::::-.           X::::-              X::::-            ::::::::::::::::::::::::-                  >>>",
">>>>              &:::-               -:::*           ::::::::::::::::::::::::%             $:::::::::::::::::::;o              o-:::::::::::::::::*X             -:::*               ;:::%            ::::::::::::::::::::::::%                 >>>>",
">>>>>             X*:-o               o=:*X           :::::::::::::::::::::::*.              O%::::::::::::::::%X                 #=:::::::::::::&@               o-:*X               o-:&.            :::::::::::::::::::::::*.                 >>>>",
">>>>>                                                                                                                                                                                                                                           >>>>>",
">>>>>>                                                                                                                                                                                                                                          >>>>>",
">>>>>>                                                                                                                                                                                                                                         >>>>>>",
">>>>>>>                                                                                                                                                                                                                                       >>>>>>>",
">>>>>>>>                                                                                                                                                                                                                                     >>>>>>>>",
">>>>>>>>>                                                                                                                                                                                                                                   >>>>>>>>>",
">>>>>>>>>>                                                                                                                                                                                                                                  >>>>>>>>>",
">>>>>>>>>>>                                                                                                                                                                                                                                >>>>>>>>>>",
">>>>>>>>>>>>                                                                                                                                                                                                                             >>>>>>>>>>>>",
">>>>>>>>>>>>>                                                                                                                                                                                                                           >>>>>>>>>>>>>",
">>>>>>>>>>>>>>                                                                                                                                                                                                                         >>>>>>>>>>>>>>",
">>>>>>>>>>>>>>>>                                                                                                                                                                                                                      >>>>>>>>>>>>>>>",
">>>>>>>>>>>>>>>>>                                                                                                                                                                                                                   >>>>>>>>>>>>>>>>>",
">>>>>>>>>>>>>>>>>>>                                                                                                                                                                                                               >>>>>>>>>>>>>>>>>>>",
">>>>>>>>>>>>>>>>>>>>>                                                                                                                                                                                                           >>>>>>>>>>>>>>>>>>>>>",
">>>>>>>>>>>>>>>>>>>>>>>>                                                                                                                                                                                                     >>>>>>>>>>>>>>>>>>>>>>>>",
">>>>>>>>>>>>>>>>>>>>>>>>>>>>                                                                                                                                                                                             >>>>>>>>>>>>>>>>>>>>>>>>>>>>"
};
