/* XPM */
static xpm_row_t const small_5[] = {
/* columns rows colors chars-per-pixel */
"9 14 2 1 ",
"  c #000000",
". c None",
/* pixels */
".........",
"..      .",
"..      .",
"..  .....",
"..  .....",
"..  .....",
"..     ..",
"..      .",
"......  .",
"......  .",
"......  .",
"        .",
"        .",
"...   ..."
};
