/* XPM */
static xpm_row_t const BIG4[] = {
/* columns rows colors chars-per-pixel */
"9 17 2 1 ",
"  c #000000",
". c None",
/* pixels */
".........",
"  .......",
"  .... ..",
"  ....  .",
"  ....  .",
"  ....  .",
"  ....  .",
"  ....  .",
"  ....  .",
"        .",
"         ",
"        .",
"......  .",
"......  .",
"......  .",
"......  .",
"...... .."
};
