/* XPM */
static xpm_row_t const SMALL5[] = {
/* columns rows colors chars-per-pixel */
"7 12 2 1 ",
"  c #000000",
". c None",
/* pixels */
"..    .",
".      ",
".  ....",
".  ....",
".  ....",
".     .",
"..     ",
".....  ",
".....  ",
"  ...  ",
".      ",
"......."
};
