/* XPM */
static xpm_row_t const SMALL8[] = {
/* columns rows colors chars-per-pixel */
"8 12 2 1 ",
"  c #000000",
". c None",
/* pixels */
"...  ...",
"..    ..",
"..    ..",
"..    ..",
"..    ..",
".      .",
".      .",
". .... .",
". .... .",
". .... .",
".      .",
"........"
};
