/* XPM */
static xpm_row_t const SMALLTRAVESSAO[] = {
/* columns rows colors chars-per-pixel */
"7 3 2 1 ",
"  c #000000",
". c None",
/* pixels */
"       ",
"       ",
"......."
};
